<?xml version="1.0" encoding="us-ascii" standalone="no"?><svg xmlns="http://www.w3.org/2000/svg" xmlns:xlink="http://www.w3.org/1999/xlink" contentStyleType="text/css" height="929px" preserveAspectRatio="none" style="width:1011px;height:929px;background:#FFFFFF;" version="1.1" viewBox="0 0 1011 929" width="1011px" zoomAndPan="magnify"><defs/><g><!--cluster STL--><g id="cluster_STL"><path d="M8.5,6 L35.5,6 A3.75,3.75 0 0 1 38,8.5 L45,28.4883 L1001.5,28.4883 A2.5,2.5 0 0 1 1004,30.9883 L1004,919.5 A2.5,2.5 0 0 1 1001.5,922 L8.5,922 A2.5,2.5 0 0 1 6,919.5 L6,8.5 A2.5,2.5 0 0 1 8.5,6 " fill="none" style="stroke:#000000;stroke-width:1.5;"/><line style="stroke:#000000;stroke-width:1.5;" x1="6" x2="45" y1="28.4883" y2="28.4883"/><text fill="#000000" font-family="sans-serif" font-size="14" font-weight="bold" lengthAdjust="spacing" textLength="26" x="10" y="21.5352">STL</text></g><!--class Cutter--><g id="elem_Cutter"><rect codeLine="9" fill="#F1F1F1" height="163.418" id="Cutter" rx="2.5" ry="2.5" style="stroke:#181818;stroke-width:0.5;" width="217" x="417.5" y="172.91"/><ellipse cx="500.25" cy="188.91" fill="#ADD1B2" rx="11" ry="11" style="stroke:#181818;stroke-width:1.0;"/><path d="M502.7231,195.0531 Q502.1421,195.3519 501.5029,195.5013 Q500.8638,195.6507 500.1582,195.6507 Q497.6514,195.6507 496.3315,193.9989 Q495.0117,192.347 495.0117,189.2259 Q495.0117,186.0965 496.3315,184.4447 Q497.6514,182.7928 500.1582,182.7928 Q500.8638,182.7928 501.5112,182.9422 Q502.1587,183.0916 502.7231,183.3905 L502.7231,186.1131 Q502.0923,185.5321 501.4988,185.2623 Q500.9053,184.9925 500.2744,184.9925 Q498.9297,184.9925 498.2449,186.0592 Q497.5601,187.1258 497.5601,189.2259 Q497.5601,191.3177 498.2449,192.3844 Q498.9297,193.451 500.2744,193.451 Q500.9053,193.451 501.4988,193.1812 Q502.0923,192.9115 502.7231,192.3304 Z " fill="#000000"/><text fill="#000000" font-family="sans-serif" font-size="14" lengthAdjust="spacing" textLength="43" x="520.75" y="194.201">Cutter</text><line style="stroke:#181818;stroke-width:0.5;" x1="418.5" x2="633.5" y1="204.91" y2="204.91"/><rect fill="none" height="6" style="stroke:#C82930;stroke-width:1.0;" width="6" x="425.5" y="215.6541"/><text fill="#000000" font-family="sans-serif" font-size="14" lengthAdjust="spacing" textLength="56" x="437.5" y="222.4452">p : Point</text><rect fill="none" height="6" style="stroke:#C82930;stroke-width:1.0;" width="6" x="425.5" y="232.1424"/><text fill="#000000" font-family="sans-serif" font-size="14" lengthAdjust="spacing" textLength="65" x="437.5" y="238.9334">n : Vector</text><line style="stroke:#181818;stroke-width:0.5;" x1="418.5" x2="633.5" y1="245.8866" y2="245.8866"/><ellipse cx="428.5" cy="259.6307" fill="#84BE84" rx="3" ry="3" style="stroke:#038048;stroke-width:1.0;"/><text fill="#000000" font-family="sans-serif" font-size="14" lengthAdjust="spacing" textLength="180" x="437.5" y="263.4217">Cutter(Vector _n, Point _p)</text><ellipse cx="428.5" cy="276.119" fill="#84BE84" rx="3" ry="3" style="stroke:#038048;stroke-width:1.0;"/><text fill="#000000" font-family="sans-serif" font-size="14" lengthAdjust="spacing" textLength="62" x="437.5" y="279.91">~Cutter()</text><ellipse cx="428.5" cy="292.6073" fill="#84BE84" rx="3" ry="3" style="stroke:#038048;stroke-width:1.0;"/><text fill="#000000" font-family="sans-serif" font-size="14" lengthAdjust="spacing" textLength="167" x="437.5" y="296.3983">getPoint() : Point {query}</text><ellipse cx="428.5" cy="309.0955" fill="#84BE84" rx="3" ry="3" style="stroke:#038048;stroke-width:1.0;"/><text fill="#000000" font-family="sans-serif" font-size="14" lengthAdjust="spacing" textLength="191" x="437.5" y="312.8866">getNormal() : Vector {query}</text><ellipse cx="428.5" cy="325.5838" fill="#84BE84" rx="3" ry="3" style="stroke:#038048;stroke-width:1.0;"/><text fill="#000000" font-family="sans-serif" font-size="14" lengthAdjust="spacing" textLength="140" x="437.5" y="329.3748">setZ(double x) : void</text></g><!--class Facet--><g id="elem_Facet"><rect codeLine="19" fill="#F1F1F1" height="427.2305" id="Facet" rx="2.5" ry="2.5" style="stroke:#181818;stroke-width:0.5;" width="318" x="670" y="41"/><ellipse cx="806.75" cy="57" fill="#ADD1B2" rx="11" ry="11" style="stroke:#181818;stroke-width:1.0;"/><path d="M809.2231,63.1431 Q808.6421,63.4419 808.0029,63.5913 Q807.3638,63.7407 806.6582,63.7407 Q804.1514,63.7407 802.8315,62.0889 Q801.5117,60.437 801.5117,57.3159 Q801.5117,54.1865 802.8315,52.5347 Q804.1514,50.8828 806.6582,50.8828 Q807.3638,50.8828 808.0112,51.0322 Q808.6587,51.1816 809.2231,51.4805 L809.2231,54.2031 Q808.5923,53.6221 807.9988,53.3523 Q807.4053,53.0825 806.7744,53.0825 Q805.4297,53.0825 804.7449,54.1492 Q804.0601,55.2158 804.0601,57.3159 Q804.0601,59.4077 804.7449,60.4744 Q805.4297,61.541 806.7744,61.541 Q807.4053,61.541 807.9988,61.2712 Q808.5923,61.0015 809.2231,60.4204 Z " fill="#000000"/><text fill="#000000" font-family="sans-serif" font-size="14" lengthAdjust="spacing" textLength="36" x="827.25" y="62.291">Facet</text><line style="stroke:#181818;stroke-width:0.5;" x1="671" x2="987" y1="73" y2="73"/><rect fill="none" height="6" style="stroke:#C82930;stroke-width:1.0;" width="6" x="678" y="83.7441"/><text fill="#000000" font-family="sans-serif" font-size="14" lengthAdjust="spacing" textLength="63" x="690" y="90.5352">v1 : Point</text><rect fill="none" height="6" style="stroke:#C82930;stroke-width:1.0;" width="6" x="678" y="100.2324"/><text fill="#000000" font-family="sans-serif" font-size="14" lengthAdjust="spacing" textLength="63" x="690" y="107.0234">v2 : Point</text><rect fill="none" height="6" style="stroke:#C82930;stroke-width:1.0;" width="6" x="678" y="116.7207"/><text fill="#000000" font-family="sans-serif" font-size="14" lengthAdjust="spacing" textLength="63" x="690" y="123.5117">v3 : Point</text><rect fill="none" height="6" style="stroke:#C82930;stroke-width:1.0;" width="6" x="678" y="133.209"/><text fill="#000000" font-family="sans-serif" font-size="14" lengthAdjust="spacing" textLength="65" x="690" y="140">n : Vector</text><rect fill="none" height="6" style="stroke:#C82930;stroke-width:1.0;" width="6" x="678" y="149.6973"/><text fill="#000000" font-family="sans-serif" font-size="14" lengthAdjust="spacing" text-decoration="underline" textLength="157" x="690" y="156.4883">id_cnt : static unsigned</text><rect fill="none" height="6" style="stroke:#C82930;stroke-width:1.0;" width="6" x="678" y="166.1855"/><text fill="#000000" font-family="sans-serif" font-size="14" lengthAdjust="spacing" textLength="89" x="690" y="172.9766">id : unsigned</text><line style="stroke:#181818;stroke-width:0.5;" x1="671" x2="987" y1="179.9297" y2="179.9297"/><ellipse cx="681" cy="193.6738" fill="#84BE84" rx="3" ry="3" style="stroke:#038048;stroke-width:1.0;"/><text fill="#000000" font-family="sans-serif" font-size="14" lengthAdjust="spacing" textLength="46" x="690" y="197.4648">Facet()</text><ellipse cx="681" cy="210.1621" fill="#84BE84" rx="3" ry="3" style="stroke:#038048;stroke-width:1.0;"/><text fill="#000000" font-family="sans-serif" font-size="14" lengthAdjust="spacing" textLength="292" x="690" y="213.9531">Facet(Vector n, Point v1, Point v2, Point v3)</text><ellipse cx="681" cy="226.6504" fill="#84BE84" rx="3" ry="3" style="stroke:#038048;stroke-width:1.0;"/><text fill="#000000" font-family="sans-serif" font-size="14" lengthAdjust="spacing" textLength="55" x="690" y="230.4414">~Facet()</text><ellipse cx="681" cy="243.1387" fill="#84BE84" rx="3" ry="3" style="stroke:#038048;stroke-width:1.0;"/><text fill="#000000" font-family="sans-serif" font-size="14" lengthAdjust="spacing" textLength="186" x="690" y="246.9297">getVertex1() : Point {query}</text><ellipse cx="681" cy="259.627" fill="#84BE84" rx="3" ry="3" style="stroke:#038048;stroke-width:1.0;"/><text fill="#000000" font-family="sans-serif" font-size="14" lengthAdjust="spacing" textLength="186" x="690" y="263.418">getVertex2() : Point {query}</text><ellipse cx="681" cy="276.1152" fill="#84BE84" rx="3" ry="3" style="stroke:#038048;stroke-width:1.0;"/><text fill="#000000" font-family="sans-serif" font-size="14" lengthAdjust="spacing" textLength="186" x="690" y="279.9063">getVertex3() : Point {query}</text><ellipse cx="681" cy="292.6035" fill="#84BE84" rx="3" ry="3" style="stroke:#038048;stroke-width:1.0;"/><text fill="#000000" font-family="sans-serif" font-size="14" lengthAdjust="spacing" textLength="191" x="690" y="296.3945">getNormal() : Vector {query}</text><ellipse cx="681" cy="309.0918" fill="#84BE84" rx="3" ry="3" style="stroke:#038048;stroke-width:1.0;"/><text fill="#000000" font-family="sans-serif" font-size="14" lengthAdjust="spacing" textLength="183" x="690" y="312.8828">getMaxX() : double {query}</text><ellipse cx="681" cy="325.5801" fill="#84BE84" rx="3" ry="3" style="stroke:#038048;stroke-width:1.0;"/><text fill="#000000" font-family="sans-serif" font-size="14" lengthAdjust="spacing" textLength="183" x="690" y="329.3711">getMaxY() : double {query}</text><ellipse cx="681" cy="342.0684" fill="#84BE84" rx="3" ry="3" style="stroke:#038048;stroke-width:1.0;"/><text fill="#000000" font-family="sans-serif" font-size="14" lengthAdjust="spacing" textLength="182" x="690" y="345.8594">getMaxZ() : double {query}</text><ellipse cx="681" cy="358.5566" fill="#84BE84" rx="3" ry="3" style="stroke:#038048;stroke-width:1.0;"/><text fill="#000000" font-family="sans-serif" font-size="14" lengthAdjust="spacing" textLength="179" x="690" y="362.3477">getMinX() : double {query}</text><ellipse cx="681" cy="375.0449" fill="#84BE84" rx="3" ry="3" style="stroke:#038048;stroke-width:1.0;"/><text fill="#000000" font-family="sans-serif" font-size="14" lengthAdjust="spacing" textLength="179" x="690" y="378.8359">getMinY() : double {query}</text><ellipse cx="681" cy="391.5332" fill="#84BE84" rx="3" ry="3" style="stroke:#038048;stroke-width:1.0;"/><text fill="#000000" font-family="sans-serif" font-size="14" lengthAdjust="spacing" textLength="178" x="690" y="395.3242">getMinZ() : double {query}</text><ellipse cx="681" cy="408.0215" fill="#84BE84" rx="3" ry="3" style="stroke:#038048;stroke-width:1.0;"/><text fill="#000000" font-family="sans-serif" font-size="14" lengthAdjust="spacing" textLength="247" x="690" y="411.8125">getID(unsigned i) : unsigned {query}</text><ellipse cx="681" cy="424.5098" fill="#84BE84" rx="3" ry="3" style="stroke:#038048;stroke-width:1.0;"/><text fill="#000000" font-family="sans-serif" font-size="14" lengthAdjust="spacing" text-decoration="underline" textLength="92" x="690" y="428.3008">inc_ID() : void</text><ellipse cx="681" cy="440.998" fill="#84BE84" rx="3" ry="3" style="stroke:#038048;stroke-width:1.0;"/><text fill="#000000" font-family="sans-serif" font-size="14" lengthAdjust="spacing" textLength="137" x="690" y="444.7891">print() : void {query}</text><ellipse cx="681" cy="457.4863" fill="#84BE84" rx="3" ry="3" style="stroke:#038048;stroke-width:1.0;"/><text fill="#000000" font-family="sans-serif" font-size="14" lengthAdjust="spacing" textLength="91" x="690" y="461.2773">set_id() : void</text></g><!--class Line--><g id="elem_Line"><rect codeLine="45" fill="#F1F1F1" height="344.7891" id="Line" rx="2.5" ry="2.5" style="stroke:#181818;stroke-width:0.5;" width="360" x="22" y="82.22"/><ellipse cx="183.75" cy="98.22" fill="#ADD1B2" rx="11" ry="11" style="stroke:#181818;stroke-width:1.0;"/><path d="M186.2231,104.3631 Q185.6421,104.6619 185.0029,104.8113 Q184.3638,104.9607 183.6582,104.9607 Q181.1514,104.9607 179.8315,103.3089 Q178.5117,101.657 178.5117,98.5359 Q178.5117,95.4065 179.8315,93.7547 Q181.1514,92.1028 183.6582,92.1028 Q184.3638,92.1028 185.0112,92.2522 Q185.6587,92.4016 186.2231,92.7005 L186.2231,95.4231 Q185.5923,94.8421 184.9988,94.5723 Q184.4053,94.3025 183.7744,94.3025 Q182.4297,94.3025 181.7449,95.3692 Q181.0601,96.4358 181.0601,98.5359 Q181.0601,100.6277 181.7449,101.6944 Q182.4297,102.761 183.7744,102.761 Q184.4053,102.761 184.9988,102.4912 Q185.5923,102.2215 186.2231,101.6404 Z " fill="#000000"/><text fill="#000000" font-family="sans-serif" font-size="14" lengthAdjust="spacing" textLength="28" x="204.25" y="103.511">Line</text><line style="stroke:#181818;stroke-width:0.5;" x1="23" x2="381" y1="114.22" y2="114.22"/><rect fill="none" height="6" style="stroke:#C82930;stroke-width:1.0;" width="6" x="30" y="124.9641"/><text fill="#000000" font-family="sans-serif" font-size="14" lengthAdjust="spacing" textLength="56" x="42" y="131.7552">p : Point</text><rect fill="none" height="6" style="stroke:#C82930;stroke-width:1.0;" width="6" x="30" y="141.4524"/><text fill="#000000" font-family="sans-serif" font-size="14" lengthAdjust="spacing" textLength="82" x="42" y="148.2434">dirv : Vector</text><rect fill="none" height="6" style="stroke:#C82930;stroke-width:1.0;" width="6" x="30" y="157.9407"/><text fill="#000000" font-family="sans-serif" font-size="14" lengthAdjust="spacing" textLength="89" x="42" y="164.7317">id : unsigned</text><line style="stroke:#181818;stroke-width:0.5;" x1="23" x2="381" y1="171.6848" y2="171.6848"/><ellipse cx="33" cy="185.429" fill="#84BE84" rx="3" ry="3" style="stroke:#038048;stroke-width:1.0;"/><text fill="#000000" font-family="sans-serif" font-size="14" lengthAdjust="spacing" textLength="38" x="42" y="189.22">Line()</text><ellipse cx="33" cy="201.9173" fill="#84BE84" rx="3" ry="3" style="stroke:#038048;stroke-width:1.0;"/><text fill="#000000" font-family="sans-serif" font-size="14" lengthAdjust="spacing" textLength="167" x="42" y="205.7083">Line(Vector v1, Point p0)</text><ellipse cx="33" cy="218.4055" fill="#84BE84" rx="3" ry="3" style="stroke:#038048;stroke-width:1.0;"/><text fill="#000000" font-family="sans-serif" font-size="14" lengthAdjust="spacing" textLength="121" x="42" y="222.1966">Line(const Line &amp;)</text><ellipse cx="33" cy="234.8938" fill="#84BE84" rx="3" ry="3" style="stroke:#038048;stroke-width:1.0;"/><text fill="#000000" font-family="sans-serif" font-size="14" lengthAdjust="spacing" textLength="47" x="42" y="238.6848">~Line()</text><ellipse cx="33" cy="251.3821" fill="#84BE84" rx="3" ry="3" style="stroke:#038048;stroke-width:1.0;"/><text fill="#000000" font-family="sans-serif" font-size="14" lengthAdjust="spacing" textLength="167" x="42" y="255.1731">getPoint() : Point {query}</text><ellipse cx="33" cy="267.8704" fill="#84BE84" rx="3" ry="3" style="stroke:#038048;stroke-width:1.0;"/><text fill="#000000" font-family="sans-serif" font-size="14" lengthAdjust="spacing" textLength="168" x="42" y="271.6614">getDirv() : Vector {query}</text><ellipse cx="33" cy="284.3587" fill="#84BE84" rx="3" ry="3" style="stroke:#038048;stroke-width:1.0;"/><text fill="#000000" font-family="sans-serif" font-size="14" lengthAdjust="spacing" textLength="191" x="42" y="288.1497">getNormal() : Vector {query}</text><ellipse cx="33" cy="300.847" fill="#84BE84" rx="3" ry="3" style="stroke:#038048;stroke-width:1.0;"/><text fill="#000000" font-family="sans-serif" font-size="14" lengthAdjust="spacing" textLength="227" x="42" y="304.638">operator==(const Line&amp; p) : bool</text><ellipse cx="33" cy="317.3352" fill="#84BE84" rx="3" ry="3" style="stroke:#038048;stroke-width:1.0;"/><text fill="#000000" font-family="sans-serif" font-size="14" lengthAdjust="spacing" textLength="247" x="42" y="321.1263">getID(unsigned i) : unsigned {query}</text><ellipse cx="33" cy="333.8235" fill="#84BE84" rx="3" ry="3" style="stroke:#038048;stroke-width:1.0;"/><text fill="#000000" font-family="sans-serif" font-size="14" lengthAdjust="spacing" textLength="137" x="42" y="337.6145">print() : void {query}</text><ellipse cx="33" cy="350.3118" fill="#84BE84" rx="3" ry="3" style="stroke:#038048;stroke-width:1.0;"/><text fill="#000000" font-family="sans-serif" font-size="14" lengthAdjust="spacing" textLength="238" x="42" y="354.1028">setDirv(Vector n1, Vector n2) : void</text><ellipse cx="33" cy="366.8001" fill="#84BE84" rx="3" ry="3" style="stroke:#038048;stroke-width:1.0;"/><text fill="#000000" font-family="sans-serif" font-size="14" lengthAdjust="spacing" textLength="172" x="42" y="370.5911">setDirv(Vector dirv) : void</text><ellipse cx="33" cy="383.2884" fill="#84BE84" rx="3" ry="3" style="stroke:#038048;stroke-width:1.0;"/><text fill="#000000" font-family="sans-serif" font-size="14" lengthAdjust="spacing" textLength="176" x="42" y="387.0794">setID(const Facet &amp;) : void</text><ellipse cx="33" cy="399.7766" fill="#84BE84" rx="3" ry="3" style="stroke:#038048;stroke-width:1.0;"/><text fill="#000000" font-family="sans-serif" font-size="14" lengthAdjust="spacing" textLength="204" x="42" y="403.5677">setPoint(const Point p0) : void</text><ellipse cx="33" cy="416.2649" fill="#84BE84" rx="3" ry="3" style="stroke:#038048;stroke-width:1.0;"/><text fill="#000000" font-family="sans-serif" font-size="14" lengthAdjust="spacing" textLength="334" x="42" y="420.0559">setPoint_from_array(double, const Point &amp;) : void</text></g><!--class Point--><g id="elem_Point"><rect codeLine="66" fill="#F1F1F1" height="377.7656" id="Point" rx="2.5" ry="2.5" style="stroke:#181818;stroke-width:0.5;" width="424" x="60" y="528.23"/><ellipse cx="250.25" cy="544.23" fill="#ADD1B2" rx="11" ry="11" style="stroke:#181818;stroke-width:1.0;"/><path d="M252.7231,550.3731 Q252.1421,550.6719 251.5029,550.8213 Q250.8638,550.9707 250.1582,550.9707 Q247.6514,550.9707 246.3315,549.3189 Q245.0117,547.667 245.0117,544.5459 Q245.0117,541.4165 246.3315,539.7647 Q247.6514,538.1128 250.1582,538.1128 Q250.8638,538.1128 251.5112,538.2622 Q252.1587,538.4116 252.7231,538.7105 L252.7231,541.4331 Q252.0923,540.8521 251.4988,540.5823 Q250.9053,540.3125 250.2744,540.3125 Q248.9297,540.3125 248.2449,541.3792 Q247.5601,542.4458 247.5601,544.5459 Q247.5601,546.6377 248.2449,547.7044 Q248.9297,548.771 250.2744,548.771 Q250.9053,548.771 251.4988,548.5012 Q252.0923,548.2315 252.7231,547.6504 Z " fill="#000000"/><text fill="#000000" font-family="sans-serif" font-size="14" lengthAdjust="spacing" textLength="35" x="270.75" y="549.521">Point</text><line style="stroke:#181818;stroke-width:0.5;" x1="61" x2="483" y1="560.23" y2="560.23"/><rect fill="none" height="6" style="stroke:#C82930;stroke-width:1.0;" width="6" x="68" y="570.9741"/><text fill="#000000" font-family="sans-serif" font-size="14" lengthAdjust="spacing" textLength="98" x="80" y="577.7652">angle : double</text><rect fill="none" height="6" style="stroke:#C82930;stroke-width:1.0;" width="6" x="68" y="587.4624"/><text fill="#000000" font-family="sans-serif" font-size="14" lengthAdjust="spacing" textLength="69" x="80" y="594.2534">x : double</text><rect fill="none" height="6" style="stroke:#C82930;stroke-width:1.0;" width="6" x="68" y="603.9507"/><text fill="#000000" font-family="sans-serif" font-size="14" lengthAdjust="spacing" textLength="67" x="80" y="610.7417">y : double</text><rect fill="none" height="6" style="stroke:#C82930;stroke-width:1.0;" width="6" x="68" y="620.439"/><text fill="#000000" font-family="sans-serif" font-size="14" lengthAdjust="spacing" textLength="68" x="80" y="627.23">z : double</text><line style="stroke:#181818;stroke-width:0.5;" x1="61" x2="483" y1="634.1831" y2="634.1831"/><ellipse cx="71" cy="647.9273" fill="#84BE84" rx="3" ry="3" style="stroke:#038048;stroke-width:1.0;"/><text fill="#000000" font-family="sans-serif" font-size="14" lengthAdjust="spacing" textLength="45" x="80" y="651.7183">Point()</text><ellipse cx="71" cy="664.4155" fill="#84BE84" rx="3" ry="3" style="stroke:#038048;stroke-width:1.0;"/><text fill="#000000" font-family="sans-serif" font-size="14" lengthAdjust="spacing" textLength="135" x="80" y="668.2066">Point(const Point &amp;)</text><ellipse cx="71" cy="680.9038" fill="#84BE84" rx="3" ry="3" style="stroke:#038048;stroke-width:1.0;"/><text fill="#000000" font-family="sans-serif" font-size="14" lengthAdjust="spacing" textLength="330" x="80" y="684.6948">Point(double _x, double _y, double _z, double a)</text><ellipse cx="71" cy="697.3921" fill="#84BE84" rx="3" ry="3" style="stroke:#038048;stroke-width:1.0;"/><text fill="#000000" font-family="sans-serif" font-size="14" lengthAdjust="spacing" textLength="54" x="80" y="701.1831">~Point()</text><ellipse cx="71" cy="713.8804" fill="#84BE84" rx="3" ry="3" style="stroke:#038048;stroke-width:1.0;"/><text fill="#000000" font-family="sans-serif" font-size="14" lengthAdjust="spacing" textLength="234" x="80" y="717.6714">operator==(const Point&amp; p) : bool</text><ellipse cx="71" cy="730.3687" fill="#84BE84" rx="3" ry="3" style="stroke:#038048;stroke-width:1.0;"/><text fill="#000000" font-family="sans-serif" font-size="14" lengthAdjust="spacing" textLength="185" x="80" y="734.1597">getAngle() : double {query}</text><ellipse cx="71" cy="746.857" fill="#84BE84" rx="3" ry="3" style="stroke:#038048;stroke-width:1.0;"/><text fill="#000000" font-family="sans-serif" font-size="14" lengthAdjust="spacing" textLength="154" x="80" y="750.648">getX() : double {query}</text><ellipse cx="71" cy="763.3452" fill="#84BE84" rx="3" ry="3" style="stroke:#038048;stroke-width:1.0;"/><text fill="#000000" font-family="sans-serif" font-size="14" lengthAdjust="spacing" textLength="154" x="80" y="767.1363">getY() : double {query}</text><ellipse cx="71" cy="779.8335" fill="#84BE84" rx="3" ry="3" style="stroke:#038048;stroke-width:1.0;"/><text fill="#000000" font-family="sans-serif" font-size="14" lengthAdjust="spacing" textLength="153" x="80" y="783.6245">getZ() : double {query}</text><ellipse cx="71" cy="796.3218" fill="#84BE84" rx="3" ry="3" style="stroke:#038048;stroke-width:1.0;"/><text fill="#000000" font-family="sans-serif" font-size="14" lengthAdjust="spacing" textLength="398" x="80" y="800.1128">operator&gt;&gt;(std::istream&amp; input, Point&amp; p) : std :: istream&amp;</text><ellipse cx="71" cy="812.8101" fill="#84BE84" rx="3" ry="3" style="stroke:#038048;stroke-width:1.0;"/><text fill="#000000" font-family="sans-serif" font-size="14" lengthAdjust="spacing" textLength="137" x="80" y="816.6011">print() : void {query}</text><ellipse cx="71" cy="829.2984" fill="#84BE84" rx="3" ry="3" style="stroke:#038048;stroke-width:1.0;"/><text fill="#000000" font-family="sans-serif" font-size="14" lengthAdjust="spacing" textLength="201" x="80" y="833.0894">setAngle(const Point &amp;) : void</text><ellipse cx="71" cy="845.7866" fill="#84BE84" rx="3" ry="3" style="stroke:#038048;stroke-width:1.0;"/><text fill="#000000" font-family="sans-serif" font-size="14" lengthAdjust="spacing" textLength="236" x="80" y="849.5777">setPoint_from_array(double) : void</text><ellipse cx="71" cy="862.2749" fill="#84BE84" rx="3" ry="3" style="stroke:#038048;stroke-width:1.0;"/><text fill="#000000" font-family="sans-serif" font-size="14" lengthAdjust="spacing" textLength="148" x="80" y="866.0659">setX(double _x) : void</text><ellipse cx="71" cy="878.7632" fill="#84BE84" rx="3" ry="3" style="stroke:#038048;stroke-width:1.0;"/><text fill="#000000" font-family="sans-serif" font-size="14" lengthAdjust="spacing" textLength="146" x="80" y="882.5542">setY(double _y) : void</text><ellipse cx="71" cy="895.2515" fill="#84BE84" rx="3" ry="3" style="stroke:#038048;stroke-width:1.0;"/><text fill="#000000" font-family="sans-serif" font-size="14" lengthAdjust="spacing" textLength="146" x="80" y="899.0425">setZ(double _z) : void</text></g><!--class Vector--><g id="elem_Vector"><rect codeLine="89" fill="#F1F1F1" height="295.3242" id="Vector" rx="2.5" ry="2.5" style="stroke:#181818;stroke-width:0.5;" width="431" x="519.5" y="569.46"/><ellipse cx="708.75" cy="585.46" fill="#ADD1B2" rx="11" ry="11" style="stroke:#181818;stroke-width:1.0;"/><path d="M711.2231,591.6031 Q710.6421,591.9019 710.0029,592.0513 Q709.3638,592.2007 708.6582,592.2007 Q706.1514,592.2007 704.8315,590.5489 Q703.5117,588.897 703.5117,585.7759 Q703.5117,582.6465 704.8315,580.9947 Q706.1514,579.3428 708.6582,579.3428 Q709.3638,579.3428 710.0112,579.4922 Q710.6587,579.6416 711.2231,579.9405 L711.2231,582.6631 Q710.5923,582.0821 709.9988,581.8123 Q709.4053,581.5425 708.7744,581.5425 Q707.4297,581.5425 706.7449,582.6092 Q706.0601,583.6758 706.0601,585.7759 Q706.0601,587.8677 706.7449,588.9344 Q707.4297,590.001 708.7744,590.001 Q709.4053,590.001 709.9988,589.7312 Q710.5923,589.4615 711.2231,588.8804 Z " fill="#000000"/><text fill="#000000" font-family="sans-serif" font-size="14" lengthAdjust="spacing" textLength="44" x="729.25" y="590.751">Vector</text><line style="stroke:#181818;stroke-width:0.5;" x1="520.5" x2="949.5" y1="601.46" y2="601.46"/><rect fill="none" height="6" style="stroke:#C82930;stroke-width:1.0;" width="6" x="527.5" y="612.2041"/><text fill="#000000" font-family="sans-serif" font-size="14" lengthAdjust="spacing" textLength="78" x="539.5" y="618.9952">nx : double</text><rect fill="none" height="6" style="stroke:#C82930;stroke-width:1.0;" width="6" x="527.5" y="628.6924"/><text fill="#000000" font-family="sans-serif" font-size="14" lengthAdjust="spacing" textLength="76" x="539.5" y="635.4834">ny : double</text><rect fill="none" height="6" style="stroke:#C82930;stroke-width:1.0;" width="6" x="527.5" y="645.1807"/><text fill="#000000" font-family="sans-serif" font-size="14" lengthAdjust="spacing" textLength="77" x="539.5" y="651.9717">nz : double</text><line style="stroke:#181818;stroke-width:0.5;" x1="520.5" x2="949.5" y1="658.9248" y2="658.9248"/><ellipse cx="530.5" cy="672.669" fill="#84BE84" rx="3" ry="3" style="stroke:#038048;stroke-width:1.0;"/><text fill="#000000" font-family="sans-serif" font-size="14" lengthAdjust="spacing" textLength="54" x="539.5" y="676.46">Vector()</text><ellipse cx="530.5" cy="689.1573" fill="#84BE84" rx="3" ry="3" style="stroke:#038048;stroke-width:1.0;"/><text fill="#000000" font-family="sans-serif" font-size="14" lengthAdjust="spacing" textLength="250" x="539.5" y="692.9483">Vector(double x, double y, double z)</text><ellipse cx="530.5" cy="705.6455" fill="#84BE84" rx="3" ry="3" style="stroke:#038048;stroke-width:1.0;"/><text fill="#000000" font-family="sans-serif" font-size="14" lengthAdjust="spacing" textLength="153" x="539.5" y="709.4366">Vector(Vector const &amp;)</text><ellipse cx="530.5" cy="722.1338" fill="#84BE84" rx="3" ry="3" style="stroke:#038048;stroke-width:1.0;"/><text fill="#000000" font-family="sans-serif" font-size="14" lengthAdjust="spacing" textLength="63" x="539.5" y="725.9248">~Vector()</text><ellipse cx="530.5" cy="738.6221" fill="#84BE84" rx="3" ry="3" style="stroke:#038048;stroke-width:1.0;"/><text fill="#000000" font-family="sans-serif" font-size="14" lengthAdjust="spacing" textLength="243" x="539.5" y="742.4131">operator==(const Vector&amp; p) : bool</text><ellipse cx="530.5" cy="755.1104" fill="#84BE84" rx="3" ry="3" style="stroke:#038048;stroke-width:1.0;"/><text fill="#000000" font-family="sans-serif" font-size="14" lengthAdjust="spacing" textLength="218" x="539.5" y="758.9014">getMagnitude() : double {query}</text><ellipse cx="530.5" cy="771.5987" fill="#84BE84" rx="3" ry="3" style="stroke:#038048;stroke-width:1.0;"/><text fill="#000000" font-family="sans-serif" font-size="14" lengthAdjust="spacing" textLength="164" x="539.5" y="775.3897">getNx() : double {query}</text><ellipse cx="530.5" cy="788.087" fill="#84BE84" rx="3" ry="3" style="stroke:#038048;stroke-width:1.0;"/><text fill="#000000" font-family="sans-serif" font-size="14" lengthAdjust="spacing" textLength="162" x="539.5" y="791.878">getNy() : double {query}</text><ellipse cx="530.5" cy="804.5752" fill="#84BE84" rx="3" ry="3" style="stroke:#038048;stroke-width:1.0;"/><text fill="#000000" font-family="sans-serif" font-size="14" lengthAdjust="spacing" textLength="163" x="539.5" y="808.3663">getNz() : double {query}</text><ellipse cx="530.5" cy="821.0635" fill="#84BE84" rx="3" ry="3" style="stroke:#038048;stroke-width:1.0;"/><text fill="#000000" font-family="sans-serif" font-size="14" lengthAdjust="spacing" textLength="405" x="539.5" y="824.8545">operator&gt;&gt;(std::istream&amp; input, Vector&amp; v) : std :: istream&amp;</text><ellipse cx="530.5" cy="837.5518" fill="#84BE84" rx="3" ry="3" style="stroke:#038048;stroke-width:1.0;"/><text fill="#000000" font-family="sans-serif" font-size="14" lengthAdjust="spacing" textLength="120" x="539.5" y="841.3428">normalize() : void</text><ellipse cx="530.5" cy="854.0401" fill="#84BE84" rx="3" ry="3" style="stroke:#038048;stroke-width:1.0;"/><text fill="#000000" font-family="sans-serif" font-size="14" lengthAdjust="spacing" textLength="137" x="539.5" y="857.8311">print() : void {query}</text></g><!--reverse link Cutter to Point--><g id="link_Cutter_Point"><path codeLine="119" d="M475.5251,347.1281 C446.2751,400.1681 412.58,461.25 375.78,527.97 " fill="none" id="Cutter-backto-Point" style="stroke:#181818;stroke-width:1.0;"/><polygon fill="#181818" points="481.32,336.62,474.9199,339.9424,475.5251,347.1281,481.9252,343.8057,481.32,336.62" style="stroke:#181818;stroke-width:1.0;"/></g><!--reverse link Cutter to Vector--><g id="link_Cutter_Vector"><path codeLine="122" d="M567.72,347.547 C596.83,411.677 633.3,492.03 668.23,568.99 " fill="none" id="Cutter-backto-Vector" style="stroke:#181818;stroke-width:1.0;"/><polygon fill="#181818" points="562.76,336.62,561.5977,343.7368,567.72,347.547,568.8823,340.4302,562.76,336.62" style="stroke:#181818;stroke-width:1.0;"/></g><!--reverse link Facet to Point--><g id="link_Facet_Point"><path codeLine="125" d="M660.2719,462.2647 C654.5119,467.0147 657.92,463.93 652,468.23 C593.92,510.45 563.85,491.77 502,528.23 C496.12,531.7 490.22,535.32 484.34,539.05 " fill="none" id="Facet-backto-Point" style="stroke:#181818;stroke-width:1.0;"/><polygon fill="#181818" points="669.53,454.63,662.3561,455.3613,660.2719,462.2647,667.4459,461.5334,669.53,454.63" style="stroke:#181818;stroke-width:1.0;"/><text fill="#000000" font-family="sans-serif" font-size="13" lengthAdjust="spacing" textLength="8" x="654.1228" y="460.9287">3</text></g><!--reverse link Facet to Vector--><g id="link_Facet_Vector"><path codeLine="128" d="M783.1088,480.4373 C776.1588,514.4673 771.51,537.23 764.98,569.27 " fill="none" id="Facet-backto-Vector" style="stroke:#181818;stroke-width:1.0;"/><polygon fill="#181818" points="785.51,468.68,780.3903,473.7582,783.1088,480.4373,788.2285,475.3591,785.51,468.68" style="stroke:#181818;stroke-width:1.0;"/></g><!--reverse link Line to Point--><g id="link_Line_Point"><path codeLine="131" d="M229.9226,439.2838 C234.8926,471.9938 238.32,494.54 243.36,527.74 " fill="none" id="Line-backto-Point" style="stroke:#181818;stroke-width:1.0;"/><polygon fill="#181818" points="228.12,427.42,225.0667,433.9528,229.9226,439.2838,232.9759,432.751,228.12,427.42" style="stroke:#181818;stroke-width:1.0;"/></g><!--reverse link Line to Vector--><g id="link_Line_Vector"><path codeLine="134" d="M362.1084,435.5661 C377.3184,449.9861 384.27,455.61 400,468.23 C441.02,501.16 458.75,498.31 502,528.23 C520.48,541.02 539.37,554.85 558,569 " fill="none" id="Line-backto-Vector" style="stroke:#181818;stroke-width:1.0;"/><polygon fill="#181818" points="353.4,427.31,355.0022,434.3409,362.1084,435.5661,360.5062,428.5352,353.4,427.31" style="stroke:#181818;stroke-width:1.0;"/></g><!--SRC=[fLRTRzem47ycVuNL1w23b05laLgfMZMfKiicRQgWBv59lDGJE9bZ8Zx4_lRPEJjnGWZTnjFPlxlZFdvtyQY7lYn_aa2ag3To78RN94rmGD2txq_eu7I25KvJz6aZ1E7gt1c0t7-HDZ57FXkYhp5b0ld9jO9_Qpm_H4JaOFyQULhjy6j3-EueKJSnbrfr5lCrNkMwshkbp8fRfPqIyTeFuyroHT1M6MGn3PtEqJ4HVvOv20Wu5o4U4BNp8l9iN4YJGff2DfQnZF25S46suyPqIdno0PysboCRM_LmiqdbDFttMadjPxoTvxgwPDMe9BfeHLzRKChchUYY5JtZsJsa0WiQ714D_K2MoKDmWJOifH4ZeNRn-D0tDuWgLyN9SaP32r26fNSM-D95IQ3E8E66h-h6ZbXopgTXlubjJvGH89kIW2wvf7jJCYpvM891p581jbrWMsdz_ibnGygpUiCVv5qpEIwHPn0dX6DvTtjh1TX5YT9Unl7glohVMjqyQ3ESic96dDZzgUcfv6kmZ0m2XntGhS5GLj0eUjAWul_WyTh7dEETtZH3P5jrcuYWEwNywFQLOjMulDVizxT3CmZ-hXJtXOY18vRVarRbMBLNBcQHD3P3fhjthoxFJsRBIBVCyxbXtjh_xkugftqbCfFGtLq_5Q7dqLHmWjTTEQZ9HWmh-Ka5v7d8g5na5wHyfeDjRQzfpSk6rP15WUngIF6jylTDh353gBH1XlvgsNpd2YQKzDZRUjeDfAWtYktkX2u0dixsCuuO5PkmXI6pRGksQy7sPqZ2gYnXLPgml-E9IImxGnIMBq2w9-zQ_KT7jahzHZtqoDu8fm8p-KJYP2K_8xAIRpI1vnFet4SH9r4EDUZ8XzMDVazzS5trphg1LTu8wQqE62oqg-bLeoMWZORvDwR9fW8K9ZgF6Kc5tEUnzJvq_W00]--></g></svg>