<?xml version="1.0" encoding="UTF-8" standalone="no"?>
<!DOCTYPE svg PUBLIC "-//W3C//DTD SVG 1.1//EN"
 "http://www.w3.org/Graphics/SVG/1.1/DTD/svg11.dtd">
<!-- Generated by graphviz version 9.0.0 (20230911.1827)
 -->
<!-- Title: C:/Users/krisz/Documents/GitHub/STL_Slicer/STL_SLICER/src/Facet.cpp Pages: 1 -->
<svg width="193pt" height="332pt"
 viewBox="0.00 0.00 193.44 332.00" xmlns="http://www.w3.org/2000/svg" xmlns:xlink="http://www.w3.org/1999/xlink">
<g id="graph0" class="graph" transform="scale(1 1) rotate(0) translate(4 328)">
<title>C:/Users/krisz/Documents/GitHub/STL_Slicer/STL_SLICER/src/Facet.cpp</title>
<!-- Node1 -->
<g id="Node000001" class="node">
<title>Node1</title>
<g id="a_Node000001"><a xlink:title=" ">
<polygon fill="#999999" stroke="#666666" points="146.82,-324 16.07,-324 16.07,-280 146.82,-280 146.82,-324"/>
<text text-anchor="start" x="24.07" y="-310.5" font-family="Helvetica,sans-Serif" font-size="10.00">C:/Users/krisz/Documents</text>
<text text-anchor="start" x="24.07" y="-298.5" font-family="Helvetica,sans-Serif" font-size="10.00">/GitHub/STL_Slicer/STL</text>
<text text-anchor="middle" x="81.44" y="-286.5" font-family="Helvetica,sans-Serif" font-size="10.00">_SLICER/src/Facet.cpp</text>
</a>
</g>
</g>
<!-- Node2 -->
<g id="Node000002" class="node">
<title>Node2</title>
<g id="a_Node000002"><a xlink:href="_facet_8h.html" target="_top" xlink:title=" ">
<polygon fill="white" stroke="#666666" points="77.94,-244 28.94,-244 28.94,-224 77.94,-224 77.94,-244"/>
<text text-anchor="middle" x="53.44" y="-230.5" font-family="Helvetica,sans-Serif" font-size="10.00">Facet.h</text>
</a>
</g>
</g>
<!-- Node1&#45;&gt;Node2 -->
<g id="edge1_Node000001_Node000002" class="edge">
<title>Node1&#45;&gt;Node2</title>
<g id="a_edge1_Node000001_Node000002"><a xlink:title=" ">
<path fill="none" stroke="#63b8ff" d="M72.43,-279.75C69.04,-271.75 65.19,-262.69 61.86,-254.83"/>
<polygon fill="#63b8ff" stroke="#63b8ff" points="65.16,-253.65 58.03,-245.81 58.72,-256.39 65.16,-253.65"/>
</a>
</g>
</g>
<!-- Node3 -->
<g id="Node000003" class="node">
<title>Node3</title>
<g id="a_Node000003"><a xlink:href="_vector_8h.html" target="_top" xlink:title=" ">
<polygon fill="white" stroke="#666666" points="82.82,-76 30.07,-76 30.07,-56 82.82,-56 82.82,-76"/>
<text text-anchor="middle" x="56.44" y="-62.5" font-family="Helvetica,sans-Serif" font-size="10.00">Vector.h</text>
</a>
</g>
</g>
<!-- Node1&#45;&gt;Node3 -->
<g id="edge12_Node000001_Node000003" class="edge">
<title>Node1&#45;&gt;Node3</title>
<g id="a_edge12_Node000001_Node000003"><a xlink:title=" ">
<path fill="none" stroke="#63b8ff" d="M49.21,-279.72C37.67,-270.27 25.93,-258.08 19.44,-244 -5.11,-190.69 -5.75,-166.73 15.44,-112 19.55,-101.4 27.44,-91.77 35.21,-84.16"/>
<polygon fill="#63b8ff" stroke="#63b8ff" points="37.52,-86.79 42.6,-77.49 32.83,-81.59 37.52,-86.79"/>
</a>
</g>
</g>
<!-- Node4 -->
<g id="Node000004" class="node">
<title>Node4</title>
<g id="a_Node000004"><a xlink:title=" ">
<polygon fill="#e0e0e0" stroke="#999999" points="174.19,-20 120.69,-20 120.69,0 174.19,0 174.19,-20"/>
<text text-anchor="middle" x="147.44" y="-6.5" font-family="Helvetica,sans-Serif" font-size="10.00">iostream</text>
</a>
</g>
</g>
<!-- Node1&#45;&gt;Node4 -->
<g id="edge11_Node000001_Node000004" class="edge">
<title>Node1&#45;&gt;Node4</title>
<g id="a_edge11_Node000001_Node000004"><a xlink:title=" ">
<path fill="none" stroke="#63b8ff" d="M116.65,-279.57C146.83,-258.22 185.44,-222.42 185.44,-179 185.44,-179 185.44,-179 185.44,-121 185.44,-87.77 169.76,-51.85 158.55,-30.4"/>
<polygon fill="#63b8ff" stroke="#63b8ff" points="161.64,-28.76 153.78,-21.66 155.5,-32.12 161.64,-28.76"/>
</a>
</g>
</g>
<!-- Node6 -->
<g id="Node000006" class="node">
<title>Node6</title>
<g id="a_Node000006"><a xlink:href="_section_8h.html" target="_top" xlink:title=" ">
<polygon fill="white" stroke="#666666" points="138.07,-188 80.82,-188 80.82,-168 138.07,-168 138.07,-188"/>
<text text-anchor="middle" x="109.44" y="-174.5" font-family="Helvetica,sans-Serif" font-size="10.00">Section.h</text>
</a>
</g>
</g>
<!-- Node1&#45;&gt;Node6 -->
<g id="edge10_Node000001_Node000006" class="edge">
<title>Node1&#45;&gt;Node6</title>
<g id="a_edge10_Node000001_Node000006"><a xlink:title=" ">
<path fill="none" stroke="#63b8ff" d="M86.32,-279.75C91.51,-257.16 99.65,-221.69 104.76,-199.42"/>
<polygon fill="#63b8ff" stroke="#63b8ff" points="108.15,-200.31 106.97,-189.78 101.32,-198.74 108.15,-200.31"/>
</a>
</g>
</g>
<!-- Node2&#45;&gt;Node3 -->
<g id="edge2_Node000002_Node000003" class="edge">
<title>Node2&#45;&gt;Node3</title>
<g id="a_edge2_Node000002_Node000003"><a xlink:title=" ">
<path fill="none" stroke="#63b8ff" d="M47.48,-223.76C35.07,-203.34 8.73,-152.92 22.44,-112 25.81,-101.97 32.39,-92.39 38.87,-84.66"/>
<polygon fill="#63b8ff" stroke="#63b8ff" points="41.36,-87.13 45.49,-77.38 36.18,-82.43 41.36,-87.13"/>
</a>
</g>
</g>
<!-- Node5 -->
<g id="Node000005" class="node">
<title>Node5</title>
<g id="a_Node000005"><a xlink:href="_plane_8h.html" target="_top" xlink:title=" ">
<polygon fill="white" stroke="#666666" points="80.94,-132 31.94,-132 31.94,-112 80.94,-112 80.94,-132"/>
<text text-anchor="middle" x="56.44" y="-118.5" font-family="Helvetica,sans-Serif" font-size="10.00">Plane.h</text>
</a>
</g>
</g>
<!-- Node2&#45;&gt;Node5 -->
<g id="edge4_Node000002_Node000005" class="edge">
<title>Node2&#45;&gt;Node5</title>
<g id="a_edge4_Node000002_Node000005"><a xlink:title=" ">
<path fill="none" stroke="#63b8ff" d="M53.7,-223.62C54.18,-206.01 55.23,-167.59 55.88,-143.65"/>
<polygon fill="#63b8ff" stroke="#63b8ff" points="59.37,-143.96 56.15,-133.87 52.38,-143.77 59.37,-143.96"/>
</a>
</g>
</g>
<!-- Node2&#45;&gt;Node6 -->
<g id="edge6_Node000002_Node000006" class="edge">
<title>Node2&#45;&gt;Node6</title>
<g id="a_edge6_Node000002_Node000006"><a xlink:title=" ">
<path fill="none" stroke="#63b8ff" d="M63.2,-223.59C71.07,-216.01 82.34,-205.13 91.79,-196.02"/>
<polygon fill="#63b8ff" stroke="#63b8ff" points="93.94,-198.81 98.71,-189.35 89.08,-193.77 93.94,-198.81"/>
</a>
</g>
</g>
<!-- Node3&#45;&gt;Node4 -->
<g id="edge3_Node000003_Node000004" class="edge">
<title>Node3&#45;&gt;Node4</title>
<g id="a_edge3_Node000003_Node000004"><a xlink:title=" ">
<path fill="none" stroke="#63b8ff" d="M72.3,-55.59C85.91,-47.51 105.81,-35.71 121.71,-26.27"/>
<polygon fill="#63b8ff" stroke="#63b8ff" points="123.35,-29.37 130.17,-21.25 119.78,-23.35 123.35,-29.37"/>
</a>
</g>
</g>
<!-- Node5&#45;&gt;Node3 -->
<g id="edge5_Node000005_Node000003" class="edge">
<title>Node5&#45;&gt;Node3</title>
<g id="a_edge5_Node000005_Node000003"><a xlink:title=" ">
<path fill="none" stroke="#63b8ff" d="M56.44,-111.59C56.44,-105.01 56.44,-95.96 56.44,-87.73"/>
<polygon fill="#63b8ff" stroke="#63b8ff" points="59.94,-87.81 56.44,-77.81 52.94,-87.81 59.94,-87.81"/>
</a>
</g>
</g>
<!-- Node6&#45;&gt;Node3 -->
<g id="edge7_Node000006_Node000003" class="edge">
<title>Node6&#45;&gt;Node3</title>
<g id="a_edge7_Node000006_Node000003"><a xlink:title=" ">
<path fill="none" stroke="#63b8ff" d="M107.85,-167.78C105.36,-154.82 99.84,-130.7 90.44,-112 85.63,-102.42 78.72,-92.81 72.38,-84.94"/>
<polygon fill="#63b8ff" stroke="#63b8ff" points="75.21,-82.87 66.09,-77.48 69.86,-87.38 75.21,-82.87"/>
</a>
</g>
</g>
<!-- Node6&#45;&gt;Node4 -->
<g id="edge9_Node000006_Node000004" class="edge">
<title>Node6&#45;&gt;Node4</title>
<g id="a_edge9_Node000006_Node000004"><a xlink:title=" ">
<path fill="none" stroke="#63b8ff" d="M111.6,-167.6C117.58,-141.46 134.51,-67.48 142.78,-31.36"/>
<polygon fill="#63b8ff" stroke="#63b8ff" points="146.16,-32.3 144.98,-21.77 139.34,-30.74 146.16,-32.3"/>
</a>
</g>
</g>
<!-- Node6&#45;&gt;Node5 -->
<g id="edge8_Node000006_Node000005" class="edge">
<title>Node6&#45;&gt;Node5</title>
<g id="a_edge8_Node000006_Node000005"><a xlink:title=" ">
<path fill="none" stroke="#63b8ff" d="M100.21,-167.59C92.84,-160.08 82.31,-149.35 73.43,-140.3"/>
<polygon fill="#63b8ff" stroke="#63b8ff" points="76.13,-138.06 66.63,-133.38 71.14,-142.97 76.13,-138.06"/>
</a>
</g>
</g>
</g>
</svg>
