<?xml version="1.0" encoding="UTF-8" standalone="no"?>
<!DOCTYPE svg PUBLIC "-//W3C//DTD SVG 1.1//EN"
 "http://www.w3.org/Graphics/SVG/1.1/DTD/svg11.dtd">
<!-- Generated by graphviz version 9.0.0 (20230911.1827)
 -->
<!-- Title: C:/Users/krisz/Documents/GitHub/STL_Slicer/STL_SLICER/include/Facet.h Pages: 1 -->
<!--zoomable 212 -->

<svg id="main" version="1.1" xmlns="http://www.w3.org/2000/svg" xmlns:xlink="http://www.w3.org/1999/xlink" xml:space="preserve" onload="init(evt)">
<style type="text/css"><![CDATA[
.node, .edge {opacity: 0.7;}
.node.selected, .edge.selected {opacity: 1;}
.edge:hover path { stroke: red; }
.edge:hover polygon { stroke: red; fill: red; }
]]></style>

<defs>
  <circle id="rim" cx="0" cy="0" r="7"/>
  <circle id="rim2" cx="0" cy="0" r="3.5"/>
  <g id="zoomPlus">
    <use xlink:href="#rim" fill="#404040"><set attributeName="fill" to="#808080" begin="zoomplus.mouseover" end="zoomplus.mouseout"/></use>
    <path d="M-4,0h8M0,-4v8" fill="none" stroke="white" stroke-width="1.5" pointer-events="none"/>
  </g>
  <g id="zoomMin">
    <use xlink:href="#rim" fill="#404040"><set attributeName="fill" to="#808080" begin="zoomminus.mouseover" end="zoomminus.mouseout"/></use>
    <path d="M-4,0h8" fill="none" stroke="white" stroke-width="1.5" pointer-events="none"/>
  </g>
  <g id="arrowUp" transform="translate(30 24)">
    <use xlink:href="#rim"/>
    <path pointer-events="none" fill="none" stroke="white" stroke-width="1.5" d="M0,-3.0v7 M-2.5,-0.5L0,-3.0L2.5,-0.5"/>
  </g>
  <g id="arrowRight" transform="rotate(90) translate(36 -43)">
    <use xlink:href="#rim"/>
    <path pointer-events="none" fill="none" stroke="white" stroke-width="1.5" d="M0,-3.0v7 M-2.5,-0.5L0,-3.0L2.5,-0.5"/>
  </g>
  <g id="arrowDown" transform="rotate(180) translate(-30 -48)">
    <use xlink:href="#rim"/>
    <path pointer-events="none" fill="none" stroke="white" stroke-width="1.5" d="M0,-3.0v7 M-2.5,-0.5L0,-3.0L2.5,-0.5"/>
  </g>
  <g id="arrowLeft" transform="rotate(270) translate(-36 17)">
    <use xlink:href="#rim"/>
    <path pointer-events="none" fill="none" stroke="white" stroke-width="1.5" d="M0,-3.0v7 M-2.5,-0.5L0,-3.0L2.5,-0.5"/>
  </g>
  <g id="resetDef">
    <use xlink:href="#rim2" fill="#404040"><set attributeName="fill" to="#808080" begin="reset.mouseover" end="reset.mouseout"/></use>
  </g>
</defs>
<script type="application/ecmascript">
var viewWidth = 560;
var viewHeight = 212;
var sectionId = 'dynsection-1';
</script>
<script type="application/ecmascript" xlink:href="svg.min.js"/>
<svg id="graph" class="graph">
<g id="viewport">
<title>C:/Users/krisz/Documents/GitHub/STL_Slicer/STL_SLICER/include/Facet.h</title>
<!-- Node1 -->
<g id="Node000001" class="node">
<title>Node1</title>
<g id="a_Node000001"><a xlink:title=" ">
<polygon fill="#999999" stroke="#666666" points="363.75,-204 233,-204 233,-160 363.75,-160 363.75,-204"/>
<text text-anchor="start" x="241" y="-190.5" font-family="Helvetica,sans-Serif" font-size="10.00">C:/Users/krisz/Documents</text>
<text text-anchor="start" x="241" y="-178.5" font-family="Helvetica,sans-Serif" font-size="10.00">/GitHub/STL_Slicer/STL</text>
<text text-anchor="middle" x="298.38" y="-166.5" font-family="Helvetica,sans-Serif" font-size="10.00">_SLICER/include/Facet.h</text>
</a>
</g>
</g>
<!-- Node2 -->
<g id="Node000002" class="node">
<title>Node2</title>
<g id="a_Node000002"><a xlink:href="_gcode_8h.html" target="_top" xlink:title=" ">
<polygon fill="white" stroke="#666666" points="175.75,-124 45,-124 45,-80 175.75,-80 175.75,-124"/>
<text text-anchor="start" x="53" y="-110.5" font-family="Helvetica,sans-Serif" font-size="10.00">C:/Users/krisz/Documents</text>
<text text-anchor="start" x="53" y="-98.5" font-family="Helvetica,sans-Serif" font-size="10.00">/GitHub/STL_Slicer/STL</text>
<text text-anchor="middle" x="110.38" y="-86.5" font-family="Helvetica,sans-Serif" font-size="10.00">_SLICER/include/Gcode.h</text>
</a>
</g>
</g>
<!-- Node1&#45;&gt;Node2 -->
<g id="edge1_Node000001_Node000002" class="edge">
<title>Node1&#45;&gt;Node2</title>
<g id="a_edge1_Node000001_Node000002"><a xlink:title=" ">
<path fill="none" stroke="#63b8ff" d="M236.53,-155.34C212.4,-145.33 185.06,-133.99 162.01,-124.42"/>
<polygon fill="#63b8ff" stroke="#63b8ff" points="235.03,-158.51 245.61,-159.11 237.71,-152.04 235.03,-158.51"/>
</a>
</g>
</g>
<!-- Node4 -->
<g id="Node000004" class="node">
<title>Node4</title>
<g id="a_Node000004"><a xlink:href="main_8cpp.html" target="_top" xlink:title=" ">
<polygon fill="white" stroke="#666666" points="279.75,-44 149,-44 149,0 279.75,0 279.75,-44"/>
<text text-anchor="start" x="157" y="-30.5" font-family="Helvetica,sans-Serif" font-size="10.00">C:/Users/krisz/Documents</text>
<text text-anchor="start" x="157" y="-18.5" font-family="Helvetica,sans-Serif" font-size="10.00">/GitHub/STL_Slicer/STL</text>
<text text-anchor="middle" x="214.38" y="-6.5" font-family="Helvetica,sans-Serif" font-size="10.00">_SLICER/src/main.cpp</text>
</a>
</g>
</g>
<!-- Node1&#45;&gt;Node4 -->
<g id="edge9_Node000001_Node000004" class="edge">
<title>Node1&#45;&gt;Node4</title>
<g id="a_edge9_Node000001_Node000004"><a xlink:title=" ">
<path fill="none" stroke="#63b8ff" d="M248.28,-153.03C238.09,-144.99 228.59,-135.29 222.38,-124 208.72,-99.19 209.08,-65.64 211.22,-44.15"/>
<polygon fill="#63b8ff" stroke="#63b8ff" points="246,-155.7 256.14,-158.77 250.13,-150.05 246,-155.7"/>
</a>
</g>
</g>
<!-- Node5 -->
<g id="Node000005" class="node">
<title>Node5</title>
<g id="a_Node000005"><a xlink:href="_s_t_l_file_8h.html" target="_top" xlink:title=" ">
<polygon fill="white" stroke="#666666" points="365.25,-124 231.5,-124 231.5,-80 365.25,-80 365.25,-124"/>
<text text-anchor="start" x="239.5" y="-110.5" font-family="Helvetica,sans-Serif" font-size="10.00">C:/Users/krisz/Documents</text>
<text text-anchor="start" x="239.5" y="-98.5" font-family="Helvetica,sans-Serif" font-size="10.00">/GitHub/STL_Slicer/STL</text>
<text text-anchor="middle" x="298.38" y="-86.5" font-family="Helvetica,sans-Serif" font-size="10.00">_SLICER/include/STLFile.h</text>
</a>
</g>
</g>
<!-- Node1&#45;&gt;Node5 -->
<g id="edge4_Node000001_Node000005" class="edge">
<title>Node1&#45;&gt;Node5</title>
<g id="a_edge4_Node000001_Node000005"><a xlink:title=" ">
<path fill="none" stroke="#63b8ff" d="M298.38,-148.25C298.38,-140.15 298.38,-131.68 298.38,-124.29"/>
<polygon fill="#63b8ff" stroke="#63b8ff" points="294.88,-148.17 298.38,-158.17 301.88,-148.17 294.88,-148.17"/>
</a>
</g>
</g>
<!-- Node6 -->
<g id="Node000006" class="node">
<title>Node6</title>
<g id="a_Node000006"><a xlink:href="_s_t_l_file_8cpp.html" target="_top" xlink:title=" ">
<polygon fill="white" stroke="#666666" points="448.75,-44 318,-44 318,0 448.75,0 448.75,-44"/>
<text text-anchor="start" x="326" y="-30.5" font-family="Helvetica,sans-Serif" font-size="10.00">C:/Users/krisz/Documents</text>
<text text-anchor="start" x="326" y="-18.5" font-family="Helvetica,sans-Serif" font-size="10.00">/GitHub/STL_Slicer/STL</text>
<text text-anchor="middle" x="383.38" y="-6.5" font-family="Helvetica,sans-Serif" font-size="10.00">_SLICER/src/STLFile.cpp</text>
</a>
</g>
</g>
<!-- Node1&#45;&gt;Node6 -->
<g id="edge8_Node000001_Node000006" class="edge">
<title>Node1&#45;&gt;Node6</title>
<g id="a_edge8_Node000001_Node000006"><a xlink:title=" ">
<path fill="none" stroke="#63b8ff" d="M348.38,-152.99C358.59,-144.95 368.11,-135.26 374.38,-124 388.16,-99.24 388.17,-65.67 386.27,-44.17"/>
<polygon fill="#63b8ff" stroke="#63b8ff" points="346.54,-150 340.53,-158.73 350.67,-155.65 346.54,-150"/>
</a>
</g>
</g>
<!-- Node7 -->
<g id="Node000007" class="node">
<title>Node7</title>
<g id="a_Node000007"><a xlink:href="_facet_8cpp.html" target="_top" xlink:title=" ">
<polygon fill="white" stroke="#666666" points="551.75,-124 421,-124 421,-80 551.75,-80 551.75,-124"/>
<text text-anchor="start" x="429" y="-110.5" font-family="Helvetica,sans-Serif" font-size="10.00">C:/Users/krisz/Documents</text>
<text text-anchor="start" x="429" y="-98.5" font-family="Helvetica,sans-Serif" font-size="10.00">/GitHub/STL_Slicer/STL</text>
<text text-anchor="middle" x="486.38" y="-86.5" font-family="Helvetica,sans-Serif" font-size="10.00">_SLICER/src/Facet.cpp</text>
</a>
</g>
</g>
<!-- Node1&#45;&gt;Node7 -->
<g id="edge7_Node000001_Node000007" class="edge">
<title>Node1&#45;&gt;Node7</title>
<g id="a_edge7_Node000001_Node000007"><a xlink:title=" ">
<path fill="none" stroke="#63b8ff" d="M360.22,-155.34C384.35,-145.33 411.69,-133.99 434.74,-124.42"/>
<polygon fill="#63b8ff" stroke="#63b8ff" points="359.04,-152.04 351.14,-159.11 361.72,-158.51 359.04,-152.04"/>
</a>
</g>
</g>
<!-- Node3 -->
<g id="Node000003" class="node">
<title>Node3</title>
<g id="a_Node000003"><a xlink:href="_gcode_8cpp.html" target="_top" xlink:title=" ">
<polygon fill="white" stroke="#666666" points="130.75,-44 0,-44 0,0 130.75,0 130.75,-44"/>
<text text-anchor="start" x="8" y="-30.5" font-family="Helvetica,sans-Serif" font-size="10.00">C:/Users/krisz/Documents</text>
<text text-anchor="start" x="8" y="-18.5" font-family="Helvetica,sans-Serif" font-size="10.00">/GitHub/STL_Slicer/STL</text>
<text text-anchor="middle" x="65.38" y="-6.5" font-family="Helvetica,sans-Serif" font-size="10.00">_SLICER/src/Gcode.cpp</text>
</a>
</g>
</g>
<!-- Node2&#45;&gt;Node3 -->
<g id="edge2_Node000002_Node000003" class="edge">
<title>Node2&#45;&gt;Node3</title>
<g id="a_edge2_Node000002_Node000003"><a xlink:title=" ">
<path fill="none" stroke="#63b8ff" d="M92.46,-69.94C87.49,-61.34 82.22,-52.2 77.66,-44.29"/>
<polygon fill="#63b8ff" stroke="#63b8ff" points="89.29,-71.46 97.32,-78.38 95.36,-67.96 89.29,-71.46"/>
</a>
</g>
</g>
<!-- Node2&#45;&gt;Node4 -->
<g id="edge3_Node000002_Node000004" class="edge">
<title>Node2&#45;&gt;Node4</title>
<g id="a_edge3_Node000002_Node000004"><a xlink:title=" ">
<path fill="none" stroke="#63b8ff" d="M147.71,-73C160.32,-63.54 174.19,-53.14 185.99,-44.29"/>
<polygon fill="#63b8ff" stroke="#63b8ff" points="145.9,-69.98 140,-78.78 150.1,-75.58 145.9,-69.98"/>
</a>
</g>
</g>
<!-- Node5&#45;&gt;Node4 -->
<g id="edge6_Node000005_Node000004" class="edge">
<title>Node5&#45;&gt;Node4</title>
<g id="a_edge6_Node000005_Node000004"><a xlink:title=" ">
<path fill="none" stroke="#63b8ff" d="M267.03,-71.89C257.17,-62.74 246.46,-52.8 237.3,-44.29"/>
<polygon fill="#63b8ff" stroke="#63b8ff" points="264.6,-74.42 274.31,-78.66 269.37,-69.29 264.6,-74.42"/>
</a>
</g>
</g>
<!-- Node5&#45;&gt;Node6 -->
<g id="edge5_Node000005_Node000006" class="edge">
<title>Node5&#45;&gt;Node6</title>
<g id="a_edge5_Node000005_Node000006"><a xlink:title=" ">
<path fill="none" stroke="#63b8ff" d="M329.79,-72.17C339.85,-62.94 350.81,-52.88 360.18,-44.29"/>
<polygon fill="#63b8ff" stroke="#63b8ff" points="327.72,-69.32 322.72,-78.66 332.45,-74.48 327.72,-69.32"/>
</a>
</g>
</g>
</g>
</svg>

<g id="navigator" transform="translate(0 0)" fill="#404254">
  <rect fill="#f2f5e9" fill-opacity="0.5" stroke="#606060" stroke-width=".5" x="0" y="0" width="60" height="60"/>
  <use id="zoomplus" xlink:href="#zoomPlus" x="17" y="9" onmousedown="handleZoom(evt,'in')"/>
  <use id="zoomminus" xlink:href="#zoomMin" x="42" y="9" onmousedown="handleZoom(evt,'out')"/>
  <use id="reset" xlink:href="#resetDef" x="30" y="36" onmousedown="handleReset()"/>
   <use id="arrowup" xlink:href="#arrowUp" x="0" y="0" onmousedown="handlePan(0,-1)"/>
  <use id="arrowright" xlink:href="#arrowRight" x="0" y="0" onmousedown="handlePan(1,0)"/>
  <use id="arrowdown" xlink:href="#arrowDown" x="0" y="0" onmousedown="handlePan(0,1)"/>
  <use id="arrowleft" xlink:href="#arrowLeft" x="0" y="0" onmousedown="handlePan(-1,0)"/>
</g>
<svg viewBox="0 0 15 15" width="100%" height="30px" preserveAspectRatio="xMaxYMin meet">
 <g id="arrow_out" transform="scale(0.3 0.3)">
  <a xlink:href="_facet_8h__dep__incl_org.svg" target="_base">
   <rect id="button" ry="5" rx="5" y="6" x="6" height="38" width="38"
        fill="#f2f5e9" fill-opacity="0.5" stroke="#606060" stroke-width="1.0"/>
   <path id="arrow"
     d="M 11.500037,31.436501 C 11.940474,20.09759 22.043105,11.32322 32.158766,21.979434 L 37.068811,17.246167 C 37.068811,17.246167 37.088388,32 37.088388,32 L 22.160133,31.978069 C 22.160133,31.978069 26.997745,27.140456 26.997745,27.140456 C 18.528582,18.264221 13.291696,25.230495 11.500037,31.436501 z"
     style="fill:#404040;"/>
  </a>
 </g>
</svg>

<style type='text/css'>
<![CDATA[
[data-mouse-over-selected='false'] { opacity: 0.7; }
[data-mouse-over-selected='true']  { opacity: 1.0; }
]]>
</style>
<script type="application/ecmascript"><![CDATA[
document.addEventListener('DOMContentLoaded', (event) => {
  highlightEdges();
  highlightAdjacentNodes();
});
]]></script>
</svg>
