<?xml version="1.0" encoding="UTF-8" standalone="no"?>
<!DOCTYPE svg PUBLIC "-//W3C//DTD SVG 1.1//EN"
 "http://www.w3.org/Graphics/SVG/1.1/DTD/svg11.dtd">
<!-- Generated by graphviz version 10.0.1 (20240210.2158)
 -->
<!-- Title: STL_SLICER/include/Facet.h Pages: 1 -->
<svg width="149pt" height="260pt"
 viewBox="0.00 0.00 148.50 259.50" xmlns="http://www.w3.org/2000/svg" xmlns:xlink="http://www.w3.org/1999/xlink">
<g id="graph0" class="graph" transform="scale(1 1) rotate(0) translate(4 255.5)">
<title>STL_SLICER/include/Facet.h</title>
<!-- Node1 -->
<g id="Node000001" class="node">
<title>Node1</title>
<g id="a_Node000001"><a xlink:title=" ">
<polygon fill="#999999" stroke="#666666" points="109.75,-251.5 0,-251.5 0,-221 109.75,-221 109.75,-251.5"/>
<text text-anchor="start" x="8" y="-238" font-family="Helvetica,sans-Serif" font-size="10.00">STL_SLICER/include</text>
<text text-anchor="middle" x="54.88" y="-226.75" font-family="Helvetica,sans-Serif" font-size="10.00">/Facet.h</text>
</a>
</g>
</g>
<!-- Node2 -->
<g id="Node000002" class="node">
<title>Node2</title>
<g id="a_Node000002"><a xlink:href="_vector_8h.html" target="_top" xlink:title=" ">
<polygon fill="white" stroke="#666666" points="103.88,-74.5 51.88,-74.5 51.88,-55.25 103.88,-55.25 103.88,-74.5"/>
<text text-anchor="middle" x="77.88" y="-61" font-family="Helvetica,sans-Serif" font-size="10.00">Vector.h</text>
</a>
</g>
</g>
<!-- Node1&#45;&gt;Node2 -->
<g id="edge1_Node000001_Node000002" class="edge">
<title>Node1&#45;&gt;Node2</title>
<g id="a_edge1_Node000001_Node000002"><a xlink:title=" ">
<path fill="none" stroke="#63b8ff" d="M45.68,-220.8C31.74,-196.91 8.6,-148.08 25.88,-110.5 31.33,-98.62 41.69,-88.72 51.73,-81.28"/>
<polygon fill="#63b8ff" stroke="#63b8ff" points="53.53,-84.29 59.83,-75.78 49.6,-78.5 53.53,-84.29"/>
</a>
</g>
</g>
<!-- Node4 -->
<g id="Node000004" class="node">
<title>Node4</title>
<g id="a_Node000004"><a xlink:href="_plane_8h.html" target="_top" xlink:title=" ">
<polygon fill="white" stroke="#666666" points="83.38,-129.75 34.38,-129.75 34.38,-110.5 83.38,-110.5 83.38,-129.75"/>
<text text-anchor="middle" x="58.88" y="-116.25" font-family="Helvetica,sans-Serif" font-size="10.00">Plane.h</text>
</a>
</g>
</g>
<!-- Node1&#45;&gt;Node4 -->
<g id="edge3_Node000001_Node000004" class="edge">
<title>Node1&#45;&gt;Node4</title>
<g id="a_edge3_Node000001_Node000004"><a xlink:title=" ">
<path fill="none" stroke="#63b8ff" d="M55.38,-220.8C56.08,-200.75 57.36,-164.4 58.16,-141.57"/>
<polygon fill="#63b8ff" stroke="#63b8ff" points="61.65,-141.83 58.5,-131.71 54.66,-141.58 61.65,-141.83"/>
</a>
</g>
</g>
<!-- Node5 -->
<g id="Node000005" class="node">
<title>Node5</title>
<g id="a_Node000005"><a xlink:href="_section_8h.html" target="_top" xlink:title=" ">
<polygon fill="white" stroke="#666666" points="140.5,-185 83.25,-185 83.25,-165.75 140.5,-165.75 140.5,-185"/>
<text text-anchor="middle" x="111.88" y="-171.5" font-family="Helvetica,sans-Serif" font-size="10.00">Section.h</text>
</a>
</g>
</g>
<!-- Node1&#45;&gt;Node5 -->
<g id="edge5_Node000001_Node000005" class="edge">
<title>Node1&#45;&gt;Node5</title>
<g id="a_edge5_Node000001_Node000005"><a xlink:title=" ">
<path fill="none" stroke="#63b8ff" d="M68.96,-220.7C76.89,-212.51 86.84,-202.23 95.16,-193.64"/>
<polygon fill="#63b8ff" stroke="#63b8ff" points="97.59,-196.16 102.04,-186.54 92.56,-191.29 97.59,-196.16"/>
</a>
</g>
</g>
<!-- Node3 -->
<g id="Node000003" class="node">
<title>Node3</title>
<g id="a_Node000003"><a xlink:title=" ">
<polygon fill="#e0e0e0" stroke="#999999" points="131.62,-19.25 78.12,-19.25 78.12,0 131.62,0 131.62,-19.25"/>
<text text-anchor="middle" x="104.88" y="-5.75" font-family="Helvetica,sans-Serif" font-size="10.00">iostream</text>
</a>
</g>
</g>
<!-- Node2&#45;&gt;Node3 -->
<g id="edge2_Node000002_Node000003" class="edge">
<title>Node2&#45;&gt;Node3</title>
<g id="a_edge2_Node000002_Node000003"><a xlink:title=" ">
<path fill="none" stroke="#63b8ff" d="M82.33,-55.08C85.83,-48.19 90.82,-38.34 95.22,-29.66"/>
<polygon fill="#63b8ff" stroke="#63b8ff" points="98.23,-31.46 99.64,-20.96 91.99,-28.3 98.23,-31.46"/>
</a>
</g>
</g>
<!-- Node4&#45;&gt;Node2 -->
<g id="edge4_Node000004_Node000002" class="edge">
<title>Node4&#45;&gt;Node2</title>
<g id="a_edge4_Node000004_Node000002"><a xlink:title=" ">
<path fill="none" stroke="#63b8ff" d="M62.01,-110.33C64.42,-103.59 67.83,-94.02 70.88,-85.49"/>
<polygon fill="#63b8ff" stroke="#63b8ff" points="74.1,-86.88 74.16,-76.28 67.5,-84.53 74.1,-86.88"/>
</a>
</g>
</g>
<!-- Node5&#45;&gt;Node2 -->
<g id="edge6_Node000005_Node000002" class="edge">
<title>Node5&#45;&gt;Node2</title>
<g id="a_edge6_Node000005_Node000002"><a xlink:title=" ">
<path fill="none" stroke="#63b8ff" d="M109.39,-165.67C105.85,-153.34 99.09,-130.13 92.88,-110.5 90.28,-102.32 87.3,-93.34 84.67,-85.6"/>
<polygon fill="#63b8ff" stroke="#63b8ff" points="87.99,-84.5 81.45,-76.17 81.37,-86.76 87.99,-84.5"/>
</a>
</g>
</g>
<!-- Node5&#45;&gt;Node3 -->
<g id="edge8_Node000005_Node000003" class="edge">
<title>Node5&#45;&gt;Node3</title>
<g id="a_edge8_Node000005_Node000003"><a xlink:title=" ">
<path fill="none" stroke="#63b8ff" d="M112.54,-165.38C113.89,-145.49 116.52,-96.25 112.88,-55.25 112.15,-47.12 110.7,-38.25 109.23,-30.57"/>
<polygon fill="#63b8ff" stroke="#63b8ff" points="112.69,-30.02 107.24,-20.93 105.84,-31.44 112.69,-30.02"/>
</a>
</g>
</g>
<!-- Node5&#45;&gt;Node4 -->
<g id="edge7_Node000005_Node000004" class="edge">
<title>Node5&#45;&gt;Node4</title>
<g id="a_edge7_Node000005_Node000004"><a xlink:title=" ">
<path fill="none" stroke="#63b8ff" d="M103.12,-165.58C95.73,-158.15 84.91,-147.29 75.83,-138.16"/>
<polygon fill="#63b8ff" stroke="#63b8ff" points="78.42,-135.8 68.88,-131.18 73.46,-140.74 78.42,-135.8"/>
</a>
</g>
</g>
</g>
</svg>
