<?xml version="1.0" encoding="UTF-8" standalone="no"?>
<!DOCTYPE svg PUBLIC "-//W3C//DTD SVG 1.1//EN"
 "http://www.w3.org/Graphics/SVG/1.1/DTD/svg11.dtd">
<!-- Generated by graphviz version 9.0.0 (20230911.1827)
 -->
<!-- Title: C:/Users/krisz/Documents/GitHub/STL_Slicer/STL_SLICER/include/Facet.h Pages: 1 -->
<svg width="159pt" height="276pt"
 viewBox="0.00 0.00 159.00 276.00" xmlns="http://www.w3.org/2000/svg" xmlns:xlink="http://www.w3.org/1999/xlink">
<g id="graph0" class="graph" transform="scale(1 1) rotate(0) translate(4 272)">
<title>C:/Users/krisz/Documents/GitHub/STL_Slicer/STL_SLICER/include/Facet.h</title>
<!-- Node1 -->
<g id="Node000001" class="node">
<title>Node1</title>
<g id="a_Node000001"><a xlink:title=" ">
<polygon fill="#999999" stroke="#666666" points="130.75,-268 0,-268 0,-224 130.75,-224 130.75,-268"/>
<text text-anchor="start" x="8" y="-254.5" font-family="Helvetica,sans-Serif" font-size="10.00">C:/Users/krisz/Documents</text>
<text text-anchor="start" x="8" y="-242.5" font-family="Helvetica,sans-Serif" font-size="10.00">/GitHub/STL_Slicer/STL</text>
<text text-anchor="middle" x="65.38" y="-230.5" font-family="Helvetica,sans-Serif" font-size="10.00">_SLICER/include/Facet.h</text>
</a>
</g>
</g>
<!-- Node2 -->
<g id="Node000002" class="node">
<title>Node2</title>
<g id="a_Node000002"><a xlink:href="_vector_8h.html" target="_top" xlink:title=" ">
<polygon fill="white" stroke="#666666" points="114.75,-76 62,-76 62,-56 114.75,-56 114.75,-76"/>
<text text-anchor="middle" x="88.38" y="-62.5" font-family="Helvetica,sans-Serif" font-size="10.00">Vector.h</text>
</a>
</g>
</g>
<!-- Node1&#45;&gt;Node2 -->
<g id="edge1_Node000001_Node000002" class="edge">
<title>Node1&#45;&gt;Node2</title>
<g id="a_edge1_Node000001_Node000002"><a xlink:title=" ">
<path fill="none" stroke="#63b8ff" d="M52.85,-223.85C38.6,-196.85 19.38,-149.18 36.38,-112 41.75,-100.23 51.9,-90.36 61.81,-82.9"/>
<polygon fill="#63b8ff" stroke="#63b8ff" points="63.59,-85.91 69.83,-77.35 59.61,-80.16 63.59,-85.91"/>
</a>
</g>
</g>
<!-- Node4 -->
<g id="Node000004" class="node">
<title>Node4</title>
<g id="a_Node000004"><a xlink:href="_plane_8h.html" target="_top" xlink:title=" ">
<polygon fill="white" stroke="#666666" points="93.88,-132 44.88,-132 44.88,-112 93.88,-112 93.88,-132"/>
<text text-anchor="middle" x="69.38" y="-118.5" font-family="Helvetica,sans-Serif" font-size="10.00">Plane.h</text>
</a>
</g>
</g>
<!-- Node1&#45;&gt;Node4 -->
<g id="edge3_Node000001_Node000004" class="edge">
<title>Node1&#45;&gt;Node4</title>
<g id="a_edge3_Node000001_Node000004"><a xlink:title=" ">
<path fill="none" stroke="#63b8ff" d="M66.07,-223.75C66.81,-201.26 67.96,-166.02 68.7,-143.73"/>
<polygon fill="#63b8ff" stroke="#63b8ff" points="72.19,-143.92 69.02,-133.81 65.19,-143.69 72.19,-143.92"/>
</a>
</g>
</g>
<!-- Node5 -->
<g id="Node000005" class="node">
<title>Node5</title>
<g id="a_Node000005"><a xlink:href="_section_8h.html" target="_top" xlink:title=" ">
<polygon fill="white" stroke="#666666" points="151,-188 93.75,-188 93.75,-168 151,-168 151,-188"/>
<text text-anchor="middle" x="122.38" y="-174.5" font-family="Helvetica,sans-Serif" font-size="10.00">Section.h</text>
</a>
</g>
</g>
<!-- Node1&#45;&gt;Node5 -->
<g id="edge5_Node000001_Node000005" class="edge">
<title>Node1&#45;&gt;Node5</title>
<g id="a_edge5_Node000001_Node000005"><a xlink:title=" ">
<path fill="none" stroke="#63b8ff" d="M83.72,-223.75C91.2,-215.1 99.74,-205.21 106.89,-196.93"/>
<polygon fill="#63b8ff" stroke="#63b8ff" points="109.36,-199.42 113.25,-189.56 104.07,-194.84 109.36,-199.42"/>
</a>
</g>
</g>
<!-- Node3 -->
<g id="Node000003" class="node">
<title>Node3</title>
<g id="a_Node000003"><a xlink:title=" ">
<polygon fill="#e0e0e0" stroke="#999999" points="142.12,-20 88.62,-20 88.62,0 142.12,0 142.12,-20"/>
<text text-anchor="middle" x="115.38" y="-6.5" font-family="Helvetica,sans-Serif" font-size="10.00">iostream</text>
</a>
</g>
</g>
<!-- Node2&#45;&gt;Node3 -->
<g id="edge2_Node000002_Node000003" class="edge">
<title>Node2&#45;&gt;Node3</title>
<g id="a_edge2_Node000002_Node000003"><a xlink:title=" ">
<path fill="none" stroke="#63b8ff" d="M93.08,-55.59C96.52,-48.7 101.32,-39.1 105.59,-30.57"/>
<polygon fill="#63b8ff" stroke="#63b8ff" points="108.71,-32.16 110.05,-21.65 102.45,-29.03 108.71,-32.16"/>
</a>
</g>
</g>
<!-- Node4&#45;&gt;Node2 -->
<g id="edge4_Node000004_Node000002" class="edge">
<title>Node4&#45;&gt;Node2</title>
<g id="a_edge4_Node000004_Node000002"><a xlink:title=" ">
<path fill="none" stroke="#63b8ff" d="M72.68,-111.59C75.05,-104.86 78.34,-95.53 81.28,-87.15"/>
<polygon fill="#63b8ff" stroke="#63b8ff" points="84.58,-88.32 84.6,-77.73 77.98,-86 84.58,-88.32"/>
</a>
</g>
</g>
<!-- Node5&#45;&gt;Node2 -->
<g id="edge6_Node000005_Node000002" class="edge">
<title>Node5&#45;&gt;Node2</title>
<g id="a_edge6_Node000005_Node000002"><a xlink:title=" ">
<path fill="none" stroke="#63b8ff" d="M119.78,-167.71C116.22,-155.07 109.55,-131.75 103.38,-112 100.8,-103.75 97.81,-94.71 95.19,-86.9"/>
<polygon fill="#63b8ff" stroke="#63b8ff" points="98.59,-86.05 92.07,-77.71 91.97,-88.3 98.59,-86.05"/>
</a>
</g>
</g>
<!-- Node5&#45;&gt;Node3 -->
<g id="edge8_Node000005_Node000003" class="edge">
<title>Node5&#45;&gt;Node3</title>
<g id="a_edge8_Node000005_Node000003"><a xlink:title=" ">
<path fill="none" stroke="#63b8ff" d="M123.07,-167.56C124.43,-147.16 127.03,-97.43 123.38,-56 122.66,-47.9 121.24,-39.08 119.79,-31.41"/>
<polygon fill="#63b8ff" stroke="#63b8ff" points="123.24,-30.83 117.81,-21.73 116.38,-32.22 123.24,-30.83"/>
</a>
</g>
</g>
<!-- Node5&#45;&gt;Node4 -->
<g id="edge7_Node000005_Node000004" class="edge">
<title>Node5&#45;&gt;Node4</title>
<g id="a_edge7_Node000005_Node000004"><a xlink:title=" ">
<path fill="none" stroke="#63b8ff" d="M113.14,-167.59C105.77,-160.08 95.24,-149.35 86.36,-140.3"/>
<polygon fill="#63b8ff" stroke="#63b8ff" points="89.06,-138.06 79.56,-133.38 84.07,-142.97 89.06,-138.06"/>
</a>
</g>
</g>
</g>
</svg>
