<?xml version="1.0" encoding="UTF-8" standalone="no"?>
<!DOCTYPE svg PUBLIC "-//W3C//DTD SVG 1.1//EN"
 "http://www.w3.org/Graphics/SVG/1.1/DTD/svg11.dtd">
<!-- Generated by graphviz version 9.0.0 (20230911.1827)
 -->
<!-- Title: C:/Users/krisz/Documents/GitHub/STL_Slicer/STL_SLICER/include/Facet.h Pages: 1 -->
<svg width="560pt" height="212pt"
 viewBox="0.00 0.00 559.75 212.00" xmlns="http://www.w3.org/2000/svg" xmlns:xlink="http://www.w3.org/1999/xlink">
<g id="graph0" class="graph" transform="scale(1 1) rotate(0) translate(4 208)">
<title>C:/Users/krisz/Documents/GitHub/STL_Slicer/STL_SLICER/include/Facet.h</title>
<!-- Node1 -->
<g id="Node000001" class="node">
<title>Node1</title>
<g id="a_Node000001"><a xlink:title=" ">
<polygon fill="#999999" stroke="#666666" points="363.75,-204 233,-204 233,-160 363.75,-160 363.75,-204"/>
<text text-anchor="start" x="241" y="-190.5" font-family="Helvetica,sans-Serif" font-size="10.00">C:/Users/krisz/Documents</text>
<text text-anchor="start" x="241" y="-178.5" font-family="Helvetica,sans-Serif" font-size="10.00">/GitHub/STL_Slicer/STL</text>
<text text-anchor="middle" x="298.38" y="-166.5" font-family="Helvetica,sans-Serif" font-size="10.00">_SLICER/include/Facet.h</text>
</a>
</g>
</g>
<!-- Node2 -->
<g id="Node000002" class="node">
<title>Node2</title>
<g id="a_Node000002"><a xlink:href="_gcode_8h.html" target="_top" xlink:title=" ">
<polygon fill="white" stroke="#666666" points="175.75,-124 45,-124 45,-80 175.75,-80 175.75,-124"/>
<text text-anchor="start" x="53" y="-110.5" font-family="Helvetica,sans-Serif" font-size="10.00">C:/Users/krisz/Documents</text>
<text text-anchor="start" x="53" y="-98.5" font-family="Helvetica,sans-Serif" font-size="10.00">/GitHub/STL_Slicer/STL</text>
<text text-anchor="middle" x="110.38" y="-86.5" font-family="Helvetica,sans-Serif" font-size="10.00">_SLICER/include/Gcode.h</text>
</a>
</g>
</g>
<!-- Node1&#45;&gt;Node2 -->
<g id="edge1_Node000001_Node000002" class="edge">
<title>Node1&#45;&gt;Node2</title>
<g id="a_edge1_Node000001_Node000002"><a xlink:title=" ">
<path fill="none" stroke="#63b8ff" d="M236.53,-155.34C212.4,-145.33 185.06,-133.99 162.01,-124.42"/>
<polygon fill="#63b8ff" stroke="#63b8ff" points="235.03,-158.51 245.61,-159.11 237.71,-152.04 235.03,-158.51"/>
</a>
</g>
</g>
<!-- Node4 -->
<g id="Node000004" class="node">
<title>Node4</title>
<g id="a_Node000004"><a xlink:href="main_8cpp.html" target="_top" xlink:title=" ">
<polygon fill="white" stroke="#666666" points="279.75,-44 149,-44 149,0 279.75,0 279.75,-44"/>
<text text-anchor="start" x="157" y="-30.5" font-family="Helvetica,sans-Serif" font-size="10.00">C:/Users/krisz/Documents</text>
<text text-anchor="start" x="157" y="-18.5" font-family="Helvetica,sans-Serif" font-size="10.00">/GitHub/STL_Slicer/STL</text>
<text text-anchor="middle" x="214.38" y="-6.5" font-family="Helvetica,sans-Serif" font-size="10.00">_SLICER/src/main.cpp</text>
</a>
</g>
</g>
<!-- Node1&#45;&gt;Node4 -->
<g id="edge9_Node000001_Node000004" class="edge">
<title>Node1&#45;&gt;Node4</title>
<g id="a_edge9_Node000001_Node000004"><a xlink:title=" ">
<path fill="none" stroke="#63b8ff" d="M248.28,-153.03C238.09,-144.99 228.59,-135.29 222.38,-124 208.72,-99.19 209.08,-65.64 211.22,-44.15"/>
<polygon fill="#63b8ff" stroke="#63b8ff" points="246,-155.7 256.14,-158.77 250.13,-150.05 246,-155.7"/>
</a>
</g>
</g>
<!-- Node5 -->
<g id="Node000005" class="node">
<title>Node5</title>
<g id="a_Node000005"><a xlink:href="_s_t_l_file_8h.html" target="_top" xlink:title=" ">
<polygon fill="white" stroke="#666666" points="365.25,-124 231.5,-124 231.5,-80 365.25,-80 365.25,-124"/>
<text text-anchor="start" x="239.5" y="-110.5" font-family="Helvetica,sans-Serif" font-size="10.00">C:/Users/krisz/Documents</text>
<text text-anchor="start" x="239.5" y="-98.5" font-family="Helvetica,sans-Serif" font-size="10.00">/GitHub/STL_Slicer/STL</text>
<text text-anchor="middle" x="298.38" y="-86.5" font-family="Helvetica,sans-Serif" font-size="10.00">_SLICER/include/STLFile.h</text>
</a>
</g>
</g>
<!-- Node1&#45;&gt;Node5 -->
<g id="edge4_Node000001_Node000005" class="edge">
<title>Node1&#45;&gt;Node5</title>
<g id="a_edge4_Node000001_Node000005"><a xlink:title=" ">
<path fill="none" stroke="#63b8ff" d="M298.38,-148.25C298.38,-140.15 298.38,-131.68 298.38,-124.29"/>
<polygon fill="#63b8ff" stroke="#63b8ff" points="294.88,-148.17 298.38,-158.17 301.88,-148.17 294.88,-148.17"/>
</a>
</g>
</g>
<!-- Node6 -->
<g id="Node000006" class="node">
<title>Node6</title>
<g id="a_Node000006"><a xlink:href="_s_t_l_file_8cpp.html" target="_top" xlink:title=" ">
<polygon fill="white" stroke="#666666" points="448.75,-44 318,-44 318,0 448.75,0 448.75,-44"/>
<text text-anchor="start" x="326" y="-30.5" font-family="Helvetica,sans-Serif" font-size="10.00">C:/Users/krisz/Documents</text>
<text text-anchor="start" x="326" y="-18.5" font-family="Helvetica,sans-Serif" font-size="10.00">/GitHub/STL_Slicer/STL</text>
<text text-anchor="middle" x="383.38" y="-6.5" font-family="Helvetica,sans-Serif" font-size="10.00">_SLICER/src/STLFile.cpp</text>
</a>
</g>
</g>
<!-- Node1&#45;&gt;Node6 -->
<g id="edge8_Node000001_Node000006" class="edge">
<title>Node1&#45;&gt;Node6</title>
<g id="a_edge8_Node000001_Node000006"><a xlink:title=" ">
<path fill="none" stroke="#63b8ff" d="M348.38,-152.99C358.59,-144.95 368.11,-135.26 374.38,-124 388.16,-99.24 388.17,-65.67 386.27,-44.17"/>
<polygon fill="#63b8ff" stroke="#63b8ff" points="346.54,-150 340.53,-158.73 350.67,-155.65 346.54,-150"/>
</a>
</g>
</g>
<!-- Node7 -->
<g id="Node000007" class="node">
<title>Node7</title>
<g id="a_Node000007"><a xlink:href="_facet_8cpp.html" target="_top" xlink:title=" ">
<polygon fill="white" stroke="#666666" points="551.75,-124 421,-124 421,-80 551.75,-80 551.75,-124"/>
<text text-anchor="start" x="429" y="-110.5" font-family="Helvetica,sans-Serif" font-size="10.00">C:/Users/krisz/Documents</text>
<text text-anchor="start" x="429" y="-98.5" font-family="Helvetica,sans-Serif" font-size="10.00">/GitHub/STL_Slicer/STL</text>
<text text-anchor="middle" x="486.38" y="-86.5" font-family="Helvetica,sans-Serif" font-size="10.00">_SLICER/src/Facet.cpp</text>
</a>
</g>
</g>
<!-- Node1&#45;&gt;Node7 -->
<g id="edge7_Node000001_Node000007" class="edge">
<title>Node1&#45;&gt;Node7</title>
<g id="a_edge7_Node000001_Node000007"><a xlink:title=" ">
<path fill="none" stroke="#63b8ff" d="M360.22,-155.34C384.35,-145.33 411.69,-133.99 434.74,-124.42"/>
<polygon fill="#63b8ff" stroke="#63b8ff" points="359.04,-152.04 351.14,-159.11 361.72,-158.51 359.04,-152.04"/>
</a>
</g>
</g>
<!-- Node3 -->
<g id="Node000003" class="node">
<title>Node3</title>
<g id="a_Node000003"><a xlink:href="_gcode_8cpp.html" target="_top" xlink:title=" ">
<polygon fill="white" stroke="#666666" points="130.75,-44 0,-44 0,0 130.75,0 130.75,-44"/>
<text text-anchor="start" x="8" y="-30.5" font-family="Helvetica,sans-Serif" font-size="10.00">C:/Users/krisz/Documents</text>
<text text-anchor="start" x="8" y="-18.5" font-family="Helvetica,sans-Serif" font-size="10.00">/GitHub/STL_Slicer/STL</text>
<text text-anchor="middle" x="65.38" y="-6.5" font-family="Helvetica,sans-Serif" font-size="10.00">_SLICER/src/Gcode.cpp</text>
</a>
</g>
</g>
<!-- Node2&#45;&gt;Node3 -->
<g id="edge2_Node000002_Node000003" class="edge">
<title>Node2&#45;&gt;Node3</title>
<g id="a_edge2_Node000002_Node000003"><a xlink:title=" ">
<path fill="none" stroke="#63b8ff" d="M92.46,-69.94C87.49,-61.34 82.22,-52.2 77.66,-44.29"/>
<polygon fill="#63b8ff" stroke="#63b8ff" points="89.29,-71.46 97.32,-78.38 95.36,-67.96 89.29,-71.46"/>
</a>
</g>
</g>
<!-- Node2&#45;&gt;Node4 -->
<g id="edge3_Node000002_Node000004" class="edge">
<title>Node2&#45;&gt;Node4</title>
<g id="a_edge3_Node000002_Node000004"><a xlink:title=" ">
<path fill="none" stroke="#63b8ff" d="M147.71,-73C160.32,-63.54 174.19,-53.14 185.99,-44.29"/>
<polygon fill="#63b8ff" stroke="#63b8ff" points="145.9,-69.98 140,-78.78 150.1,-75.58 145.9,-69.98"/>
</a>
</g>
</g>
<!-- Node5&#45;&gt;Node4 -->
<g id="edge6_Node000005_Node000004" class="edge">
<title>Node5&#45;&gt;Node4</title>
<g id="a_edge6_Node000005_Node000004"><a xlink:title=" ">
<path fill="none" stroke="#63b8ff" d="M267.03,-71.89C257.17,-62.74 246.46,-52.8 237.3,-44.29"/>
<polygon fill="#63b8ff" stroke="#63b8ff" points="264.6,-74.42 274.31,-78.66 269.37,-69.29 264.6,-74.42"/>
</a>
</g>
</g>
<!-- Node5&#45;&gt;Node6 -->
<g id="edge5_Node000005_Node000006" class="edge">
<title>Node5&#45;&gt;Node6</title>
<g id="a_edge5_Node000005_Node000006"><a xlink:title=" ">
<path fill="none" stroke="#63b8ff" d="M329.79,-72.17C339.85,-62.94 350.81,-52.88 360.18,-44.29"/>
<polygon fill="#63b8ff" stroke="#63b8ff" points="327.72,-69.32 322.72,-78.66 332.45,-74.48 327.72,-69.32"/>
</a>
</g>
</g>
</g>
</svg>
