<?xml version="1.0" encoding="UTF-8" standalone="no"?>
<!DOCTYPE svg PUBLIC "-//W3C//DTD SVG 1.1//EN"
 "http://www.w3.org/Graphics/SVG/1.1/DTD/svg11.dtd">
<!-- Generated by graphviz version 10.0.1 (20240210.2158)
 -->
<!-- Title: STL_SLICER/src/Facet.cpp Pages: 1 -->
<svg width="194pt" height="304pt"
 viewBox="0.00 0.00 194.17 303.50" xmlns="http://www.w3.org/2000/svg" xmlns:xlink="http://www.w3.org/1999/xlink">
<g id="graph0" class="graph" transform="scale(1 1) rotate(0) translate(4 299.5)">
<title>STL_SLICER/src/Facet.cpp</title>
<!-- Node1 -->
<g id="Node000001" class="node">
<title>Node1</title>
<g id="a_Node000001"><a xlink:title=" ">
<polygon fill="#999999" stroke="#666666" points="151.67,-295.5 12.67,-295.5 12.67,-276.25 151.67,-276.25 151.67,-295.5"/>
<text text-anchor="middle" x="82.17" y="-282" font-family="Helvetica,sans-Serif" font-size="10.00">STL_SLICER/src/Facet.cpp</text>
</a>
</g>
</g>
<!-- Node2 -->
<g id="Node000002" class="node">
<title>Node2</title>
<g id="a_Node000002"><a xlink:href="_facet_8h.html" target="_top" xlink:title=" ">
<polygon fill="white" stroke="#666666" points="78.67,-240.25 29.67,-240.25 29.67,-221 78.67,-221 78.67,-240.25"/>
<text text-anchor="middle" x="54.17" y="-226.75" font-family="Helvetica,sans-Serif" font-size="10.00">Facet.h</text>
</a>
</g>
</g>
<!-- Node1&#45;&gt;Node2 -->
<g id="edge1_Node000001_Node000002" class="edge">
<title>Node1&#45;&gt;Node2</title>
<g id="a_edge1_Node000001_Node000002"><a xlink:title=" ">
<path fill="none" stroke="#63b8ff" d="M77.55,-276.08C73.92,-269.19 68.75,-259.34 64.18,-250.66"/>
<polygon fill="#63b8ff" stroke="#63b8ff" points="67.35,-249.17 59.6,-241.95 61.16,-252.43 67.35,-249.17"/>
</a>
</g>
</g>
<!-- Node3 -->
<g id="Node000003" class="node">
<title>Node3</title>
<g id="a_Node000003"><a xlink:href="_vector_8h.html" target="_top" xlink:title=" ">
<polygon fill="white" stroke="#666666" points="83.17,-74.5 31.17,-74.5 31.17,-55.25 83.17,-55.25 83.17,-74.5"/>
<text text-anchor="middle" x="57.17" y="-61" font-family="Helvetica,sans-Serif" font-size="10.00">Vector.h</text>
</a>
</g>
</g>
<!-- Node1&#45;&gt;Node3 -->
<g id="edge12_Node000001_Node000003" class="edge">
<title>Node1&#45;&gt;Node3</title>
<g id="a_edge12_Node000001_Node000003"><a xlink:title=" ">
<path fill="none" stroke="#63b8ff" d="M60.92,-275.77C46.66,-268.43 28.94,-256.62 20.17,-240.25 -7.06,-189.39 -4.77,-164.26 16.17,-110.5 20.34,-99.82 28.39,-90.14 36.26,-82.55"/>
<polygon fill="#63b8ff" stroke="#63b8ff" points="38.56,-85.19 43.72,-75.93 33.92,-79.95 38.56,-85.19"/>
</a>
</g>
</g>
<!-- Node4 -->
<g id="Node000004" class="node">
<title>Node4</title>
<g id="a_Node000004"><a xlink:title=" ">
<polygon fill="#e0e0e0" stroke="#999999" points="174.92,-19.25 121.42,-19.25 121.42,0 174.92,0 174.92,-19.25"/>
<text text-anchor="middle" x="148.17" y="-5.75" font-family="Helvetica,sans-Serif" font-size="10.00">iostream</text>
</a>
</g>
</g>
<!-- Node1&#45;&gt;Node4 -->
<g id="edge11_Node000001_Node000004" class="edge">
<title>Node1&#45;&gt;Node4</title>
<g id="a_edge11_Node000001_Node000004"><a xlink:title=" ">
<path fill="none" stroke="#63b8ff" d="M101.25,-275.86C131.27,-260.19 186.17,-224.91 186.17,-176.38 186.17,-176.38 186.17,-176.38 186.17,-119.12 186.17,-86.13 170.33,-50.51 159.11,-29.41"/>
<polygon fill="#63b8ff" stroke="#63b8ff" points="162.27,-27.9 154.35,-20.86 156.15,-31.3 162.27,-27.9"/>
</a>
</g>
</g>
<!-- Node6 -->
<g id="Node000006" class="node">
<title>Node6</title>
<g id="a_Node000006"><a xlink:href="_section_8h.html" target="_top" xlink:title=" ">
<polygon fill="white" stroke="#666666" points="138.8,-185 81.55,-185 81.55,-165.75 138.8,-165.75 138.8,-185"/>
<text text-anchor="middle" x="110.17" y="-171.5" font-family="Helvetica,sans-Serif" font-size="10.00">Section.h</text>
</a>
</g>
</g>
<!-- Node1&#45;&gt;Node6 -->
<g id="edge10_Node000001_Node000006" class="edge">
<title>Node1&#45;&gt;Node6</title>
<g id="a_edge10_Node000001_Node000006"><a xlink:title=" ">
<path fill="none" stroke="#63b8ff" d="M84.47,-276C88.94,-258.67 98.92,-219.98 105.05,-196.24"/>
<polygon fill="#63b8ff" stroke="#63b8ff" points="108.36,-197.4 107.47,-186.84 101.58,-195.65 108.36,-197.4"/>
</a>
</g>
</g>
<!-- Node2&#45;&gt;Node3 -->
<g id="edge2_Node000002_Node000003" class="edge">
<title>Node2&#45;&gt;Node3</title>
<g id="a_edge2_Node000002_Node000003"><a xlink:title=" ">
<path fill="none" stroke="#63b8ff" d="M48.22,-220.53C35.85,-200.43 9.57,-150.79 23.17,-110.5 26.58,-100.4 33.3,-90.77 39.86,-83.07"/>
<polygon fill="#63b8ff" stroke="#63b8ff" points="42.33,-85.55 46.54,-75.83 37.19,-80.8 42.33,-85.55"/>
</a>
</g>
</g>
<!-- Node5 -->
<g id="Node000005" class="node">
<title>Node5</title>
<g id="a_Node000005"><a xlink:href="_plane_8h.html" target="_top" xlink:title=" ">
<polygon fill="white" stroke="#666666" points="81.67,-129.75 32.67,-129.75 32.67,-110.5 81.67,-110.5 81.67,-129.75"/>
<text text-anchor="middle" x="57.17" y="-116.25" font-family="Helvetica,sans-Serif" font-size="10.00">Plane.h</text>
</a>
</g>
</g>
<!-- Node2&#45;&gt;Node5 -->
<g id="edge4_Node000002_Node000005" class="edge">
<title>Node2&#45;&gt;Node5</title>
<g id="a_edge4_Node000002_Node000005"><a xlink:title=" ">
<path fill="none" stroke="#63b8ff" d="M54.42,-220.75C54.9,-203.5 55.96,-165.08 56.62,-141.31"/>
<polygon fill="#63b8ff" stroke="#63b8ff" points="60.11,-141.73 56.88,-131.64 53.11,-141.54 60.11,-141.73"/>
</a>
</g>
</g>
<!-- Node2&#45;&gt;Node6 -->
<g id="edge6_Node000002_Node000006" class="edge">
<title>Node2&#45;&gt;Node6</title>
<g id="a_edge6_Node000002_Node000006"><a xlink:title=" ">
<path fill="none" stroke="#63b8ff" d="M63.67,-220.59C71.61,-213.05 83.12,-202.1 92.71,-192.98"/>
<polygon fill="#63b8ff" stroke="#63b8ff" points="94.88,-195.74 99.72,-186.32 90.06,-190.67 94.88,-195.74"/>
</a>
</g>
</g>
<!-- Node3&#45;&gt;Node4 -->
<g id="edge3_Node000003_Node000004" class="edge">
<title>Node3&#45;&gt;Node4</title>
<g id="a_edge3_Node000003_Node000004"><a xlink:title=" ">
<path fill="none" stroke="#63b8ff" d="M72.61,-54.84C86.34,-46.81 106.67,-34.91 122.79,-25.48"/>
<polygon fill="#63b8ff" stroke="#63b8ff" points="124.49,-28.54 131.35,-20.47 120.96,-22.5 124.49,-28.54"/>
</a>
</g>
</g>
<!-- Node5&#45;&gt;Node3 -->
<g id="edge5_Node000005_Node000003" class="edge">
<title>Node5&#45;&gt;Node3</title>
<g id="a_edge5_Node000005_Node000003"><a xlink:title=" ">
<path fill="none" stroke="#63b8ff" d="M57.17,-110.33C57.17,-103.82 57.17,-94.67 57.17,-86.37"/>
<polygon fill="#63b8ff" stroke="#63b8ff" points="60.67,-86.37 57.17,-76.37 53.67,-86.37 60.67,-86.37"/>
</a>
</g>
</g>
<!-- Node6&#45;&gt;Node3 -->
<g id="edge7_Node000006_Node000003" class="edge">
<title>Node6&#45;&gt;Node3</title>
<g id="a_edge7_Node000006_Node000003"><a xlink:title=" ">
<path fill="none" stroke="#63b8ff" d="M108.56,-165.31C106.04,-152.57 100.5,-128.86 91.17,-110.5 86.28,-100.87 79.25,-91.21 72.84,-83.35"/>
<polygon fill="#63b8ff" stroke="#63b8ff" points="75.67,-81.27 66.52,-75.93 70.34,-85.81 75.67,-81.27"/>
</a>
</g>
</g>
<!-- Node6&#45;&gt;Node4 -->
<g id="edge9_Node000006_Node000004" class="edge">
<title>Node6&#45;&gt;Node4</title>
<g id="a_edge9_Node000006_Node000004"><a xlink:title=" ">
<path fill="none" stroke="#63b8ff" d="M112.22,-165.57C118.12,-140.14 135.3,-66.1 143.59,-30.37"/>
<polygon fill="#63b8ff" stroke="#63b8ff" points="146.93,-31.48 145.78,-20.95 140.11,-29.9 146.93,-31.48"/>
</a>
</g>
</g>
<!-- Node6&#45;&gt;Node5 -->
<g id="edge8_Node000006_Node000005" class="edge">
<title>Node6&#45;&gt;Node5</title>
<g id="a_edge8_Node000006_Node000005"><a xlink:title=" ">
<path fill="none" stroke="#63b8ff" d="M101.42,-165.58C94.02,-158.15 83.21,-147.29 74.13,-138.16"/>
<polygon fill="#63b8ff" stroke="#63b8ff" points="76.72,-135.8 67.18,-131.18 71.76,-140.74 76.72,-135.8"/>
</a>
</g>
</g>
</g>
</svg>
