<?xml version="1.0" encoding="UTF-8" standalone="no"?>
<!DOCTYPE svg PUBLIC "-//W3C//DTD SVG 1.1//EN"
 "http://www.w3.org/Graphics/SVG/1.1/DTD/svg11.dtd">
<!-- Generated by graphviz version 10.0.1 (20240210.2158)
 -->
<!-- Title: STL_SLICER/include/Facet.h Pages: 1 -->
<!--zoomable 160 -->

<svg id="main" version="1.1" xmlns="http://www.w3.org/2000/svg" xmlns:xlink="http://www.w3.org/1999/xlink" xml:space="preserve" onload="init(evt)">
<style type="text/css"><![CDATA[
.node, .edge {opacity: 0.7;}
.node.selected, .edge.selected {opacity: 1;}
.edge:hover path { stroke: red; }
.edge:hover polygon { stroke: red; fill: red; }
]]></style>

<defs>
  <circle id="rim" cx="0" cy="0" r="7"/>
  <circle id="rim2" cx="0" cy="0" r="3.5"/>
  <g id="zoomPlus">
    <use xlink:href="#rim" fill="#404040"><set attributeName="fill" to="#808080" begin="zoomplus.mouseover" end="zoomplus.mouseout"/></use>
    <path d="M-4,0h8M0,-4v8" fill="none" stroke="white" stroke-width="1.5" pointer-events="none"/>
  </g>
  <g id="zoomMin">
    <use xlink:href="#rim" fill="#404040"><set attributeName="fill" to="#808080" begin="zoomminus.mouseover" end="zoomminus.mouseout"/></use>
    <path d="M-4,0h8" fill="none" stroke="white" stroke-width="1.5" pointer-events="none"/>
  </g>
  <g id="arrowUp" transform="translate(30 24)">
    <use xlink:href="#rim"/>
    <path pointer-events="none" fill="none" stroke="white" stroke-width="1.5" d="M0,-3.0v7 M-2.5,-0.5L0,-3.0L2.5,-0.5"/>
  </g>
  <g id="arrowRight" transform="rotate(90) translate(36 -43)">
    <use xlink:href="#rim"/>
    <path pointer-events="none" fill="none" stroke="white" stroke-width="1.5" d="M0,-3.0v7 M-2.5,-0.5L0,-3.0L2.5,-0.5"/>
  </g>
  <g id="arrowDown" transform="rotate(180) translate(-30 -48)">
    <use xlink:href="#rim"/>
    <path pointer-events="none" fill="none" stroke="white" stroke-width="1.5" d="M0,-3.0v7 M-2.5,-0.5L0,-3.0L2.5,-0.5"/>
  </g>
  <g id="arrowLeft" transform="rotate(270) translate(-36 17)">
    <use xlink:href="#rim"/>
    <path pointer-events="none" fill="none" stroke="white" stroke-width="1.5" d="M0,-3.0v7 M-2.5,-0.5L0,-3.0L2.5,-0.5"/>
  </g>
  <g id="resetDef">
    <use xlink:href="#rim2" fill="#404040"><set attributeName="fill" to="#808080" begin="reset.mouseover" end="reset.mouseout"/></use>
  </g>
</defs>
<script type="application/ecmascript">
var viewWidth = 568;
var viewHeight = 160;
var sectionId = 'dynsection-1';
</script>
<script type="application/ecmascript" xlink:href="svg.min.js"/>
<svg id="graph" class="graph">
<g id="viewport">
<title>STL_SLICER/include/Facet.h</title>
<!-- Node1 -->
<g id="Node000001" class="node">
<title>Node1</title>
<g id="a_Node000001"><a xlink:title=" ">
<polygon fill="#999999" stroke="#666666" points="364.25,-152.25 254.5,-152.25 254.5,-121.75 364.25,-121.75 364.25,-152.25"/>
<text text-anchor="start" x="262.5" y="-138.75" font-family="Helvetica,sans-Serif" font-size="10.00">STL_SLICER/include</text>
<text text-anchor="middle" x="309.38" y="-127.5" font-family="Helvetica,sans-Serif" font-size="10.00">/Facet.h</text>
</a>
</g>
</g>
<!-- Node2 -->
<g id="Node000002" class="node">
<title>Node2</title>
<g id="a_Node000002"><a xlink:href="_gcode_8h.html" target="_top" xlink:title=" ">
<polygon fill="white" stroke="#666666" points="198.25,-85.75 88.5,-85.75 88.5,-55.25 198.25,-55.25 198.25,-85.75"/>
<text text-anchor="start" x="96.5" y="-72.25" font-family="Helvetica,sans-Serif" font-size="10.00">STL_SLICER/include</text>
<text text-anchor="middle" x="143.38" y="-61" font-family="Helvetica,sans-Serif" font-size="10.00">/Gcode.h</text>
</a>
</g>
</g>
<!-- Node1&#45;&gt;Node2 -->
<g id="edge1_Node000001_Node000002" class="edge">
<title>Node1&#45;&gt;Node2</title>
<g id="a_edge1_Node000001_Node000002"><a xlink:title=" ">
<path fill="none" stroke="#63b8ff" d="M261.16,-117.26C235.69,-107.37 204.9,-95.4 181.18,-86.19"/>
<polygon fill="#63b8ff" stroke="#63b8ff" points="259.71,-120.46 270.3,-120.82 262.24,-113.93 259.71,-120.46"/>
</a>
</g>
</g>
<!-- Node4 -->
<g id="Node000004" class="node">
<title>Node4</title>
<g id="a_Node000004"><a xlink:href="main_8cpp.html" target="_top" xlink:title=" ">
<polygon fill="white" stroke="#666666" points="296,-19.25 160.75,-19.25 160.75,0 296,0 296,-19.25"/>
<text text-anchor="middle" x="228.38" y="-5.75" font-family="Helvetica,sans-Serif" font-size="10.00">STL_SLICER/src/main.cpp</text>
</a>
</g>
</g>
<!-- Node1&#45;&gt;Node4 -->
<g id="edge9_Node000001_Node000004" class="edge">
<title>Node1&#45;&gt;Node4</title>
<g id="a_edge9_Node000001_Node000004"><a xlink:title=" ">
<path fill="none" stroke="#63b8ff" d="M273.83,-114.87C263.24,-106.96 252.56,-97.11 245.38,-85.75 232.08,-64.73 229.13,-34.6 228.51,-19.69"/>
<polygon fill="#63b8ff" stroke="#63b8ff" points="271.58,-117.56 281.78,-120.43 275.59,-111.83 271.58,-117.56"/>
</a>
</g>
</g>
<!-- Node5 -->
<g id="Node000005" class="node">
<title>Node5</title>
<g id="a_Node000005"><a xlink:href="_s_t_l_file_8h.html" target="_top" xlink:title=" ">
<polygon fill="white" stroke="#666666" points="364.25,-85.75 254.5,-85.75 254.5,-55.25 364.25,-55.25 364.25,-85.75"/>
<text text-anchor="start" x="262.5" y="-72.25" font-family="Helvetica,sans-Serif" font-size="10.00">STL_SLICER/include</text>
<text text-anchor="middle" x="309.38" y="-61" font-family="Helvetica,sans-Serif" font-size="10.00">/STLFile.h</text>
</a>
</g>
</g>
<!-- Node1&#45;&gt;Node5 -->
<g id="edge4_Node000001_Node000005" class="edge">
<title>Node1&#45;&gt;Node5</title>
<g id="a_edge4_Node000001_Node000005"><a xlink:title=" ">
<path fill="none" stroke="#63b8ff" d="M309.38,-110.06C309.38,-101.89 309.38,-93.16 309.38,-86.08"/>
<polygon fill="#63b8ff" stroke="#63b8ff" points="305.88,-109.85 309.38,-119.85 312.88,-109.85 305.88,-109.85"/>
</a>
</g>
</g>
<!-- Node6 -->
<g id="Node000006" class="node">
<title>Node6</title>
<g id="a_Node000006"><a xlink:href="_s_t_l_file_8cpp.html" target="_top" xlink:title=" ">
<polygon fill="white" stroke="#666666" points="465.38,-19.25 317.38,-19.25 317.38,0 465.38,0 465.38,-19.25"/>
<text text-anchor="middle" x="391.38" y="-5.75" font-family="Helvetica,sans-Serif" font-size="10.00">STL_SLICER/src/STLFile.cpp</text>
</a>
</g>
</g>
<!-- Node1&#45;&gt;Node6 -->
<g id="edge8_Node000001_Node000006" class="edge">
<title>Node1&#45;&gt;Node6</title>
<g id="a_edge8_Node000001_Node000006"><a xlink:title=" ">
<path fill="none" stroke="#63b8ff" d="M344.58,-115C355.25,-107.07 366.06,-97.16 373.38,-85.75 386.84,-64.75 390.24,-34.61 391.09,-19.69"/>
<polygon fill="#63b8ff" stroke="#63b8ff" points="342.77,-112 336.57,-120.59 346.78,-117.74 342.77,-112"/>
</a>
</g>
</g>
<!-- Node7 -->
<g id="Node000007" class="node">
<title>Node7</title>
<g id="a_Node000007"><a xlink:href="_facet_8cpp.html" target="_top" xlink:title=" ">
<polygon fill="white" stroke="#666666" points="559.88,-80.12 420.88,-80.12 420.88,-60.88 559.88,-60.88 559.88,-80.12"/>
<text text-anchor="middle" x="490.38" y="-66.62" font-family="Helvetica,sans-Serif" font-size="10.00">STL_SLICER/src/Facet.cpp</text>
</a>
</g>
</g>
<!-- Node1&#45;&gt;Node7 -->
<g id="edge7_Node000001_Node000007" class="edge">
<title>Node1&#45;&gt;Node7</title>
<g id="a_edge7_Node000001_Node000007"><a xlink:title=" ">
<path fill="none" stroke="#63b8ff" d="M361.12,-117.56C395.08,-105.46 438,-90.16 464.83,-80.6"/>
<polygon fill="#63b8ff" stroke="#63b8ff" points="360.12,-114.2 351.87,-120.86 362.47,-120.8 360.12,-114.2"/>
</a>
</g>
</g>
<!-- Node3 -->
<g id="Node000003" class="node">
<title>Node3</title>
<g id="a_Node000003"><a xlink:href="_gcode_8cpp.html" target="_top" xlink:title=" ">
<polygon fill="white" stroke="#666666" points="142.75,-19.25 0,-19.25 0,0 142.75,0 142.75,-19.25"/>
<text text-anchor="middle" x="71.38" y="-5.75" font-family="Helvetica,sans-Serif" font-size="10.00">STL_SLICER/src/Gcode.cpp</text>
</a>
</g>
</g>
<!-- Node2&#45;&gt;Node3 -->
<g id="edge2_Node000002_Node000003" class="edge">
<title>Node2&#45;&gt;Node3</title>
<g id="a_edge2_Node000002_Node000003"><a xlink:title=" ">
<path fill="none" stroke="#63b8ff" d="M116.88,-47.83C105,-38.12 91.63,-27.19 82.47,-19.7"/>
<polygon fill="#63b8ff" stroke="#63b8ff" points="114.45,-50.37 124.41,-53.99 118.88,-44.95 114.45,-50.37"/>
</a>
</g>
</g>
<!-- Node2&#45;&gt;Node4 -->
<g id="edge3_Node000002_Node000004" class="edge">
<title>Node2&#45;&gt;Node4</title>
<g id="a_edge3_Node000002_Node000004"><a xlink:title=" ">
<path fill="none" stroke="#63b8ff" d="M173.83,-48.4C188.06,-38.55 204.25,-27.33 215.27,-19.7"/>
<polygon fill="#63b8ff" stroke="#63b8ff" points="171.86,-45.51 165.63,-54.08 175.84,-51.27 171.86,-45.51"/>
</a>
</g>
</g>
<!-- Node5&#45;&gt;Node4 -->
<g id="edge6_Node000005_Node000004" class="edge">
<title>Node5&#45;&gt;Node4</title>
<g id="a_edge6_Node000005_Node000004"><a xlink:title=" ">
<path fill="none" stroke="#63b8ff" d="M280.35,-48.4C266.79,-38.55 251.36,-27.33 240.86,-19.7"/>
<polygon fill="#63b8ff" stroke="#63b8ff" points="277.98,-51.01 288.13,-54.06 282.1,-45.35 277.98,-51.01"/>
</a>
</g>
</g>
<!-- Node5&#45;&gt;Node6 -->
<g id="edge5_Node000005_Node000006" class="edge">
<title>Node5&#45;&gt;Node6</title>
<g id="a_edge5_Node000005_Node000006"><a xlink:title=" ">
<path fill="none" stroke="#63b8ff" d="M338.76,-48.4C352.48,-38.55 368.1,-27.33 378.73,-19.7"/>
<polygon fill="#63b8ff" stroke="#63b8ff" points="336.96,-45.39 330.87,-54.06 341.04,-51.07 336.96,-45.39"/>
</a>
</g>
</g>
</g>
</svg>

<g id="navigator" transform="translate(0 0)" fill="#404254">
  <rect fill="#f2f5e9" fill-opacity="0.5" stroke="#606060" stroke-width=".5" x="0" y="0" width="60" height="60"/>
  <use id="zoomplus" xlink:href="#zoomPlus" x="17" y="9" onmousedown="handleZoom(evt,'in')"/>
  <use id="zoomminus" xlink:href="#zoomMin" x="42" y="9" onmousedown="handleZoom(evt,'out')"/>
  <use id="reset" xlink:href="#resetDef" x="30" y="36" onmousedown="handleReset()"/>
   <use id="arrowup" xlink:href="#arrowUp" x="0" y="0" onmousedown="handlePan(0,-1)"/>
  <use id="arrowright" xlink:href="#arrowRight" x="0" y="0" onmousedown="handlePan(1,0)"/>
  <use id="arrowdown" xlink:href="#arrowDown" x="0" y="0" onmousedown="handlePan(0,1)"/>
  <use id="arrowleft" xlink:href="#arrowLeft" x="0" y="0" onmousedown="handlePan(-1,0)"/>
</g>
<svg viewBox="0 0 15 15" width="100%" height="30px" preserveAspectRatio="xMaxYMin meet">
 <g id="arrow_out" transform="scale(0.3 0.3)">
  <a xlink:href="_facet_8h__dep__incl_org.svg" target="_base">
   <rect id="button" ry="5" rx="5" y="6" x="6" height="38" width="38"
        fill="#f2f5e9" fill-opacity="0.5" stroke="#606060" stroke-width="1.0"/>
   <path id="arrow"
     d="M 11.500037,31.436501 C 11.940474,20.09759 22.043105,11.32322 32.158766,21.979434 L 37.068811,17.246167 C 37.068811,17.246167 37.088388,32 37.088388,32 L 22.160133,31.978069 C 22.160133,31.978069 26.997745,27.140456 26.997745,27.140456 C 18.528582,18.264221 13.291696,25.230495 11.500037,31.436501 z"
     style="fill:#404040;"/>
  </a>
 </g>
</svg>

<style type='text/css'>
<![CDATA[
[data-mouse-over-selected='false'] { opacity: 0.7; }
[data-mouse-over-selected='true']  { opacity: 1.0; }
]]>
</style>
<script type="application/ecmascript"><![CDATA[
document.addEventListener('DOMContentLoaded', (event) => {
  highlightEdges();
  highlightAdjacentNodes();
});
]]></script>
</svg>
