<?xml version="1.0" encoding="UTF-8" standalone="no"?>
<!DOCTYPE svg PUBLIC "-//W3C//DTD SVG 1.1//EN"
 "http://www.w3.org/Graphics/SVG/1.1/DTD/svg11.dtd">
<!-- Generated by graphviz version 9.0.0 (20230911.1827)
 -->
<!-- Title: C:/Users/krisz/Documents/GitHub/STL_Slicer/STL_SLICER/include/Gcode.h Pages: 1 -->
<svg width="223pt" height="332pt"
 viewBox="0.00 0.00 222.96 332.00" xmlns="http://www.w3.org/2000/svg" xmlns:xlink="http://www.w3.org/1999/xlink">

<svg id="main" version="1.1" xmlns="http://www.w3.org/2000/svg" xmlns:xlink="http://www.w3.org/1999/xlink" xml:space="preserve" onload="init(evt)">
<style type="text/css"><![CDATA[
.node, .edge {opacity: 0.7;}
.node.selected, .edge.selected {opacity: 1;}
.edge:hover path { stroke: red; }
.edge:hover polygon { stroke: red; fill: red; }
]]></style>
<script type="application/ecmascript" xlink:href="svg.min.js"/>
<svg id="graph" class="graph">
<g id="graph0" class="graph" transform="scale(1 1) rotate(0) translate(4 328)">
<title>C:/Users/krisz/Documents/GitHub/STL_Slicer/STL_SLICER/include/Gcode.h</title>
<!-- Node1 -->
<g id="Node000001" class="node">
<title>Node1</title>
<g id="a_Node000001"><a xlink:title=" ">
<polygon fill="#999999" stroke="#666666" points="163.38,-324 32.62,-324 32.62,-280 163.38,-280 163.38,-324"/>
<text text-anchor="start" x="40.62" y="-310.5" font-family="Helvetica,sans-Serif" font-size="10.00">C:/Users/krisz/Documents</text>
<text text-anchor="start" x="40.62" y="-298.5" font-family="Helvetica,sans-Serif" font-size="10.00">/GitHub/STL_Slicer/STL</text>
<text text-anchor="middle" x="98" y="-286.5" font-family="Helvetica,sans-Serif" font-size="10.00">_SLICER/include/Gcode.h</text>
</a>
</g>
</g>
<!-- Node2 -->
<g id="Node000002" class="node">
<title>Node2</title>
<g id="a_Node000002"><a xlink:title=" ">
<polygon fill="#e0e0e0" stroke="#999999" points="67.75,-20 14.25,-20 14.25,0 67.75,0 67.75,-20"/>
<text text-anchor="middle" x="41" y="-6.5" font-family="Helvetica,sans-Serif" font-size="10.00">iostream</text>
</a>
</g>
</g>
<!-- Node1&#45;&gt;Node2 -->
<g id="edge1_Node000001_Node000002" class="edge">
<title>Node1&#45;&gt;Node2</title>
<g id="a_edge1_Node000001_Node000002"><a xlink:title=" ">
<path fill="none" stroke="#63b8ff" d="M57.85,-279.5C43.8,-270.23 29.05,-258.23 19,-244 1.63,-219.42 0,-209.1 0,-179 0,-179 0,-179 0,-121 0,-87.33 17.07,-51.31 29.19,-29.99"/>
<polygon fill="#63b8ff" stroke="#63b8ff" points="32.09,-31.96 34.18,-21.58 26.07,-28.39 32.09,-31.96"/>
</a>
</g>
</g>
<!-- Node3 -->
<g id="Node000003" class="node">
<title>Node3</title>
<g id="a_Node000003"><a xlink:title=" ">
<polygon fill="#e0e0e0" stroke="#999999" points="69.75,-244 28.25,-244 28.25,-224 69.75,-224 69.75,-244"/>
<text text-anchor="middle" x="49" y="-230.5" font-family="Helvetica,sans-Serif" font-size="10.00">vector</text>
</a>
</g>
</g>
<!-- Node1&#45;&gt;Node3 -->
<g id="edge2_Node000001_Node000003" class="edge">
<title>Node1&#45;&gt;Node3</title>
<g id="a_edge2_Node000001_Node000003"><a xlink:title=" ">
<path fill="none" stroke="#63b8ff" d="M82.23,-279.75C75.94,-271.29 68.77,-261.64 62.71,-253.47"/>
<polygon fill="#63b8ff" stroke="#63b8ff" points="65.67,-251.58 56.9,-245.63 60.05,-255.75 65.67,-251.58"/>
</a>
</g>
</g>
<!-- Node4 -->
<g id="Node000004" class="node">
<title>Node4</title>
<g id="a_Node000004"><a xlink:href="_section_8h.html" target="_top" xlink:title=" ">
<polygon fill="white" stroke="#666666" points="118.62,-188 61.38,-188 61.38,-168 118.62,-168 118.62,-188"/>
<text text-anchor="middle" x="90" y="-174.5" font-family="Helvetica,sans-Serif" font-size="10.00">Section.h</text>
</a>
</g>
</g>
<!-- Node1&#45;&gt;Node4 -->
<g id="edge3_Node000001_Node000004" class="edge">
<title>Node1&#45;&gt;Node4</title>
<g id="a_edge3_Node000001_Node000004"><a xlink:title=" ">
<path fill="none" stroke="#63b8ff" d="M96.61,-279.75C95.13,-257.26 92.82,-222.02 91.36,-199.73"/>
<polygon fill="#63b8ff" stroke="#63b8ff" points="94.86,-199.56 90.71,-189.81 87.87,-200.02 94.86,-199.56"/>
</a>
</g>
</g>
<!-- Node5 -->
<g id="Node000005" class="node">
<title>Node5</title>
<g id="a_Node000005"><a xlink:href="_vector_8h.html" target="_top" xlink:title=" ">
<polygon fill="white" stroke="#666666" points="158.38,-76 105.62,-76 105.62,-56 158.38,-56 158.38,-76"/>
<text text-anchor="middle" x="132" y="-62.5" font-family="Helvetica,sans-Serif" font-size="10.00">Vector.h</text>
</a>
</g>
</g>
<!-- Node1&#45;&gt;Node5 -->
<g id="edge9_Node000001_Node000005" class="edge">
<title>Node1&#45;&gt;Node5</title>
<g id="a_edge9_Node000001_Node000005"><a xlink:title=" ">
<path fill="none" stroke="#63b8ff" d="M148.27,-279.63C162.76,-270.83 176.85,-259.09 185,-244 197.41,-221.03 247.28,-253.46 182,-112 176.64,-100.39 166.72,-90.48 157.12,-82.94"/>
<polygon fill="#63b8ff" stroke="#63b8ff" points="159.19,-80.11 149.03,-77.1 155.09,-85.79 159.19,-80.11"/>
</a>
</g>
</g>
<!-- Node7 -->
<g id="Node000007" class="node">
<title>Node7</title>
<g id="a_Node000007"><a xlink:href="_facet_8h.html" target="_top" xlink:title=" ">
<polygon fill="white" stroke="#666666" points="175.5,-244 126.5,-244 126.5,-224 175.5,-224 175.5,-244"/>
<text text-anchor="middle" x="151" y="-230.5" font-family="Helvetica,sans-Serif" font-size="10.00">Facet.h</text>
</a>
</g>
</g>
<!-- Node1&#45;&gt;Node7 -->
<g id="edge10_Node000001_Node000007" class="edge">
<title>Node1&#45;&gt;Node7</title>
<g id="a_edge10_Node000001_Node000007"><a xlink:title=" ">
<path fill="none" stroke="#63b8ff" d="M115.06,-279.75C121.93,-271.2 129.78,-261.42 136.39,-253.2"/>
<polygon fill="#63b8ff" stroke="#63b8ff" points="138.96,-255.59 142.49,-245.6 133.5,-251.2 138.96,-255.59"/>
</a>
</g>
</g>
<!-- Node4&#45;&gt;Node2 -->
<g id="edge8_Node000004_Node000002" class="edge">
<title>Node4&#45;&gt;Node2</title>
<g id="a_edge8_Node000004_Node000002"><a xlink:title=" ">
<path fill="none" stroke="#63b8ff" d="M87.23,-167.6C79.48,-141.35 57.48,-66.84 46.87,-30.89"/>
<polygon fill="#63b8ff" stroke="#63b8ff" points="50.36,-30.35 44.17,-21.75 43.65,-32.33 50.36,-30.35"/>
</a>
</g>
</g>
<!-- Node4&#45;&gt;Node5 -->
<g id="edge4_Node000004_Node000005" class="edge">
<title>Node4&#45;&gt;Node5</title>
<g id="a_edge4_Node000004_Node000005"><a xlink:title=" ">
<path fill="none" stroke="#63b8ff" d="M89.66,-167.8C89.5,-154.86 90.4,-130.76 98,-112 101.97,-102.19 108.65,-92.65 115.04,-84.89"/>
<polygon fill="#63b8ff" stroke="#63b8ff" points="117.52,-87.37 121.49,-77.55 112.26,-82.75 117.52,-87.37"/>
</a>
</g>
</g>
<!-- Node6 -->
<g id="Node000006" class="node">
<title>Node6</title>
<g id="a_Node000006"><a xlink:href="_plane_8h.html" target="_top" xlink:title=" ">
<polygon fill="white" stroke="#666666" points="156.5,-132 107.5,-132 107.5,-112 156.5,-112 156.5,-132"/>
<text text-anchor="middle" x="132" y="-118.5" font-family="Helvetica,sans-Serif" font-size="10.00">Plane.h</text>
</a>
</g>
</g>
<!-- Node4&#45;&gt;Node6 -->
<g id="edge6_Node000004_Node000006" class="edge">
<title>Node4&#45;&gt;Node6</title>
<g id="a_edge6_Node000004_Node000006"><a xlink:title=" ">
<path fill="none" stroke="#63b8ff" d="M97.32,-167.59C102.98,-160.32 110.99,-150.02 117.89,-141.15"/>
<polygon fill="#63b8ff" stroke="#63b8ff" points="120.46,-143.54 123.84,-133.49 114.94,-139.24 120.46,-143.54"/>
</a>
</g>
</g>
<!-- Node5&#45;&gt;Node2 -->
<g id="edge5_Node000005_Node000002" class="edge">
<title>Node5&#45;&gt;Node2</title>
<g id="a_edge5_Node000005_Node000002"><a xlink:title=" ">
<path fill="none" stroke="#63b8ff" d="M116.15,-55.59C102.53,-47.51 82.64,-35.71 66.74,-26.27"/>
<polygon fill="#63b8ff" stroke="#63b8ff" points="68.66,-23.35 58.28,-21.25 65.09,-29.37 68.66,-23.35"/>
</a>
</g>
</g>
<!-- Node6&#45;&gt;Node5 -->
<g id="edge7_Node000006_Node000005" class="edge">
<title>Node6&#45;&gt;Node5</title>
<g id="a_edge7_Node000006_Node000005"><a xlink:title=" ">
<path fill="none" stroke="#63b8ff" d="M132,-111.59C132,-105.01 132,-95.96 132,-87.73"/>
<polygon fill="#63b8ff" stroke="#63b8ff" points="135.5,-87.81 132,-77.81 128.5,-87.81 135.5,-87.81"/>
</a>
</g>
</g>
<!-- Node7&#45;&gt;Node4 -->
<g id="edge13_Node000007_Node000004" class="edge">
<title>Node7&#45;&gt;Node4</title>
<g id="a_edge13_Node000007_Node000004"><a xlink:title=" ">
<path fill="none" stroke="#63b8ff" d="M140.37,-223.59C131.72,-215.93 119.27,-204.91 108.92,-195.75"/>
<polygon fill="#63b8ff" stroke="#63b8ff" points="111.44,-193.31 101.64,-189.3 106.8,-198.55 111.44,-193.31"/>
</a>
</g>
</g>
<!-- Node7&#45;&gt;Node5 -->
<g id="edge11_Node000007_Node000005" class="edge">
<title>Node7&#45;&gt;Node5</title>
<g id="a_edge11_Node000007_Node000005"><a xlink:title=" ">
<path fill="none" stroke="#63b8ff" d="M154.89,-223.62C162.9,-202.9 179.39,-151.94 166,-112 162.64,-101.97 156.05,-92.39 149.57,-84.66"/>
<polygon fill="#63b8ff" stroke="#63b8ff" points="152.27,-82.43 142.95,-77.38 147.09,-87.13 152.27,-82.43"/>
</a>
</g>
</g>
<!-- Node7&#45;&gt;Node6 -->
<g id="edge12_Node000007_Node000006" class="edge">
<title>Node7&#45;&gt;Node6</title>
<g id="a_edge12_Node000007_Node000006"><a xlink:title=" ">
<path fill="none" stroke="#63b8ff" d="M149.38,-223.62C146.34,-206.01 139.7,-167.59 135.57,-143.65"/>
<polygon fill="#63b8ff" stroke="#63b8ff" points="139.02,-143.1 133.87,-133.85 132.13,-144.3 139.02,-143.1"/>
</a>
</g>
</g>
</g>
</svg>
</svg>

<style type='text/css'>
<![CDATA[
[data-mouse-over-selected='false'] { opacity: 0.7; }
[data-mouse-over-selected='true']  { opacity: 1.0; }
]]>
</style>
<script type="application/ecmascript"><![CDATA[
document.addEventListener('DOMContentLoaded', (event) => {
  highlightEdges();
  highlightAdjacentNodes();
});
]]></script>
</svg>
