<?xml version="1.0" encoding="UTF-8" standalone="no"?>
<!DOCTYPE svg PUBLIC "-//W3C//DTD SVG 1.1//EN"
 "http://www.w3.org/Graphics/SVG/1.1/DTD/svg11.dtd">
<!-- Generated by graphviz version 10.0.1 (20240210.2158)
 -->
<!-- Title: STL_SLICER/src/Gcode.cpp Pages: 1 -->
<svg width="495pt" height="359pt"
 viewBox="0.00 0.00 494.62 358.75" xmlns="http://www.w3.org/2000/svg" xmlns:xlink="http://www.w3.org/1999/xlink">
<g id="graph0" class="graph" transform="scale(1 1) rotate(0) translate(4 354.75)">
<title>STL_SLICER/src/Gcode.cpp</title>
<!-- Node1 -->
<g id="Node000001" class="node">
<title>Node1</title>
<g id="a_Node000001"><a xlink:title=" ">
<polygon fill="#999999" stroke="#666666" points="425.38,-350.75 282.62,-350.75 282.62,-331.5 425.38,-331.5 425.38,-350.75"/>
<text text-anchor="middle" x="354" y="-337.25" font-family="Helvetica,sans-Serif" font-size="10.00">STL_SLICER/src/Gcode.cpp</text>
</a>
</g>
</g>
<!-- Node2 -->
<g id="Node000002" class="node">
<title>Node2</title>
<g id="a_Node000002"><a xlink:href="_gcode_8h.html" target="_top" xlink:title=" ">
<polygon fill="white" stroke="#666666" points="240.38,-295.5 187.62,-295.5 187.62,-276.25 240.38,-276.25 240.38,-295.5"/>
<text text-anchor="middle" x="214" y="-282" font-family="Helvetica,sans-Serif" font-size="10.00">Gcode.h</text>
</a>
</g>
</g>
<!-- Node1&#45;&gt;Node2 -->
<g id="edge1_Node000001_Node000002" class="edge">
<title>Node1&#45;&gt;Node2</title>
<g id="a_edge1_Node000001_Node000002"><a xlink:title=" ">
<path fill="none" stroke="#63b8ff" d="M330.25,-331.09C307.83,-322.56 273.94,-309.67 248.53,-300.01"/>
<polygon fill="#63b8ff" stroke="#63b8ff" points="249.87,-296.77 239.28,-296.49 247.38,-303.32 249.87,-296.77"/>
</a>
</g>
</g>
<!-- Node3 -->
<g id="Node000003" class="node">
<title>Node3</title>
<g id="a_Node000003"><a xlink:title=" ">
<polygon fill="#e0e0e0" stroke="#999999" points="160.75,-19.25 107.25,-19.25 107.25,0 160.75,0 160.75,-19.25"/>
<text text-anchor="middle" x="134" y="-5.75" font-family="Helvetica,sans-Serif" font-size="10.00">iostream</text>
</a>
</g>
</g>
<!-- Node1&#45;&gt;Node3 -->
<g id="edge17_Node000001_Node000003" class="edge">
<title>Node1&#45;&gt;Node3</title>
<g id="a_edge17_Node000001_Node000003"><a xlink:title=" ">
<path fill="none" stroke="#63b8ff" d="M282.36,-332.83C178.92,-320.28 0,-290.12 0,-231.62 0,-231.62 0,-231.62 0,-119.12 0,-69.33 56.59,-38.43 96.22,-22.9"/>
<polygon fill="#63b8ff" stroke="#63b8ff" points="97.32,-26.23 105.46,-19.45 94.87,-19.67 97.32,-26.23"/>
</a>
</g>
</g>
<!-- Node5 -->
<g id="Node000005" class="node">
<title>Node5</title>
<g id="a_Node000005"><a xlink:href="_section_8h.html" target="_top" xlink:title=" ">
<polygon fill="white" stroke="#666666" points="303.62,-185 246.38,-185 246.38,-165.75 303.62,-165.75 303.62,-185"/>
<text text-anchor="middle" x="275" y="-171.5" font-family="Helvetica,sans-Serif" font-size="10.00">Section.h</text>
</a>
</g>
</g>
<!-- Node1&#45;&gt;Node5 -->
<g id="edge19_Node000001_Node000005" class="edge">
<title>Node1&#45;&gt;Node5</title>
<g id="a_edge19_Node000001_Node000005"><a xlink:title=" ">
<path fill="none" stroke="#63b8ff" d="M361.03,-331.25C376.72,-310.31 411.33,-256.88 387,-221 371.01,-197.41 340.35,-186.29 315.14,-181.05"/>
<polygon fill="#63b8ff" stroke="#63b8ff" points="315.97,-177.64 305.51,-179.3 314.72,-184.53 315.97,-177.64"/>
</a>
</g>
</g>
<!-- Node9 -->
<g id="Node000009" class="node">
<title>Node9</title>
<g id="a_Node000009"><a xlink:title=" ">
<polygon fill="#e0e0e0" stroke="#999999" points="378.5,-240.25 329.5,-240.25 329.5,-221 378.5,-221 378.5,-240.25"/>
<text text-anchor="middle" x="354" y="-226.75" font-family="Helvetica,sans-Serif" font-size="10.00">fstream</text>
</a>
</g>
</g>
<!-- Node1&#45;&gt;Node9 -->
<g id="edge18_Node000001_Node000009" class="edge">
<title>Node1&#45;&gt;Node9</title>
<g id="a_edge18_Node000001_Node000009"><a xlink:title=" ">
<path fill="none" stroke="#63b8ff" d="M354,-331.25C354,-314 354,-275.58 354,-251.81"/>
<polygon fill="#63b8ff" stroke="#63b8ff" points="357.5,-252.14 354,-242.14 350.5,-252.14 357.5,-252.14"/>
</a>
</g>
</g>
<!-- Node11 -->
<g id="Node000011" class="node">
<title>Node11</title>
<g id="a_Node000011"><a xlink:title=" ">
<polygon fill="#e0e0e0" stroke="#999999" points="486.62,-295.5 435.38,-295.5 435.38,-276.25 486.62,-276.25 486.62,-295.5"/>
<text text-anchor="middle" x="461" y="-282" font-family="Helvetica,sans-Serif" font-size="10.00">sstream</text>
</a>
</g>
</g>
<!-- Node1&#45;&gt;Node11 -->
<g id="edge20_Node000001_Node000011" class="edge">
<title>Node1&#45;&gt;Node11</title>
<g id="a_edge20_Node000001_Node000011"><a xlink:title=" ">
<path fill="none" stroke="#63b8ff" d="M372.15,-331.09C388.68,-322.87 413.34,-310.59 432.5,-301.06"/>
<polygon fill="#63b8ff" stroke="#63b8ff" points="434.01,-304.22 441.4,-296.63 430.89,-297.95 434.01,-304.22"/>
</a>
</g>
</g>
<!-- Node2&#45;&gt;Node3 -->
<g id="edge2_Node000002_Node000003" class="edge">
<title>Node2&#45;&gt;Node3</title>
<g id="a_edge2_Node000002_Node000003"><a xlink:title=" ">
<path fill="none" stroke="#63b8ff" d="M190.69,-275.86C156.3,-260.86 96,-227.3 96,-176.38 96,-176.38 96,-176.38 96,-119.12 96,-86.13 111.84,-50.51 123.07,-29.41"/>
<polygon fill="#63b8ff" stroke="#63b8ff" points="126.02,-31.3 127.82,-20.86 119.9,-27.9 126.02,-31.3"/>
</a>
</g>
</g>
<!-- Node4 -->
<g id="Node000004" class="node">
<title>Node4</title>
<g id="a_Node000004"><a xlink:title=" ">
<polygon fill="#e0e0e0" stroke="#999999" points="311.5,-240.25 268.5,-240.25 268.5,-221 311.5,-221 311.5,-240.25"/>
<text text-anchor="middle" x="290" y="-226.75" font-family="Helvetica,sans-Serif" font-size="10.00">vector</text>
</a>
</g>
</g>
<!-- Node2&#45;&gt;Node4 -->
<g id="edge3_Node000002_Node000004" class="edge">
<title>Node2&#45;&gt;Node4</title>
<g id="a_edge3_Node000002_Node000004"><a xlink:title=" ">
<path fill="none" stroke="#63b8ff" d="M226.89,-275.84C238.03,-268.04 254.37,-256.59 267.64,-247.29"/>
<polygon fill="#63b8ff" stroke="#63b8ff" points="269.62,-250.18 275.8,-241.57 265.61,-244.44 269.62,-250.18"/>
</a>
</g>
</g>
<!-- Node2&#45;&gt;Node5 -->
<g id="edge4_Node000002_Node000005" class="edge">
<title>Node2&#45;&gt;Node5</title>
<g id="a_edge4_Node000002_Node000005"><a xlink:title=" ">
<path fill="none" stroke="#63b8ff" d="M218.99,-276C228.87,-258.43 251.09,-218.91 264.38,-195.27"/>
<polygon fill="#63b8ff" stroke="#63b8ff" points="267.35,-197.13 269.2,-186.7 261.25,-193.7 267.35,-197.13"/>
</a>
</g>
</g>
<!-- Node6 -->
<g id="Node000006" class="node">
<title>Node6</title>
<g id="a_Node000006"><a xlink:href="_vector_8h.html" target="_top" xlink:title=" ">
<polygon fill="white" stroke="#666666" points="198,-74.5 146,-74.5 146,-55.25 198,-55.25 198,-74.5"/>
<text text-anchor="middle" x="172" y="-61" font-family="Helvetica,sans-Serif" font-size="10.00">Vector.h</text>
</a>
</g>
</g>
<!-- Node2&#45;&gt;Node6 -->
<g id="edge10_Node000002_Node000006" class="edge">
<title>Node2&#45;&gt;Node6</title>
<g id="a_edge10_Node000002_Node000006"><a xlink:title=" ">
<path fill="none" stroke="#63b8ff" d="M192.9,-275.78C178.78,-268.44 161.31,-256.63 153,-240.25 126.99,-188.99 149.66,-118.53 163.37,-85.04"/>
<polygon fill="#63b8ff" stroke="#63b8ff" points="166.43,-86.79 167.15,-76.22 159.99,-84.03 166.43,-86.79"/>
</a>
</g>
</g>
<!-- Node8 -->
<g id="Node000008" class="node">
<title>Node8</title>
<g id="a_Node000008"><a xlink:href="_facet_8h.html" target="_top" xlink:title=" ">
<polygon fill="white" stroke="#666666" points="211.5,-240.25 162.5,-240.25 162.5,-221 211.5,-221 211.5,-240.25"/>
<text text-anchor="middle" x="187" y="-226.75" font-family="Helvetica,sans-Serif" font-size="10.00">Facet.h</text>
</a>
</g>
</g>
<!-- Node2&#45;&gt;Node8 -->
<g id="edge11_Node000002_Node000008" class="edge">
<title>Node2&#45;&gt;Node8</title>
<g id="a_edge11_Node000002_Node000008"><a xlink:title=" ">
<path fill="none" stroke="#63b8ff" d="M209.54,-276.08C206.05,-269.19 201.05,-259.34 196.65,-250.66"/>
<polygon fill="#63b8ff" stroke="#63b8ff" points="199.88,-249.3 192.24,-241.96 193.64,-252.46 199.88,-249.3"/>
</a>
</g>
</g>
<!-- Node2&#45;&gt;Node9 -->
<g id="edge15_Node000002_Node000009" class="edge">
<title>Node2&#45;&gt;Node9</title>
<g id="a_edge15_Node000002_Node000009"><a xlink:title=" ">
<path fill="none" stroke="#63b8ff" d="M237.75,-275.84C260.17,-267.31 294.06,-254.42 319.47,-244.76"/>
<polygon fill="#63b8ff" stroke="#63b8ff" points="320.62,-248.07 328.72,-241.24 318.13,-241.52 320.62,-248.07"/>
</a>
</g>
</g>
<!-- Node10 -->
<g id="Node000010" class="node">
<title>Node10</title>
<g id="a_Node000010"><a xlink:title=" ">
<polygon fill="#e0e0e0" stroke="#999999" points="68,-240.25 28,-240.25 28,-221 68,-221 68,-240.25"/>
<text text-anchor="middle" x="48" y="-226.75" font-family="Helvetica,sans-Serif" font-size="10.00">string</text>
</a>
</g>
</g>
<!-- Node2&#45;&gt;Node10 -->
<g id="edge16_Node000002_Node000010" class="edge">
<title>Node2&#45;&gt;Node10</title>
<g id="a_edge16_Node000002_Node000010"><a xlink:title=" ">
<path fill="none" stroke="#63b8ff" d="M187.33,-276.32C157.78,-266.84 110.2,-251.58 79.01,-241.57"/>
<polygon fill="#63b8ff" stroke="#63b8ff" points="80.36,-238.33 69.77,-238.61 78.22,-244.99 80.36,-238.33"/>
</a>
</g>
</g>
<!-- Node5&#45;&gt;Node3 -->
<g id="edge9_Node000005_Node000003" class="edge">
<title>Node5&#45;&gt;Node3</title>
<g id="a_edge9_Node000005_Node000003"><a xlink:title=" ">
<path fill="none" stroke="#63b8ff" d="M277.96,-165.58C281.73,-152.74 286.78,-128.45 278,-110.5 256.68,-66.9 206.03,-38.86 170.87,-23.92"/>
<polygon fill="#63b8ff" stroke="#63b8ff" points="172.49,-20.8 161.91,-20.27 169.85,-27.28 172.49,-20.8"/>
</a>
</g>
</g>
<!-- Node5&#45;&gt;Node6 -->
<g id="edge5_Node000005_Node000006" class="edge">
<title>Node5&#45;&gt;Node6</title>
<g id="a_edge5_Node000005_Node000006"><a xlink:title=" ">
<path fill="none" stroke="#63b8ff" d="M274.84,-165.53C274.15,-152.2 271.07,-126.79 258,-110.5 245.45,-94.85 225.93,-84.1 208.66,-77.08"/>
<polygon fill="#63b8ff" stroke="#63b8ff" points="210.28,-73.95 199.69,-73.71 207.82,-80.5 210.28,-73.95"/>
</a>
</g>
</g>
<!-- Node7 -->
<g id="Node000007" class="node">
<title>Node7</title>
<g id="a_Node000007"><a xlink:href="_plane_8h.html" target="_top" xlink:title=" ">
<polygon fill="white" stroke="#666666" points="249.5,-129.75 200.5,-129.75 200.5,-110.5 249.5,-110.5 249.5,-129.75"/>
<text text-anchor="middle" x="225" y="-116.25" font-family="Helvetica,sans-Serif" font-size="10.00">Plane.h</text>
</a>
</g>
</g>
<!-- Node5&#45;&gt;Node7 -->
<g id="edge7_Node000005_Node000007" class="edge">
<title>Node5&#45;&gt;Node7</title>
<g id="a_edge7_Node000005_Node000007"><a xlink:title=" ">
<path fill="none" stroke="#63b8ff" d="M266.74,-165.58C259.84,-158.23 249.78,-147.51 241.26,-138.44"/>
<polygon fill="#63b8ff" stroke="#63b8ff" points="243.87,-136.11 234.47,-131.21 238.77,-140.9 243.87,-136.11"/>
</a>
</g>
</g>
<!-- Node6&#45;&gt;Node3 -->
<g id="edge6_Node000006_Node000003" class="edge">
<title>Node6&#45;&gt;Node3</title>
<g id="a_edge6_Node000006_Node000003"><a xlink:title=" ">
<path fill="none" stroke="#63b8ff" d="M165.73,-55.08C160.64,-47.96 153.3,-37.68 146.97,-28.8"/>
<polygon fill="#63b8ff" stroke="#63b8ff" points="149.95,-26.95 141.29,-20.84 144.25,-31.01 149.95,-26.95"/>
</a>
</g>
</g>
<!-- Node7&#45;&gt;Node6 -->
<g id="edge8_Node000007_Node000006" class="edge">
<title>Node7&#45;&gt;Node6</title>
<g id="a_edge8_Node000007_Node000006"><a xlink:title=" ">
<path fill="none" stroke="#63b8ff" d="M216.25,-110.33C208.85,-102.9 198.04,-92.04 188.95,-82.91"/>
<polygon fill="#63b8ff" stroke="#63b8ff" points="191.54,-80.55 182.01,-75.93 186.58,-85.49 191.54,-80.55"/>
</a>
</g>
</g>
<!-- Node8&#45;&gt;Node5 -->
<g id="edge14_Node000008_Node000005" class="edge">
<title>Node8&#45;&gt;Node5</title>
<g id="a_edge14_Node000008_Node000005"><a xlink:title=" ">
<path fill="none" stroke="#63b8ff" d="M201.93,-220.59C215.2,-212.56 234.87,-200.66 250.45,-191.23"/>
<polygon fill="#63b8ff" stroke="#63b8ff" points="251.96,-194.41 258.7,-186.24 248.34,-188.42 251.96,-194.41"/>
</a>
</g>
</g>
<!-- Node8&#45;&gt;Node6 -->
<g id="edge12_Node000008_Node000006" class="edge">
<title>Node8&#45;&gt;Node6</title>
<g id="a_edge12_Node000008_Node000006"><a xlink:title=" ">
<path fill="none" stroke="#63b8ff" d="M186.19,-220.82C183.87,-195.5 177.14,-122 173.85,-86.09"/>
<polygon fill="#63b8ff" stroke="#63b8ff" points="177.35,-85.87 172.95,-76.23 170.38,-86.51 177.35,-85.87"/>
</a>
</g>
</g>
<!-- Node8&#45;&gt;Node7 -->
<g id="edge13_Node000008_Node000007" class="edge">
<title>Node8&#45;&gt;Node7</title>
<g id="a_edge13_Node000008_Node000007"><a xlink:title=" ">
<path fill="none" stroke="#63b8ff" d="M190.11,-220.75C196.18,-203.42 209.73,-164.73 218.04,-140.99"/>
<polygon fill="#63b8ff" stroke="#63b8ff" points="221.34,-142.15 221.35,-131.56 214.74,-139.84 221.34,-142.15"/>
</a>
</g>
</g>
</g>
</svg>
