<?xml version="1.0" encoding="UTF-8" standalone="no"?>
<!DOCTYPE svg PUBLIC "-//W3C//DTD SVG 1.1//EN"
 "http://www.w3.org/Graphics/SVG/1.1/DTD/svg11.dtd">
<!-- Generated by graphviz version 10.0.1 (20240210.2158)
 -->
<!-- Title: STL_SLICER/include/Gcode.h Pages: 1 -->
<svg width="364pt" height="315pt"
 viewBox="0.00 0.00 364.00 314.75" xmlns="http://www.w3.org/2000/svg" xmlns:xlink="http://www.w3.org/1999/xlink">
<g id="graph0" class="graph" transform="scale(1 1) rotate(0) translate(4 310.75)">
<title>STL_SLICER/include/Gcode.h</title>
<!-- Node1 -->
<g id="Node000001" class="node">
<title>Node1</title>
<g id="a_Node000001"><a xlink:title=" ">
<polygon fill="#999999" stroke="#666666" points="214.88,-306.75 105.12,-306.75 105.12,-276.25 214.88,-276.25 214.88,-306.75"/>
<text text-anchor="start" x="113.12" y="-293.25" font-family="Helvetica,sans-Serif" font-size="10.00">STL_SLICER/include</text>
<text text-anchor="middle" x="160" y="-282" font-family="Helvetica,sans-Serif" font-size="10.00">/Gcode.h</text>
</a>
</g>
</g>
<!-- Node2 -->
<g id="Node000002" class="node">
<title>Node2</title>
<g id="a_Node000002"><a xlink:title=" ">
<polygon fill="#e0e0e0" stroke="#999999" points="64.75,-19.25 11.25,-19.25 11.25,0 64.75,0 64.75,-19.25"/>
<text text-anchor="middle" x="38" y="-5.75" font-family="Helvetica,sans-Serif" font-size="10.00">iostream</text>
</a>
</g>
</g>
<!-- Node1&#45;&gt;Node2 -->
<g id="edge1_Node000001_Node000002" class="edge">
<title>Node1&#45;&gt;Node2</title>
<g id="a_edge1_Node000001_Node000002"><a xlink:title=" ">
<path fill="none" stroke="#63b8ff" d="M104.82,-280.62C78.15,-273.38 47.37,-261.04 26,-240.25 4.03,-218.88 0,-207.03 0,-176.38 0,-176.38 0,-176.38 0,-119.12 0,-86.13 15.84,-50.51 27.07,-29.41"/>
<polygon fill="#63b8ff" stroke="#63b8ff" points="30.02,-31.3 31.82,-20.86 23.9,-27.9 30.02,-31.3"/>
</a>
</g>
</g>
<!-- Node3 -->
<g id="Node000003" class="node">
<title>Node3</title>
<g id="a_Node000003"><a xlink:title=" ">
<polygon fill="#e0e0e0" stroke="#999999" points="78.5,-240.25 35.5,-240.25 35.5,-221 78.5,-221 78.5,-240.25"/>
<text text-anchor="middle" x="57" y="-226.75" font-family="Helvetica,sans-Serif" font-size="10.00">vector</text>
</a>
</g>
</g>
<!-- Node1&#45;&gt;Node3 -->
<g id="edge2_Node000001_Node000003" class="edge">
<title>Node1&#45;&gt;Node3</title>
<g id="a_edge2_Node000001_Node000003"><a xlink:title=" ">
<path fill="none" stroke="#63b8ff" d="M134.27,-275.8C118.44,-266.74 98.22,-255.19 82.44,-246.16"/>
<polygon fill="#63b8ff" stroke="#63b8ff" points="84.53,-243.33 74.11,-241.41 81.05,-249.41 84.53,-243.33"/>
</a>
</g>
</g>
<!-- Node4 -->
<g id="Node000004" class="node">
<title>Node4</title>
<g id="a_Node000004"><a xlink:href="_section_8h.html" target="_top" xlink:title=" ">
<polygon fill="white" stroke="#666666" points="115.62,-185 58.38,-185 58.38,-165.75 115.62,-165.75 115.62,-185"/>
<text text-anchor="middle" x="87" y="-171.5" font-family="Helvetica,sans-Serif" font-size="10.00">Section.h</text>
</a>
</g>
</g>
<!-- Node1&#45;&gt;Node4 -->
<g id="edge3_Node000001_Node000004" class="edge">
<title>Node1&#45;&gt;Node4</title>
<g id="a_edge3_Node000001_Node000004"><a xlink:title=" ">
<path fill="none" stroke="#63b8ff" d="M150.39,-276.04C143.76,-266.03 134.78,-252.37 127,-240.25 117.18,-224.93 106.22,-207.41 98.26,-194.6"/>
<polygon fill="#63b8ff" stroke="#63b8ff" points="101.42,-193.03 93.17,-186.38 95.46,-196.72 101.42,-193.03"/>
</a>
</g>
</g>
<!-- Node5 -->
<g id="Node000005" class="node">
<title>Node5</title>
<g id="a_Node000005"><a xlink:href="_vector_8h.html" target="_top" xlink:title=" ">
<polygon fill="white" stroke="#666666" points="155,-74.5 103,-74.5 103,-55.25 155,-55.25 155,-74.5"/>
<text text-anchor="middle" x="129" y="-61" font-family="Helvetica,sans-Serif" font-size="10.00">Vector.h</text>
</a>
</g>
</g>
<!-- Node1&#45;&gt;Node5 -->
<g id="edge9_Node000001_Node000005" class="edge">
<title>Node1&#45;&gt;Node5</title>
<g id="a_edge9_Node000001_Node000005"><a xlink:title=" ">
<path fill="none" stroke="#63b8ff" d="M173.34,-275.91C181.01,-266.49 189.93,-253.54 194,-240.25 204.73,-205.24 220.02,-187.67 179,-110.5 172.94,-99.1 162.73,-89.19 153.12,-81.63"/>
<polygon fill="#63b8ff" stroke="#63b8ff" points="155.24,-78.84 145.1,-75.77 151.11,-84.5 155.24,-78.84"/>
</a>
</g>
</g>
<!-- Node7 -->
<g id="Node000007" class="node">
<title>Node7</title>
<g id="a_Node000007"><a xlink:href="_facet_8h.html" target="_top" xlink:title=" ">
<polygon fill="white" stroke="#666666" points="184.5,-240.25 135.5,-240.25 135.5,-221 184.5,-221 184.5,-240.25"/>
<text text-anchor="middle" x="160" y="-226.75" font-family="Helvetica,sans-Serif" font-size="10.00">Facet.h</text>
</a>
</g>
</g>
<!-- Node1&#45;&gt;Node7 -->
<g id="edge10_Node000001_Node000007" class="edge">
<title>Node1&#45;&gt;Node7</title>
<g id="a_edge10_Node000001_Node000007"><a xlink:title=" ">
<path fill="none" stroke="#63b8ff" d="M160,-275.95C160,-268.71 160,-259.84 160,-251.94"/>
<polygon fill="#63b8ff" stroke="#63b8ff" points="163.5,-252.21 160,-242.21 156.5,-252.21 163.5,-252.21"/>
</a>
</g>
</g>
<!-- Node8 -->
<g id="Node000008" class="node">
<title>Node8</title>
<g id="a_Node000008"><a xlink:title=" ">
<polygon fill="#e0e0e0" stroke="#999999" points="297.5,-240.25 248.5,-240.25 248.5,-221 297.5,-221 297.5,-240.25"/>
<text text-anchor="middle" x="273" y="-226.75" font-family="Helvetica,sans-Serif" font-size="10.00">fstream</text>
</a>
</g>
</g>
<!-- Node1&#45;&gt;Node8 -->
<g id="edge14_Node000001_Node000008" class="edge">
<title>Node1&#45;&gt;Node8</title>
<g id="a_edge14_Node000001_Node000008"><a xlink:title=" ">
<path fill="none" stroke="#63b8ff" d="M188.22,-275.8C205.76,-266.66 228.2,-254.97 245.59,-245.91"/>
<polygon fill="#63b8ff" stroke="#63b8ff" points="247.08,-249.08 254.33,-241.35 243.84,-242.87 247.08,-249.08"/>
</a>
</g>
</g>
<!-- Node9 -->
<g id="Node000009" class="node">
<title>Node9</title>
<g id="a_Node000009"><a xlink:title=" ">
<polygon fill="#e0e0e0" stroke="#999999" points="356,-240.25 316,-240.25 316,-221 356,-221 356,-240.25"/>
<text text-anchor="middle" x="336" y="-226.75" font-family="Helvetica,sans-Serif" font-size="10.00">string</text>
</a>
</g>
</g>
<!-- Node1&#45;&gt;Node9 -->
<g id="edge15_Node000001_Node000009" class="edge">
<title>Node1&#45;&gt;Node9</title>
<g id="a_edge15_Node000001_Node000009"><a xlink:title=" ">
<path fill="none" stroke="#63b8ff" d="M203.96,-275.8C235.46,-265.26 277.1,-251.33 305.13,-241.95"/>
<polygon fill="#63b8ff" stroke="#63b8ff" points="306.07,-245.33 314.44,-238.84 303.85,-238.69 306.07,-245.33"/>
</a>
</g>
</g>
<!-- Node4&#45;&gt;Node2 -->
<g id="edge8_Node000004_Node000002" class="edge">
<title>Node4&#45;&gt;Node2</title>
<g id="a_edge8_Node000004_Node000002"><a xlink:title=" ">
<path fill="none" stroke="#63b8ff" d="M84.37,-165.57C76.75,-140.14 54.6,-66.1 43.91,-30.37"/>
<polygon fill="#63b8ff" stroke="#63b8ff" points="47.3,-29.5 41.08,-20.92 40.6,-31.51 47.3,-29.5"/>
</a>
</g>
</g>
<!-- Node4&#45;&gt;Node5 -->
<g id="edge4_Node000004_Node000005" class="edge">
<title>Node4&#45;&gt;Node5</title>
<g id="a_edge4_Node000004_Node000005"><a xlink:title=" ">
<path fill="none" stroke="#63b8ff" d="M86.68,-165.33C86.55,-152.6 87.48,-128.92 95,-110.5 99.03,-100.63 105.83,-91.04 112.3,-83.29"/>
<polygon fill="#63b8ff" stroke="#63b8ff" points="114.76,-85.79 118.8,-76 109.54,-81.14 114.76,-85.79"/>
</a>
</g>
</g>
<!-- Node6 -->
<g id="Node000006" class="node">
<title>Node6</title>
<g id="a_Node000006"><a xlink:href="_plane_8h.html" target="_top" xlink:title=" ">
<polygon fill="white" stroke="#666666" points="153.5,-129.75 104.5,-129.75 104.5,-110.5 153.5,-110.5 153.5,-129.75"/>
<text text-anchor="middle" x="129" y="-116.25" font-family="Helvetica,sans-Serif" font-size="10.00">Plane.h</text>
</a>
</g>
</g>
<!-- Node4&#45;&gt;Node6 -->
<g id="edge6_Node000004_Node000006" class="edge">
<title>Node4&#45;&gt;Node6</title>
<g id="a_edge6_Node000004_Node000006"><a xlink:title=" ">
<path fill="none" stroke="#63b8ff" d="M93.94,-165.58C99.62,-158.38 107.84,-147.96 114.89,-139.01"/>
<polygon fill="#63b8ff" stroke="#63b8ff" points="117.53,-141.32 120.98,-131.3 112.04,-136.98 117.53,-141.32"/>
</a>
</g>
</g>
<!-- Node5&#45;&gt;Node2 -->
<g id="edge5_Node000005_Node000002" class="edge">
<title>Node5&#45;&gt;Node2</title>
<g id="a_edge5_Node000005_Node000002"><a xlink:title=" ">
<path fill="none" stroke="#63b8ff" d="M113.56,-54.84C99.84,-46.81 79.5,-34.91 63.38,-25.48"/>
<polygon fill="#63b8ff" stroke="#63b8ff" points="65.22,-22.5 54.82,-20.47 61.68,-28.54 65.22,-22.5"/>
</a>
</g>
</g>
<!-- Node6&#45;&gt;Node5 -->
<g id="edge7_Node000006_Node000005" class="edge">
<title>Node6&#45;&gt;Node5</title>
<g id="a_edge7_Node000006_Node000005"><a xlink:title=" ">
<path fill="none" stroke="#63b8ff" d="M129,-110.33C129,-103.82 129,-94.67 129,-86.37"/>
<polygon fill="#63b8ff" stroke="#63b8ff" points="132.5,-86.37 129,-76.37 125.5,-86.37 132.5,-86.37"/>
</a>
</g>
</g>
<!-- Node7&#45;&gt;Node4 -->
<g id="edge13_Node000007_Node000004" class="edge">
<title>Node7&#45;&gt;Node4</title>
<g id="a_edge13_Node000007_Node000004"><a xlink:title=" ">
<path fill="none" stroke="#63b8ff" d="M147.62,-220.59C136.85,-212.74 121.03,-201.2 108.25,-191.87"/>
<polygon fill="#63b8ff" stroke="#63b8ff" points="110.56,-189.23 100.42,-186.17 106.44,-194.89 110.56,-189.23"/>
</a>
</g>
</g>
<!-- Node7&#45;&gt;Node5 -->
<g id="edge11_Node000007_Node000005" class="edge">
<title>Node7&#45;&gt;Node5</title>
<g id="a_edge11_Node000007_Node000005"><a xlink:title=" ">
<path fill="none" stroke="#63b8ff" d="M162.27,-220.65C166.96,-200.36 176.23,-149.7 163,-110.5 159.59,-100.4 152.88,-90.77 146.31,-83.07"/>
<polygon fill="#63b8ff" stroke="#63b8ff" points="148.99,-80.8 139.63,-75.83 143.84,-85.55 148.99,-80.8"/>
</a>
</g>
</g>
<!-- Node7&#45;&gt;Node6 -->
<g id="edge12_Node000007_Node000006" class="edge">
<title>Node7&#45;&gt;Node6</title>
<g id="a_edge12_Node000007_Node000006"><a xlink:title=" ">
<path fill="none" stroke="#63b8ff" d="M157.46,-220.75C152.51,-203.42 141.46,-164.73 134.67,-140.99"/>
<polygon fill="#63b8ff" stroke="#63b8ff" points="138.1,-140.24 131.99,-131.58 131.37,-142.16 138.1,-140.24"/>
</a>
</g>
</g>
</g>
</svg>
