<?xml version="1.0" encoding="UTF-8" standalone="no"?>
<!DOCTYPE svg PUBLIC "-//W3C//DTD SVG 1.1//EN"
 "http://www.w3.org/Graphics/SVG/1.1/DTD/svg11.dtd">
<!-- Generated by graphviz version 9.0.0 (20230911.1827)
 -->
<!-- Title: C:/Users/krisz/Documents/GitHub/STL_Slicer/STL_SLICER/src/Gcode.cpp Pages: 1 -->
<svg width="434pt" height="388pt"
 viewBox="0.00 0.00 433.62 388.00" xmlns="http://www.w3.org/2000/svg" xmlns:xlink="http://www.w3.org/1999/xlink">

<svg id="main" version="1.1" xmlns="http://www.w3.org/2000/svg" xmlns:xlink="http://www.w3.org/1999/xlink" xml:space="preserve" onload="init(evt)">
<style type="text/css"><![CDATA[
.node, .edge {opacity: 0.7;}
.node.selected, .edge.selected {opacity: 1;}
.edge:hover path { stroke: red; }
.edge:hover polygon { stroke: red; fill: red; }
]]></style>
<script type="application/ecmascript" xlink:href="svg.min.js"/>
<svg id="graph" class="graph">
<g id="graph0" class="graph" transform="scale(1 1) rotate(0) translate(4 384)">
<title>C:/Users/krisz/Documents/GitHub/STL_Slicer/STL_SLICER/src/Gcode.cpp</title>
<!-- Node1 -->
<g id="Node000001" class="node">
<title>Node1</title>
<g id="a_Node000001"><a xlink:title=" ">
<polygon fill="#999999" stroke="#666666" points="345.38,-380 214.62,-380 214.62,-336 345.38,-336 345.38,-380"/>
<text text-anchor="start" x="222.62" y="-366.5" font-family="Helvetica,sans-Serif" font-size="10.00">C:/Users/krisz/Documents</text>
<text text-anchor="start" x="222.62" y="-354.5" font-family="Helvetica,sans-Serif" font-size="10.00">/GitHub/STL_Slicer/STL</text>
<text text-anchor="middle" x="280" y="-342.5" font-family="Helvetica,sans-Serif" font-size="10.00">_SLICER/src/Gcode.cpp</text>
</a>
</g>
</g>
<!-- Node2 -->
<g id="Node000002" class="node">
<title>Node2</title>
<g id="a_Node000002"><a xlink:href="_gcode_8h.html" target="_top" xlink:title=" ">
<polygon fill="white" stroke="#666666" points="189.38,-300 136.62,-300 136.62,-280 189.38,-280 189.38,-300"/>
<text text-anchor="middle" x="163" y="-286.5" font-family="Helvetica,sans-Serif" font-size="10.00">Gcode.h</text>
</a>
</g>
</g>
<!-- Node1&#45;&gt;Node2 -->
<g id="edge1_Node000001_Node000002" class="edge">
<title>Node1&#45;&gt;Node2</title>
<g id="a_edge1_Node000001_Node000002"><a xlink:title=" ">
<path fill="none" stroke="#63b8ff" d="M242.01,-335.57C224.88,-325.91 205.06,-314.73 189.56,-305.98"/>
<polygon fill="#63b8ff" stroke="#63b8ff" points="191.35,-302.97 180.92,-301.11 187.91,-309.07 191.35,-302.97"/>
</a>
</g>
</g>
<!-- Node3 -->
<g id="Node000003" class="node">
<title>Node3</title>
<g id="a_Node000003"><a xlink:title=" ">
<polygon fill="#e0e0e0" stroke="#999999" points="132.75,-20 79.25,-20 79.25,0 132.75,0 132.75,-20"/>
<text text-anchor="middle" x="106" y="-6.5" font-family="Helvetica,sans-Serif" font-size="10.00">iostream</text>
</a>
</g>
</g>
<!-- Node1&#45;&gt;Node3 -->
<g id="edge15_Node000001_Node000003" class="edge">
<title>Node1&#45;&gt;Node3</title>
<g id="a_edge15_Node000001_Node000003"><a xlink:title=" ">
<path fill="none" stroke="#63b8ff" d="M214.35,-356C131.59,-350.86 0,-328.06 0,-235 0,-235 0,-235 0,-121 0,-76.92 44.68,-43.71 76.03,-25.84"/>
<polygon fill="#63b8ff" stroke="#63b8ff" points="77.63,-28.95 84.73,-21.09 74.28,-22.8 77.63,-28.95"/>
</a>
</g>
</g>
<!-- Node5 -->
<g id="Node000005" class="node">
<title>Node5</title>
<g id="a_Node000005"><a xlink:href="_section_8h.html" target="_top" xlink:title=" ">
<polygon fill="white" stroke="#666666" points="305.62,-188 248.38,-188 248.38,-168 305.62,-168 305.62,-188"/>
<text text-anchor="middle" x="277" y="-174.5" font-family="Helvetica,sans-Serif" font-size="10.00">Section.h</text>
</a>
</g>
</g>
<!-- Node1&#45;&gt;Node5 -->
<g id="edge17_Node000001_Node000005" class="edge">
<title>Node1&#45;&gt;Node5</title>
<g id="a_edge17_Node000001_Node000005"><a xlink:title=" ">
<path fill="none" stroke="#63b8ff" d="M279.64,-335.53C279.05,-300.93 277.92,-233.29 277.34,-199.39"/>
<polygon fill="#63b8ff" stroke="#63b8ff" points="280.85,-199.65 277.18,-189.71 273.85,-199.76 280.85,-199.65"/>
</a>
</g>
</g>
<!-- Node9 -->
<g id="Node000009" class="node">
<title>Node9</title>
<g id="a_Node000009"><a xlink:title=" ">
<polygon fill="#e0e0e0" stroke="#999999" points="356.12,-300 307.88,-300 307.88,-280 356.12,-280 356.12,-300"/>
<text text-anchor="middle" x="332" y="-286.5" font-family="Helvetica,sans-Serif" font-size="10.00">fstream</text>
</a>
</g>
</g>
<!-- Node1&#45;&gt;Node9 -->
<g id="edge16_Node000001_Node000009" class="edge">
<title>Node1&#45;&gt;Node9</title>
<g id="a_edge16_Node000001_Node000009"><a xlink:title=" ">
<path fill="none" stroke="#63b8ff" d="M296.74,-335.75C303.48,-327.2 311.18,-317.42 317.66,-309.2"/>
<polygon fill="#63b8ff" stroke="#63b8ff" points="320.2,-311.63 323.64,-301.61 314.7,-307.3 320.2,-311.63"/>
</a>
</g>
</g>
<!-- Node10 -->
<g id="Node000010" class="node">
<title>Node10</title>
<g id="a_Node000010"><a xlink:title=" ">
<polygon fill="#e0e0e0" stroke="#999999" points="425.62,-300 374.38,-300 374.38,-280 425.62,-280 425.62,-300"/>
<text text-anchor="middle" x="400" y="-286.5" font-family="Helvetica,sans-Serif" font-size="10.00">sstream</text>
</a>
</g>
</g>
<!-- Node1&#45;&gt;Node10 -->
<g id="edge18_Node000001_Node000010" class="edge">
<title>Node1&#45;&gt;Node10</title>
<g id="a_edge18_Node000001_Node000010"><a xlink:title=" ">
<path fill="none" stroke="#63b8ff" d="M318.96,-335.57C336.7,-325.81 357.25,-314.51 373.22,-305.73"/>
<polygon fill="#63b8ff" stroke="#63b8ff" points="374.57,-308.98 381.65,-301.09 371.2,-302.85 374.57,-308.98"/>
</a>
</g>
</g>
<!-- Node2&#45;&gt;Node3 -->
<g id="edge2_Node000002_Node000003" class="edge">
<title>Node2&#45;&gt;Node3</title>
<g id="a_edge2_Node000002_Node000003"><a xlink:title=" ">
<path fill="none" stroke="#63b8ff" d="M136.14,-284.33C112.11,-278.77 77.59,-267.16 57,-244 37,-221.51 38,-209.1 38,-179 38,-179 38,-179 38,-121 38,-83.65 66.72,-48.38 86.83,-28.27"/>
<polygon fill="#63b8ff" stroke="#63b8ff" points="89.18,-30.87 93.98,-21.43 84.34,-25.81 89.18,-30.87"/>
</a>
</g>
</g>
<!-- Node4 -->
<g id="Node000004" class="node">
<title>Node4</title>
<g id="a_Node000004"><a xlink:title=" ">
<polygon fill="#e0e0e0" stroke="#999999" points="107.75,-244 66.25,-244 66.25,-224 107.75,-224 107.75,-244"/>
<text text-anchor="middle" x="87" y="-230.5" font-family="Helvetica,sans-Serif" font-size="10.00">vector</text>
</a>
</g>
</g>
<!-- Node2&#45;&gt;Node4 -->
<g id="edge3_Node000002_Node000004" class="edge">
<title>Node2&#45;&gt;Node4</title>
<g id="a_edge3_Node000002_Node000004"><a xlink:title=" ">
<path fill="none" stroke="#63b8ff" d="M149.76,-279.59C138.71,-271.74 122.72,-260.38 109.64,-251.09"/>
<polygon fill="#63b8ff" stroke="#63b8ff" points="111.75,-248.3 101.58,-245.36 107.7,-254 111.75,-248.3"/>
</a>
</g>
</g>
<!-- Node2&#45;&gt;Node5 -->
<g id="edge4_Node000002_Node000005" class="edge">
<title>Node2&#45;&gt;Node5</title>
<g id="a_edge4_Node000002_Node000005"><a xlink:title=" ">
<path fill="none" stroke="#63b8ff" d="M177.56,-279.51C190.2,-270.95 208.66,-257.64 223,-244 238.22,-229.51 253.32,-210.89 263.66,-197.29"/>
<polygon fill="#63b8ff" stroke="#63b8ff" points="266.21,-199.73 269.38,-189.63 260.59,-195.55 266.21,-199.73"/>
</a>
</g>
</g>
<!-- Node6 -->
<g id="Node000006" class="node">
<title>Node6</title>
<g id="a_Node000006"><a xlink:href="_vector_8h.html" target="_top" xlink:title=" ">
<polygon fill="white" stroke="#666666" points="200.38,-76 147.62,-76 147.62,-56 200.38,-56 200.38,-76"/>
<text text-anchor="middle" x="174" y="-62.5" font-family="Helvetica,sans-Serif" font-size="10.00">Vector.h</text>
</a>
</g>
</g>
<!-- Node2&#45;&gt;Node6 -->
<g id="edge10_Node000002_Node000006" class="edge">
<title>Node2&#45;&gt;Node6</title>
<g id="a_edge10_Node000002_Node000006"><a xlink:title=" ">
<path fill="none" stroke="#63b8ff" d="M161.13,-279.74C159.4,-270.68 156.96,-256.46 156,-244 151.61,-187.18 162.9,-120.32 169.54,-87.41"/>
<polygon fill="#63b8ff" stroke="#63b8ff" points="172.96,-88.19 171.59,-77.68 166.11,-86.75 172.96,-88.19"/>
</a>
</g>
</g>
<!-- Node8 -->
<g id="Node000008" class="node">
<title>Node8</title>
<g id="a_Node000008"><a xlink:href="_facet_8h.html" target="_top" xlink:title=" ">
<polygon fill="white" stroke="#666666" points="213.5,-244 164.5,-244 164.5,-224 213.5,-224 213.5,-244"/>
<text text-anchor="middle" x="189" y="-230.5" font-family="Helvetica,sans-Serif" font-size="10.00">Facet.h</text>
</a>
</g>
</g>
<!-- Node2&#45;&gt;Node8 -->
<g id="edge11_Node000002_Node000008" class="edge">
<title>Node2&#45;&gt;Node8</title>
<g id="a_edge11_Node000002_Node000008"><a xlink:title=" ">
<path fill="none" stroke="#63b8ff" d="M167.53,-279.59C170.85,-272.7 175.47,-263.1 179.58,-254.57"/>
<polygon fill="#63b8ff" stroke="#63b8ff" points="182.68,-256.19 183.87,-245.66 176.37,-253.15 182.68,-256.19"/>
</a>
</g>
</g>
<!-- Node5&#45;&gt;Node3 -->
<g id="edge9_Node000005_Node000003" class="edge">
<title>Node5&#45;&gt;Node3</title>
<g id="a_edge9_Node000005_Node000003"><a xlink:title=" ">
<path fill="none" stroke="#63b8ff" d="M279.87,-167.62C283.34,-154.46 287.71,-130.11 279,-112 253.62,-59.2 186.74,-32.15 143.96,-19.83"/>
<polygon fill="#63b8ff" stroke="#63b8ff" points="145.14,-16.53 134.58,-17.27 143.3,-23.28 145.14,-16.53"/>
</a>
</g>
</g>
<!-- Node5&#45;&gt;Node6 -->
<g id="edge5_Node000005_Node000006" class="edge">
<title>Node5&#45;&gt;Node6</title>
<g id="a_edge5_Node000005_Node000006"><a xlink:title=" ">
<path fill="none" stroke="#63b8ff" d="M277.03,-167.56C276.6,-153.89 273.95,-128.43 261,-112 248.45,-96.07 228.71,-85.22 211.21,-78.17"/>
<polygon fill="#63b8ff" stroke="#63b8ff" points="212.69,-74.99 202.1,-74.79 210.26,-81.55 212.69,-74.99"/>
</a>
</g>
</g>
<!-- Node7 -->
<g id="Node000007" class="node">
<title>Node7</title>
<g id="a_Node000007"><a xlink:href="_plane_8h.html" target="_top" xlink:title=" ">
<polygon fill="white" stroke="#666666" points="251.5,-132 202.5,-132 202.5,-112 251.5,-112 251.5,-132"/>
<text text-anchor="middle" x="227" y="-118.5" font-family="Helvetica,sans-Serif" font-size="10.00">Plane.h</text>
</a>
</g>
</g>
<!-- Node5&#45;&gt;Node7 -->
<g id="edge7_Node000005_Node000007" class="edge">
<title>Node5&#45;&gt;Node7</title>
<g id="a_edge7_Node000005_Node000007"><a xlink:title=" ">
<path fill="none" stroke="#63b8ff" d="M268.29,-167.59C261.41,-160.16 251.61,-149.58 243.28,-140.58"/>
<polygon fill="#63b8ff" stroke="#63b8ff" points="246,-138.37 236.64,-133.41 240.86,-143.12 246,-138.37"/>
</a>
</g>
</g>
<!-- Node6&#45;&gt;Node3 -->
<g id="edge6_Node000006_Node000003" class="edge">
<title>Node6&#45;&gt;Node3</title>
<g id="a_edge6_Node000006_Node000003"><a xlink:title=" ">
<path fill="none" stroke="#63b8ff" d="M162.16,-55.59C152.31,-47.77 138.07,-36.46 126.39,-27.19"/>
<polygon fill="#63b8ff" stroke="#63b8ff" points="128.9,-24.72 118.89,-21.24 124.55,-30.2 128.9,-24.72"/>
</a>
</g>
</g>
<!-- Node7&#45;&gt;Node6 -->
<g id="edge8_Node000007_Node000006" class="edge">
<title>Node7&#45;&gt;Node6</title>
<g id="a_edge8_Node000007_Node000006"><a xlink:title=" ">
<path fill="none" stroke="#63b8ff" d="M217.77,-111.59C210.4,-104.08 199.87,-93.35 190.98,-84.3"/>
<polygon fill="#63b8ff" stroke="#63b8ff" points="193.69,-82.06 184.19,-77.38 188.69,-86.97 193.69,-82.06"/>
</a>
</g>
</g>
<!-- Node8&#45;&gt;Node5 -->
<g id="edge14_Node000008_Node000005" class="edge">
<title>Node8&#45;&gt;Node5</title>
<g id="a_edge14_Node000008_Node000005"><a xlink:title=" ">
<path fill="none" stroke="#63b8ff" d="M204.33,-223.59C217.5,-215.51 236.73,-203.71 252.11,-194.27"/>
<polygon fill="#63b8ff" stroke="#63b8ff" points="253.57,-197.48 260.26,-189.27 249.91,-191.52 253.57,-197.48"/>
</a>
</g>
</g>
<!-- Node8&#45;&gt;Node6 -->
<g id="edge12_Node000008_Node000006" class="edge">
<title>Node8&#45;&gt;Node6</title>
<g id="a_edge12_Node000008_Node000006"><a xlink:title=" ">
<path fill="none" stroke="#63b8ff" d="M188.15,-223.6C185.79,-197.46 179.1,-123.48 175.84,-87.36"/>
<polygon fill="#63b8ff" stroke="#63b8ff" points="179.36,-87.45 174.98,-77.8 172.39,-88.08 179.36,-87.45"/>
</a>
</g>
</g>
<!-- Node8&#45;&gt;Node7 -->
<g id="edge13_Node000008_Node000007" class="edge">
<title>Node8&#45;&gt;Node7</title>
<g id="a_edge13_Node000008_Node000007"><a xlink:title=" ">
<path fill="none" stroke="#63b8ff" d="M192.24,-223.62C198.38,-205.84 211.84,-166.88 220.09,-143"/>
<polygon fill="#63b8ff" stroke="#63b8ff" points="223.32,-144.38 223.27,-133.79 216.7,-142.09 223.32,-144.38"/>
</a>
</g>
</g>
</g>
</svg>
</svg>

<style type='text/css'>
<![CDATA[
[data-mouse-over-selected='false'] { opacity: 0.7; }
[data-mouse-over-selected='true']  { opacity: 1.0; }
]]>
</style>
<script type="application/ecmascript"><![CDATA[
document.addEventListener('DOMContentLoaded', (event) => {
  highlightEdges();
  highlightAdjacentNodes();
});
]]></script>
</svg>
