<?xml version="1.0" encoding="UTF-8" standalone="no"?>
<!DOCTYPE svg PUBLIC "-//W3C//DTD SVG 1.1//EN"
 "http://www.w3.org/Graphics/SVG/1.1/DTD/svg11.dtd">
<!-- Generated by graphviz version 10.0.1 (20240210.2158)
 -->
<!-- Title: STL_SLICER/include/Plane.h Pages: 1 -->
<!--zoomable 293 -->

<svg id="main" version="1.1" xmlns="http://www.w3.org/2000/svg" xmlns:xlink="http://www.w3.org/1999/xlink" xml:space="preserve" onload="init(evt)">
<style type="text/css"><![CDATA[
.node, .edge {opacity: 0.7;}
.node.selected, .edge.selected {opacity: 1;}
.edge:hover path { stroke: red; }
.edge:hover polygon { stroke: red; fill: red; }
]]></style>

<defs>
  <circle id="rim" cx="0" cy="0" r="7"/>
  <circle id="rim2" cx="0" cy="0" r="3.5"/>
  <g id="zoomPlus">
    <use xlink:href="#rim" fill="#404040"><set attributeName="fill" to="#808080" begin="zoomplus.mouseover" end="zoomplus.mouseout"/></use>
    <path d="M-4,0h8M0,-4v8" fill="none" stroke="white" stroke-width="1.5" pointer-events="none"/>
  </g>
  <g id="zoomMin">
    <use xlink:href="#rim" fill="#404040"><set attributeName="fill" to="#808080" begin="zoomminus.mouseover" end="zoomminus.mouseout"/></use>
    <path d="M-4,0h8" fill="none" stroke="white" stroke-width="1.5" pointer-events="none"/>
  </g>
  <g id="arrowUp" transform="translate(30 24)">
    <use xlink:href="#rim"/>
    <path pointer-events="none" fill="none" stroke="white" stroke-width="1.5" d="M0,-3.0v7 M-2.5,-0.5L0,-3.0L2.5,-0.5"/>
  </g>
  <g id="arrowRight" transform="rotate(90) translate(36 -43)">
    <use xlink:href="#rim"/>
    <path pointer-events="none" fill="none" stroke="white" stroke-width="1.5" d="M0,-3.0v7 M-2.5,-0.5L0,-3.0L2.5,-0.5"/>
  </g>
  <g id="arrowDown" transform="rotate(180) translate(-30 -48)">
    <use xlink:href="#rim"/>
    <path pointer-events="none" fill="none" stroke="white" stroke-width="1.5" d="M0,-3.0v7 M-2.5,-0.5L0,-3.0L2.5,-0.5"/>
  </g>
  <g id="arrowLeft" transform="rotate(270) translate(-36 17)">
    <use xlink:href="#rim"/>
    <path pointer-events="none" fill="none" stroke="white" stroke-width="1.5" d="M0,-3.0v7 M-2.5,-0.5L0,-3.0L2.5,-0.5"/>
  </g>
  <g id="resetDef">
    <use xlink:href="#rim2" fill="#404040"><set attributeName="fill" to="#808080" begin="reset.mouseover" end="reset.mouseout"/></use>
  </g>
</defs>
<script type="application/ecmascript">
var viewWidth = 802;
var viewHeight = 293;
var sectionId = 'dynsection-1';
</script>
<script type="application/ecmascript" xlink:href="svg.min.js"/>
<svg id="graph" class="graph">
<g id="viewport">
<title>STL_SLICER/include/Plane.h</title>
<!-- Node1 -->
<g id="Node000001" class="node">
<title>Node1</title>
<g id="a_Node000001"><a xlink:title=" ">
<polygon fill="#999999" stroke="#666666" points="464.88,-285.25 355.12,-285.25 355.12,-254.75 464.88,-254.75 464.88,-285.25"/>
<text text-anchor="start" x="363.12" y="-271.75" font-family="Helvetica,sans-Serif" font-size="10.00">STL_SLICER/include</text>
<text text-anchor="middle" x="410" y="-260.5" font-family="Helvetica,sans-Serif" font-size="10.00">/Plane.h</text>
</a>
</g>
</g>
<!-- Node2 -->
<g id="Node000002" class="node">
<title>Node2</title>
<g id="a_Node000002"><a xlink:href="_facet_8h.html" target="_top" xlink:title=" ">
<polygon fill="white" stroke="#666666" points="385.88,-152.25 276.12,-152.25 276.12,-121.75 385.88,-121.75 385.88,-152.25"/>
<text text-anchor="start" x="284.12" y="-138.75" font-family="Helvetica,sans-Serif" font-size="10.00">STL_SLICER/include</text>
<text text-anchor="middle" x="331" y="-127.5" font-family="Helvetica,sans-Serif" font-size="10.00">/Facet.h</text>
</a>
</g>
</g>
<!-- Node1&#45;&gt;Node2 -->
<g id="edge1_Node000001_Node000002" class="edge">
<title>Node1&#45;&gt;Node2</title>
<g id="a_edge1_Node000001_Node000002"><a xlink:title=" ">
<path fill="none" stroke="#63b8ff" d="M395.3,-244.63C379,-217.59 353.23,-174.85 339.8,-152.58"/>
<polygon fill="#63b8ff" stroke="#63b8ff" points="392.3,-246.43 400.46,-253.18 398.3,-242.81 392.3,-246.43"/>
</a>
</g>
</g>
<!-- Node5 -->
<g id="Node000005" class="node">
<title>Node5</title>
<g id="a_Node000005"><a xlink:href="main_8cpp.html" target="_top" xlink:title=" ">
<polygon fill="white" stroke="#666666" points="323.62,-19.25 188.38,-19.25 188.38,0 323.62,0 323.62,-19.25"/>
<text text-anchor="middle" x="256" y="-5.75" font-family="Helvetica,sans-Serif" font-size="10.00">STL_SLICER/src/main.cpp</text>
</a>
</g>
</g>
<!-- Node1&#45;&gt;Node5 -->
<g id="edge19_Node000001_Node000005" class="edge">
<title>Node1&#45;&gt;Node5</title>
<g id="a_edge19_Node000001_Node000005"><a xlink:title=" ">
<path fill="none" stroke="#63b8ff" d="M345.75,-250.74C273.41,-226.34 159.39,-175.42 109,-85.75 102.36,-73.93 100.93,-66.14 109,-55.25 127.27,-30.61 158.79,-19.11 187.97,-13.9"/>
<polygon fill="#63b8ff" stroke="#63b8ff" points="344.52,-254.02 355.11,-253.82 346.71,-247.37 344.52,-254.02"/>
</a>
</g>
</g>
<!-- Node9 -->
<g id="Node000009" class="node">
<title>Node9</title>
<g id="a_Node000009"><a xlink:href="_section_8h.html" target="_top" xlink:title=" ">
<polygon fill="white" stroke="#666666" points="506.88,-218.75 397.12,-218.75 397.12,-188.25 506.88,-188.25 506.88,-218.75"/>
<text text-anchor="start" x="405.12" y="-205.25" font-family="Helvetica,sans-Serif" font-size="10.00">STL_SLICER/include</text>
<text text-anchor="middle" x="452" y="-194" font-family="Helvetica,sans-Serif" font-size="10.00">/Section.h</text>
</a>
</g>
</g>
<!-- Node1&#45;&gt;Node9 -->
<g id="edge11_Node000001_Node000009" class="edge">
<title>Node1&#45;&gt;Node9</title>
<g id="a_edge11_Node000001_Node000009"><a xlink:title=" ">
<path fill="none" stroke="#63b8ff" d="M425.79,-244.76C431.41,-236.12 437.57,-226.66 442.51,-219.08"/>
<polygon fill="#63b8ff" stroke="#63b8ff" points="422.88,-242.81 420.36,-253.1 428.75,-246.63 422.88,-242.81"/>
</a>
</g>
</g>
<!-- Node10 -->
<g id="Node000010" class="node">
<title>Node10</title>
<g id="a_Node000010"><a xlink:href="_section_8cpp.html" target="_top" xlink:title=" ">
<polygon fill="white" stroke="#666666" points="793.62,-146.62 646.38,-146.62 646.38,-127.38 793.62,-127.38 793.62,-146.62"/>
<text text-anchor="middle" x="720" y="-133.12" font-family="Helvetica,sans-Serif" font-size="10.00">STL_SLICER/src/Section.cpp</text>
</a>
</g>
</g>
<!-- Node1&#45;&gt;Node10 -->
<g id="edge18_Node000001_Node000010" class="edge">
<title>Node1&#45;&gt;Node10</title>
<g id="a_edge18_Node000001_Node000010"><a xlink:title=" ">
<path fill="none" stroke="#63b8ff" d="M455.02,-249.98C522.77,-221.34 648.37,-168.27 698.51,-147.08"/>
<polygon fill="#63b8ff" stroke="#63b8ff" points="453.9,-246.65 446.05,-253.76 456.63,-253.1 453.9,-246.65"/>
</a>
</g>
</g>
<!-- Node3 -->
<g id="Node000003" class="node">
<title>Node3</title>
<g id="a_Node000003"><a xlink:href="_gcode_8h.html" target="_top" xlink:title=" ">
<polygon fill="white" stroke="#666666" points="589.88,-85.75 480.12,-85.75 480.12,-55.25 589.88,-55.25 589.88,-85.75"/>
<text text-anchor="start" x="488.12" y="-72.25" font-family="Helvetica,sans-Serif" font-size="10.00">STL_SLICER/include</text>
<text text-anchor="middle" x="535" y="-61" font-family="Helvetica,sans-Serif" font-size="10.00">/Gcode.h</text>
</a>
</g>
</g>
<!-- Node2&#45;&gt;Node3 -->
<g id="edge2_Node000002_Node000003" class="edge">
<title>Node2&#45;&gt;Node3</title>
<g id="a_edge2_Node000002_Node000003"><a xlink:title=" ">
<path fill="none" stroke="#63b8ff" d="M388.43,-117.84C420.11,-107.83 458.93,-95.55 488.65,-86.15"/>
<polygon fill="#63b8ff" stroke="#63b8ff" points="387.47,-114.48 378.99,-120.83 389.58,-121.15 387.47,-114.48"/>
</a>
</g>
</g>
<!-- Node2&#45;&gt;Node5 -->
<g id="edge10_Node000002_Node000005" class="edge">
<title>Node2&#45;&gt;Node5</title>
<g id="a_edge10_Node000002_Node000005"><a xlink:title=" ">
<path fill="none" stroke="#63b8ff" d="M300.39,-114.29C291.03,-106.28 281.5,-96.51 275,-85.75 262.06,-64.33 257.89,-34.38 256.58,-19.6"/>
<polygon fill="#63b8ff" stroke="#63b8ff" points="298.05,-116.89 308.03,-120.45 302.44,-111.45 298.05,-116.89"/>
</a>
</g>
</g>
<!-- Node6 -->
<g id="Node000006" class="node">
<title>Node6</title>
<g id="a_Node000006"><a xlink:href="_s_t_l_file_8h.html" target="_top" xlink:title=" ">
<polygon fill="white" stroke="#666666" points="227.88,-85.75 118.12,-85.75 118.12,-55.25 227.88,-55.25 227.88,-85.75"/>
<text text-anchor="start" x="126.12" y="-72.25" font-family="Helvetica,sans-Serif" font-size="10.00">STL_SLICER/include</text>
<text text-anchor="middle" x="173" y="-61" font-family="Helvetica,sans-Serif" font-size="10.00">/STLFile.h</text>
</a>
</g>
</g>
<!-- Node2&#45;&gt;Node6 -->
<g id="edge5_Node000002_Node000006" class="edge">
<title>Node2&#45;&gt;Node6</title>
<g id="a_edge5_Node000002_Node000006"><a xlink:title=" ">
<path fill="none" stroke="#63b8ff" d="M284.78,-117.13C260.61,-107.26 231.46,-95.36 208.98,-86.19"/>
<polygon fill="#63b8ff" stroke="#63b8ff" points="283.16,-120.25 293.75,-120.79 285.81,-113.77 283.16,-120.25"/>
</a>
</g>
</g>
<!-- Node7 -->
<g id="Node000007" class="node">
<title>Node7</title>
<g id="a_Node000007"><a xlink:href="_s_t_l_file_8cpp.html" target="_top" xlink:title=" ">
<polygon fill="white" stroke="#666666" points="148,-19.25 0,-19.25 0,0 148,0 148,-19.25"/>
<text text-anchor="middle" x="74" y="-5.75" font-family="Helvetica,sans-Serif" font-size="10.00">STL_SLICER/src/STLFile.cpp</text>
</a>
</g>
</g>
<!-- Node2&#45;&gt;Node7 -->
<g id="edge9_Node000002_Node000007" class="edge">
<title>Node2&#45;&gt;Node7</title>
<g id="a_edge9_Node000002_Node000007"><a xlink:title=" ">
<path fill="none" stroke="#63b8ff" d="M264.27,-127.47C207.88,-119.09 132.63,-104.81 109,-85.75 87.72,-68.59 78.75,-35.52 75.54,-19.61"/>
<polygon fill="#63b8ff" stroke="#63b8ff" points="263.73,-130.93 274.13,-128.9 264.73,-124 263.73,-130.93"/>
</a>
</g>
</g>
<!-- Node8 -->
<g id="Node000008" class="node">
<title>Node8</title>
<g id="a_Node000008"><a xlink:href="_facet_8cpp.html" target="_top" xlink:title=" ">
<polygon fill="white" stroke="#666666" points="423.5,-80.12 284.5,-80.12 284.5,-60.88 423.5,-60.88 423.5,-80.12"/>
<text text-anchor="middle" x="354" y="-66.62" font-family="Helvetica,sans-Serif" font-size="10.00">STL_SLICER/src/Facet.cpp</text>
</a>
</g>
</g>
<!-- Node2&#45;&gt;Node8 -->
<g id="edge8_Node000002_Node000008" class="edge">
<title>Node2&#45;&gt;Node8</title>
<g id="a_edge8_Node000002_Node000008"><a xlink:title=" ">
<path fill="none" stroke="#63b8ff" d="M340,-110.77C343.83,-100.01 348.06,-88.16 350.85,-80.32"/>
<polygon fill="#63b8ff" stroke="#63b8ff" points="336.79,-109.34 336.73,-119.94 343.38,-111.69 336.79,-109.34"/>
</a>
</g>
</g>
<!-- Node4 -->
<g id="Node000004" class="node">
<title>Node4</title>
<g id="a_Node000004"><a xlink:href="_gcode_8cpp.html" target="_top" xlink:title=" ">
<polygon fill="white" stroke="#666666" points="647.38,-19.25 504.62,-19.25 504.62,0 647.38,0 647.38,-19.25"/>
<text text-anchor="middle" x="576" y="-5.75" font-family="Helvetica,sans-Serif" font-size="10.00">STL_SLICER/src/Gcode.cpp</text>
</a>
</g>
</g>
<!-- Node3&#45;&gt;Node4 -->
<g id="edge3_Node000003_Node000004" class="edge">
<title>Node3&#45;&gt;Node4</title>
<g id="a_edge3_Node000003_Node000004"><a xlink:title=" ">
<path fill="none" stroke="#63b8ff" d="M551.7,-45.53C558.03,-36.42 564.87,-26.6 569.68,-19.7"/>
<polygon fill="#63b8ff" stroke="#63b8ff" points="548.84,-43.5 546,-53.7 554.59,-47.5 548.84,-43.5"/>
</a>
</g>
</g>
<!-- Node3&#45;&gt;Node5 -->
<g id="edge4_Node000003_Node000005" class="edge">
<title>Node3&#45;&gt;Node5</title>
<g id="a_edge4_Node000003_Node000005"><a xlink:title=" ">
<path fill="none" stroke="#63b8ff" d="M468.65,-55.5C416.16,-44.42 344.4,-29.28 299.13,-19.73"/>
<polygon fill="#63b8ff" stroke="#63b8ff" points="467.89,-58.92 478.4,-57.56 469.34,-52.07 467.89,-58.92"/>
</a>
</g>
</g>
<!-- Node6&#45;&gt;Node5 -->
<g id="edge7_Node000006_Node000005" class="edge">
<title>Node6&#45;&gt;Node5</title>
<g id="a_edge7_Node000006_Node000005"><a xlink:title=" ">
<path fill="none" stroke="#63b8ff" d="M202.74,-48.4C216.64,-38.55 232.44,-27.33 243.2,-19.7"/>
<polygon fill="#63b8ff" stroke="#63b8ff" points="200.88,-45.43 194.75,-54.07 204.93,-51.14 200.88,-45.43"/>
</a>
</g>
</g>
<!-- Node6&#45;&gt;Node7 -->
<g id="edge6_Node000006_Node000007" class="edge">
<title>Node6&#45;&gt;Node7</title>
<g id="a_edge6_Node000006_Node000007"><a xlink:title=" ">
<path fill="none" stroke="#63b8ff" d="M138.7,-49.1C121.82,-39.06 102.32,-27.47 89.18,-19.65"/>
<polygon fill="#63b8ff" stroke="#63b8ff" points="136.59,-51.92 146.97,-54.02 140.17,-45.9 136.59,-51.92"/>
</a>
</g>
</g>
<!-- Node9&#45;&gt;Node2 -->
<g id="edge12_Node000009_Node000002" class="edge">
<title>Node9&#45;&gt;Node2</title>
<g id="a_edge12_Node000009_Node000002"><a xlink:title=" ">
<path fill="none" stroke="#63b8ff" d="M414.56,-182.54C396.39,-172.86 374.96,-161.43 358.35,-152.58"/>
<polygon fill="#63b8ff" stroke="#63b8ff" points="412.74,-185.54 423.21,-187.15 416.03,-179.36 412.74,-185.54"/>
</a>
</g>
</g>
<!-- Node9&#45;&gt;Node3 -->
<g id="edge13_Node000009_Node000003" class="edge">
<title>Node9&#45;&gt;Node3</title>
<g id="a_edge13_Node000009_Node000003"><a xlink:title=" ">
<path fill="none" stroke="#63b8ff" d="M467.21,-178.49C484.33,-151.47 511.59,-108.45 525.76,-86.08"/>
<polygon fill="#63b8ff" stroke="#63b8ff" points="464.41,-176.38 462.01,-186.7 470.32,-180.13 464.41,-176.38"/>
</a>
</g>
</g>
<!-- Node9&#45;&gt;Node4 -->
<g id="edge15_Node000009_Node000004" class="edge">
<title>Node9&#45;&gt;Node4</title>
<g id="a_edge15_Node000009_Node000004"><a xlink:title=" ">
<path fill="none" stroke="#63b8ff" d="M494.41,-182.44C529.68,-163.15 577.46,-130.36 599,-85.75 609.91,-63.15 593.26,-34.23 583.02,-19.75"/>
<polygon fill="#63b8ff" stroke="#63b8ff" points="492.91,-179.27 485.71,-187.04 496.18,-185.46 492.91,-179.27"/>
</a>
</g>
</g>
<!-- Node9&#45;&gt;Node5 -->
<g id="edge17_Node000009_Node000005" class="edge">
<title>Node9&#45;&gt;Node5</title>
<g id="a_edge17_Node000009_Node000005"><a xlink:title=" ">
<path fill="none" stroke="#63b8ff" d="M456.44,-176.55C460.41,-144.03 461.71,-88.53 432,-55.25 417.36,-38.85 366.41,-27.07 323.08,-19.75"/>
<polygon fill="#63b8ff" stroke="#63b8ff" points="452.99,-175.9 455.05,-186.3 459.92,-176.89 452.99,-175.9"/>
</a>
</g>
</g>
<!-- Node9&#45;&gt;Node8 -->
<g id="edge14_Node000009_Node000008" class="edge">
<title>Node9&#45;&gt;Node8</title>
<g id="a_edge14_Node000009_Node000008"><a xlink:title=" ">
<path fill="none" stroke="#63b8ff" d="M435.83,-178.68C424.65,-162.43 409.27,-140.54 395,-121.75 383.83,-107.04 370.15,-90.56 361.75,-80.61"/>
<polygon fill="#63b8ff" stroke="#63b8ff" points="432.81,-180.47 441.35,-186.74 438.59,-176.51 432.81,-180.47"/>
</a>
</g>
</g>
<!-- Node9&#45;&gt;Node10 -->
<g id="edge16_Node000009_Node000010" class="edge">
<title>Node9&#45;&gt;Node10</title>
<g id="a_edge16_Node000009_Node000010"><a xlink:title=" ">
<path fill="none" stroke="#63b8ff" d="M518.25,-186.56C569.84,-174.14 639.62,-157.35 682.13,-147.11"/>
<polygon fill="#63b8ff" stroke="#63b8ff" points="517.58,-183.12 508.68,-188.86 519.22,-189.92 517.58,-183.12"/>
</a>
</g>
</g>
</g>
</svg>

<g id="navigator" transform="translate(0 0)" fill="#404254">
  <rect fill="#f2f5e9" fill-opacity="0.5" stroke="#606060" stroke-width=".5" x="0" y="0" width="60" height="60"/>
  <use id="zoomplus" xlink:href="#zoomPlus" x="17" y="9" onmousedown="handleZoom(evt,'in')"/>
  <use id="zoomminus" xlink:href="#zoomMin" x="42" y="9" onmousedown="handleZoom(evt,'out')"/>
  <use id="reset" xlink:href="#resetDef" x="30" y="36" onmousedown="handleReset()"/>
   <use id="arrowup" xlink:href="#arrowUp" x="0" y="0" onmousedown="handlePan(0,-1)"/>
  <use id="arrowright" xlink:href="#arrowRight" x="0" y="0" onmousedown="handlePan(1,0)"/>
  <use id="arrowdown" xlink:href="#arrowDown" x="0" y="0" onmousedown="handlePan(0,1)"/>
  <use id="arrowleft" xlink:href="#arrowLeft" x="0" y="0" onmousedown="handlePan(-1,0)"/>
</g>
<svg viewBox="0 0 15 15" width="100%" height="30px" preserveAspectRatio="xMaxYMin meet">
 <g id="arrow_out" transform="scale(0.3 0.3)">
  <a xlink:href="_plane_8h__dep__incl_org.svg" target="_base">
   <rect id="button" ry="5" rx="5" y="6" x="6" height="38" width="38"
        fill="#f2f5e9" fill-opacity="0.5" stroke="#606060" stroke-width="1.0"/>
   <path id="arrow"
     d="M 11.500037,31.436501 C 11.940474,20.09759 22.043105,11.32322 32.158766,21.979434 L 37.068811,17.246167 C 37.068811,17.246167 37.088388,32 37.088388,32 L 22.160133,31.978069 C 22.160133,31.978069 26.997745,27.140456 26.997745,27.140456 C 18.528582,18.264221 13.291696,25.230495 11.500037,31.436501 z"
     style="fill:#404040;"/>
  </a>
 </g>
</svg>

<style type='text/css'>
<![CDATA[
[data-mouse-over-selected='false'] { opacity: 0.7; }
[data-mouse-over-selected='true']  { opacity: 1.0; }
]]>
</style>
<script type="application/ecmascript"><![CDATA[
document.addEventListener('DOMContentLoaded', (event) => {
  highlightEdges();
  highlightAdjacentNodes();
});
]]></script>
</svg>
