<?xml version="1.0" encoding="UTF-8" standalone="no"?>
<!DOCTYPE svg PUBLIC "-//W3C//DTD SVG 1.1//EN"
 "http://www.w3.org/Graphics/SVG/1.1/DTD/svg11.dtd">
<!-- Generated by graphviz version 9.0.0 (20230911.1827)
 -->
<!-- Title: C:/Users/krisz/Documents/GitHub/STL_Slicer/STL_SLICER/include/Plane.h Pages: 1 -->
<svg width="792pt" height="372pt"
 viewBox="0.00 0.00 791.75 372.00" xmlns="http://www.w3.org/2000/svg" xmlns:xlink="http://www.w3.org/1999/xlink">
<g id="graph0" class="graph" transform="scale(1 1) rotate(0) translate(4 368)">
<title>C:/Users/krisz/Documents/GitHub/STL_Slicer/STL_SLICER/include/Plane.h</title>
<!-- Node1 -->
<g id="Node000001" class="node">
<title>Node1</title>
<g id="a_Node000001"><a xlink:title=" ">
<polygon fill="#999999" stroke="#666666" points="456.75,-364 326,-364 326,-320 456.75,-320 456.75,-364"/>
<text text-anchor="start" x="334" y="-350.5" font-family="Helvetica,sans-Serif" font-size="10.00">C:/Users/krisz/Documents</text>
<text text-anchor="start" x="334" y="-338.5" font-family="Helvetica,sans-Serif" font-size="10.00">/GitHub/STL_Slicer/STL</text>
<text text-anchor="middle" x="391.38" y="-326.5" font-family="Helvetica,sans-Serif" font-size="10.00">_SLICER/include/Plane.h</text>
</a>
</g>
</g>
<!-- Node2 -->
<g id="Node000002" class="node">
<title>Node2</title>
<g id="a_Node000002"><a xlink:href="_facet_8h.html" target="_top" xlink:title=" ">
<polygon fill="white" stroke="#666666" points="373.75,-204 243,-204 243,-160 373.75,-160 373.75,-204"/>
<text text-anchor="start" x="251" y="-190.5" font-family="Helvetica,sans-Serif" font-size="10.00">C:/Users/krisz/Documents</text>
<text text-anchor="start" x="251" y="-178.5" font-family="Helvetica,sans-Serif" font-size="10.00">/GitHub/STL_Slicer/STL</text>
<text text-anchor="middle" x="308.38" y="-166.5" font-family="Helvetica,sans-Serif" font-size="10.00">_SLICER/include/Facet.h</text>
</a>
</g>
</g>
<!-- Node1&#45;&gt;Node2 -->
<g id="edge1_Node000001_Node000002" class="edge">
<title>Node1&#45;&gt;Node2</title>
<g id="a_edge1_Node000001_Node000002"><a xlink:title=" ">
<path fill="none" stroke="#63b8ff" d="M374.98,-309.79C358.62,-278.66 333.93,-231.65 319.66,-204.48"/>
<polygon fill="#63b8ff" stroke="#63b8ff" points="371.73,-311.13 379.48,-318.35 377.93,-307.87 371.73,-311.13"/>
</a>
</g>
</g>
<!-- Node5 -->
<g id="Node000005" class="node">
<title>Node5</title>
<g id="a_Node000005"><a xlink:href="main_8cpp.html" target="_top" xlink:title=" ">
<polygon fill="white" stroke="#666666" points="318.75,-44 188,-44 188,0 318.75,0 318.75,-44"/>
<text text-anchor="start" x="196" y="-30.5" font-family="Helvetica,sans-Serif" font-size="10.00">C:/Users/krisz/Documents</text>
<text text-anchor="start" x="196" y="-18.5" font-family="Helvetica,sans-Serif" font-size="10.00">/GitHub/STL_Slicer/STL</text>
<text text-anchor="middle" x="253.38" y="-6.5" font-family="Helvetica,sans-Serif" font-size="10.00">_SLICER/src/main.cpp</text>
</a>
</g>
</g>
<!-- Node1&#45;&gt;Node5 -->
<g id="edge19_Node000001_Node000005" class="edge">
<title>Node1&#45;&gt;Node5</title>
<g id="a_edge19_Node000001_Node000005"><a xlink:title=" ">
<path fill="none" stroke="#63b8ff" d="M322.51,-315.31C247.84,-283.27 132.61,-220.66 82.38,-124 73.36,-106.65 70.94,-95.86 82.38,-80 95.18,-62.23 145.12,-46.85 187.75,-36.56"/>
<polygon fill="#63b8ff" stroke="#63b8ff" points="320.79,-318.38 331.37,-319.04 323.51,-311.93 320.79,-318.38"/>
</a>
</g>
</g>
<!-- Node9 -->
<g id="Node000009" class="node">
<title>Node9</title>
<g id="a_Node000009"><a xlink:href="_section_8h.html" target="_top" xlink:title=" ">
<polygon fill="white" stroke="#666666" points="506.25,-284 372.5,-284 372.5,-240 506.25,-240 506.25,-284"/>
<text text-anchor="start" x="380.5" y="-270.5" font-family="Helvetica,sans-Serif" font-size="10.00">C:/Users/krisz/Documents</text>
<text text-anchor="start" x="380.5" y="-258.5" font-family="Helvetica,sans-Serif" font-size="10.00">/GitHub/STL_Slicer/STL</text>
<text text-anchor="middle" x="439.38" y="-246.5" font-family="Helvetica,sans-Serif" font-size="10.00">_SLICER/include/Section.h</text>
</a>
</g>
</g>
<!-- Node1&#45;&gt;Node9 -->
<g id="edge11_Node000001_Node000009" class="edge">
<title>Node1&#45;&gt;Node9</title>
<g id="a_edge11_Node000001_Node000009"><a xlink:title=" ">
<path fill="none" stroke="#63b8ff" d="M410.49,-309.94C415.78,-301.34 421.41,-292.2 426.27,-284.29"/>
<polygon fill="#63b8ff" stroke="#63b8ff" points="407.54,-308.05 405.28,-318.4 413.51,-311.71 407.54,-308.05"/>
</a>
</g>
</g>
<!-- Node10 -->
<g id="Node000010" class="node">
<title>Node10</title>
<g id="a_Node000010"><a xlink:href="_section_8cpp.html" target="_top" xlink:title=" ">
<polygon fill="white" stroke="#666666" points="783.75,-204 653,-204 653,-160 783.75,-160 783.75,-204"/>
<text text-anchor="start" x="661" y="-190.5" font-family="Helvetica,sans-Serif" font-size="10.00">C:/Users/krisz/Documents</text>
<text text-anchor="start" x="661" y="-178.5" font-family="Helvetica,sans-Serif" font-size="10.00">/GitHub/STL_Slicer/STL</text>
<text text-anchor="middle" x="718.38" y="-166.5" font-family="Helvetica,sans-Serif" font-size="10.00">_SLICER/src/Section.cpp</text>
</a>
</g>
</g>
<!-- Node1&#45;&gt;Node10 -->
<g id="edge18_Node000001_Node000010" class="edge">
<title>Node1&#45;&gt;Node10</title>
<g id="a_edge18_Node000001_Node000010"><a xlink:title=" ">
<path fill="none" stroke="#63b8ff" d="M449.26,-314.84C470.16,-305.27 493.89,-294.28 515.38,-284 571.3,-257.24 635.25,-225.18 676.18,-204.47"/>
<polygon fill="#63b8ff" stroke="#63b8ff" points="447.96,-311.59 440.31,-318.92 450.86,-317.95 447.96,-311.59"/>
</a>
</g>
</g>
<!-- Node3 -->
<g id="Node000003" class="node">
<title>Node3</title>
<g id="a_Node000003"><a xlink:href="_gcode_8h.html" target="_top" xlink:title=" ">
<polygon fill="white" stroke="#666666" points="597.75,-124 467,-124 467,-80 597.75,-80 597.75,-124"/>
<text text-anchor="start" x="475" y="-110.5" font-family="Helvetica,sans-Serif" font-size="10.00">C:/Users/krisz/Documents</text>
<text text-anchor="start" x="475" y="-98.5" font-family="Helvetica,sans-Serif" font-size="10.00">/GitHub/STL_Slicer/STL</text>
<text text-anchor="middle" x="532.38" y="-86.5" font-family="Helvetica,sans-Serif" font-size="10.00">_SLICER/include/Gcode.h</text>
</a>
</g>
</g>
<!-- Node2&#45;&gt;Node3 -->
<g id="edge2_Node000002_Node000003" class="edge">
<title>Node2&#45;&gt;Node3</title>
<g id="a_edge2_Node000002_Node000003"><a xlink:title=" ">
<path fill="none" stroke="#63b8ff" d="M380.43,-155.91C409.63,-145.74 442.99,-134.12 471.01,-124.37"/>
<polygon fill="#63b8ff" stroke="#63b8ff" points="379.6,-152.49 371.31,-159.09 381.9,-159.1 379.6,-152.49"/>
</a>
</g>
</g>
<!-- Node2&#45;&gt;Node5 -->
<g id="edge10_Node000002_Node000005" class="edge">
<title>Node2&#45;&gt;Node5</title>
<g id="a_edge10_Node000002_Node000005"><a xlink:title=" ">
<path fill="none" stroke="#63b8ff" d="M285.91,-150.1C280.81,-141.94 275.88,-132.91 272.38,-124 261.99,-97.6 257.18,-65.03 255.02,-44.14"/>
<polygon fill="#63b8ff" stroke="#63b8ff" points="282.88,-151.87 291.29,-158.31 288.73,-148.03 282.88,-151.87"/>
</a>
</g>
</g>
<!-- Node6 -->
<g id="Node000006" class="node">
<title>Node6</title>
<g id="a_Node000006"><a xlink:href="_s_t_l_file_8h.html" target="_top" xlink:title=" ">
<polygon fill="white" stroke="#666666" points="225.25,-124 91.5,-124 91.5,-80 225.25,-80 225.25,-124"/>
<text text-anchor="start" x="99.5" y="-110.5" font-family="Helvetica,sans-Serif" font-size="10.00">C:/Users/krisz/Documents</text>
<text text-anchor="start" x="99.5" y="-98.5" font-family="Helvetica,sans-Serif" font-size="10.00">/GitHub/STL_Slicer/STL</text>
<text text-anchor="middle" x="158.38" y="-86.5" font-family="Helvetica,sans-Serif" font-size="10.00">_SLICER/include/STLFile.h</text>
</a>
</g>
</g>
<!-- Node2&#45;&gt;Node6 -->
<g id="edge5_Node000002_Node000006" class="edge">
<title>Node2&#45;&gt;Node6</title>
<g id="a_edge5_Node000002_Node000006"><a xlink:title=" ">
<path fill="none" stroke="#63b8ff" d="M257.21,-154.39C238.41,-144.62 217.38,-133.68 199.57,-124.42"/>
<polygon fill="#63b8ff" stroke="#63b8ff" points="255.56,-157.48 266.04,-158.99 258.79,-151.27 255.56,-157.48"/>
</a>
</g>
</g>
<!-- Node7 -->
<g id="Node000007" class="node">
<title>Node7</title>
<g id="a_Node000007"><a xlink:href="_s_t_l_file_8cpp.html" target="_top" xlink:title=" ">
<polygon fill="white" stroke="#666666" points="130.75,-44 0,-44 0,0 130.75,0 130.75,-44"/>
<text text-anchor="start" x="8" y="-30.5" font-family="Helvetica,sans-Serif" font-size="10.00">C:/Users/krisz/Documents</text>
<text text-anchor="start" x="8" y="-18.5" font-family="Helvetica,sans-Serif" font-size="10.00">/GitHub/STL_Slicer/STL</text>
<text text-anchor="middle" x="65.38" y="-6.5" font-family="Helvetica,sans-Serif" font-size="10.00">_SLICER/src/STLFile.cpp</text>
</a>
</g>
</g>
<!-- Node2&#45;&gt;Node7 -->
<g id="edge9_Node000002_Node000007" class="edge">
<title>Node2&#45;&gt;Node7</title>
<g id="a_edge9_Node000002_Node000007"><a xlink:title=" ">
<path fill="none" stroke="#63b8ff" d="M231.27,-170.68C174.02,-161.4 102.54,-145.85 82.38,-124 62.6,-102.57 61.18,-67.15 62.72,-44.45"/>
<polygon fill="#63b8ff" stroke="#63b8ff" points="230.59,-174.11 241.01,-172.21 231.68,-167.2 230.59,-174.11"/>
</a>
</g>
</g>
<!-- Node8 -->
<g id="Node000008" class="node">
<title>Node8</title>
<g id="a_Node000008"><a xlink:href="_facet_8cpp.html" target="_top" xlink:title=" ">
<polygon fill="white" stroke="#666666" points="411.75,-124 281,-124 281,-80 411.75,-80 411.75,-124"/>
<text text-anchor="start" x="289" y="-110.5" font-family="Helvetica,sans-Serif" font-size="10.00">C:/Users/krisz/Documents</text>
<text text-anchor="start" x="289" y="-98.5" font-family="Helvetica,sans-Serif" font-size="10.00">/GitHub/STL_Slicer/STL</text>
<text text-anchor="middle" x="346.38" y="-86.5" font-family="Helvetica,sans-Serif" font-size="10.00">_SLICER/src/Facet.cpp</text>
</a>
</g>
</g>
<!-- Node2&#45;&gt;Node8 -->
<g id="edge8_Node000002_Node000008" class="edge">
<title>Node2&#45;&gt;Node8</title>
<g id="a_edge8_Node000002_Node000008"><a xlink:title=" ">
<path fill="none" stroke="#63b8ff" d="M323.78,-149.38C327.89,-140.94 332.24,-132.02 336,-124.29"/>
<polygon fill="#63b8ff" stroke="#63b8ff" points="320.65,-147.8 319.42,-158.33 326.95,-150.87 320.65,-147.8"/>
</a>
</g>
</g>
<!-- Node4 -->
<g id="Node000004" class="node">
<title>Node4</title>
<g id="a_Node000004"><a xlink:href="_gcode_8cpp.html" target="_top" xlink:title=" ">
<polygon fill="white" stroke="#666666" points="643.75,-44 513,-44 513,0 643.75,0 643.75,-44"/>
<text text-anchor="start" x="521" y="-30.5" font-family="Helvetica,sans-Serif" font-size="10.00">C:/Users/krisz/Documents</text>
<text text-anchor="start" x="521" y="-18.5" font-family="Helvetica,sans-Serif" font-size="10.00">/GitHub/STL_Slicer/STL</text>
<text text-anchor="middle" x="578.38" y="-6.5" font-family="Helvetica,sans-Serif" font-size="10.00">_SLICER/src/Gcode.cpp</text>
</a>
</g>
</g>
<!-- Node3&#45;&gt;Node4 -->
<g id="edge3_Node000003_Node000004" class="edge">
<title>Node3&#45;&gt;Node4</title>
<g id="a_edge3_Node000003_Node000004"><a xlink:title=" ">
<path fill="none" stroke="#63b8ff" d="M550.69,-69.94C555.77,-61.34 561.16,-52.2 565.82,-44.29"/>
<polygon fill="#63b8ff" stroke="#63b8ff" points="547.78,-67.99 545.71,-78.38 553.81,-71.55 547.78,-67.99"/>
</a>
</g>
</g>
<!-- Node3&#45;&gt;Node5 -->
<g id="edge4_Node000003_Node000005" class="edge">
<title>Node3&#45;&gt;Node5</title>
<g id="a_edge4_Node000003_Node000005"><a xlink:title=" ">
<path fill="none" stroke="#63b8ff" d="M455.67,-79.56C412.87,-67.59 360.09,-52.84 319.18,-41.4"/>
<polygon fill="#63b8ff" stroke="#63b8ff" points="454.58,-82.88 465.15,-82.21 456.46,-76.14 454.58,-82.88"/>
</a>
</g>
</g>
<!-- Node6&#45;&gt;Node5 -->
<g id="edge7_Node000006_Node000005" class="edge">
<title>Node6&#45;&gt;Node5</title>
<g id="a_edge7_Node000006_Node000005"><a xlink:title=" ">
<path fill="none" stroke="#63b8ff" d="M193.15,-72.45C204.49,-63.14 216.87,-52.97 227.45,-44.29"/>
<polygon fill="#63b8ff" stroke="#63b8ff" points="191.01,-69.67 185.5,-78.73 195.45,-75.09 191.01,-69.67"/>
</a>
</g>
</g>
<!-- Node6&#45;&gt;Node7 -->
<g id="edge6_Node000006_Node000007" class="edge">
<title>Node6&#45;&gt;Node7</title>
<g id="a_edge6_Node000006_Node000007"><a xlink:title=" ">
<path fill="none" stroke="#63b8ff" d="M124.33,-72.45C113.23,-63.14 101.11,-52.97 90.76,-44.29"/>
<polygon fill="#63b8ff" stroke="#63b8ff" points="121.89,-74.97 131.8,-78.71 126.39,-69.61 121.89,-74.97"/>
</a>
</g>
</g>
<!-- Node9&#45;&gt;Node2 -->
<g id="edge12_Node000009_Node000002" class="edge">
<title>Node9&#45;&gt;Node2</title>
<g id="a_edge12_Node000009_Node000002"><a xlink:title=" ">
<path fill="none" stroke="#63b8ff" d="M393.73,-233.82C377.48,-224.15 359.43,-213.4 344.13,-204.29"/>
<polygon fill="#63b8ff" stroke="#63b8ff" points="391.9,-236.8 402.28,-238.91 395.48,-230.79 391.9,-236.8"/>
</a>
</g>
</g>
<!-- Node9&#45;&gt;Node3 -->
<g id="edge13_Node000009_Node000003" class="edge">
<title>Node9&#45;&gt;Node3</title>
<g id="a_edge13_Node000009_Node000003"><a xlink:title=" ">
<path fill="none" stroke="#63b8ff" d="M457.74,-229.79C476.07,-198.66 503.74,-151.65 519.73,-124.48"/>
<polygon fill="#63b8ff" stroke="#63b8ff" points="454.74,-227.99 452.69,-238.39 460.77,-231.54 454.74,-227.99"/>
</a>
</g>
</g>
<!-- Node9&#45;&gt;Node4 -->
<g id="edge15_Node000009_Node000004" class="edge">
<title>Node9&#45;&gt;Node4</title>
<g id="a_edge15_Node000009_Node000004"><a xlink:title=" ">
<path fill="none" stroke="#63b8ff" d="M492.69,-234.1C532.18,-210.92 583.02,-173.38 606.38,-124 618.75,-97.85 604.95,-65.22 592.72,-44.25"/>
<polygon fill="#63b8ff" stroke="#63b8ff" points="491.18,-230.94 484.23,-238.94 494.65,-237.01 491.18,-230.94"/>
</a>
</g>
</g>
<!-- Node9&#45;&gt;Node5 -->
<g id="edge17_Node000009_Node000005" class="edge">
<title>Node9&#45;&gt;Node5</title>
<g id="a_edge17_Node000009_Node000005"><a xlink:title=" ">
<path fill="none" stroke="#63b8ff" d="M445.64,-228.24C451.23,-188.68 454.03,-122.2 420.38,-80 396.02,-49.46 354.5,-35.2 318.96,-28.58"/>
<polygon fill="#63b8ff" stroke="#63b8ff" points="442.19,-227.68 444.09,-238.1 449.1,-228.77 442.19,-227.68"/>
</a>
</g>
</g>
<!-- Node9&#45;&gt;Node8 -->
<g id="edge14_Node000009_Node000008" class="edge">
<title>Node9&#45;&gt;Node8</title>
<g id="a_edge14_Node000009_Node000008"><a xlink:title=" ">
<path fill="none" stroke="#63b8ff" d="M422.23,-229.69C411.11,-209.63 396.18,-183.11 382.38,-160 375.29,-148.14 367.09,-135.11 360.3,-124.5"/>
<polygon fill="#63b8ff" stroke="#63b8ff" points="419.04,-231.16 426.94,-238.22 425.17,-227.77 419.04,-231.16"/>
</a>
</g>
</g>
<!-- Node9&#45;&gt;Node10 -->
<g id="edge16_Node000009_Node000010" class="edge">
<title>Node9&#45;&gt;Node10</title>
<g id="a_edge16_Node000009_Node000010"><a xlink:title=" ">
<path fill="none" stroke="#63b8ff" d="M517.46,-239.17C560.07,-227.26 612.24,-212.67 652.74,-201.35"/>
<polygon fill="#63b8ff" stroke="#63b8ff" points="516.7,-235.75 508.02,-241.81 518.59,-242.49 516.7,-235.75"/>
</a>
</g>
</g>
</g>
</svg>
