<?xml version="1.0" encoding="UTF-8" standalone="no"?>
<!DOCTYPE svg PUBLIC "-//W3C//DTD SVG 1.1//EN"
 "http://www.w3.org/Graphics/SVG/1.1/DTD/svg11.dtd">
<!-- Generated by graphviz version 9.0.0 (20230911.1827)
 -->
<!-- Title: C:/Users/krisz/Documents/GitHub/STL_Slicer/STL_SLICER/src/STLFile.cpp Pages: 1 -->
<svg width="386pt" height="388pt"
 viewBox="0.00 0.00 385.62 388.00" xmlns="http://www.w3.org/2000/svg" xmlns:xlink="http://www.w3.org/1999/xlink">

<svg id="main" version="1.1" xmlns="http://www.w3.org/2000/svg" xmlns:xlink="http://www.w3.org/1999/xlink" xml:space="preserve" onload="init(evt)">
<style type="text/css"><![CDATA[
.node, .edge {opacity: 0.7;}
.node.selected, .edge.selected {opacity: 1;}
.edge:hover path { stroke: red; }
.edge:hover polygon { stroke: red; fill: red; }
]]></style>
<script type="application/ecmascript" xlink:href="svg.min.js"/>
<svg id="graph" class="graph">
<g id="graph0" class="graph" transform="scale(1 1) rotate(0) translate(4 384)">
<title>C:/Users/krisz/Documents/GitHub/STL_Slicer/STL_SLICER/src/STLFile.cpp</title>
<!-- Node1 -->
<g id="Node000001" class="node">
<title>Node1</title>
<g id="a_Node000001"><a xlink:title=" ">
<polygon fill="#999999" stroke="#666666" points="278.38,-380 147.62,-380 147.62,-336 278.38,-336 278.38,-380"/>
<text text-anchor="start" x="155.62" y="-366.5" font-family="Helvetica,sans-Serif" font-size="10.00">C:/Users/krisz/Documents</text>
<text text-anchor="start" x="155.62" y="-354.5" font-family="Helvetica,sans-Serif" font-size="10.00">/GitHub/STL_Slicer/STL</text>
<text text-anchor="middle" x="213" y="-342.5" font-family="Helvetica,sans-Serif" font-size="10.00">_SLICER/src/STLFile.cpp</text>
</a>
</g>
</g>
<!-- Node2 -->
<g id="Node000002" class="node">
<title>Node2</title>
<g id="a_Node000002"><a xlink:href="_s_t_l_file_8h.html" target="_top" xlink:title=" ">
<polygon fill="white" stroke="#666666" points="165.62,-300 108.38,-300 108.38,-280 165.62,-280 165.62,-300"/>
<text text-anchor="middle" x="137" y="-286.5" font-family="Helvetica,sans-Serif" font-size="10.00">STLFile.h</text>
</a>
</g>
</g>
<!-- Node1&#45;&gt;Node2 -->
<g id="edge1_Node000001_Node000002" class="edge">
<title>Node1&#45;&gt;Node2</title>
<g id="a_edge1_Node000001_Node000002"><a xlink:title=" ">
<path fill="none" stroke="#63b8ff" d="M188.53,-335.75C178.14,-326.73 166.2,-316.36 156.43,-307.87"/>
<polygon fill="#63b8ff" stroke="#63b8ff" points="158.83,-305.33 148.99,-301.41 154.24,-310.61 158.83,-305.33"/>
</a>
</g>
</g>
<!-- Node4 -->
<g id="Node000004" class="node">
<title>Node4</title>
<g id="a_Node000004"><a xlink:title=" ">
<polygon fill="#e0e0e0" stroke="#999999" points="190.75,-20 137.25,-20 137.25,0 190.75,0 190.75,-20"/>
<text text-anchor="middle" x="164" y="-6.5" font-family="Helvetica,sans-Serif" font-size="10.00">iostream</text>
</a>
</g>
</g>
<!-- Node1&#45;&gt;Node4 -->
<g id="edge18_Node000001_Node000004" class="edge">
<title>Node1&#45;&gt;Node4</title>
<g id="a_edge18_Node000001_Node000004"><a xlink:title=" ">
<path fill="none" stroke="#63b8ff" d="M147.35,-347.54C84.77,-334.37 0,-303.82 0,-235 0,-235 0,-235 0,-121 0,-60.7 77.43,-31.33 125.88,-18.86"/>
<polygon fill="#63b8ff" stroke="#63b8ff" points="126.56,-22.29 135.45,-16.53 124.9,-15.49 126.56,-22.29"/>
</a>
</g>
</g>
<!-- Node6 -->
<g id="Node000006" class="node">
<title>Node6</title>
<g id="a_Node000006"><a xlink:href="_facet_8h.html" target="_top" xlink:title=" ">
<polygon fill="white" stroke="#666666" points="271.5,-244 222.5,-244 222.5,-224 271.5,-224 271.5,-244"/>
<text text-anchor="middle" x="247" y="-230.5" font-family="Helvetica,sans-Serif" font-size="10.00">Facet.h</text>
</a>
</g>
</g>
<!-- Node1&#45;&gt;Node6 -->
<g id="edge14_Node000001_Node000006" class="edge">
<title>Node1&#45;&gt;Node6</title>
<g id="a_edge14_Node000001_Node000006"><a xlink:title=" ">
<path fill="none" stroke="#63b8ff" d="M218.92,-335.75C225.25,-313.05 235.2,-277.36 241.4,-255.11"/>
<polygon fill="#63b8ff" stroke="#63b8ff" points="244.69,-256.33 244,-245.76 237.95,-254.45 244.69,-256.33"/>
</a>
</g>
</g>
<!-- Node7 -->
<g id="Node000007" class="node">
<title>Node7</title>
<g id="a_Node000007"><a xlink:href="_vector_8h.html" target="_top" xlink:title=" ">
<polygon fill="white" stroke="#666666" points="258.38,-76 205.62,-76 205.62,-56 258.38,-56 258.38,-76"/>
<text text-anchor="middle" x="232" y="-62.5" font-family="Helvetica,sans-Serif" font-size="10.00">Vector.h</text>
</a>
</g>
</g>
<!-- Node1&#45;&gt;Node7 -->
<g id="edge15_Node000001_Node000007" class="edge">
<title>Node1&#45;&gt;Node7</title>
<g id="a_edge15_Node000001_Node000007"><a xlink:title=" ">
<path fill="none" stroke="#63b8ff" d="M207.61,-335.56C201.99,-311.32 194,-270.58 194,-235 194,-235 194,-235 194,-177 194,-143.77 209.68,-107.85 220.9,-86.4"/>
<polygon fill="#63b8ff" stroke="#63b8ff" points="223.94,-88.12 225.67,-77.66 217.8,-84.76 223.94,-88.12"/>
</a>
</g>
</g>
<!-- Node10 -->
<g id="Node000010" class="node">
<title>Node10</title>
<g id="a_Node000010"><a xlink:title=" ">
<polygon fill="#e0e0e0" stroke="#999999" points="308.12,-300 259.88,-300 259.88,-280 308.12,-280 308.12,-300"/>
<text text-anchor="middle" x="284" y="-286.5" font-family="Helvetica,sans-Serif" font-size="10.00">fstream</text>
</a>
</g>
</g>
<!-- Node1&#45;&gt;Node10 -->
<g id="edge16_Node000001_Node000010" class="edge">
<title>Node1&#45;&gt;Node10</title>
<g id="a_edge16_Node000001_Node000010"><a xlink:title=" ">
<path fill="none" stroke="#63b8ff" d="M235.86,-335.75C245.46,-326.82 256.49,-316.57 265.57,-308.13"/>
<polygon fill="#63b8ff" stroke="#63b8ff" points="267.82,-310.82 272.76,-301.45 263.05,-305.69 267.82,-310.82"/>
</a>
</g>
</g>
<!-- Node11 -->
<g id="Node000011" class="node">
<title>Node11</title>
<g id="a_Node000011"><a xlink:title=" ">
<polygon fill="#e0e0e0" stroke="#999999" points="377.62,-300 326.38,-300 326.38,-280 377.62,-280 377.62,-300"/>
<text text-anchor="middle" x="352" y="-286.5" font-family="Helvetica,sans-Serif" font-size="10.00">sstream</text>
</a>
</g>
</g>
<!-- Node1&#45;&gt;Node11 -->
<g id="edge17_Node000001_Node000011" class="edge">
<title>Node1&#45;&gt;Node11</title>
<g id="a_edge17_Node000001_Node000011"><a xlink:title=" ">
<path fill="none" stroke="#63b8ff" d="M258.13,-335.57C279.07,-325.63 303.39,-314.08 322.03,-305.23"/>
<polygon fill="#63b8ff" stroke="#63b8ff" points="323.38,-308.47 330.91,-301.01 320.37,-302.14 323.38,-308.47"/>
</a>
</g>
</g>
<!-- Node3 -->
<g id="Node000003" class="node">
<title>Node3</title>
<g id="a_Node000003"><a xlink:title=" ">
<polygon fill="#e0e0e0" stroke="#999999" points="68,-244 28,-244 28,-224 68,-224 68,-244"/>
<text text-anchor="middle" x="48" y="-230.5" font-family="Helvetica,sans-Serif" font-size="10.00">string</text>
</a>
</g>
</g>
<!-- Node2&#45;&gt;Node3 -->
<g id="edge2_Node000002_Node000003" class="edge">
<title>Node2&#45;&gt;Node3</title>
<g id="a_edge2_Node000002_Node000003"><a xlink:title=" ">
<path fill="none" stroke="#63b8ff" d="M121.5,-279.59C108.18,-271.51 88.72,-259.71 73.17,-250.27"/>
<polygon fill="#63b8ff" stroke="#63b8ff" points="75.28,-247.46 64.92,-245.26 71.65,-253.44 75.28,-247.46"/>
</a>
</g>
</g>
<!-- Node2&#45;&gt;Node4 -->
<g id="edge3_Node000002_Node000004" class="edge">
<title>Node2&#45;&gt;Node4</title>
<g id="a_edge3_Node000002_Node000004"><a xlink:title=" ">
<path fill="none" stroke="#63b8ff" d="M130.95,-279.73C119.55,-261.32 96,-218.54 96,-179 96,-179 96,-179 96,-121 96,-83.65 124.72,-48.38 144.83,-28.27"/>
<polygon fill="#63b8ff" stroke="#63b8ff" points="147.18,-30.87 151.98,-21.43 142.34,-25.81 147.18,-30.87"/>
</a>
</g>
</g>
<!-- Node5 -->
<g id="Node000005" class="node">
<title>Node5</title>
<g id="a_Node000005"><a xlink:title=" ">
<polygon fill="#e0e0e0" stroke="#999999" points="165.75,-244 124.25,-244 124.25,-224 165.75,-224 165.75,-244"/>
<text text-anchor="middle" x="145" y="-230.5" font-family="Helvetica,sans-Serif" font-size="10.00">vector</text>
</a>
</g>
</g>
<!-- Node2&#45;&gt;Node5 -->
<g id="edge4_Node000002_Node000005" class="edge">
<title>Node2&#45;&gt;Node5</title>
<g id="a_edge4_Node000002_Node000005"><a xlink:title=" ">
<path fill="none" stroke="#63b8ff" d="M138.39,-279.59C139.38,-272.93 140.74,-263.75 141.97,-255.44"/>
<polygon fill="#63b8ff" stroke="#63b8ff" points="145.4,-256.2 143.4,-245.8 138.47,-255.17 145.4,-256.2"/>
</a>
</g>
</g>
<!-- Node2&#45;&gt;Node6 -->
<g id="edge5_Node000002_Node000006" class="edge">
<title>Node2&#45;&gt;Node6</title>
<g id="a_edge5_Node000002_Node000006"><a xlink:title=" ">
<path fill="none" stroke="#63b8ff" d="M156.16,-279.59C173.09,-271.28 198.05,-259.03 217.52,-249.47"/>
<polygon fill="#63b8ff" stroke="#63b8ff" points="218.9,-252.7 226.33,-245.15 215.81,-246.41 218.9,-252.7"/>
</a>
</g>
</g>
<!-- Node6&#45;&gt;Node7 -->
<g id="edge6_Node000006_Node000007" class="edge">
<title>Node6&#45;&gt;Node7</title>
<g id="a_edge6_Node000006_Node000007"><a xlink:title=" ">
<path fill="none" stroke="#63b8ff" d="M246.15,-223.6C243.79,-197.46 237.1,-123.48 233.84,-87.36"/>
<polygon fill="#63b8ff" stroke="#63b8ff" points="237.36,-87.45 232.98,-77.8 230.39,-88.08 237.36,-87.45"/>
</a>
</g>
</g>
<!-- Node8 -->
<g id="Node000008" class="node">
<title>Node8</title>
<g id="a_Node000008"><a xlink:href="_plane_8h.html" target="_top" xlink:title=" ">
<polygon fill="white" stroke="#666666" points="309.5,-132 260.5,-132 260.5,-112 309.5,-112 309.5,-132"/>
<text text-anchor="middle" x="285" y="-118.5" font-family="Helvetica,sans-Serif" font-size="10.00">Plane.h</text>
</a>
</g>
</g>
<!-- Node6&#45;&gt;Node8 -->
<g id="edge8_Node000006_Node000008" class="edge">
<title>Node6&#45;&gt;Node8</title>
<g id="a_edge8_Node000006_Node000008"><a xlink:title=" ">
<path fill="none" stroke="#63b8ff" d="M250.24,-223.62C256.38,-205.84 269.84,-166.88 278.09,-143"/>
<polygon fill="#63b8ff" stroke="#63b8ff" points="281.32,-144.38 281.27,-133.79 274.7,-142.09 281.32,-144.38"/>
</a>
</g>
</g>
<!-- Node9 -->
<g id="Node000009" class="node">
<title>Node9</title>
<g id="a_Node000009"><a xlink:href="_section_8h.html" target="_top" xlink:title=" ">
<polygon fill="white" stroke="#666666" points="363.62,-188 306.38,-188 306.38,-168 363.62,-168 363.62,-188"/>
<text text-anchor="middle" x="335" y="-174.5" font-family="Helvetica,sans-Serif" font-size="10.00">Section.h</text>
</a>
</g>
</g>
<!-- Node6&#45;&gt;Node9 -->
<g id="edge10_Node000006_Node000009" class="edge">
<title>Node6&#45;&gt;Node9</title>
<g id="a_edge10_Node000006_Node000009"><a xlink:title=" ">
<path fill="none" stroke="#63b8ff" d="M262.33,-223.59C275.5,-215.51 294.73,-203.71 310.11,-194.27"/>
<polygon fill="#63b8ff" stroke="#63b8ff" points="311.57,-197.48 318.26,-189.27 307.91,-191.52 311.57,-197.48"/>
</a>
</g>
</g>
<!-- Node7&#45;&gt;Node4 -->
<g id="edge7_Node000007_Node000004" class="edge">
<title>Node7&#45;&gt;Node4</title>
<g id="a_edge7_Node000007_Node000004"><a xlink:title=" ">
<path fill="none" stroke="#63b8ff" d="M220.16,-55.59C210.31,-47.77 196.07,-36.46 184.39,-27.19"/>
<polygon fill="#63b8ff" stroke="#63b8ff" points="186.9,-24.72 176.89,-21.24 182.55,-30.2 186.9,-24.72"/>
</a>
</g>
</g>
<!-- Node8&#45;&gt;Node7 -->
<g id="edge9_Node000008_Node000007" class="edge">
<title>Node8&#45;&gt;Node7</title>
<g id="a_edge9_Node000008_Node000007"><a xlink:title=" ">
<path fill="none" stroke="#63b8ff" d="M275.77,-111.59C268.4,-104.08 257.87,-93.35 248.98,-84.3"/>
<polygon fill="#63b8ff" stroke="#63b8ff" points="251.69,-82.06 242.19,-77.38 246.69,-86.97 251.69,-82.06"/>
</a>
</g>
</g>
<!-- Node9&#45;&gt;Node4 -->
<g id="edge13_Node000009_Node000004" class="edge">
<title>Node9&#45;&gt;Node4</title>
<g id="a_edge13_Node000009_Node000004"><a xlink:title=" ">
<path fill="none" stroke="#63b8ff" d="M337.87,-167.62C341.34,-154.46 345.71,-130.11 337,-112 311.62,-59.2 244.74,-32.15 201.96,-19.83"/>
<polygon fill="#63b8ff" stroke="#63b8ff" points="203.14,-16.53 192.58,-17.27 201.3,-23.28 203.14,-16.53"/>
</a>
</g>
</g>
<!-- Node9&#45;&gt;Node7 -->
<g id="edge11_Node000009_Node000007" class="edge">
<title>Node9&#45;&gt;Node7</title>
<g id="a_edge11_Node000009_Node000007"><a xlink:title=" ">
<path fill="none" stroke="#63b8ff" d="M335.03,-167.56C334.6,-153.89 331.95,-128.43 319,-112 306.45,-96.07 286.71,-85.22 269.21,-78.17"/>
<polygon fill="#63b8ff" stroke="#63b8ff" points="270.69,-74.99 260.1,-74.79 268.26,-81.55 270.69,-74.99"/>
</a>
</g>
</g>
<!-- Node9&#45;&gt;Node8 -->
<g id="edge12_Node000009_Node000008" class="edge">
<title>Node9&#45;&gt;Node8</title>
<g id="a_edge12_Node000009_Node000008"><a xlink:title=" ">
<path fill="none" stroke="#63b8ff" d="M326.29,-167.59C319.41,-160.16 309.61,-149.58 301.28,-140.58"/>
<polygon fill="#63b8ff" stroke="#63b8ff" points="304,-138.37 294.64,-133.41 298.86,-143.12 304,-138.37"/>
</a>
</g>
</g>
</g>
</svg>
</svg>

<style type='text/css'>
<![CDATA[
[data-mouse-over-selected='false'] { opacity: 0.7; }
[data-mouse-over-selected='true']  { opacity: 1.0; }
]]>
</style>
<script type="application/ecmascript"><![CDATA[
document.addEventListener('DOMContentLoaded', (event) => {
  highlightEdges();
  highlightAdjacentNodes();
});
]]></script>
</svg>
