<?xml version="1.0" encoding="UTF-8" standalone="no"?>
<!DOCTYPE svg PUBLIC "-//W3C//DTD SVG 1.1//EN"
 "http://www.w3.org/Graphics/SVG/1.1/DTD/svg11.dtd">
<!-- Generated by graphviz version 10.0.1 (20240210.2158)
 -->
<!-- Title: STL_SLICER/include/STLFile.h Pages: 1 -->
<svg width="264pt" height="315pt"
 viewBox="0.00 0.00 263.62 314.75" xmlns="http://www.w3.org/2000/svg" xmlns:xlink="http://www.w3.org/1999/xlink">

<svg id="main" version="1.1" xmlns="http://www.w3.org/2000/svg" xmlns:xlink="http://www.w3.org/1999/xlink" xml:space="preserve" onload="init(evt)">
<style type="text/css"><![CDATA[
.node, .edge {opacity: 0.7;}
.node.selected, .edge.selected {opacity: 1;}
.edge:hover path { stroke: red; }
.edge:hover polygon { stroke: red; fill: red; }
]]></style>
<script type="application/ecmascript" xlink:href="svg.min.js"/>
<svg id="graph" class="graph">
<g id="graph0" class="graph" transform="scale(1 1) rotate(0) translate(4 310.75)">
<title>STL_SLICER/include/STLFile.h</title>
<!-- Node1 -->
<g id="Node000001" class="node">
<title>Node1</title>
<g id="a_Node000001"><a xlink:title=" ">
<polygon fill="#999999" stroke="#666666" points="147.88,-306.75 38.12,-306.75 38.12,-276.25 147.88,-276.25 147.88,-306.75"/>
<text text-anchor="start" x="46.12" y="-293.25" font-family="Helvetica,sans-Serif" font-size="10.00">STL_SLICER/include</text>
<text text-anchor="middle" x="93" y="-282" font-family="Helvetica,sans-Serif" font-size="10.00">/STLFile.h</text>
</a>
</g>
</g>
<!-- Node2 -->
<g id="Node000002" class="node">
<title>Node2</title>
<g id="a_Node000002"><a xlink:title=" ">
<polygon fill="#e0e0e0" stroke="#999999" points="40,-240.25 0,-240.25 0,-221 40,-221 40,-240.25"/>
<text text-anchor="middle" x="20" y="-226.75" font-family="Helvetica,sans-Serif" font-size="10.00">string</text>
</a>
</g>
</g>
<!-- Node1&#45;&gt;Node2 -->
<g id="edge1_Node000001_Node000002" class="edge">
<title>Node1&#45;&gt;Node2</title>
<g id="a_edge1_Node000001_Node000002"><a xlink:title=" ">
<path fill="none" stroke="#63b8ff" d="M74.96,-275.95C64.37,-267.41 50.99,-256.62 40.07,-247.81"/>
<polygon fill="#63b8ff" stroke="#63b8ff" points="42.41,-245.2 32.43,-241.65 38.02,-250.65 42.41,-245.2"/>
</a>
</g>
</g>
<!-- Node3 -->
<g id="Node000003" class="node">
<title>Node3</title>
<g id="a_Node000003"><a xlink:title=" ">
<polygon fill="#e0e0e0" stroke="#999999" points="198.75,-19.25 145.25,-19.25 145.25,0 198.75,0 198.75,-19.25"/>
<text text-anchor="middle" x="172" y="-5.75" font-family="Helvetica,sans-Serif" font-size="10.00">iostream</text>
</a>
</g>
</g>
<!-- Node1&#45;&gt;Node3 -->
<g id="edge2_Node000001_Node000003" class="edge">
<title>Node1&#45;&gt;Node3</title>
<g id="a_edge2_Node000001_Node000003"><a xlink:title=" ">
<path fill="none" stroke="#63b8ff" d="M87.7,-275.95C80.36,-254.47 68,-212.88 68,-176.38 68,-176.38 68,-176.38 68,-119.12 68,-75.52 112.32,-42.61 143.09,-25.01"/>
<polygon fill="#63b8ff" stroke="#63b8ff" points="144.5,-28.23 151.6,-20.37 141.14,-22.09 144.5,-28.23"/>
</a>
</g>
</g>
<!-- Node4 -->
<g id="Node000004" class="node">
<title>Node4</title>
<g id="a_Node000004"><a xlink:title=" ">
<polygon fill="#e0e0e0" stroke="#999999" points="139.5,-240.25 96.5,-240.25 96.5,-221 139.5,-221 139.5,-240.25"/>
<text text-anchor="middle" x="118" y="-226.75" font-family="Helvetica,sans-Serif" font-size="10.00">vector</text>
</a>
</g>
</g>
<!-- Node1&#45;&gt;Node4 -->
<g id="edge3_Node000001_Node000004" class="edge">
<title>Node1&#45;&gt;Node4</title>
<g id="a_edge3_Node000001_Node000004"><a xlink:title=" ">
<path fill="none" stroke="#63b8ff" d="M99.18,-275.95C102.36,-268.45 106.29,-259.2 109.73,-251.1"/>
<polygon fill="#63b8ff" stroke="#63b8ff" points="112.87,-252.67 113.55,-242.09 106.42,-249.93 112.87,-252.67"/>
</a>
</g>
</g>
<!-- Node5 -->
<g id="Node000005" class="node">
<title>Node5</title>
<g id="a_Node000005"><a xlink:href="_facet_8h.html" target="_top" xlink:title=" ">
<polygon fill="white" stroke="#666666" points="206.5,-240.25 157.5,-240.25 157.5,-221 206.5,-221 206.5,-240.25"/>
<text text-anchor="middle" x="182" y="-226.75" font-family="Helvetica,sans-Serif" font-size="10.00">Facet.h</text>
</a>
</g>
</g>
<!-- Node1&#45;&gt;Node5 -->
<g id="edge4_Node000001_Node000005" class="edge">
<title>Node1&#45;&gt;Node5</title>
<g id="a_edge4_Node000001_Node000005"><a xlink:title=" ">
<path fill="none" stroke="#63b8ff" d="M115,-275.95C128.29,-267.15 145.21,-255.96 158.73,-247.02"/>
<polygon fill="#63b8ff" stroke="#63b8ff" points="160.61,-249.97 167.02,-241.54 156.75,-244.13 160.61,-249.97"/>
</a>
</g>
</g>
<!-- Node6 -->
<g id="Node000006" class="node">
<title>Node6</title>
<g id="a_Node000006"><a xlink:href="_vector_8h.html" target="_top" xlink:title=" ">
<polygon fill="white" stroke="#666666" points="198,-74.5 146,-74.5 146,-55.25 198,-55.25 198,-74.5"/>
<text text-anchor="middle" x="172" y="-61" font-family="Helvetica,sans-Serif" font-size="10.00">Vector.h</text>
</a>
</g>
</g>
<!-- Node5&#45;&gt;Node6 -->
<g id="edge5_Node000005_Node000006" class="edge">
<title>Node5&#45;&gt;Node6</title>
<g id="a_edge5_Node000005_Node000006"><a xlink:title=" ">
<path fill="none" stroke="#63b8ff" d="M176.65,-220.68C166.85,-203.68 146.32,-165.25 139,-129.75 137.27,-121.37 136.32,-118.63 139,-110.5 142.3,-100.48 148.82,-90.87 155.19,-83.15"/>
<polygon fill="#63b8ff" stroke="#63b8ff" points="157.61,-85.69 161.66,-75.9 152.39,-81.03 157.61,-85.69"/>
</a>
</g>
</g>
<!-- Node7 -->
<g id="Node000007" class="node">
<title>Node7</title>
<g id="a_Node000007"><a xlink:href="_plane_8h.html" target="_top" xlink:title=" ">
<polygon fill="white" stroke="#666666" points="196.5,-129.75 147.5,-129.75 147.5,-110.5 196.5,-110.5 196.5,-129.75"/>
<text text-anchor="middle" x="172" y="-116.25" font-family="Helvetica,sans-Serif" font-size="10.00">Plane.h</text>
</a>
</g>
</g>
<!-- Node5&#45;&gt;Node7 -->
<g id="edge7_Node000005_Node000007" class="edge">
<title>Node5&#45;&gt;Node7</title>
<g id="a_edge7_Node000005_Node000007"><a xlink:title=" ">
<path fill="none" stroke="#63b8ff" d="M181.18,-220.75C179.59,-203.5 176.05,-165.08 173.86,-141.31"/>
<polygon fill="#63b8ff" stroke="#63b8ff" points="177.37,-141.27 172.97,-131.63 170.4,-141.91 177.37,-141.27"/>
</a>
</g>
</g>
<!-- Node8 -->
<g id="Node000008" class="node">
<title>Node8</title>
<g id="a_Node000008"><a xlink:href="_section_8h.html" target="_top" xlink:title=" ">
<polygon fill="white" stroke="#666666" points="255.62,-185 198.38,-185 198.38,-165.75 255.62,-165.75 255.62,-185"/>
<text text-anchor="middle" x="227" y="-171.5" font-family="Helvetica,sans-Serif" font-size="10.00">Section.h</text>
</a>
</g>
</g>
<!-- Node5&#45;&gt;Node8 -->
<g id="edge9_Node000005_Node000008" class="edge">
<title>Node5&#45;&gt;Node8</title>
<g id="a_edge9_Node000005_Node000008"><a xlink:title=" ">
<path fill="none" stroke="#63b8ff" d="M189.43,-220.83C195.58,-213.55 204.51,-202.98 212.13,-193.98"/>
<polygon fill="#63b8ff" stroke="#63b8ff" points="214.65,-196.41 218.43,-186.52 209.3,-191.89 214.65,-196.41"/>
</a>
</g>
</g>
<!-- Node6&#45;&gt;Node3 -->
<g id="edge6_Node000006_Node000003" class="edge">
<title>Node6&#45;&gt;Node3</title>
<g id="a_edge6_Node000006_Node000003"><a xlink:title=" ">
<path fill="none" stroke="#63b8ff" d="M172,-55.08C172,-48.57 172,-39.42 172,-31.12"/>
<polygon fill="#63b8ff" stroke="#63b8ff" points="175.5,-31.12 172,-21.12 168.5,-31.12 175.5,-31.12"/>
</a>
</g>
</g>
<!-- Node7&#45;&gt;Node6 -->
<g id="edge8_Node000007_Node000006" class="edge">
<title>Node7&#45;&gt;Node6</title>
<g id="a_edge8_Node000007_Node000006"><a xlink:title=" ">
<path fill="none" stroke="#63b8ff" d="M172,-110.33C172,-103.82 172,-94.67 172,-86.37"/>
<polygon fill="#63b8ff" stroke="#63b8ff" points="175.5,-86.37 172,-76.37 168.5,-86.37 175.5,-86.37"/>
</a>
</g>
</g>
<!-- Node8&#45;&gt;Node3 -->
<g id="edge12_Node000008_Node000003" class="edge">
<title>Node8&#45;&gt;Node3</title>
<g id="a_edge12_Node000008_Node000003"><a xlink:title=" ">
<path fill="none" stroke="#63b8ff" d="M227.28,-165.62C227.52,-153.24 227.4,-129.97 224,-110.5 219.58,-85.19 218.9,-78.02 207,-55.25 201.94,-45.57 194.7,-35.91 188.11,-28.06"/>
<polygon fill="#63b8ff" stroke="#63b8ff" points="190.82,-25.84 181.59,-20.64 185.56,-30.46 190.82,-25.84"/>
</a>
</g>
</g>
<!-- Node8&#45;&gt;Node6 -->
<g id="edge10_Node000008_Node000006" class="edge">
<title>Node8&#45;&gt;Node6</title>
<g id="a_edge10_Node000008_Node000006"><a xlink:title=" ">
<path fill="none" stroke="#63b8ff" d="M225.03,-165.32C222.05,-152.59 215.68,-128.89 206,-110.5 200.97,-100.94 193.92,-91.29 187.54,-83.42"/>
<polygon fill="#63b8ff" stroke="#63b8ff" points="190.38,-81.36 181.25,-75.98 185.04,-85.88 190.38,-81.36"/>
</a>
</g>
</g>
<!-- Node8&#45;&gt;Node7 -->
<g id="edge11_Node000008_Node000007" class="edge">
<title>Node8&#45;&gt;Node7</title>
<g id="a_edge11_Node000008_Node000007"><a xlink:title=" ">
<path fill="none" stroke="#63b8ff" d="M217.92,-165.58C210.16,-158.07 198.79,-147.06 189.3,-137.88"/>
<polygon fill="#63b8ff" stroke="#63b8ff" points="191.99,-135.6 182.37,-131.16 187.12,-140.63 191.99,-135.6"/>
</a>
</g>
</g>
</g>
</svg>
</svg>

<style type='text/css'>
<![CDATA[
[data-mouse-over-selected='false'] { opacity: 0.7; }
[data-mouse-over-selected='true']  { opacity: 1.0; }
]]>
</style>
<script type="application/ecmascript"><![CDATA[
document.addEventListener('DOMContentLoaded', (event) => {
  highlightEdges();
  highlightAdjacentNodes();
});
]]></script>
</svg>
