<?xml version="1.0" encoding="UTF-8" standalone="no"?>
<!DOCTYPE svg PUBLIC "-//W3C//DTD SVG 1.1//EN"
 "http://www.w3.org/Graphics/SVG/1.1/DTD/svg11.dtd">
<!-- Generated by graphviz version 10.0.1 (20240210.2158)
 -->
<!-- Title: STL_SLICER/src/STLFile.cpp Pages: 1 -->
<svg width="389pt" height="359pt"
 viewBox="0.00 0.00 388.62 358.75" xmlns="http://www.w3.org/2000/svg" xmlns:xlink="http://www.w3.org/1999/xlink">

<svg id="main" version="1.1" xmlns="http://www.w3.org/2000/svg" xmlns:xlink="http://www.w3.org/1999/xlink" xml:space="preserve" onload="init(evt)">
<style type="text/css"><![CDATA[
.node, .edge {opacity: 0.7;}
.node.selected, .edge.selected {opacity: 1;}
.edge:hover path { stroke: red; }
.edge:hover polygon { stroke: red; fill: red; }
]]></style>
<script type="application/ecmascript" xlink:href="svg.min.js"/>
<svg id="graph" class="graph">
<g id="graph0" class="graph" transform="scale(1 1) rotate(0) translate(4 354.75)">
<title>STL_SLICER/src/STLFile.cpp</title>
<!-- Node1 -->
<g id="Node000001" class="node">
<title>Node1</title>
<g id="a_Node000001"><a xlink:title=" ">
<polygon fill="#999999" stroke="#666666" points="289,-350.75 141,-350.75 141,-331.5 289,-331.5 289,-350.75"/>
<text text-anchor="middle" x="215" y="-337.25" font-family="Helvetica,sans-Serif" font-size="10.00">STL_SLICER/src/STLFile.cpp</text>
</a>
</g>
</g>
<!-- Node2 -->
<g id="Node000002" class="node">
<title>Node2</title>
<g id="a_Node000002"><a xlink:href="_s_t_l_file_8h.html" target="_top" xlink:title=" ">
<polygon fill="white" stroke="#666666" points="168,-295.5 110,-295.5 110,-276.25 168,-276.25 168,-295.5"/>
<text text-anchor="middle" x="139" y="-282" font-family="Helvetica,sans-Serif" font-size="10.00">STLFile.h</text>
</a>
</g>
</g>
<!-- Node1&#45;&gt;Node2 -->
<g id="edge1_Node000001_Node000002" class="edge">
<title>Node1&#45;&gt;Node2</title>
<g id="a_edge1_Node000001_Node000002"><a xlink:title=" ">
<path fill="none" stroke="#63b8ff" d="M202.11,-331.09C190.97,-323.29 174.63,-311.84 161.36,-302.54"/>
<polygon fill="#63b8ff" stroke="#63b8ff" points="163.39,-299.69 153.2,-296.82 159.38,-305.43 163.39,-299.69"/>
</a>
</g>
</g>
<!-- Node4 -->
<g id="Node000004" class="node">
<title>Node4</title>
<g id="a_Node000004"><a xlink:title=" ">
<polygon fill="#e0e0e0" stroke="#999999" points="191.75,-19.25 138.25,-19.25 138.25,0 191.75,0 191.75,-19.25"/>
<text text-anchor="middle" x="165" y="-5.75" font-family="Helvetica,sans-Serif" font-size="10.00">iostream</text>
</a>
</g>
</g>
<!-- Node1&#45;&gt;Node4 -->
<g id="edge18_Node000001_Node000004" class="edge">
<title>Node1&#45;&gt;Node4</title>
<g id="a_edge18_Node000001_Node000004"><a xlink:title=" ">
<path fill="none" stroke="#63b8ff" d="M140.71,-333C78.56,-322.45 0,-296.33 0,-231.62 0,-231.62 0,-231.62 0,-119.12 0,-58.82 77.9,-30.16 126.65,-18.13"/>
<polygon fill="#63b8ff" stroke="#63b8ff" points="127.33,-21.57 136.28,-15.9 125.75,-14.75 127.33,-21.57"/>
</a>
</g>
</g>
<!-- Node6 -->
<g id="Node000006" class="node">
<title>Node6</title>
<g id="a_Node000006"><a xlink:href="_facet_8h.html" target="_top" xlink:title=" ">
<polygon fill="white" stroke="#666666" points="273.5,-240.25 224.5,-240.25 224.5,-221 273.5,-221 273.5,-240.25"/>
<text text-anchor="middle" x="249" y="-226.75" font-family="Helvetica,sans-Serif" font-size="10.00">Facet.h</text>
</a>
</g>
</g>
<!-- Node1&#45;&gt;Node6 -->
<g id="edge14_Node000001_Node000006" class="edge">
<title>Node1&#45;&gt;Node6</title>
<g id="a_edge14_Node000001_Node000006"><a xlink:title=" ">
<path fill="none" stroke="#63b8ff" d="M217.78,-331.25C223.21,-313.92 235.34,-275.23 242.78,-251.49"/>
<polygon fill="#63b8ff" stroke="#63b8ff" points="246.08,-252.66 245.73,-242.07 239.4,-250.57 246.08,-252.66"/>
</a>
</g>
</g>
<!-- Node7 -->
<g id="Node000007" class="node">
<title>Node7</title>
<g id="a_Node000007"><a xlink:href="_vector_8h.html" target="_top" xlink:title=" ">
<polygon fill="white" stroke="#666666" points="260,-74.5 208,-74.5 208,-55.25 260,-55.25 260,-74.5"/>
<text text-anchor="middle" x="234" y="-61" font-family="Helvetica,sans-Serif" font-size="10.00">Vector.h</text>
</a>
</g>
</g>
<!-- Node1&#45;&gt;Node7 -->
<g id="edge15_Node000001_Node000007" class="edge">
<title>Node1&#45;&gt;Node7</title>
<g id="a_edge15_Node000001_Node000007"><a xlink:title=" ">
<path fill="none" stroke="#63b8ff" d="M212.36,-331.22C207.14,-312.8 196,-269.11 196,-231.62 196,-231.62 196,-231.62 196,-174.38 196,-141.38 211.84,-105.76 223.07,-84.66"/>
<polygon fill="#63b8ff" stroke="#63b8ff" points="226.02,-86.55 227.82,-76.11 219.9,-83.15 226.02,-86.55"/>
</a>
</g>
</g>
<!-- Node10 -->
<g id="Node000010" class="node">
<title>Node10</title>
<g id="a_Node000010"><a xlink:title=" ">
<polygon fill="#e0e0e0" stroke="#999999" points="311.5,-295.5 262.5,-295.5 262.5,-276.25 311.5,-276.25 311.5,-295.5"/>
<text text-anchor="middle" x="287" y="-282" font-family="Helvetica,sans-Serif" font-size="10.00">fstream</text>
</a>
</g>
</g>
<!-- Node1&#45;&gt;Node10 -->
<g id="edge16_Node000001_Node000010" class="edge">
<title>Node1&#45;&gt;Node10</title>
<g id="a_edge16_Node000001_Node000010"><a xlink:title=" ">
<path fill="none" stroke="#63b8ff" d="M227.21,-331.09C237.83,-323.24 253.44,-311.7 266.04,-302.37"/>
<polygon fill="#63b8ff" stroke="#63b8ff" points="267.79,-305.44 273.75,-296.67 263.63,-299.81 267.79,-305.44"/>
</a>
</g>
</g>
<!-- Node11 -->
<g id="Node000011" class="node">
<title>Node11</title>
<g id="a_Node000011"><a xlink:title=" ">
<polygon fill="#e0e0e0" stroke="#999999" points="380.62,-295.5 329.38,-295.5 329.38,-276.25 380.62,-276.25 380.62,-295.5"/>
<text text-anchor="middle" x="355" y="-282" font-family="Helvetica,sans-Serif" font-size="10.00">sstream</text>
</a>
</g>
</g>
<!-- Node1&#45;&gt;Node11 -->
<g id="edge17_Node000001_Node000011" class="edge">
<title>Node1&#45;&gt;Node11</title>
<g id="a_edge17_Node000001_Node000011"><a xlink:title=" ">
<path fill="none" stroke="#63b8ff" d="M238.75,-331.09C261.17,-322.56 295.06,-309.67 320.47,-300.01"/>
<polygon fill="#63b8ff" stroke="#63b8ff" points="321.62,-303.32 329.72,-296.49 319.13,-296.77 321.62,-303.32"/>
</a>
</g>
</g>
<!-- Node3 -->
<g id="Node000003" class="node">
<title>Node3</title>
<g id="a_Node000003"><a xlink:title=" ">
<polygon fill="#e0e0e0" stroke="#999999" points="68,-240.25 28,-240.25 28,-221 68,-221 68,-240.25"/>
<text text-anchor="middle" x="48" y="-226.75" font-family="Helvetica,sans-Serif" font-size="10.00">string</text>
</a>
</g>
</g>
<!-- Node2&#45;&gt;Node3 -->
<g id="edge2_Node000002_Node000003" class="edge">
<title>Node2&#45;&gt;Node3</title>
<g id="a_edge2_Node000002_Node000003"><a xlink:title=" ">
<path fill="none" stroke="#63b8ff" d="M123.56,-275.84C109.84,-267.81 89.5,-255.91 73.38,-246.48"/>
<polygon fill="#63b8ff" stroke="#63b8ff" points="75.22,-243.5 64.82,-241.47 71.68,-249.54 75.22,-243.5"/>
</a>
</g>
</g>
<!-- Node2&#45;&gt;Node4 -->
<g id="edge3_Node000002_Node000004" class="edge">
<title>Node2&#45;&gt;Node4</title>
<g id="a_edge3_Node000002_Node000004"><a xlink:title=" ">
<path fill="none" stroke="#63b8ff" d="M132.66,-275.78C120.69,-257.72 96,-215.68 96,-176.38 96,-176.38 96,-176.38 96,-119.12 96,-81.79 125.45,-46.93 145.87,-27.24"/>
<polygon fill="#63b8ff" stroke="#63b8ff" points="148.13,-29.92 153.11,-20.57 143.38,-24.78 148.13,-29.92"/>
</a>
</g>
</g>
<!-- Node5 -->
<g id="Node000005" class="node">
<title>Node5</title>
<g id="a_Node000005"><a xlink:title=" ">
<polygon fill="#e0e0e0" stroke="#999999" points="167.5,-240.25 124.5,-240.25 124.5,-221 167.5,-221 167.5,-240.25"/>
<text text-anchor="middle" x="146" y="-226.75" font-family="Helvetica,sans-Serif" font-size="10.00">vector</text>
</a>
</g>
</g>
<!-- Node2&#45;&gt;Node5 -->
<g id="edge4_Node000002_Node000005" class="edge">
<title>Node2&#45;&gt;Node5</title>
<g id="a_edge4_Node000002_Node000005"><a xlink:title=" ">
<path fill="none" stroke="#63b8ff" d="M140.16,-276.08C141.02,-269.49 142.24,-260.21 143.34,-251.82"/>
<polygon fill="#63b8ff" stroke="#63b8ff" points="146.79,-252.48 144.62,-242.11 139.85,-251.57 146.79,-252.48"/>
</a>
</g>
</g>
<!-- Node2&#45;&gt;Node6 -->
<g id="edge5_Node000002_Node000006" class="edge">
<title>Node2&#45;&gt;Node6</title>
<g id="a_edge5_Node000002_Node000006"><a xlink:title=" ">
<path fill="none" stroke="#63b8ff" d="M157.66,-275.84C174.73,-267.58 200.24,-255.23 219.97,-245.68"/>
<polygon fill="#63b8ff" stroke="#63b8ff" points="221.41,-248.87 228.89,-241.36 218.36,-242.57 221.41,-248.87"/>
</a>
</g>
</g>
<!-- Node6&#45;&gt;Node7 -->
<g id="edge6_Node000006_Node000007" class="edge">
<title>Node6&#45;&gt;Node7</title>
<g id="a_edge6_Node000006_Node000007"><a xlink:title=" ">
<path fill="none" stroke="#63b8ff" d="M248.19,-220.82C245.87,-195.5 239.14,-122 235.85,-86.09"/>
<polygon fill="#63b8ff" stroke="#63b8ff" points="239.35,-85.87 234.95,-76.23 232.38,-86.51 239.35,-85.87"/>
</a>
</g>
</g>
<!-- Node8 -->
<g id="Node000008" class="node">
<title>Node8</title>
<g id="a_Node000008"><a xlink:href="_plane_8h.html" target="_top" xlink:title=" ">
<polygon fill="white" stroke="#666666" points="311.5,-129.75 262.5,-129.75 262.5,-110.5 311.5,-110.5 311.5,-129.75"/>
<text text-anchor="middle" x="287" y="-116.25" font-family="Helvetica,sans-Serif" font-size="10.00">Plane.h</text>
</a>
</g>
</g>
<!-- Node6&#45;&gt;Node8 -->
<g id="edge8_Node000006_Node000008" class="edge">
<title>Node6&#45;&gt;Node8</title>
<g id="a_edge8_Node000006_Node000008"><a xlink:title=" ">
<path fill="none" stroke="#63b8ff" d="M252.11,-220.75C258.18,-203.42 271.73,-164.73 280.04,-140.99"/>
<polygon fill="#63b8ff" stroke="#63b8ff" points="283.34,-142.15 283.35,-131.56 276.74,-139.84 283.34,-142.15"/>
</a>
</g>
</g>
<!-- Node9 -->
<g id="Node000009" class="node">
<title>Node9</title>
<g id="a_Node000009"><a xlink:href="_section_8h.html" target="_top" xlink:title=" ">
<polygon fill="white" stroke="#666666" points="365.62,-185 308.38,-185 308.38,-165.75 365.62,-165.75 365.62,-185"/>
<text text-anchor="middle" x="337" y="-171.5" font-family="Helvetica,sans-Serif" font-size="10.00">Section.h</text>
</a>
</g>
</g>
<!-- Node6&#45;&gt;Node9 -->
<g id="edge10_Node000006_Node000009" class="edge">
<title>Node6&#45;&gt;Node9</title>
<g id="a_edge10_Node000006_Node000009"><a xlink:title=" ">
<path fill="none" stroke="#63b8ff" d="M263.93,-220.59C277.2,-212.56 296.87,-200.66 312.45,-191.23"/>
<polygon fill="#63b8ff" stroke="#63b8ff" points="313.96,-194.41 320.7,-186.24 310.34,-188.42 313.96,-194.41"/>
</a>
</g>
</g>
<!-- Node7&#45;&gt;Node4 -->
<g id="edge7_Node000007_Node000004" class="edge">
<title>Node7&#45;&gt;Node4</title>
<g id="a_edge7_Node000007_Node000004"><a xlink:title=" ">
<path fill="none" stroke="#63b8ff" d="M222.3,-54.84C212.22,-47.07 197.46,-35.67 185.44,-26.4"/>
<polygon fill="#63b8ff" stroke="#63b8ff" points="187.79,-23.79 177.73,-20.45 183.51,-29.33 187.79,-23.79"/>
</a>
</g>
</g>
<!-- Node8&#45;&gt;Node7 -->
<g id="edge9_Node000008_Node000007" class="edge">
<title>Node8&#45;&gt;Node7</title>
<g id="a_edge9_Node000008_Node000007"><a xlink:title=" ">
<path fill="none" stroke="#63b8ff" d="M278.25,-110.33C270.85,-102.9 260.04,-92.04 250.95,-82.91"/>
<polygon fill="#63b8ff" stroke="#63b8ff" points="253.54,-80.55 244.01,-75.93 248.58,-85.49 253.54,-80.55"/>
</a>
</g>
</g>
<!-- Node9&#45;&gt;Node4 -->
<g id="edge13_Node000009_Node000004" class="edge">
<title>Node9&#45;&gt;Node4</title>
<g id="a_edge13_Node000009_Node000004"><a xlink:title=" ">
<path fill="none" stroke="#63b8ff" d="M339.73,-165.58C343.18,-152.75 347.71,-128.47 339,-110.5 313.34,-57.56 245.79,-31 202.8,-19.06"/>
<polygon fill="#63b8ff" stroke="#63b8ff" points="203.94,-15.74 193.38,-16.58 202.16,-22.51 203.94,-15.74"/>
</a>
</g>
</g>
<!-- Node9&#45;&gt;Node7 -->
<g id="edge11_Node000009_Node000007" class="edge">
<title>Node9&#45;&gt;Node7</title>
<g id="a_edge11_Node000009_Node000007"><a xlink:title=" ">
<path fill="none" stroke="#63b8ff" d="M337.01,-165.53C336.57,-152.2 333.94,-126.79 321,-110.5 308.32,-94.54 288.4,-83.73 270.81,-76.76"/>
<polygon fill="#63b8ff" stroke="#63b8ff" points="272.27,-73.56 261.67,-73.42 269.86,-80.14 272.27,-73.56"/>
</a>
</g>
</g>
<!-- Node9&#45;&gt;Node8 -->
<g id="edge12_Node000009_Node000008" class="edge">
<title>Node9&#45;&gt;Node8</title>
<g id="a_edge12_Node000009_Node000008"><a xlink:title=" ">
<path fill="none" stroke="#63b8ff" d="M328.74,-165.58C321.84,-158.23 311.78,-147.51 303.26,-138.44"/>
<polygon fill="#63b8ff" stroke="#63b8ff" points="305.87,-136.11 296.47,-131.21 300.77,-140.9 305.87,-136.11"/>
</a>
</g>
</g>
</g>
</svg>
</svg>

<style type='text/css'>
<![CDATA[
[data-mouse-over-selected='false'] { opacity: 0.7; }
[data-mouse-over-selected='true']  { opacity: 1.0; }
]]>
</style>
<script type="application/ecmascript"><![CDATA[
document.addEventListener('DOMContentLoaded', (event) => {
  highlightEdges();
  highlightAdjacentNodes();
});
]]></script>
</svg>
