<?xml version="1.0" encoding="UTF-8" standalone="no"?>
<!DOCTYPE svg PUBLIC "-//W3C//DTD SVG 1.1//EN"
 "http://www.w3.org/Graphics/SVG/1.1/DTD/svg11.dtd">
<!-- Generated by graphviz version 9.0.0 (20230911.1827)
 -->
<!-- Title: C:/Users/krisz/Documents/GitHub/STL_Slicer/STL_SLICER/include/STLFile.h Pages: 1 -->
<svg width="263pt" height="332pt"
 viewBox="0.00 0.00 262.62 332.00" xmlns="http://www.w3.org/2000/svg" xmlns:xlink="http://www.w3.org/1999/xlink">

<svg id="main" version="1.1" xmlns="http://www.w3.org/2000/svg" xmlns:xlink="http://www.w3.org/1999/xlink" xml:space="preserve" onload="init(evt)">
<style type="text/css"><![CDATA[
.node, .edge {opacity: 0.7;}
.node.selected, .edge.selected {opacity: 1;}
.edge:hover path { stroke: red; }
.edge:hover polygon { stroke: red; fill: red; }
]]></style>
<script type="application/ecmascript" xlink:href="svg.min.js"/>
<svg id="graph" class="graph">
<g id="graph0" class="graph" transform="scale(1 1) rotate(0) translate(4 328)">
<title>C:/Users/krisz/Documents/GitHub/STL_Slicer/STL_SLICER/include/STLFile.h</title>
<!-- Node1 -->
<g id="Node000001" class="node">
<title>Node1</title>
<g id="a_Node000001"><a xlink:title=" ">
<polygon fill="#999999" stroke="#666666" points="158.88,-324 25.12,-324 25.12,-280 158.88,-280 158.88,-324"/>
<text text-anchor="start" x="33.12" y="-310.5" font-family="Helvetica,sans-Serif" font-size="10.00">C:/Users/krisz/Documents</text>
<text text-anchor="start" x="33.12" y="-298.5" font-family="Helvetica,sans-Serif" font-size="10.00">/GitHub/STL_Slicer/STL</text>
<text text-anchor="middle" x="92" y="-286.5" font-family="Helvetica,sans-Serif" font-size="10.00">_SLICER/include/STLFile.h</text>
</a>
</g>
</g>
<!-- Node2 -->
<g id="Node000002" class="node">
<title>Node2</title>
<g id="a_Node000002"><a xlink:title=" ">
<polygon fill="#e0e0e0" stroke="#999999" points="40,-244 0,-244 0,-224 40,-224 40,-244"/>
<text text-anchor="middle" x="20" y="-230.5" font-family="Helvetica,sans-Serif" font-size="10.00">string</text>
</a>
</g>
</g>
<!-- Node1&#45;&gt;Node2 -->
<g id="edge1_Node000001_Node000002" class="edge">
<title>Node1&#45;&gt;Node2</title>
<g id="a_edge1_Node000001_Node000002"><a xlink:title=" ">
<path fill="none" stroke="#63b8ff" d="M68.82,-279.75C59.08,-270.82 47.9,-260.57 38.69,-252.13"/>
<polygon fill="#63b8ff" stroke="#63b8ff" points="41.13,-249.62 31.39,-245.44 36.4,-254.78 41.13,-249.62"/>
</a>
</g>
</g>
<!-- Node3 -->
<g id="Node000003" class="node">
<title>Node3</title>
<g id="a_Node000003"><a xlink:title=" ">
<polygon fill="#e0e0e0" stroke="#999999" points="197.75,-20 144.25,-20 144.25,0 197.75,0 197.75,-20"/>
<text text-anchor="middle" x="171" y="-6.5" font-family="Helvetica,sans-Serif" font-size="10.00">iostream</text>
</a>
</g>
</g>
<!-- Node1&#45;&gt;Node3 -->
<g id="edge2_Node000001_Node000003" class="edge">
<title>Node1&#45;&gt;Node3</title>
<g id="a_edge2_Node000001_Node000003"><a xlink:title=" ">
<path fill="none" stroke="#63b8ff" d="M85.19,-279.65C78.09,-255.49 68,-214.83 68,-179 68,-179 68,-179 68,-121 68,-77.28 111.89,-43.77 142.37,-25.76"/>
<polygon fill="#63b8ff" stroke="#63b8ff" points="143.81,-28.97 150.79,-21.01 140.36,-22.88 143.81,-28.97"/>
</a>
</g>
</g>
<!-- Node4 -->
<g id="Node000004" class="node">
<title>Node4</title>
<g id="a_Node000004"><a xlink:title=" ">
<polygon fill="#e0e0e0" stroke="#999999" points="137.75,-244 96.25,-244 96.25,-224 137.75,-224 137.75,-244"/>
<text text-anchor="middle" x="117" y="-230.5" font-family="Helvetica,sans-Serif" font-size="10.00">vector</text>
</a>
</g>
</g>
<!-- Node1&#45;&gt;Node4 -->
<g id="edge3_Node000001_Node000004" class="edge">
<title>Node1&#45;&gt;Node4</title>
<g id="a_edge3_Node000001_Node000004"><a xlink:title=" ">
<path fill="none" stroke="#63b8ff" d="M100.05,-279.75C103.04,-271.85 106.43,-262.9 109.39,-255.1"/>
<polygon fill="#63b8ff" stroke="#63b8ff" points="112.63,-256.43 112.9,-245.83 106.08,-253.95 112.63,-256.43"/>
</a>
</g>
</g>
<!-- Node5 -->
<g id="Node000005" class="node">
<title>Node5</title>
<g id="a_Node000005"><a xlink:href="_facet_8h.html" target="_top" xlink:title=" ">
<polygon fill="white" stroke="#666666" points="204.5,-244 155.5,-244 155.5,-224 204.5,-224 204.5,-244"/>
<text text-anchor="middle" x="180" y="-230.5" font-family="Helvetica,sans-Serif" font-size="10.00">Facet.h</text>
</a>
</g>
</g>
<!-- Node1&#45;&gt;Node5 -->
<g id="edge4_Node000001_Node000005" class="edge">
<title>Node1&#45;&gt;Node5</title>
<g id="a_edge4_Node000001_Node000005"><a xlink:title=" ">
<path fill="none" stroke="#63b8ff" d="M120.33,-279.75C132.73,-270.45 147.05,-259.71 158.55,-251.09"/>
<polygon fill="#63b8ff" stroke="#63b8ff" points="160.33,-254.13 166.23,-245.33 156.13,-248.53 160.33,-254.13"/>
</a>
</g>
</g>
<!-- Node6 -->
<g id="Node000006" class="node">
<title>Node6</title>
<g id="a_Node000006"><a xlink:href="_vector_8h.html" target="_top" xlink:title=" ">
<polygon fill="white" stroke="#666666" points="197.38,-76 144.62,-76 144.62,-56 197.38,-56 197.38,-76"/>
<text text-anchor="middle" x="171" y="-62.5" font-family="Helvetica,sans-Serif" font-size="10.00">Vector.h</text>
</a>
</g>
</g>
<!-- Node5&#45;&gt;Node6 -->
<g id="edge5_Node000005_Node000006" class="edge">
<title>Node5&#45;&gt;Node6</title>
<g id="a_edge5_Node000005_Node000006"><a xlink:title=" ">
<path fill="none" stroke="#63b8ff" d="M174.63,-223.65C164.99,-206.29 145.1,-167.57 138,-132 136.26,-123.28 135.23,-120.45 138,-112 141.26,-102.05 147.64,-92.48 153.94,-84.75"/>
<polygon fill="#63b8ff" stroke="#63b8ff" points="156.38,-87.27 160.35,-77.45 151.12,-82.65 156.38,-87.27"/>
</a>
</g>
</g>
<!-- Node7 -->
<g id="Node000007" class="node">
<title>Node7</title>
<g id="a_Node000007"><a xlink:href="_plane_8h.html" target="_top" xlink:title=" ">
<polygon fill="white" stroke="#666666" points="195.5,-132 146.5,-132 146.5,-112 195.5,-112 195.5,-132"/>
<text text-anchor="middle" x="171" y="-118.5" font-family="Helvetica,sans-Serif" font-size="10.00">Plane.h</text>
</a>
</g>
</g>
<!-- Node5&#45;&gt;Node7 -->
<g id="edge7_Node000005_Node000007" class="edge">
<title>Node5&#45;&gt;Node7</title>
<g id="a_edge7_Node000005_Node000007"><a xlink:title=" ">
<path fill="none" stroke="#63b8ff" d="M179.23,-223.62C177.79,-206.01 174.65,-167.59 172.69,-143.65"/>
<polygon fill="#63b8ff" stroke="#63b8ff" points="176.19,-143.54 171.89,-133.86 169.22,-144.12 176.19,-143.54"/>
</a>
</g>
</g>
<!-- Node8 -->
<g id="Node000008" class="node">
<title>Node8</title>
<g id="a_Node000008"><a xlink:href="_section_8h.html" target="_top" xlink:title=" ">
<polygon fill="white" stroke="#666666" points="254.62,-188 197.38,-188 197.38,-168 254.62,-168 254.62,-188"/>
<text text-anchor="middle" x="226" y="-174.5" font-family="Helvetica,sans-Serif" font-size="10.00">Section.h</text>
</a>
</g>
</g>
<!-- Node5&#45;&gt;Node8 -->
<g id="edge9_Node000005_Node000008" class="edge">
<title>Node5&#45;&gt;Node8</title>
<g id="a_edge9_Node000005_Node000008"><a xlink:title=" ">
<path fill="none" stroke="#63b8ff" d="M188.01,-223.59C194.28,-216.24 203.17,-205.8 210.78,-196.87"/>
<polygon fill="#63b8ff" stroke="#63b8ff" points="213.28,-199.33 217.1,-189.45 207.95,-194.79 213.28,-199.33"/>
</a>
</g>
</g>
<!-- Node6&#45;&gt;Node3 -->
<g id="edge6_Node000006_Node000003" class="edge">
<title>Node6&#45;&gt;Node3</title>
<g id="a_edge6_Node000006_Node000003"><a xlink:title=" ">
<path fill="none" stroke="#63b8ff" d="M171,-55.59C171,-49.01 171,-39.96 171,-31.73"/>
<polygon fill="#63b8ff" stroke="#63b8ff" points="174.5,-31.81 171,-21.81 167.5,-31.81 174.5,-31.81"/>
</a>
</g>
</g>
<!-- Node7&#45;&gt;Node6 -->
<g id="edge8_Node000007_Node000006" class="edge">
<title>Node7&#45;&gt;Node6</title>
<g id="a_edge8_Node000007_Node000006"><a xlink:title=" ">
<path fill="none" stroke="#63b8ff" d="M171,-111.59C171,-105.01 171,-95.96 171,-87.73"/>
<polygon fill="#63b8ff" stroke="#63b8ff" points="174.5,-87.81 171,-77.81 167.5,-87.81 174.5,-87.81"/>
</a>
</g>
</g>
<!-- Node8&#45;&gt;Node3 -->
<g id="edge12_Node000008_Node000003" class="edge">
<title>Node8&#45;&gt;Node3</title>
<g id="a_edge12_Node000008_Node000003"><a xlink:title=" ">
<path fill="none" stroke="#63b8ff" d="M226.29,-167.66C226.53,-154.97 226.37,-131.59 223,-112 218.59,-86.37 217.96,-79.1 206,-56 201.02,-46.38 193.89,-36.76 187.37,-28.89"/>
<polygon fill="#63b8ff" stroke="#63b8ff" points="190.1,-26.69 180.9,-21.44 184.81,-31.28 190.1,-26.69"/>
</a>
</g>
</g>
<!-- Node8&#45;&gt;Node6 -->
<g id="edge10_Node000008_Node000006" class="edge">
<title>Node8&#45;&gt;Node6</title>
<g id="a_edge10_Node000008_Node000006"><a xlink:title=" ">
<path fill="none" stroke="#63b8ff" d="M224.05,-167.79C221.09,-154.84 214.74,-130.73 205,-112 200.05,-102.49 193.12,-92.88 186.8,-85"/>
<polygon fill="#63b8ff" stroke="#63b8ff" points="189.65,-82.95 180.55,-77.53 184.28,-87.44 189.65,-82.95"/>
</a>
</g>
</g>
<!-- Node8&#45;&gt;Node7 -->
<g id="edge11_Node000008_Node000007" class="edge">
<title>Node8&#45;&gt;Node7</title>
<g id="a_edge11_Node000008_Node000007"><a xlink:title=" ">
<path fill="none" stroke="#63b8ff" d="M216.42,-167.59C208.77,-160.08 197.84,-149.35 188.62,-140.3"/>
<polygon fill="#63b8ff" stroke="#63b8ff" points="191.14,-137.87 181.55,-133.36 186.23,-142.86 191.14,-137.87"/>
</a>
</g>
</g>
</g>
</svg>
</svg>

<style type='text/css'>
<![CDATA[
[data-mouse-over-selected='false'] { opacity: 0.7; }
[data-mouse-over-selected='true']  { opacity: 1.0; }
]]>
</style>
<script type="application/ecmascript"><![CDATA[
document.addEventListener('DOMContentLoaded', (event) => {
  highlightEdges();
  highlightAdjacentNodes();
});
]]></script>
</svg>
