<?xml version="1.0" encoding="UTF-8" standalone="no"?>
<!DOCTYPE svg PUBLIC "-//W3C//DTD SVG 1.1//EN"
 "http://www.w3.org/Graphics/SVG/1.1/DTD/svg11.dtd">
<!-- Generated by graphviz version 10.0.1 (20240210.2158)
 -->
<!-- Title: STL_SLICER/include/Section.h Pages: 1 -->
<svg width="118pt" height="204pt"
 viewBox="0.00 0.00 117.75 204.25" xmlns="http://www.w3.org/2000/svg" xmlns:xlink="http://www.w3.org/1999/xlink">
<g id="graph0" class="graph" transform="scale(1 1) rotate(0) translate(4 200.25)">
<title>STL_SLICER/include/Section.h</title>
<!-- Node1 -->
<g id="Node000001" class="node">
<title>Node1</title>
<g id="a_Node000001"><a xlink:title=" ">
<polygon fill="#999999" stroke="#666666" points="109.75,-196.25 0,-196.25 0,-165.75 109.75,-165.75 109.75,-196.25"/>
<text text-anchor="start" x="8" y="-182.75" font-family="Helvetica,sans-Serif" font-size="10.00">STL_SLICER/include</text>
<text text-anchor="middle" x="54.88" y="-171.5" font-family="Helvetica,sans-Serif" font-size="10.00">/Section.h</text>
</a>
</g>
</g>
<!-- Node2 -->
<g id="Node000002" class="node">
<title>Node2</title>
<g id="a_Node000002"><a xlink:href="_vector_8h.html" target="_top" xlink:title=" ">
<polygon fill="white" stroke="#666666" points="79.88,-74.5 27.88,-74.5 27.88,-55.25 79.88,-55.25 79.88,-74.5"/>
<text text-anchor="middle" x="53.88" y="-61" font-family="Helvetica,sans-Serif" font-size="10.00">Vector.h</text>
</a>
</g>
</g>
<!-- Node1&#45;&gt;Node2 -->
<g id="edge1_Node000001_Node000002" class="edge">
<title>Node1&#45;&gt;Node2</title>
<g id="a_edge1_Node000001_Node000002"><a xlink:title=" ">
<path fill="none" stroke="#63b8ff" d="M41.54,-165.41C33.86,-155.99 24.95,-143.04 20.88,-129.75 18.37,-121.57 18.2,-118.63 20.88,-110.5 24.18,-100.48 30.69,-90.87 37.06,-83.15"/>
<polygon fill="#63b8ff" stroke="#63b8ff" points="39.49,-85.69 43.54,-75.9 34.27,-81.03 39.49,-85.69"/>
</a>
</g>
</g>
<!-- Node3 -->
<g id="Node000003" class="node">
<title>Node3</title>
<g id="a_Node000003"><a xlink:title=" ">
<polygon fill="#e0e0e0" stroke="#999999" points="107.62,-19.25 54.12,-19.25 54.12,0 107.62,0 107.62,-19.25"/>
<text text-anchor="middle" x="80.88" y="-5.75" font-family="Helvetica,sans-Serif" font-size="10.00">iostream</text>
</a>
</g>
</g>
<!-- Node1&#45;&gt;Node3 -->
<g id="edge5_Node000001_Node000003" class="edge">
<title>Node1&#45;&gt;Node3</title>
<g id="a_edge5_Node000001_Node000003"><a xlink:title=" ">
<path fill="none" stroke="#63b8ff" d="M67.74,-165.32C75.16,-155.86 83.81,-142.91 87.88,-129.75 98.29,-96.04 91.75,-54.46 86.2,-30.4"/>
<polygon fill="#63b8ff" stroke="#63b8ff" points="89.68,-29.87 83.86,-21.02 82.89,-31.57 89.68,-29.87"/>
</a>
</g>
</g>
<!-- Node4 -->
<g id="Node000004" class="node">
<title>Node4</title>
<g id="a_Node000004"><a xlink:href="_plane_8h.html" target="_top" xlink:title=" ">
<polygon fill="white" stroke="#666666" points="79.38,-129.75 30.38,-129.75 30.38,-110.5 79.38,-110.5 79.38,-129.75"/>
<text text-anchor="middle" x="54.88" y="-116.25" font-family="Helvetica,sans-Serif" font-size="10.00">Plane.h</text>
</a>
</g>
</g>
<!-- Node1&#45;&gt;Node4 -->
<g id="edge3_Node000001_Node000004" class="edge">
<title>Node1&#45;&gt;Node4</title>
<g id="a_edge3_Node000001_Node000004"><a xlink:title=" ">
<path fill="none" stroke="#63b8ff" d="M54.88,-165.45C54.88,-158.21 54.88,-149.34 54.88,-141.44"/>
<polygon fill="#63b8ff" stroke="#63b8ff" points="58.38,-141.71 54.88,-131.71 51.38,-141.71 58.38,-141.71"/>
</a>
</g>
</g>
<!-- Node2&#45;&gt;Node3 -->
<g id="edge2_Node000002_Node000003" class="edge">
<title>Node2&#45;&gt;Node3</title>
<g id="a_edge2_Node000002_Node000003"><a xlink:title=" ">
<path fill="none" stroke="#63b8ff" d="M58.33,-55.08C61.83,-48.19 66.82,-38.34 71.22,-29.66"/>
<polygon fill="#63b8ff" stroke="#63b8ff" points="74.23,-31.46 75.64,-20.96 67.99,-28.3 74.23,-31.46"/>
</a>
</g>
</g>
<!-- Node4&#45;&gt;Node2 -->
<g id="edge4_Node000004_Node000002" class="edge">
<title>Node4&#45;&gt;Node2</title>
<g id="a_edge4_Node000004_Node000002"><a xlink:title=" ">
<path fill="none" stroke="#63b8ff" d="M54.71,-110.33C54.59,-103.82 54.42,-94.67 54.26,-86.37"/>
<polygon fill="#63b8ff" stroke="#63b8ff" points="57.76,-86.3 54.07,-76.37 50.76,-86.44 57.76,-86.3"/>
</a>
</g>
</g>
</g>
</svg>
