<?xml version="1.0" encoding="UTF-8" standalone="no"?>
<!DOCTYPE svg PUBLIC "-//W3C//DTD SVG 1.1//EN"
 "http://www.w3.org/Graphics/SVG/1.1/DTD/svg11.dtd">
<!-- Generated by graphviz version 10.0.1 (20240210.2158)
 -->
<!-- Title: STL_SLICER/src/Section.cpp Pages: 1 -->
<svg width="191pt" height="248pt"
 viewBox="0.00 0.00 191.25 248.25" xmlns="http://www.w3.org/2000/svg" xmlns:xlink="http://www.w3.org/1999/xlink">
<g id="graph0" class="graph" transform="scale(1 1) rotate(0) translate(4 244.25)">
<title>STL_SLICER/src/Section.cpp</title>
<!-- Node1 -->
<g id="Node000001" class="node">
<title>Node1</title>
<g id="a_Node000001"><a xlink:title=" ">
<polygon fill="#999999" stroke="#666666" points="183.25,-240.25 36,-240.25 36,-221 183.25,-221 183.25,-240.25"/>
<text text-anchor="middle" x="109.62" y="-226.75" font-family="Helvetica,sans-Serif" font-size="10.00">STL_SLICER/src/Section.cpp</text>
</a>
</g>
</g>
<!-- Node2 -->
<g id="Node000002" class="node">
<title>Node2</title>
<g id="a_Node000002"><a xlink:href="_section_8h.html" target="_top" xlink:title=" ">
<polygon fill="white" stroke="#666666" points="57.25,-185 0,-185 0,-165.75 57.25,-165.75 57.25,-185"/>
<text text-anchor="middle" x="28.62" y="-171.5" font-family="Helvetica,sans-Serif" font-size="10.00">Section.h</text>
</a>
</g>
</g>
<!-- Node1&#45;&gt;Node2 -->
<g id="edge1_Node000001_Node000002" class="edge">
<title>Node1&#45;&gt;Node2</title>
<g id="a_edge1_Node000001_Node000002"><a xlink:title=" ">
<path fill="none" stroke="#63b8ff" d="M95.88,-220.59C83.9,-212.71 66.25,-201.11 52.04,-191.77"/>
<polygon fill="#63b8ff" stroke="#63b8ff" points="53.98,-188.85 43.7,-186.28 50.13,-194.7 53.98,-188.85"/>
</a>
</g>
</g>
<!-- Node3 -->
<g id="Node000003" class="node">
<title>Node3</title>
<g id="a_Node000003"><a xlink:href="_vector_8h.html" target="_top" xlink:title=" ">
<polygon fill="white" stroke="#666666" points="104.62,-74.5 52.62,-74.5 52.62,-55.25 104.62,-55.25 104.62,-74.5"/>
<text text-anchor="middle" x="78.62" y="-61" font-family="Helvetica,sans-Serif" font-size="10.00">Vector.h</text>
</a>
</g>
</g>
<!-- Node1&#45;&gt;Node3 -->
<g id="edge8_Node000001_Node000003" class="edge">
<title>Node1&#45;&gt;Node3</title>
<g id="a_edge8_Node000001_Node000003"><a xlink:title=" ">
<path fill="none" stroke="#63b8ff" d="M111.89,-220.65C116.58,-200.36 125.86,-149.7 112.62,-110.5 109.21,-100.4 102.5,-90.77 95.94,-83.07"/>
<polygon fill="#63b8ff" stroke="#63b8ff" points="98.61,-80.8 89.26,-75.83 93.47,-85.55 98.61,-80.8"/>
</a>
</g>
</g>
<!-- Node4 -->
<g id="Node000004" class="node">
<title>Node4</title>
<g id="a_Node000004"><a xlink:title=" ">
<polygon fill="#e0e0e0" stroke="#999999" points="105.38,-19.25 51.88,-19.25 51.88,0 105.38,0 105.38,-19.25"/>
<text text-anchor="middle" x="78.62" y="-5.75" font-family="Helvetica,sans-Serif" font-size="10.00">iostream</text>
</a>
</g>
</g>
<!-- Node1&#45;&gt;Node4 -->
<g id="edge9_Node000001_Node000004" class="edge">
<title>Node1&#45;&gt;Node4</title>
<g id="a_edge9_Node000001_Node000004"><a xlink:title=" ">
<path fill="none" stroke="#63b8ff" d="M115.67,-220.52C121.07,-211.82 128.57,-198.12 131.62,-185 134.61,-172.21 132.73,-135.99 128.62,-110.5 124.58,-85.38 125.04,-77.99 113.62,-55.25 108.73,-45.49 101.5,-35.81 94.89,-27.97"/>
<polygon fill="#63b8ff" stroke="#63b8ff" points="97.58,-25.74 88.33,-20.58 92.35,-30.38 97.58,-25.74"/>
</a>
</g>
</g>
<!-- Node5 -->
<g id="Node000005" class="node">
<title>Node5</title>
<g id="a_Node000005"><a xlink:href="_plane_8h.html" target="_top" xlink:title=" ">
<polygon fill="white" stroke="#666666" points="103.12,-129.75 54.12,-129.75 54.12,-110.5 103.12,-110.5 103.12,-129.75"/>
<text text-anchor="middle" x="78.62" y="-116.25" font-family="Helvetica,sans-Serif" font-size="10.00">Plane.h</text>
</a>
</g>
</g>
<!-- Node1&#45;&gt;Node5 -->
<g id="edge7_Node000001_Node000005" class="edge">
<title>Node1&#45;&gt;Node5</title>
<g id="a_edge7_Node000001_Node000005"><a xlink:title=" ">
<path fill="none" stroke="#63b8ff" d="M107.09,-220.75C102.14,-203.42 91.08,-164.73 84.3,-140.99"/>
<polygon fill="#63b8ff" stroke="#63b8ff" points="87.73,-140.24 81.61,-131.58 80.99,-142.16 87.73,-140.24"/>
</a>
</g>
</g>
<!-- Node2&#45;&gt;Node3 -->
<g id="edge2_Node000002_Node000003" class="edge">
<title>Node2&#45;&gt;Node3</title>
<g id="a_edge2_Node000002_Node000003"><a xlink:title=" ">
<path fill="none" stroke="#63b8ff" d="M29.72,-165.31C31.52,-152.56 35.81,-128.84 44.62,-110.5 49.31,-100.77 56.31,-91.09 62.75,-83.25"/>
<polygon fill="#63b8ff" stroke="#63b8ff" points="65.25,-85.71 69.14,-75.86 59.95,-81.14 65.25,-85.71"/>
</a>
</g>
</g>
<!-- Node2&#45;&gt;Node4 -->
<g id="edge6_Node000002_Node000004" class="edge">
<title>Node2&#45;&gt;Node4</title>
<g id="a_edge6_Node000002_Node000004"><a xlink:title=" ">
<path fill="none" stroke="#63b8ff" d="M28.03,-165.53C27,-145.11 26.46,-93.47 43.62,-55.25 48.04,-45.42 55.08,-35.83 61.69,-28.08"/>
<polygon fill="#63b8ff" stroke="#63b8ff" points="64.2,-30.53 68.33,-20.77 59.02,-25.82 64.2,-30.53"/>
</a>
</g>
</g>
<!-- Node2&#45;&gt;Node5 -->
<g id="edge4_Node000002_Node000005" class="edge">
<title>Node2&#45;&gt;Node5</title>
<g id="a_edge4_Node000002_Node000005"><a xlink:title=" ">
<path fill="none" stroke="#63b8ff" d="M36.88,-165.58C43.79,-158.23 53.85,-147.51 62.36,-138.44"/>
<polygon fill="#63b8ff" stroke="#63b8ff" points="64.86,-140.9 69.15,-131.21 59.76,-136.11 64.86,-140.9"/>
</a>
</g>
</g>
<!-- Node3&#45;&gt;Node4 -->
<g id="edge3_Node000003_Node000004" class="edge">
<title>Node3&#45;&gt;Node4</title>
<g id="a_edge3_Node000003_Node000004"><a xlink:title=" ">
<path fill="none" stroke="#63b8ff" d="M78.62,-55.08C78.62,-48.57 78.62,-39.42 78.62,-31.12"/>
<polygon fill="#63b8ff" stroke="#63b8ff" points="82.13,-31.12 78.63,-21.12 75.13,-31.12 82.13,-31.12"/>
</a>
</g>
</g>
<!-- Node5&#45;&gt;Node3 -->
<g id="edge5_Node000005_Node000003" class="edge">
<title>Node5&#45;&gt;Node3</title>
<g id="a_edge5_Node000005_Node000003"><a xlink:title=" ">
<path fill="none" stroke="#63b8ff" d="M78.62,-110.33C78.62,-103.82 78.62,-94.67 78.62,-86.37"/>
<polygon fill="#63b8ff" stroke="#63b8ff" points="82.13,-86.37 78.63,-76.37 75.13,-86.37 82.13,-86.37"/>
</a>
</g>
</g>
</g>
</svg>
