<?xml version="1.0" encoding="UTF-8" standalone="no"?>
<!DOCTYPE svg PUBLIC "-//W3C//DTD SVG 1.1//EN"
 "http://www.w3.org/Graphics/SVG/1.1/DTD/svg11.dtd">
<!-- Generated by graphviz version 10.0.1 (20240210.2158)
 -->
<!-- Title: STL_SLICER/include/Section.h Pages: 1 -->
<svg width="601pt" height="227pt"
 viewBox="0.00 0.00 600.88 226.75" xmlns="http://www.w3.org/2000/svg" xmlns:xlink="http://www.w3.org/1999/xlink">
<g id="graph0" class="graph" transform="scale(1 1) rotate(0) translate(4 222.75)">
<title>STL_SLICER/include/Section.h</title>
<!-- Node1 -->
<g id="Node000001" class="node">
<title>Node1</title>
<g id="a_Node000001"><a xlink:title=" ">
<polygon fill="#999999" stroke="#666666" points="317.25,-218.75 207.5,-218.75 207.5,-188.25 317.25,-188.25 317.25,-218.75"/>
<text text-anchor="start" x="215.5" y="-205.25" font-family="Helvetica,sans-Serif" font-size="10.00">STL_SLICER/include</text>
<text text-anchor="middle" x="262.38" y="-194" font-family="Helvetica,sans-Serif" font-size="10.00">/Section.h</text>
</a>
</g>
</g>
<!-- Node2 -->
<g id="Node000002" class="node">
<title>Node2</title>
<g id="a_Node000002"><a xlink:href="_facet_8h.html" target="_top" xlink:title=" ">
<polygon fill="white" stroke="#666666" points="359.25,-152.25 249.5,-152.25 249.5,-121.75 359.25,-121.75 359.25,-152.25"/>
<text text-anchor="start" x="257.5" y="-138.75" font-family="Helvetica,sans-Serif" font-size="10.00">STL_SLICER/include</text>
<text text-anchor="middle" x="304.38" y="-127.5" font-family="Helvetica,sans-Serif" font-size="10.00">/Facet.h</text>
</a>
</g>
</g>
<!-- Node1&#45;&gt;Node2 -->
<g id="edge1_Node000001_Node000002" class="edge">
<title>Node1&#45;&gt;Node2</title>
<g id="a_edge1_Node000001_Node000002"><a xlink:title=" ">
<path fill="none" stroke="#63b8ff" d="M278.16,-178.26C283.79,-169.62 289.95,-160.16 294.88,-152.58"/>
<polygon fill="#63b8ff" stroke="#63b8ff" points="275.26,-176.31 272.73,-186.6 281.12,-180.13 275.26,-176.31"/>
</a>
</g>
</g>
<!-- Node3 -->
<g id="Node000003" class="node">
<title>Node3</title>
<g id="a_Node000003"><a xlink:href="_gcode_8h.html" target="_top" xlink:title=" ">
<polygon fill="white" stroke="#666666" points="193.25,-85.75 83.5,-85.75 83.5,-55.25 193.25,-55.25 193.25,-85.75"/>
<text text-anchor="start" x="91.5" y="-72.25" font-family="Helvetica,sans-Serif" font-size="10.00">STL_SLICER/include</text>
<text text-anchor="middle" x="138.38" y="-61" font-family="Helvetica,sans-Serif" font-size="10.00">/Gcode.h</text>
</a>
</g>
</g>
<!-- Node1&#45;&gt;Node3 -->
<g id="edge11_Node000001_Node000003" class="edge">
<title>Node1&#45;&gt;Node3</title>
<g id="a_edge11_Node000001_Node000003"><a xlink:title=" ">
<path fill="none" stroke="#63b8ff" d="M237.16,-180.65C227.58,-172.05 216.74,-161.93 207.38,-152.25 185.96,-130.12 163.12,-102.5 149.83,-85.97"/>
<polygon fill="#63b8ff" stroke="#63b8ff" points="234.58,-183.04 244.38,-187.06 239.22,-177.8 234.58,-183.04"/>
</a>
</g>
</g>
<!-- Node4 -->
<g id="Node000004" class="node">
<title>Node4</title>
<g id="a_Node000004"><a xlink:href="_gcode_8cpp.html" target="_top" xlink:title=" ">
<polygon fill="white" stroke="#666666" points="142.75,-19.25 0,-19.25 0,0 142.75,0 142.75,-19.25"/>
<text text-anchor="middle" x="71.38" y="-5.75" font-family="Helvetica,sans-Serif" font-size="10.00">STL_SLICER/src/Gcode.cpp</text>
</a>
</g>
</g>
<!-- Node1&#45;&gt;Node4 -->
<g id="edge13_Node000001_Node000004" class="edge">
<title>Node1&#45;&gt;Node4</title>
<g id="a_edge13_Node000001_Node000004"><a xlink:title=" ">
<path fill="none" stroke="#63b8ff" d="M204.22,-183.7C160.03,-166.02 102.24,-134.82 74.38,-85.75 62.39,-64.64 66.23,-34.55 69.24,-19.67"/>
<polygon fill="#63b8ff" stroke="#63b8ff" points="202.85,-186.92 213.44,-187.25 205.37,-180.39 202.85,-186.92"/>
</a>
</g>
</g>
<!-- Node5 -->
<g id="Node000005" class="node">
<title>Node5</title>
<g id="a_Node000005"><a xlink:href="main_8cpp.html" target="_top" xlink:title=" ">
<polygon fill="white" stroke="#666666" points="300,-19.25 164.75,-19.25 164.75,0 300,0 300,-19.25"/>
<text text-anchor="middle" x="232.38" y="-5.75" font-family="Helvetica,sans-Serif" font-size="10.00">STL_SLICER/src/main.cpp</text>
</a>
</g>
</g>
<!-- Node1&#45;&gt;Node5 -->
<g id="edge15_Node000001_Node000005" class="edge">
<title>Node1&#45;&gt;Node5</title>
<g id="a_edge15_Node000001_Node000005"><a xlink:title=" ">
<path fill="none" stroke="#63b8ff" d="M249.41,-177.66C245.86,-169.74 242.42,-160.81 240.38,-152.25 228.7,-103.39 230.55,-42.47 231.79,-19.73"/>
<polygon fill="#63b8ff" stroke="#63b8ff" points="246.25,-179.16 253.73,-186.67 252.57,-176.14 246.25,-179.16"/>
</a>
</g>
</g>
<!-- Node8 -->
<g id="Node000008" class="node">
<title>Node8</title>
<g id="a_Node000008"><a xlink:href="_facet_8cpp.html" target="_top" xlink:title=" ">
<polygon fill="white" stroke="#666666" points="592.88,-80.12 453.88,-80.12 453.88,-60.88 592.88,-60.88 592.88,-80.12"/>
<text text-anchor="middle" x="523.38" y="-66.62" font-family="Helvetica,sans-Serif" font-size="10.00">STL_SLICER/src/Facet.cpp</text>
</a>
</g>
</g>
<!-- Node1&#45;&gt;Node8 -->
<g id="edge12_Node000001_Node000008" class="edge">
<title>Node1&#45;&gt;Node8</title>
<g id="a_edge12_Node000001_Node000008"><a xlink:title=" ">
<path fill="none" stroke="#63b8ff" d="M309.27,-183.12C328.16,-174.59 349.82,-163.87 368.38,-152.25 386.73,-140.76 387.81,-132.9 406.38,-121.75 435.75,-104.1 472.44,-89.4 496.83,-80.55"/>
<polygon fill="#63b8ff" stroke="#63b8ff" points="307.92,-179.89 300.19,-187.14 310.75,-186.29 307.92,-179.89"/>
</a>
</g>
</g>
<!-- Node9 -->
<g id="Node000009" class="node">
<title>Node9</title>
<g id="a_Node000009"><a xlink:href="_section_8cpp.html" target="_top" xlink:title=" ">
<polygon fill="white" stroke="#666666" points="563,-146.62 415.75,-146.62 415.75,-127.38 563,-127.38 563,-146.62"/>
<text text-anchor="middle" x="489.38" y="-133.12" font-family="Helvetica,sans-Serif" font-size="10.00">STL_SLICER/src/Section.cpp</text>
</a>
</g>
</g>
<!-- Node1&#45;&gt;Node9 -->
<g id="edge14_Node000001_Node000009" class="edge">
<title>Node1&#45;&gt;Node9</title>
<g id="a_edge14_Node000001_Node000009"><a xlink:title=" ">
<path fill="none" stroke="#63b8ff" d="M325.08,-184.68C368.03,-172.48 423.2,-156.8 457.42,-147.08"/>
<polygon fill="#63b8ff" stroke="#63b8ff" points="324.29,-181.27 315.62,-187.37 326.2,-188 324.29,-181.27"/>
</a>
</g>
</g>
<!-- Node2&#45;&gt;Node3 -->
<g id="edge2_Node000002_Node000003" class="edge">
<title>Node2&#45;&gt;Node3</title>
<g id="a_edge2_Node000002_Node000003"><a xlink:title=" ">
<path fill="none" stroke="#63b8ff" d="M256.16,-117.26C230.69,-107.37 199.9,-95.4 176.18,-86.19"/>
<polygon fill="#63b8ff" stroke="#63b8ff" points="254.71,-120.46 265.3,-120.82 257.24,-113.93 254.71,-120.46"/>
</a>
</g>
</g>
<!-- Node2&#45;&gt;Node5 -->
<g id="edge10_Node000002_Node000005" class="edge">
<title>Node2&#45;&gt;Node5</title>
<g id="a_edge10_Node000002_Node000005"><a xlink:title=" ">
<path fill="none" stroke="#63b8ff" d="M290.44,-111.74C274.27,-83.58 248.43,-38.58 237.51,-19.57"/>
<polygon fill="#63b8ff" stroke="#63b8ff" points="287.35,-113.38 295.36,-120.31 293.42,-109.89 287.35,-113.38"/>
</a>
</g>
</g>
<!-- Node6 -->
<g id="Node000006" class="node">
<title>Node6</title>
<g id="a_Node000006"><a xlink:href="_s_t_l_file_8h.html" target="_top" xlink:title=" ">
<polygon fill="white" stroke="#666666" points="397.25,-85.75 287.5,-85.75 287.5,-55.25 397.25,-55.25 397.25,-85.75"/>
<text text-anchor="start" x="295.5" y="-72.25" font-family="Helvetica,sans-Serif" font-size="10.00">STL_SLICER/include</text>
<text text-anchor="middle" x="342.38" y="-61" font-family="Helvetica,sans-Serif" font-size="10.00">/STLFile.h</text>
</a>
</g>
</g>
<!-- Node2&#45;&gt;Node6 -->
<g id="edge5_Node000002_Node000006" class="edge">
<title>Node2&#45;&gt;Node6</title>
<g id="a_edge5_Node000002_Node000006"><a xlink:title=" ">
<path fill="none" stroke="#63b8ff" d="M318.82,-111.48C323.87,-102.91 329.37,-93.57 333.79,-86.08"/>
<polygon fill="#63b8ff" stroke="#63b8ff" points="315.83,-109.67 313.77,-120.06 321.86,-113.22 315.83,-109.67"/>
</a>
</g>
</g>
<!-- Node7 -->
<g id="Node000007" class="node">
<title>Node7</title>
<g id="a_Node000007"><a xlink:href="_s_t_l_file_8cpp.html" target="_top" xlink:title=" ">
<polygon fill="white" stroke="#666666" points="488.38,-19.25 340.38,-19.25 340.38,0 488.38,0 488.38,-19.25"/>
<text text-anchor="middle" x="414.38" y="-5.75" font-family="Helvetica,sans-Serif" font-size="10.00">STL_SLICER/src/STLFile.cpp</text>
</a>
</g>
</g>
<!-- Node2&#45;&gt;Node7 -->
<g id="edge9_Node000002_Node000007" class="edge">
<title>Node2&#45;&gt;Node7</title>
<g id="a_edge9_Node000002_Node000007"><a xlink:title=" ">
<path fill="none" stroke="#63b8ff" d="M368.16,-116.65C382.88,-109.26 396.96,-99.23 406.38,-85.75 420.49,-65.53 418.19,-34.49 415.97,-19.43"/>
<polygon fill="#63b8ff" stroke="#63b8ff" points="366.92,-113.37 359.29,-120.73 369.84,-119.73 366.92,-113.37"/>
</a>
</g>
</g>
<!-- Node2&#45;&gt;Node8 -->
<g id="edge8_Node000002_Node000008" class="edge">
<title>Node2&#45;&gt;Node8</title>
<g id="a_edge8_Node000002_Node000008"><a xlink:title=" ">
<path fill="none" stroke="#63b8ff" d="M365.14,-118.1C406.53,-105.91 459.6,-90.28 492.54,-80.58"/>
<polygon fill="#63b8ff" stroke="#63b8ff" points="364.4,-114.67 355.8,-120.86 366.38,-121.39 364.4,-114.67"/>
</a>
</g>
</g>
<!-- Node3&#45;&gt;Node4 -->
<g id="edge3_Node000003_Node000004" class="edge">
<title>Node3&#45;&gt;Node4</title>
<g id="a_edge3_Node000003_Node000004"><a xlink:title=" ">
<path fill="none" stroke="#63b8ff" d="M113.39,-47.55C102.42,-37.9 90.14,-27.11 81.7,-19.7"/>
<polygon fill="#63b8ff" stroke="#63b8ff" points="110.85,-49.98 120.68,-53.95 115.47,-44.72 110.85,-49.98"/>
</a>
</g>
</g>
<!-- Node3&#45;&gt;Node5 -->
<g id="edge4_Node000003_Node000005" class="edge">
<title>Node3&#45;&gt;Node5</title>
<g id="a_edge4_Node000003_Node000005"><a xlink:title=" ">
<path fill="none" stroke="#63b8ff" d="M171.15,-48.97C187.1,-38.98 205.46,-27.48 217.88,-19.7"/>
<polygon fill="#63b8ff" stroke="#63b8ff" points="169.51,-45.87 162.89,-54.14 173.23,-51.8 169.51,-45.87"/>
</a>
</g>
</g>
<!-- Node6&#45;&gt;Node5 -->
<g id="edge7_Node000006_Node000005" class="edge">
<title>Node6&#45;&gt;Node5</title>
<g id="a_edge7_Node000006_Node000005"><a xlink:title=" ">
<path fill="none" stroke="#63b8ff" d="M304.79,-49.38C285.91,-39.28 263.98,-27.54 249.24,-19.65"/>
<polygon fill="#63b8ff" stroke="#63b8ff" points="303.1,-52.45 313.57,-54.08 306.4,-46.28 303.1,-52.45"/>
</a>
</g>
</g>
<!-- Node6&#45;&gt;Node7 -->
<g id="edge6_Node000006_Node000007" class="edge">
<title>Node6&#45;&gt;Node7</title>
<g id="a_edge6_Node000006_Node000007"><a xlink:title=" ">
<path fill="none" stroke="#63b8ff" d="M368.87,-47.83C380.75,-38.12 394.12,-27.19 403.28,-19.7"/>
<polygon fill="#63b8ff" stroke="#63b8ff" points="366.87,-44.95 361.34,-53.99 371.3,-50.37 366.87,-44.95"/>
</a>
</g>
</g>
</g>
</svg>
