<?xml version="1.0" encoding="UTF-8" standalone="no"?>
<!DOCTYPE svg PUBLIC "-//W3C//DTD SVG 1.1//EN"
 "http://www.w3.org/Graphics/SVG/1.1/DTD/svg11.dtd">
<!-- Generated by graphviz version 9.0.0 (20230911.1827)
 -->
<!-- Title: C:/Users/krisz/Documents/GitHub/STL_Slicer/STL_SLICER/src/Section.cpp Pages: 1 -->
<svg width="183pt" height="276pt"
 viewBox="0.00 0.00 183.00 276.00" xmlns="http://www.w3.org/2000/svg" xmlns:xlink="http://www.w3.org/1999/xlink">

<svg id="main" version="1.1" xmlns="http://www.w3.org/2000/svg" xmlns:xlink="http://www.w3.org/1999/xlink" xml:space="preserve" onload="init(evt)">
<style type="text/css"><![CDATA[
.node, .edge {opacity: 0.7;}
.node.selected, .edge.selected {opacity: 1;}
.edge:hover path { stroke: red; }
.edge:hover polygon { stroke: red; fill: red; }
]]></style>
<script type="application/ecmascript" xlink:href="svg.min.js"/>
<svg id="graph" class="graph">
<g id="graph0" class="graph" transform="scale(1 1) rotate(0) translate(4 272)">
<title>C:/Users/krisz/Documents/GitHub/STL_Slicer/STL_SLICER/src/Section.cpp</title>
<!-- Node1 -->
<g id="Node000001" class="node">
<title>Node1</title>
<g id="a_Node000001"><a xlink:title=" ">
<polygon fill="#999999" stroke="#666666" points="175,-268 44.25,-268 44.25,-224 175,-224 175,-268"/>
<text text-anchor="start" x="52.25" y="-254.5" font-family="Helvetica,sans-Serif" font-size="10.00">C:/Users/krisz/Documents</text>
<text text-anchor="start" x="52.25" y="-242.5" font-family="Helvetica,sans-Serif" font-size="10.00">/GitHub/STL_Slicer/STL</text>
<text text-anchor="middle" x="109.62" y="-230.5" font-family="Helvetica,sans-Serif" font-size="10.00">_SLICER/src/Section.cpp</text>
</a>
</g>
</g>
<!-- Node2 -->
<g id="Node000002" class="node">
<title>Node2</title>
<g id="a_Node000002"><a xlink:href="_section_8h.html" target="_top" xlink:title=" ">
<polygon fill="white" stroke="#666666" points="57.25,-188 0,-188 0,-168 57.25,-168 57.25,-188"/>
<text text-anchor="middle" x="28.62" y="-174.5" font-family="Helvetica,sans-Serif" font-size="10.00">Section.h</text>
</a>
</g>
</g>
<!-- Node1&#45;&gt;Node2 -->
<g id="edge1_Node000001_Node000002" class="edge">
<title>Node1&#45;&gt;Node2</title>
<g id="a_edge1_Node000001_Node000002"><a xlink:title=" ">
<path fill="none" stroke="#63b8ff" d="M83.55,-223.75C72.36,-214.64 59.48,-204.14 49.01,-195.61"/>
<polygon fill="#63b8ff" stroke="#63b8ff" points="51.32,-192.98 41.36,-189.37 46.9,-198.41 51.32,-192.98"/>
</a>
</g>
</g>
<!-- Node3 -->
<g id="Node000003" class="node">
<title>Node3</title>
<g id="a_Node000003"><a xlink:href="_vector_8h.html" target="_top" xlink:title=" ">
<polygon fill="white" stroke="#666666" points="105,-76 52.25,-76 52.25,-56 105,-56 105,-76"/>
<text text-anchor="middle" x="78.62" y="-62.5" font-family="Helvetica,sans-Serif" font-size="10.00">Vector.h</text>
</a>
</g>
</g>
<!-- Node1&#45;&gt;Node3 -->
<g id="edge8_Node000001_Node000003" class="edge">
<title>Node1&#45;&gt;Node3</title>
<g id="a_edge8_Node000001_Node000003"><a xlink:title=" ">
<path fill="none" stroke="#63b8ff" d="M114.46,-223.6C119.56,-196.76 125.25,-149.66 112.62,-112 109.26,-101.97 102.68,-92.39 96.19,-84.66"/>
<polygon fill="#63b8ff" stroke="#63b8ff" points="98.89,-82.43 89.58,-77.38 93.71,-87.13 98.89,-82.43"/>
</a>
</g>
</g>
<!-- Node4 -->
<g id="Node000004" class="node">
<title>Node4</title>
<g id="a_Node000004"><a xlink:title=" ">
<polygon fill="#e0e0e0" stroke="#999999" points="105.38,-20 51.88,-20 51.88,0 105.38,0 105.38,-20"/>
<text text-anchor="middle" x="78.62" y="-6.5" font-family="Helvetica,sans-Serif" font-size="10.00">iostream</text>
</a>
</g>
</g>
<!-- Node1&#45;&gt;Node4 -->
<g id="edge9_Node000001_Node000004" class="edge">
<title>Node1&#45;&gt;Node4</title>
<g id="a_edge9_Node000001_Node000004"><a xlink:title=" ">
<path fill="none" stroke="#63b8ff" d="M120.97,-223.73C125.91,-213.28 131.14,-200.31 133.62,-188 135.38,-179.29 134.02,-176.88 133.62,-168 131.37,-117.48 136.14,-101.28 113.62,-56 108.8,-46.3 101.7,-36.66 95.16,-28.81"/>
<polygon fill="#63b8ff" stroke="#63b8ff" points="97.86,-26.59 88.63,-21.38 92.6,-31.2 97.86,-26.59"/>
</a>
</g>
</g>
<!-- Node5 -->
<g id="Node000005" class="node">
<title>Node5</title>
<g id="a_Node000005"><a xlink:href="_plane_8h.html" target="_top" xlink:title=" ">
<polygon fill="white" stroke="#666666" points="103.12,-132 54.12,-132 54.12,-112 103.12,-112 103.12,-132"/>
<text text-anchor="middle" x="78.62" y="-118.5" font-family="Helvetica,sans-Serif" font-size="10.00">Plane.h</text>
</a>
</g>
</g>
<!-- Node1&#45;&gt;Node5 -->
<g id="edge7_Node000001_Node000005" class="edge">
<title>Node1&#45;&gt;Node5</title>
<g id="a_edge7_Node000001_Node000005"><a xlink:title=" ">
<path fill="none" stroke="#63b8ff" d="M104.23,-223.75C98.49,-201.16 89.47,-165.69 83.81,-143.42"/>
<polygon fill="#63b8ff" stroke="#63b8ff" points="87.22,-142.6 81.36,-133.77 80.43,-144.32 87.22,-142.6"/>
</a>
</g>
</g>
<!-- Node2&#45;&gt;Node3 -->
<g id="edge2_Node000002_Node000003" class="edge">
<title>Node2&#45;&gt;Node3</title>
<g id="a_edge2_Node000002_Node000003"><a xlink:title=" ">
<path fill="none" stroke="#63b8ff" d="M29.7,-167.78C31.47,-154.81 35.74,-130.68 44.62,-112 49.23,-102.32 56.12,-92.69 62.49,-84.84"/>
<polygon fill="#63b8ff" stroke="#63b8ff" points="65,-87.28 68.84,-77.4 59.68,-82.74 65,-87.28"/>
</a>
</g>
</g>
<!-- Node2&#45;&gt;Node4 -->
<g id="edge6_Node000002_Node000004" class="edge">
<title>Node2&#45;&gt;Node4</title>
<g id="a_edge6_Node000002_Node000004"><a xlink:title=" ">
<path fill="none" stroke="#63b8ff" d="M27.99,-167.72C26.94,-146.77 26.41,-94.68 43.62,-56 47.98,-46.23 54.89,-36.69 61.43,-28.93"/>
<polygon fill="#63b8ff" stroke="#63b8ff" points="63.95,-31.36 68.01,-21.57 58.73,-26.69 63.95,-31.36"/>
</a>
</g>
</g>
<!-- Node2&#45;&gt;Node5 -->
<g id="edge4_Node000002_Node000005" class="edge">
<title>Node2&#45;&gt;Node5</title>
<g id="a_edge4_Node000002_Node000005"><a xlink:title=" ">
<path fill="none" stroke="#63b8ff" d="M37.33,-167.59C44.22,-160.16 54.02,-149.58 62.34,-140.58"/>
<polygon fill="#63b8ff" stroke="#63b8ff" points="64.76,-143.12 68.99,-133.41 59.62,-138.37 64.76,-143.12"/>
</a>
</g>
</g>
<!-- Node3&#45;&gt;Node4 -->
<g id="edge3_Node000003_Node000004" class="edge">
<title>Node3&#45;&gt;Node4</title>
<g id="a_edge3_Node000003_Node000004"><a xlink:title=" ">
<path fill="none" stroke="#63b8ff" d="M78.62,-55.59C78.62,-49.01 78.62,-39.96 78.62,-31.73"/>
<polygon fill="#63b8ff" stroke="#63b8ff" points="82.13,-31.81 78.63,-21.81 75.13,-31.81 82.13,-31.81"/>
</a>
</g>
</g>
<!-- Node5&#45;&gt;Node3 -->
<g id="edge5_Node000005_Node000003" class="edge">
<title>Node5&#45;&gt;Node3</title>
<g id="a_edge5_Node000005_Node000003"><a xlink:title=" ">
<path fill="none" stroke="#63b8ff" d="M78.62,-111.59C78.62,-105.01 78.62,-95.96 78.62,-87.73"/>
<polygon fill="#63b8ff" stroke="#63b8ff" points="82.13,-87.81 78.63,-77.81 75.13,-87.81 82.13,-87.81"/>
</a>
</g>
</g>
</g>
</svg>
</svg>

<style type='text/css'>
<![CDATA[
[data-mouse-over-selected='false'] { opacity: 0.7; }
[data-mouse-over-selected='true']  { opacity: 1.0; }
]]>
</style>
<script type="application/ecmascript"><![CDATA[
document.addEventListener('DOMContentLoaded', (event) => {
  highlightEdges();
  highlightAdjacentNodes();
});
]]></script>
</svg>
