<?xml version="1.0" encoding="UTF-8" standalone="no"?>
<!DOCTYPE svg PUBLIC "-//W3C//DTD SVG 1.1//EN"
 "http://www.w3.org/Graphics/SVG/1.1/DTD/svg11.dtd">
<!-- Generated by graphviz version 9.0.0 (20230911.1827)
 -->
<!-- Title: C:/Users/krisz/Documents/GitHub/STL_Slicer/STL_SLICER/include/Section.h Pages: 1 -->
<svg width="142pt" height="220pt"
 viewBox="0.00 0.00 141.75 220.00" xmlns="http://www.w3.org/2000/svg" xmlns:xlink="http://www.w3.org/1999/xlink">

<svg id="main" version="1.1" xmlns="http://www.w3.org/2000/svg" xmlns:xlink="http://www.w3.org/1999/xlink" xml:space="preserve" onload="init(evt)">
<style type="text/css"><![CDATA[
.node, .edge {opacity: 0.7;}
.node.selected, .edge.selected {opacity: 1;}
.edge:hover path { stroke: red; }
.edge:hover polygon { stroke: red; fill: red; }
]]></style>
<script type="application/ecmascript" xlink:href="svg.min.js"/>
<svg id="graph" class="graph">
<g id="graph0" class="graph" transform="scale(1 1) rotate(0) translate(4 216)">
<title>C:/Users/krisz/Documents/GitHub/STL_Slicer/STL_SLICER/include/Section.h</title>
<!-- Node1 -->
<g id="Node000001" class="node">
<title>Node1</title>
<g id="a_Node000001"><a xlink:title=" ">
<polygon fill="#999999" stroke="#666666" points="133.75,-212 0,-212 0,-168 133.75,-168 133.75,-212"/>
<text text-anchor="start" x="8" y="-198.5" font-family="Helvetica,sans-Serif" font-size="10.00">C:/Users/krisz/Documents</text>
<text text-anchor="start" x="8" y="-186.5" font-family="Helvetica,sans-Serif" font-size="10.00">/GitHub/STL_Slicer/STL</text>
<text text-anchor="middle" x="66.88" y="-174.5" font-family="Helvetica,sans-Serif" font-size="10.00">_SLICER/include/Section.h</text>
</a>
</g>
</g>
<!-- Node2 -->
<g id="Node000002" class="node">
<title>Node2</title>
<g id="a_Node000002"><a xlink:href="_vector_8h.html" target="_top" xlink:title=" ">
<polygon fill="white" stroke="#666666" points="92.25,-76 39.5,-76 39.5,-56 92.25,-56 92.25,-76"/>
<text text-anchor="middle" x="65.88" y="-62.5" font-family="Helvetica,sans-Serif" font-size="10.00">Vector.h</text>
</a>
</g>
</g>
<!-- Node1&#45;&gt;Node2 -->
<g id="edge1_Node000001_Node000002" class="edge">
<title>Node1&#45;&gt;Node2</title>
<g id="a_edge1_Node000001_Node000002"><a xlink:title=" ">
<path fill="none" stroke="#63b8ff" d="M50.32,-167.53C43.49,-157.35 36.37,-144.66 32.88,-132 30.51,-123.43 30.11,-120.45 32.88,-112 36.13,-102.05 42.52,-92.48 48.81,-84.75"/>
<polygon fill="#63b8ff" stroke="#63b8ff" points="51.25,-87.27 55.23,-77.45 46,-82.65 51.25,-87.27"/>
</a>
</g>
</g>
<!-- Node3 -->
<g id="Node000003" class="node">
<title>Node3</title>
<g id="a_Node000003"><a xlink:title=" ">
<polygon fill="#e0e0e0" stroke="#999999" points="119.62,-20 66.12,-20 66.12,0 119.62,0 119.62,-20"/>
<text text-anchor="middle" x="92.88" y="-6.5" font-family="Helvetica,sans-Serif" font-size="10.00">iostream</text>
</a>
</g>
</g>
<!-- Node1&#45;&gt;Node3 -->
<g id="edge5_Node000001_Node000003" class="edge">
<title>Node1&#45;&gt;Node3</title>
<g id="a_edge5_Node000001_Node000003"><a xlink:title=" ">
<path fill="none" stroke="#63b8ff" d="M82.67,-167.7C89.33,-157.46 96.35,-144.67 99.88,-132 109.43,-97.65 103.27,-55.75 98.01,-31.36"/>
<polygon fill="#63b8ff" stroke="#63b8ff" points="101.46,-30.74 95.78,-21.8 94.64,-32.33 101.46,-30.74"/>
</a>
</g>
</g>
<!-- Node4 -->
<g id="Node000004" class="node">
<title>Node4</title>
<g id="a_Node000004"><a xlink:href="_plane_8h.html" target="_top" xlink:title=" ">
<polygon fill="white" stroke="#666666" points="91.38,-132 42.38,-132 42.38,-112 91.38,-112 91.38,-132"/>
<text text-anchor="middle" x="66.88" y="-118.5" font-family="Helvetica,sans-Serif" font-size="10.00">Plane.h</text>
</a>
</g>
</g>
<!-- Node1&#45;&gt;Node4 -->
<g id="edge3_Node000001_Node000004" class="edge">
<title>Node1&#45;&gt;Node4</title>
<g id="a_edge3_Node000001_Node000004"><a xlink:title=" ">
<path fill="none" stroke="#63b8ff" d="M66.88,-167.75C66.88,-160.13 66.88,-151.53 66.88,-143.93"/>
<polygon fill="#63b8ff" stroke="#63b8ff" points="70.38,-143.93 66.88,-133.93 63.38,-143.93 70.38,-143.93"/>
</a>
</g>
</g>
<!-- Node2&#45;&gt;Node3 -->
<g id="edge2_Node000002_Node000003" class="edge">
<title>Node2&#45;&gt;Node3</title>
<g id="a_edge2_Node000002_Node000003"><a xlink:title=" ">
<path fill="none" stroke="#63b8ff" d="M70.58,-55.59C74.02,-48.7 78.82,-39.1 83.09,-30.57"/>
<polygon fill="#63b8ff" stroke="#63b8ff" points="86.21,-32.16 87.55,-21.65 79.95,-29.03 86.21,-32.16"/>
</a>
</g>
</g>
<!-- Node4&#45;&gt;Node2 -->
<g id="edge4_Node000004_Node000002" class="edge">
<title>Node4&#45;&gt;Node2</title>
<g id="a_edge4_Node000004_Node000002"><a xlink:title=" ">
<path fill="none" stroke="#63b8ff" d="M66.7,-111.59C66.58,-105.01 66.41,-95.96 66.26,-87.73"/>
<polygon fill="#63b8ff" stroke="#63b8ff" points="69.76,-87.75 66.08,-77.81 62.76,-87.87 69.76,-87.75"/>
</a>
</g>
</g>
</g>
</svg>
</svg>

<style type='text/css'>
<![CDATA[
[data-mouse-over-selected='false'] { opacity: 0.7; }
[data-mouse-over-selected='true']  { opacity: 1.0; }
]]>
</style>
<script type="application/ecmascript"><![CDATA[
document.addEventListener('DOMContentLoaded', (event) => {
  highlightEdges();
  highlightAdjacentNodes();
});
]]></script>
</svg>
