<?xml version="1.0" encoding="UTF-8" standalone="no"?>
<!DOCTYPE svg PUBLIC "-//W3C//DTD SVG 1.1//EN"
 "http://www.w3.org/Graphics/SVG/1.1/DTD/svg11.dtd">
<!-- Generated by graphviz version 9.0.0 (20230911.1827)
 -->
<!-- Title: C:/Users/krisz/Documents/GitHub/STL_Slicer/STL_SLICER/src/Vector.cpp Pages: 1 -->
<svg width="160pt" height="164pt"
 viewBox="0.00 0.00 159.88 164.00" xmlns="http://www.w3.org/2000/svg" xmlns:xlink="http://www.w3.org/1999/xlink">
<g id="graph0" class="graph" transform="scale(1 1) rotate(0) translate(4 160)">
<title>C:/Users/krisz/Documents/GitHub/STL_Slicer/STL_SLICER/src/Vector.cpp</title>
<!-- Node1 -->
<g id="Node000001" class="node">
<title>Node1</title>
<g id="a_Node000001"><a xlink:title=" ">
<polygon fill="#999999" stroke="#666666" points="145.75,-156 15,-156 15,-112 145.75,-112 145.75,-156"/>
<text text-anchor="start" x="23" y="-142.5" font-family="Helvetica,sans-Serif" font-size="10.00">C:/Users/krisz/Documents</text>
<text text-anchor="start" x="23" y="-130.5" font-family="Helvetica,sans-Serif" font-size="10.00">/GitHub/STL_Slicer/STL</text>
<text text-anchor="middle" x="80.38" y="-118.5" font-family="Helvetica,sans-Serif" font-size="10.00">_SLICER/src/Vector.cpp</text>
</a>
</g>
</g>
<!-- Node2 -->
<g id="Node000002" class="node">
<title>Node2</title>
<g id="a_Node000002"><a xlink:href="_vector_8h.html" target="_top" xlink:title=" ">
<polygon fill="white" stroke="#666666" points="52.75,-76 0,-76 0,-56 52.75,-56 52.75,-76"/>
<text text-anchor="middle" x="26.38" y="-62.5" font-family="Helvetica,sans-Serif" font-size="10.00">Vector.h</text>
</a>
</g>
</g>
<!-- Node1&#45;&gt;Node2 -->
<g id="edge1_Node000001_Node000002" class="edge">
<title>Node1&#45;&gt;Node2</title>
<g id="a_edge1_Node000001_Node000002"><a xlink:title=" ">
<path fill="none" stroke="#63b8ff" d="M62.99,-111.75C55.99,-103.2 47.99,-93.42 41.26,-85.2"/>
<polygon fill="#63b8ff" stroke="#63b8ff" points="44.08,-83.11 35.04,-77.59 38.66,-87.55 44.08,-83.11"/>
</a>
</g>
</g>
<!-- Node3 -->
<g id="Node000003" class="node">
<title>Node3</title>
<g id="a_Node000003"><a xlink:title=" ">
<polygon fill="#e0e0e0" stroke="#999999" points="80.12,-20 26.62,-20 26.62,0 80.12,0 80.12,-20"/>
<text text-anchor="middle" x="53.38" y="-6.5" font-family="Helvetica,sans-Serif" font-size="10.00">iostream</text>
</a>
</g>
</g>
<!-- Node1&#45;&gt;Node3 -->
<g id="edge4_Node000001_Node000003" class="edge">
<title>Node1&#45;&gt;Node3</title>
<g id="a_edge4_Node000001_Node000003"><a xlink:title=" ">
<path fill="none" stroke="#63b8ff" d="M75.67,-111.75C70.67,-89.16 62.82,-53.69 57.89,-31.42"/>
<polygon fill="#63b8ff" stroke="#63b8ff" points="61.34,-30.79 55.76,-21.78 54.5,-32.3 61.34,-30.79"/>
</a>
</g>
</g>
<!-- Node4 -->
<g id="Node000004" class="node">
<title>Node4</title>
<g id="a_Node000004"><a xlink:title=" ">
<polygon fill="#e0e0e0" stroke="#999999" points="151.88,-76 108.88,-76 108.88,-56 151.88,-56 151.88,-76"/>
<text text-anchor="middle" x="130.38" y="-62.5" font-family="Helvetica,sans-Serif" font-size="10.00">cmath</text>
</a>
</g>
</g>
<!-- Node1&#45;&gt;Node4 -->
<g id="edge3_Node000001_Node000004" class="edge">
<title>Node1&#45;&gt;Node4</title>
<g id="a_edge3_Node000001_Node000004"><a xlink:title=" ">
<path fill="none" stroke="#63b8ff" d="M96.47,-111.75C102.88,-103.29 110.2,-93.64 116.39,-85.47"/>
<polygon fill="#63b8ff" stroke="#63b8ff" points="119.08,-87.71 122.33,-77.63 113.5,-83.48 119.08,-87.71"/>
</a>
</g>
</g>
<!-- Node2&#45;&gt;Node3 -->
<g id="edge2_Node000002_Node000003" class="edge">
<title>Node2&#45;&gt;Node3</title>
<g id="a_edge2_Node000002_Node000003"><a xlink:title=" ">
<path fill="none" stroke="#63b8ff" d="M31.08,-55.59C34.52,-48.7 39.32,-39.1 43.59,-30.57"/>
<polygon fill="#63b8ff" stroke="#63b8ff" points="46.71,-32.16 48.05,-21.65 40.45,-29.03 46.71,-32.16"/>
</a>
</g>
</g>
</g>
</svg>
