<?xml version="1.0" encoding="UTF-8" standalone="no"?>
<!DOCTYPE svg PUBLIC "-//W3C//DTD SVG 1.1//EN"
 "http://www.w3.org/Graphics/SVG/1.1/DTD/svg11.dtd">
<!-- Generated by graphviz version 10.0.1 (20240210.2158)
 -->
<!-- Title: STL_SLICER/include/Vector.h Pages: 1 -->
<!--zoomable 360 -->

<svg id="main" version="1.1" xmlns="http://www.w3.org/2000/svg" xmlns:xlink="http://www.w3.org/1999/xlink" xml:space="preserve" onload="init(evt)">
<style type="text/css"><![CDATA[
.node, .edge {opacity: 0.7;}
.node.selected, .edge.selected {opacity: 1;}
.edge:hover path { stroke: red; }
.edge:hover polygon { stroke: red; fill: red; }
]]></style>

<defs>
  <circle id="rim" cx="0" cy="0" r="7"/>
  <circle id="rim2" cx="0" cy="0" r="3.5"/>
  <g id="zoomPlus">
    <use xlink:href="#rim" fill="#404040"><set attributeName="fill" to="#808080" begin="zoomplus.mouseover" end="zoomplus.mouseout"/></use>
    <path d="M-4,0h8M0,-4v8" fill="none" stroke="white" stroke-width="1.5" pointer-events="none"/>
  </g>
  <g id="zoomMin">
    <use xlink:href="#rim" fill="#404040"><set attributeName="fill" to="#808080" begin="zoomminus.mouseover" end="zoomminus.mouseout"/></use>
    <path d="M-4,0h8" fill="none" stroke="white" stroke-width="1.5" pointer-events="none"/>
  </g>
  <g id="arrowUp" transform="translate(30 24)">
    <use xlink:href="#rim"/>
    <path pointer-events="none" fill="none" stroke="white" stroke-width="1.5" d="M0,-3.0v7 M-2.5,-0.5L0,-3.0L2.5,-0.5"/>
  </g>
  <g id="arrowRight" transform="rotate(90) translate(36 -43)">
    <use xlink:href="#rim"/>
    <path pointer-events="none" fill="none" stroke="white" stroke-width="1.5" d="M0,-3.0v7 M-2.5,-0.5L0,-3.0L2.5,-0.5"/>
  </g>
  <g id="arrowDown" transform="rotate(180) translate(-30 -48)">
    <use xlink:href="#rim"/>
    <path pointer-events="none" fill="none" stroke="white" stroke-width="1.5" d="M0,-3.0v7 M-2.5,-0.5L0,-3.0L2.5,-0.5"/>
  </g>
  <g id="arrowLeft" transform="rotate(270) translate(-36 17)">
    <use xlink:href="#rim"/>
    <path pointer-events="none" fill="none" stroke="white" stroke-width="1.5" d="M0,-3.0v7 M-2.5,-0.5L0,-3.0L2.5,-0.5"/>
  </g>
  <g id="resetDef">
    <use xlink:href="#rim2" fill="#404040"><set attributeName="fill" to="#808080" begin="reset.mouseover" end="reset.mouseout"/></use>
  </g>
</defs>
<script type="application/ecmascript">
var viewWidth = 790;
var viewHeight = 360;
var sectionId = 'dynsection-1';
</script>
<script type="application/ecmascript" xlink:href="svg.min.js"/>
<svg id="graph" class="graph">
<g id="viewport">
<title>STL_SLICER/include/Vector.h</title>
<!-- Node1 -->
<g id="Node000001" class="node">
<title>Node1</title>
<g id="a_Node000001"><a xlink:title=" ">
<polygon fill="#999999" stroke="#666666" points="452.88,-351.75 343.12,-351.75 343.12,-321.25 452.88,-321.25 452.88,-351.75"/>
<text text-anchor="start" x="351.12" y="-338.25" font-family="Helvetica,sans-Serif" font-size="10.00">STL_SLICER/include</text>
<text text-anchor="middle" x="398" y="-327" font-family="Helvetica,sans-Serif" font-size="10.00">/Vector.h</text>
</a>
</g>
</g>
<!-- Node2 -->
<g id="Node000002" class="node">
<title>Node2</title>
<g id="a_Node000002"><a xlink:href="_facet_8h.html" target="_top" xlink:title=" ">
<polygon fill="white" stroke="#666666" points="303.88,-152.25 194.12,-152.25 194.12,-121.75 303.88,-121.75 303.88,-152.25"/>
<text text-anchor="start" x="202.12" y="-138.75" font-family="Helvetica,sans-Serif" font-size="10.00">STL_SLICER/include</text>
<text text-anchor="middle" x="249" y="-127.5" font-family="Helvetica,sans-Serif" font-size="10.00">/Facet.h</text>
</a>
</g>
</g>
<!-- Node1&#45;&gt;Node2 -->
<g id="edge1_Node000001_Node000002" class="edge">
<title>Node1&#45;&gt;Node2</title>
<g id="a_edge1_Node000001_Node000002"><a xlink:title=" ">
<path fill="none" stroke="#63b8ff" d="M331.47,-329.74C301.85,-323.5 269.53,-310.8 251,-285.25 221.88,-245.1 235.75,-181.24 244.17,-152.66"/>
<polygon fill="#63b8ff" stroke="#63b8ff" points="330.7,-333.16 341.17,-331.56 331.98,-326.28 330.7,-333.16"/>
</a>
</g>
</g>
<!-- Node3 -->
<g id="Node000003" class="node">
<title>Node3</title>
<g id="a_Node000003"><a xlink:href="_gcode_8h.html" target="_top" xlink:title=" ">
<polygon fill="white" stroke="#666666" points="575.88,-85.75 466.12,-85.75 466.12,-55.25 575.88,-55.25 575.88,-85.75"/>
<text text-anchor="start" x="474.12" y="-72.25" font-family="Helvetica,sans-Serif" font-size="10.00">STL_SLICER/include</text>
<text text-anchor="middle" x="521" y="-61" font-family="Helvetica,sans-Serif" font-size="10.00">/Gcode.h</text>
</a>
</g>
</g>
<!-- Node1&#45;&gt;Node3 -->
<g id="edge11_Node000001_Node000003" class="edge">
<title>Node1&#45;&gt;Node3</title>
<g id="a_edge11_Node000001_Node000003"><a xlink:title=" ">
<path fill="none" stroke="#63b8ff" d="M426.09,-313.94C463.86,-282.97 529.24,-221.91 555,-152.25 559.7,-139.54 558.97,-134.71 555,-121.75 550.93,-108.46 542.01,-95.51 534.34,-86.09"/>
<polygon fill="#63b8ff" stroke="#63b8ff" points="424.35,-310.85 418.76,-319.84 428.74,-316.3 424.35,-310.85"/>
</a>
</g>
</g>
<!-- Node5 -->
<g id="Node000005" class="node">
<title>Node5</title>
<g id="a_Node000005"><a xlink:href="main_8cpp.html" target="_top" xlink:title=" ">
<polygon fill="white" stroke="#666666" points="241.62,-19.25 106.38,-19.25 106.38,0 241.62,0 241.62,-19.25"/>
<text text-anchor="middle" x="174" y="-5.75" font-family="Helvetica,sans-Serif" font-size="10.00">STL_SLICER/src/main.cpp</text>
</a>
</g>
</g>
<!-- Node1&#45;&gt;Node5 -->
<g id="edge28_Node000001_Node000005" class="edge">
<title>Node1&#45;&gt;Node5</title>
<g id="a_edge28_Node000001_Node000005"><a xlink:title=" ">
<path fill="none" stroke="#63b8ff" d="M331.37,-327.52C218.06,-312.09 0,-273.42 0,-204.5 0,-204.5 0,-204.5 0,-136 0,-69.35 85.07,-34.61 136.24,-19.74"/>
<polygon fill="#63b8ff" stroke="#63b8ff" points="330.78,-330.98 341.16,-328.83 331.71,-324.04 330.78,-330.98"/>
</a>
</g>
</g>
<!-- Node7 -->
<g id="Node000007" class="node">
<title>Node7</title>
<g id="a_Node000007"><a xlink:href="_s_t_l_file_8cpp.html" target="_top" xlink:title=" ">
<polygon fill="white" stroke="#666666" points="512,-19.25 364,-19.25 364,0 512,0 512,-19.25"/>
<text text-anchor="middle" x="438" y="-5.75" font-family="Helvetica,sans-Serif" font-size="10.00">STL_SLICER/src/STLFile.cpp</text>
</a>
</g>
</g>
<!-- Node1&#45;&gt;Node7 -->
<g id="edge25_Node000001_Node000007" class="edge">
<title>Node1&#45;&gt;Node7</title>
<g id="a_edge25_Node000001_Node000007"><a xlink:title=" ">
<path fill="none" stroke="#63b8ff" d="M441.6,-315.78C457.38,-307.55 474.81,-297.12 489,-285.25 564.47,-222.11 574.81,-183.62 585,-85.75 586.4,-72.27 593.07,-66.14 585,-55.25 568,-32.33 539.53,-20.77 512.15,-15.08"/>
<polygon fill="#63b8ff" stroke="#63b8ff" points="440.21,-312.56 432.86,-320.18 443.36,-318.81 440.21,-312.56"/>
</a>
</g>
</g>
<!-- Node8 -->
<g id="Node000008" class="node">
<title>Node8</title>
<g id="a_Node000008"><a xlink:href="_facet_8cpp.html" target="_top" xlink:title=" ">
<polygon fill="white" stroke="#666666" points="243.5,-80.12 104.5,-80.12 104.5,-60.88 243.5,-60.88 243.5,-80.12"/>
<text text-anchor="middle" x="174" y="-66.62" font-family="Helvetica,sans-Serif" font-size="10.00">STL_SLICER/src/Facet.cpp</text>
</a>
</g>
</g>
<!-- Node1&#45;&gt;Node8 -->
<g id="edge24_Node000001_Node000008" class="edge">
<title>Node1&#45;&gt;Node8</title>
<g id="a_edge24_Node000001_Node000008"><a xlink:title=" ">
<path fill="none" stroke="#63b8ff" d="M331.59,-327.72C299.11,-321.01 261.25,-308.52 234,-285.25 183.97,-242.53 183.83,-216.35 169,-152.25 163.11,-126.8 168.42,-95.7 171.76,-80.6"/>
<polygon fill="#63b8ff" stroke="#63b8ff" points="330.86,-331.15 341.34,-329.58 332.17,-324.27 330.86,-331.15"/>
</a>
</g>
</g>
<!-- Node9 -->
<g id="Node000009" class="node">
<title>Node9</title>
<g id="a_Node000009"><a xlink:href="_plane_8h.html" target="_top" xlink:title=" ">
<polygon fill="white" stroke="#666666" points="369.88,-285.25 260.12,-285.25 260.12,-254.75 369.88,-254.75 369.88,-285.25"/>
<text text-anchor="start" x="268.12" y="-271.75" font-family="Helvetica,sans-Serif" font-size="10.00">STL_SLICER/include</text>
<text text-anchor="middle" x="315" y="-260.5" font-family="Helvetica,sans-Serif" font-size="10.00">/Plane.h</text>
</a>
</g>
</g>
<!-- Node1&#45;&gt;Node9 -->
<g id="edge12_Node000001_Node000009" class="edge">
<title>Node1&#45;&gt;Node9</title>
<g id="a_edge12_Node000001_Node000009"><a xlink:title=" ">
<path fill="none" stroke="#63b8ff" d="M370.39,-314.04C358.36,-304.69 344.57,-293.98 333.76,-285.58"/>
<polygon fill="#63b8ff" stroke="#63b8ff" points="367.93,-316.56 377.97,-319.94 372.22,-311.04 367.93,-316.56"/>
</a>
</g>
</g>
<!-- Node10 -->
<g id="Node000010" class="node">
<title>Node10</title>
<g id="a_Node000010"><a xlink:href="_section_8h.html" target="_top" xlink:title=" ">
<polygon fill="white" stroke="#666666" points="388.88,-218.75 279.12,-218.75 279.12,-188.25 388.88,-188.25 388.88,-218.75"/>
<text text-anchor="start" x="287.12" y="-205.25" font-family="Helvetica,sans-Serif" font-size="10.00">STL_SLICER/include</text>
<text text-anchor="middle" x="334" y="-194" font-family="Helvetica,sans-Serif" font-size="10.00">/Section.h</text>
</a>
</g>
</g>
<!-- Node1&#45;&gt;Node10 -->
<g id="edge23_Node000001_Node000010" class="edge">
<title>Node1&#45;&gt;Node10</title>
<g id="a_edge23_Node000001_Node000010"><a xlink:title=" ">
<path fill="none" stroke="#63b8ff" d="M395.31,-310.06C392.8,-293.56 388,-272.01 379,-254.75 371.96,-241.25 360.47,-228.5 350.86,-219.23"/>
<polygon fill="#63b8ff" stroke="#63b8ff" points="391.79,-310.09 396.57,-319.54 398.73,-309.17 391.79,-310.09"/>
</a>
</g>
</g>
<!-- Node11 -->
<g id="Node000011" class="node">
<title>Node11</title>
<g id="a_Node000011"><a xlink:href="_section_8cpp.html" target="_top" xlink:title=" ">
<polygon fill="white" stroke="#666666" points="545.62,-146.62 398.38,-146.62 398.38,-127.38 545.62,-127.38 545.62,-146.62"/>
<text text-anchor="middle" x="472" y="-133.12" font-family="Helvetica,sans-Serif" font-size="10.00">STL_SLICER/src/Section.cpp</text>
</a>
</g>
</g>
<!-- Node1&#45;&gt;Node11 -->
<g id="edge26_Node000001_Node000011" class="edge">
<title>Node1&#45;&gt;Node11</title>
<g id="a_edge26_Node000001_Node000011"><a xlink:title=" ">
<path fill="none" stroke="#63b8ff" d="M407.48,-310.21C424.17,-265.65 458.07,-175.18 468.72,-146.75"/>
<polygon fill="#63b8ff" stroke="#63b8ff" points="404.2,-308.97 403.97,-319.56 410.76,-311.42 404.2,-308.97"/>
</a>
</g>
</g>
<!-- Node12 -->
<g id="Node000012" class="node">
<title>Node12</title>
<g id="a_Node000012"><a xlink:href="_vector_8cpp.html" target="_top" xlink:title=" ">
<polygon fill="white" stroke="#666666" points="782,-279.62 640,-279.62 640,-260.38 782,-260.38 782,-279.62"/>
<text text-anchor="middle" x="711" y="-266.12" font-family="Helvetica,sans-Serif" font-size="10.00">STL_SLICER/src/Vector.cpp</text>
</a>
</g>
</g>
<!-- Node1&#45;&gt;Node12 -->
<g id="edge27_Node000001_Node000012" class="edge">
<title>Node1&#45;&gt;Node12</title>
<g id="a_edge27_Node000001_Node000012"><a xlink:title=" ">
<path fill="none" stroke="#63b8ff" d="M464.3,-321.84C525.33,-309.26 614.17,-290.95 666.92,-280.08"/>
<polygon fill="#63b8ff" stroke="#63b8ff" points="463.81,-318.37 454.72,-323.81 465.22,-325.22 463.81,-318.37"/>
</a>
</g>
</g>
<!-- Node2&#45;&gt;Node3 -->
<g id="edge2_Node000002_Node000003" class="edge">
<title>Node2&#45;&gt;Node3</title>
<g id="a_edge2_Node000002_Node000003"><a xlink:title=" ">
<path fill="none" stroke="#63b8ff" d="M315.46,-120.24C361.56,-109.31 422.25,-94.92 465.71,-84.61"/>
<polygon fill="#63b8ff" stroke="#63b8ff" points="314.77,-116.81 305.84,-122.52 316.38,-123.62 314.77,-116.81"/>
</a>
</g>
</g>
<!-- Node2&#45;&gt;Node5 -->
<g id="edge10_Node000002_Node000005" class="edge">
<title>Node2&#45;&gt;Node5</title>
<g id="a_edge10_Node000002_Node000005"><a xlink:title=" ">
<path fill="none" stroke="#63b8ff" d="M256.57,-110.77C260.1,-93.93 261.66,-71.91 252,-55.25 241.82,-37.71 221.87,-26.47 204.69,-19.66"/>
<polygon fill="#63b8ff" stroke="#63b8ff" points="253.29,-109.45 254.29,-120 260.08,-111.13 253.29,-109.45"/>
</a>
</g>
</g>
<!-- Node6 -->
<g id="Node000006" class="node">
<title>Node6</title>
<g id="a_Node000006"><a xlink:href="_s_t_l_file_8h.html" target="_top" xlink:title=" ">
<polygon fill="white" stroke="#666666" points="409.88,-85.75 300.12,-85.75 300.12,-55.25 409.88,-55.25 409.88,-85.75"/>
<text text-anchor="start" x="308.12" y="-72.25" font-family="Helvetica,sans-Serif" font-size="10.00">STL_SLICER/include</text>
<text text-anchor="middle" x="355" y="-61" font-family="Helvetica,sans-Serif" font-size="10.00">/STLFile.h</text>
</a>
</g>
</g>
<!-- Node2&#45;&gt;Node6 -->
<g id="edge5_Node000002_Node000006" class="edge">
<title>Node2&#45;&gt;Node6</title>
<g id="a_edge5_Node000002_Node000006"><a xlink:title=" ">
<path fill="none" stroke="#63b8ff" d="M282.47,-115.64C298.24,-106.04 316.69,-94.81 331.04,-86.08"/>
<polygon fill="#63b8ff" stroke="#63b8ff" points="281.07,-112.39 274.35,-120.58 284.71,-118.37 281.07,-112.39"/>
</a>
</g>
</g>
<!-- Node2&#45;&gt;Node7 -->
<g id="edge9_Node000002_Node000007" class="edge">
<title>Node2&#45;&gt;Node7</title>
<g id="a_edge9_Node000002_Node000007"><a xlink:title=" ">
<path fill="none" stroke="#63b8ff" d="M315.22,-123.45C356.45,-114.35 404.35,-100.99 419,-85.75 436.71,-67.32 438.6,-34.87 438.39,-19.36"/>
<polygon fill="#63b8ff" stroke="#63b8ff" points="314.6,-120.01 305.55,-125.53 316.07,-126.85 314.6,-120.01"/>
</a>
</g>
</g>
<!-- Node2&#45;&gt;Node8 -->
<g id="edge8_Node000002_Node000008" class="edge">
<title>Node2&#45;&gt;Node8</title>
<g id="a_edge8_Node000002_Node000008"><a xlink:title=" ">
<path fill="none" stroke="#63b8ff" d="M223.56,-114.12C210.1,-102.55 194.33,-88.99 184.26,-80.32"/>
<polygon fill="#63b8ff" stroke="#63b8ff" points="220.97,-116.51 230.83,-120.38 225.53,-111.2 220.97,-116.51"/>
</a>
</g>
</g>
<!-- Node4 -->
<g id="Node000004" class="node">
<title>Node4</title>
<g id="a_Node000004"><a xlink:href="_gcode_8cpp.html" target="_top" xlink:title=" ">
<polygon fill="white" stroke="#666666" points="692.38,-19.25 549.62,-19.25 549.62,0 692.38,0 692.38,-19.25"/>
<text text-anchor="middle" x="621" y="-5.75" font-family="Helvetica,sans-Serif" font-size="10.00">STL_SLICER/src/Gcode.cpp</text>
</a>
</g>
</g>
<!-- Node3&#45;&gt;Node4 -->
<g id="edge3_Node000003_Node000004" class="edge">
<title>Node3&#45;&gt;Node4</title>
<g id="a_edge3_Node000003_Node000004"><a xlink:title=" ">
<path fill="none" stroke="#63b8ff" d="M555.64,-49.1C572.7,-39.06 592.39,-27.47 605.66,-19.65"/>
<polygon fill="#63b8ff" stroke="#63b8ff" points="554.12,-45.94 547.28,-54.03 557.67,-51.97 554.12,-45.94"/>
</a>
</g>
</g>
<!-- Node3&#45;&gt;Node5 -->
<g id="edge4_Node000003_Node000005" class="edge">
<title>Node3&#45;&gt;Node5</title>
<g id="a_edge4_Node000003_Node000005"><a xlink:title=" ">
<path fill="none" stroke="#63b8ff" d="M454.54,-58.22C388.62,-47.04 288.84,-30.11 227.74,-19.74"/>
<polygon fill="#63b8ff" stroke="#63b8ff" points="453.7,-61.63 464.14,-59.85 454.87,-54.73 453.7,-61.63"/>
</a>
</g>
</g>
<!-- Node6&#45;&gt;Node5 -->
<g id="edge7_Node000006_Node000005" class="edge">
<title>Node6&#45;&gt;Node5</title>
<g id="a_edge7_Node000006_Node000005"><a xlink:title=" ">
<path fill="none" stroke="#63b8ff" d="M299.17,-51.34C266.96,-40.86 227.86,-28.14 202.02,-19.74"/>
<polygon fill="#63b8ff" stroke="#63b8ff" points="297.76,-54.56 308.35,-54.33 299.93,-47.91 297.76,-54.56"/>
</a>
</g>
</g>
<!-- Node6&#45;&gt;Node7 -->
<g id="edge6_Node000006_Node000007" class="edge">
<title>Node6&#45;&gt;Node7</title>
<g id="a_edge6_Node000006_Node000007"><a xlink:title=" ">
<path fill="none" stroke="#63b8ff" d="M384.74,-48.4C398.64,-38.55 414.44,-27.33 425.2,-19.7"/>
<polygon fill="#63b8ff" stroke="#63b8ff" points="382.88,-45.43 376.75,-54.07 386.93,-51.14 382.88,-45.43"/>
</a>
</g>
</g>
<!-- Node9&#45;&gt;Node2 -->
<g id="edge13_Node000009_Node000002" class="edge">
<title>Node9&#45;&gt;Node2</title>
<g id="a_edge13_Node000009_Node000002"><a xlink:title=" ">
<path fill="none" stroke="#63b8ff" d="M290.69,-246.49C283.12,-238.39 275.37,-228.75 270,-218.75 258.5,-197.31 253.05,-169.23 250.66,-152.46"/>
<polygon fill="#63b8ff" stroke="#63b8ff" points="288.13,-248.89 297.64,-253.56 293.12,-243.98 288.13,-248.89"/>
</a>
</g>
</g>
<!-- Node9&#45;&gt;Node5 -->
<g id="edge22_Node000009_Node000005" class="edge">
<title>Node9&#45;&gt;Node5</title>
<g id="a_edge22_Node000009_Node000005"><a xlink:title=" ">
<path fill="none" stroke="#63b8ff" d="M264.34,-249.9C220.1,-230.99 156.77,-198.2 116,-152.25 86.14,-118.59 63.54,-93.65 87,-55.25 97.97,-37.29 118.73,-26.26 137.21,-19.66"/>
<polygon fill="#63b8ff" stroke="#63b8ff" points="262.9,-253.09 273.47,-253.72 265.59,-246.63 262.9,-253.09"/>
</a>
</g>
</g>
<!-- Node9&#45;&gt;Node10 -->
<g id="edge14_Node000009_Node000010" class="edge">
<title>Node9&#45;&gt;Node10</title>
<g id="a_edge14_Node000009_Node000010"><a xlink:title=" ">
<path fill="none" stroke="#63b8ff" d="M322.56,-243.34C324.99,-235.09 327.59,-226.24 329.71,-219.08"/>
<polygon fill="#63b8ff" stroke="#63b8ff" points="319.21,-242.33 319.74,-252.91 325.92,-244.31 319.21,-242.33"/>
</a>
</g>
</g>
<!-- Node9&#45;&gt;Node11 -->
<g id="edge21_Node000009_Node000011" class="edge">
<title>Node9&#45;&gt;Node11</title>
<g id="a_edge21_Node000009_Node000011"><a xlink:title=" ">
<path fill="none" stroke="#63b8ff" d="M353.37,-248.83C367.96,-240.39 384.35,-229.94 398,-218.75 425.79,-195.97 452.88,-162.81 465.16,-147.02"/>
<polygon fill="#63b8ff" stroke="#63b8ff" points="351.91,-245.64 344.92,-253.6 355.35,-251.73 351.91,-245.64"/>
</a>
</g>
</g>
<!-- Node10&#45;&gt;Node2 -->
<g id="edge15_Node000010_Node000002" class="edge">
<title>Node10&#45;&gt;Node2</title>
<g id="a_edge15_Node000010_Node000002"><a xlink:title=" ">
<path fill="none" stroke="#63b8ff" d="M305.72,-181.04C293.4,-171.69 279.28,-160.98 268.21,-152.58"/>
<polygon fill="#63b8ff" stroke="#63b8ff" points="303.42,-183.69 313.51,-186.95 307.66,-178.12 303.42,-183.69"/>
</a>
</g>
</g>
<!-- Node10&#45;&gt;Node3 -->
<g id="edge16_Node000010_Node000003" class="edge">
<title>Node10&#45;&gt;Node3</title>
<g id="a_edge16_Node000010_Node000003"><a xlink:title=" ">
<path fill="none" stroke="#63b8ff" d="M334.74,-176.68C336.6,-159.05 341.86,-136.32 356,-121.75 363.95,-113.56 420.98,-97.29 465.8,-85.48"/>
<polygon fill="#63b8ff" stroke="#63b8ff" points="331.27,-176.18 334.04,-186.41 338.25,-176.68 331.27,-176.18"/>
</a>
</g>
</g>
<!-- Node10&#45;&gt;Node4 -->
<g id="edge18_Node000010_Node000004" class="edge">
<title>Node10&#45;&gt;Node4</title>
<g id="a_edge18_Node000010_Node000004"><a xlink:title=" ">
<path fill="none" stroke="#63b8ff" d="M344.47,-177.61C353.53,-159.22 368.42,-135.15 389,-121.75 463.22,-73.42 514.64,-139.55 585,-85.75 606.83,-69.06 616.09,-35.76 619.41,-19.7"/>
<polygon fill="#63b8ff" stroke="#63b8ff" points="341.36,-175.99 340.34,-186.54 347.71,-178.93 341.36,-175.99"/>
</a>
</g>
</g>
<!-- Node10&#45;&gt;Node5 -->
<g id="edge20_Node000010_Node000005" class="edge">
<title>Node10&#45;&gt;Node5</title>
<g id="a_edge20_Node000010_Node000005"><a xlink:title=" ">
<path fill="none" stroke="#63b8ff" d="M267.53,-193.31C207.61,-180.84 124.5,-151.92 95,-85.75 89.48,-73.37 88.17,-66.96 95,-55.25 105.24,-37.7 125.22,-26.51 142.53,-19.72"/>
<polygon fill="#63b8ff" stroke="#63b8ff" points="266.84,-196.74 277.33,-195.23 268.19,-189.87 266.84,-196.74"/>
</a>
</g>
</g>
<!-- Node10&#45;&gt;Node8 -->
<g id="edge17_Node000010_Node000008" class="edge">
<title>Node10&#45;&gt;Node8</title>
<g id="a_edge17_Node000010_Node000008"><a xlink:title=" ">
<path fill="none" stroke="#63b8ff" d="M267.61,-195.86C237.99,-189.4 205.27,-176.79 185,-152.25 167.79,-131.42 170.14,-96.72 172.44,-80.44"/>
<polygon fill="#63b8ff" stroke="#63b8ff" points="266.81,-199.27 277.29,-197.75 268.15,-192.4 266.81,-199.27"/>
</a>
</g>
</g>
<!-- Node10&#45;&gt;Node11 -->
<g id="edge19_Node000010_Node000011" class="edge">
<title>Node10&#45;&gt;Node11</title>
<g id="a_edge19_Node000010_Node000011"><a xlink:title=" ">
<path fill="none" stroke="#63b8ff" d="M375.52,-183.1C401.14,-171.12 432.82,-156.31 452.72,-147.01"/>
<polygon fill="#63b8ff" stroke="#63b8ff" points="374.26,-179.82 366.69,-187.22 377.23,-186.16 374.26,-179.82"/>
</a>
</g>
</g>
</g>
</svg>

<g id="navigator" transform="translate(0 0)" fill="#404254">
  <rect fill="#f2f5e9" fill-opacity="0.5" stroke="#606060" stroke-width=".5" x="0" y="0" width="60" height="60"/>
  <use id="zoomplus" xlink:href="#zoomPlus" x="17" y="9" onmousedown="handleZoom(evt,'in')"/>
  <use id="zoomminus" xlink:href="#zoomMin" x="42" y="9" onmousedown="handleZoom(evt,'out')"/>
  <use id="reset" xlink:href="#resetDef" x="30" y="36" onmousedown="handleReset()"/>
   <use id="arrowup" xlink:href="#arrowUp" x="0" y="0" onmousedown="handlePan(0,-1)"/>
  <use id="arrowright" xlink:href="#arrowRight" x="0" y="0" onmousedown="handlePan(1,0)"/>
  <use id="arrowdown" xlink:href="#arrowDown" x="0" y="0" onmousedown="handlePan(0,1)"/>
  <use id="arrowleft" xlink:href="#arrowLeft" x="0" y="0" onmousedown="handlePan(-1,0)"/>
</g>
<svg viewBox="0 0 15 15" width="100%" height="30px" preserveAspectRatio="xMaxYMin meet">
 <g id="arrow_out" transform="scale(0.3 0.3)">
  <a xlink:href="_vector_8h__dep__incl_org.svg" target="_base">
   <rect id="button" ry="5" rx="5" y="6" x="6" height="38" width="38"
        fill="#f2f5e9" fill-opacity="0.5" stroke="#606060" stroke-width="1.0"/>
   <path id="arrow"
     d="M 11.500037,31.436501 C 11.940474,20.09759 22.043105,11.32322 32.158766,21.979434 L 37.068811,17.246167 C 37.068811,17.246167 37.088388,32 37.088388,32 L 22.160133,31.978069 C 22.160133,31.978069 26.997745,27.140456 26.997745,27.140456 C 18.528582,18.264221 13.291696,25.230495 11.500037,31.436501 z"
     style="fill:#404040;"/>
  </a>
 </g>
</svg>

<style type='text/css'>
<![CDATA[
[data-mouse-over-selected='false'] { opacity: 0.7; }
[data-mouse-over-selected='true']  { opacity: 1.0; }
]]>
</style>
<script type="application/ecmascript"><![CDATA[
document.addEventListener('DOMContentLoaded', (event) => {
  highlightEdges();
  highlightAdjacentNodes();
});
]]></script>
</svg>
