<?xml version="1.0" encoding="UTF-8" standalone="no"?>
<!DOCTYPE svg PUBLIC "-//W3C//DTD SVG 1.1//EN"
 "http://www.w3.org/Graphics/SVG/1.1/DTD/svg11.dtd">
<!-- Generated by graphviz version 9.0.0 (20230911.1827)
 -->
<!-- Title: C:/Users/krisz/Documents/GitHub/STL_Slicer/STL_SLICER/include/Vector.h Pages: 1 -->
<svg width="804pt" height="452pt"
 viewBox="0.00 0.00 804.38 452.00" xmlns="http://www.w3.org/2000/svg" xmlns:xlink="http://www.w3.org/1999/xlink">
<g id="graph0" class="graph" transform="scale(1 1) rotate(0) translate(4 448)">
<title>C:/Users/krisz/Documents/GitHub/STL_Slicer/STL_SLICER/include/Vector.h</title>
<!-- Node1 -->
<g id="Node000001" class="node">
<title>Node1</title>
<g id="a_Node000001"><a xlink:title=" ">
<polygon fill="#999999" stroke="#666666" points="514.38,-444 383.62,-444 383.62,-400 514.38,-400 514.38,-444"/>
<text text-anchor="start" x="391.62" y="-430.5" font-family="Helvetica,sans-Serif" font-size="10.00">C:/Users/krisz/Documents</text>
<text text-anchor="start" x="391.62" y="-418.5" font-family="Helvetica,sans-Serif" font-size="10.00">/GitHub/STL_Slicer/STL</text>
<text text-anchor="middle" x="449" y="-406.5" font-family="Helvetica,sans-Serif" font-size="10.00">_SLICER/include/Vector.h</text>
</a>
</g>
</g>
<!-- Node2 -->
<g id="Node000002" class="node">
<title>Node2</title>
<g id="a_Node000002"><a xlink:href="_facet_8h.html" target="_top" xlink:title=" ">
<polygon fill="white" stroke="#666666" points="347.38,-204 216.62,-204 216.62,-160 347.38,-160 347.38,-204"/>
<text text-anchor="start" x="224.62" y="-190.5" font-family="Helvetica,sans-Serif" font-size="10.00">C:/Users/krisz/Documents</text>
<text text-anchor="start" x="224.62" y="-178.5" font-family="Helvetica,sans-Serif" font-size="10.00">/GitHub/STL_Slicer/STL</text>
<text text-anchor="middle" x="282" y="-166.5" font-family="Helvetica,sans-Serif" font-size="10.00">_SLICER/include/Facet.h</text>
</a>
</g>
</g>
<!-- Node1&#45;&gt;Node2 -->
<g id="edge1_Node000001_Node000002" class="edge">
<title>Node1&#45;&gt;Node2</title>
<g id="a_edge1_Node000001_Node000002"><a xlink:title=" ">
<path fill="none" stroke="#63b8ff" d="M372.25,-414.42C338.84,-407.29 302.66,-392.88 282,-364 247.63,-315.95 263.74,-240.86 274.72,-204.36"/>
<polygon fill="#63b8ff" stroke="#63b8ff" points="371.49,-417.83 381.97,-416.28 372.81,-410.96 371.49,-417.83"/>
</a>
</g>
</g>
<!-- Node3 -->
<g id="Node000003" class="node">
<title>Node3</title>
<g id="a_Node000003"><a xlink:href="_gcode_8h.html" target="_top" xlink:title=" ">
<polygon fill="white" stroke="#666666" points="610.38,-124 479.62,-124 479.62,-80 610.38,-80 610.38,-124"/>
<text text-anchor="start" x="487.62" y="-110.5" font-family="Helvetica,sans-Serif" font-size="10.00">C:/Users/krisz/Documents</text>
<text text-anchor="start" x="487.62" y="-98.5" font-family="Helvetica,sans-Serif" font-size="10.00">/GitHub/STL_Slicer/STL</text>
<text text-anchor="middle" x="545" y="-86.5" font-family="Helvetica,sans-Serif" font-size="10.00">_SLICER/include/Gcode.h</text>
</a>
</g>
</g>
<!-- Node1&#45;&gt;Node3 -->
<g id="edge11_Node000001_Node000003" class="edge">
<title>Node1&#45;&gt;Node3</title>
<g id="a_edge11_Node000001_Node000003"><a xlink:title=" ">
<path fill="none" stroke="#63b8ff" d="M474.87,-390.86C507.07,-351.14 560.36,-277.66 581,-204 586.28,-185.17 586.44,-178.78 581,-160 577.29,-147.18 569.75,-134.48 562.52,-124.33"/>
<polygon fill="#63b8ff" stroke="#63b8ff" points="472.36,-388.39 468.71,-398.34 477.77,-392.84 472.36,-388.39"/>
</a>
</g>
</g>
<!-- Node5 -->
<g id="Node000005" class="node">
<title>Node5</title>
<g id="a_Node000005"><a xlink:href="main_8cpp.html" target="_top" xlink:title=" ">
<polygon fill="white" stroke="#666666" points="234.38,-44 103.62,-44 103.62,0 234.38,0 234.38,-44"/>
<text text-anchor="start" x="111.62" y="-30.5" font-family="Helvetica,sans-Serif" font-size="10.00">C:/Users/krisz/Documents</text>
<text text-anchor="start" x="111.62" y="-18.5" font-family="Helvetica,sans-Serif" font-size="10.00">/GitHub/STL_Slicer/STL</text>
<text text-anchor="middle" x="169" y="-6.5" font-family="Helvetica,sans-Serif" font-size="10.00">_SLICER/src/main.cpp</text>
</a>
</g>
</g>
<!-- Node1&#45;&gt;Node5 -->
<g id="edge28_Node000001_Node000005" class="edge">
<title>Node1&#45;&gt;Node5</title>
<g id="a_edge28_Node000001_Node000005"><a xlink:title=" ">
<path fill="none" stroke="#63b8ff" d="M371.93,-410.1C243.59,-389.77 0,-340.91 0,-263 0,-263 0,-263 0,-181 0,-115.53 68.51,-69.38 118.29,-44.48"/>
<polygon fill="#63b8ff" stroke="#63b8ff" points="371.32,-413.55 381.74,-411.63 372.39,-406.63 371.32,-413.55"/>
</a>
</g>
</g>
<!-- Node7 -->
<g id="Node000007" class="node">
<title>Node7</title>
<g id="a_Node000007"><a xlink:href="_s_t_l_file_8cpp.html" target="_top" xlink:title=" ">
<polygon fill="white" stroke="#666666" points="517.38,-44 386.62,-44 386.62,0 517.38,0 517.38,-44"/>
<text text-anchor="start" x="394.62" y="-30.5" font-family="Helvetica,sans-Serif" font-size="10.00">C:/Users/krisz/Documents</text>
<text text-anchor="start" x="394.62" y="-18.5" font-family="Helvetica,sans-Serif" font-size="10.00">/GitHub/STL_Slicer/STL</text>
<text text-anchor="middle" x="452" y="-6.5" font-family="Helvetica,sans-Serif" font-size="10.00">_SLICER/src/STLFile.cpp</text>
</a>
</g>
</g>
<!-- Node1&#45;&gt;Node7 -->
<g id="edge25_Node000001_Node000007" class="edge">
<title>Node1&#45;&gt;Node7</title>
<g id="a_edge25_Node000001_Node000007"><a xlink:title=" ">
<path fill="none" stroke="#63b8ff" d="M519.8,-394.97C573.45,-370.14 638,-326.98 638,-263 638,-263 638,-263 638,-181 638,-135.32 648.91,-114.52 619,-80 605.26,-64.14 558.4,-48.93 517.8,-38.22"/>
<polygon fill="#63b8ff" stroke="#63b8ff" points="518.66,-391.64 510.96,-398.92 521.52,-398.03 518.66,-391.64"/>
</a>
</g>
</g>
<!-- Node8 -->
<g id="Node000008" class="node">
<title>Node8</title>
<g id="a_Node000008"><a xlink:href="_facet_8cpp.html" target="_top" xlink:title=" ">
<polygon fill="white" stroke="#666666" points="234.38,-124 103.62,-124 103.62,-80 234.38,-80 234.38,-124"/>
<text text-anchor="start" x="111.62" y="-110.5" font-family="Helvetica,sans-Serif" font-size="10.00">C:/Users/krisz/Documents</text>
<text text-anchor="start" x="111.62" y="-98.5" font-family="Helvetica,sans-Serif" font-size="10.00">/GitHub/STL_Slicer/STL</text>
<text text-anchor="middle" x="169" y="-86.5" font-family="Helvetica,sans-Serif" font-size="10.00">_SLICER/src/Facet.cpp</text>
</a>
</g>
</g>
<!-- Node1&#45;&gt;Node8 -->
<g id="edge24_Node000001_Node000008" class="edge">
<title>Node1&#45;&gt;Node8</title>
<g id="a_edge24_Node000001_Node000008"><a xlink:title=" ">
<path fill="none" stroke="#63b8ff" d="M372.03,-411.88C335.09,-404.2 292.2,-390.05 261,-364 199.67,-312.78 201.55,-280.66 179,-204 171.14,-177.29 169.17,-145.08 168.82,-124.33"/>
<polygon fill="#63b8ff" stroke="#63b8ff" points="371.31,-415.31 381.79,-413.78 372.64,-408.44 371.31,-415.31"/>
</a>
</g>
</g>
<!-- Node9 -->
<g id="Node000009" class="node">
<title>Node9</title>
<g id="a_Node000009"><a xlink:href="_plane_8h.html" target="_top" xlink:title=" ">
<polygon fill="white" stroke="#666666" points="421.38,-364 290.62,-364 290.62,-320 421.38,-320 421.38,-364"/>
<text text-anchor="start" x="298.62" y="-350.5" font-family="Helvetica,sans-Serif" font-size="10.00">C:/Users/krisz/Documents</text>
<text text-anchor="start" x="298.62" y="-338.5" font-family="Helvetica,sans-Serif" font-size="10.00">/GitHub/STL_Slicer/STL</text>
<text text-anchor="middle" x="356" y="-326.5" font-family="Helvetica,sans-Serif" font-size="10.00">_SLICER/include/Plane.h</text>
</a>
</g>
</g>
<!-- Node1&#45;&gt;Node9 -->
<g id="edge12_Node000001_Node000009" class="edge">
<title>Node1&#45;&gt;Node9</title>
<g id="a_edge12_Node000001_Node000009"><a xlink:title=" ">
<path fill="none" stroke="#63b8ff" d="M414.96,-392.45C403.86,-383.14 391.73,-372.97 381.38,-364.29"/>
<polygon fill="#63b8ff" stroke="#63b8ff" points="412.52,-394.97 422.43,-398.71 417.01,-389.61 412.52,-394.97"/>
</a>
</g>
</g>
<!-- Node10 -->
<g id="Node000010" class="node">
<title>Node10</title>
<g id="a_Node000010"><a xlink:href="_section_8h.html" target="_top" xlink:title=" ">
<polygon fill="white" stroke="#666666" points="442.88,-284 309.12,-284 309.12,-240 442.88,-240 442.88,-284"/>
<text text-anchor="start" x="317.12" y="-270.5" font-family="Helvetica,sans-Serif" font-size="10.00">C:/Users/krisz/Documents</text>
<text text-anchor="start" x="317.12" y="-258.5" font-family="Helvetica,sans-Serif" font-size="10.00">/GitHub/STL_Slicer/STL</text>
<text text-anchor="middle" x="376" y="-246.5" font-family="Helvetica,sans-Serif" font-size="10.00">_SLICER/include/Section.h</text>
</a>
</g>
</g>
<!-- Node1&#45;&gt;Node10 -->
<g id="edge23_Node000001_Node000010" class="edge">
<title>Node1&#45;&gt;Node10</title>
<g id="a_edge23_Node000001_Node000010"><a xlink:title=" ">
<path fill="none" stroke="#63b8ff" d="M447.57,-388.44C445.55,-367.87 440.85,-341.25 430,-320 423.18,-306.65 412.25,-294.24 402,-284.44"/>
<polygon fill="#63b8ff" stroke="#63b8ff" points="444.06,-388.57 448.35,-398.26 451.04,-388.01 444.06,-388.57"/>
</a>
</g>
</g>
<!-- Node11 -->
<g id="Node000011" class="node">
<title>Node11</title>
<g id="a_Node000011"><a xlink:href="_section_8cpp.html" target="_top" xlink:title=" ">
<polygon fill="white" stroke="#666666" points="572.38,-204 441.62,-204 441.62,-160 572.38,-160 572.38,-204"/>
<text text-anchor="start" x="449.62" y="-190.5" font-family="Helvetica,sans-Serif" font-size="10.00">C:/Users/krisz/Documents</text>
<text text-anchor="start" x="449.62" y="-178.5" font-family="Helvetica,sans-Serif" font-size="10.00">/GitHub/STL_Slicer/STL</text>
<text text-anchor="middle" x="507" y="-166.5" font-family="Helvetica,sans-Serif" font-size="10.00">_SLICER/src/Section.cpp</text>
</a>
</g>
</g>
<!-- Node1&#45;&gt;Node11 -->
<g id="edge26_Node000001_Node000011" class="edge">
<title>Node1&#45;&gt;Node11</title>
<g id="a_edge26_Node000001_Node000011"><a xlink:title=" ">
<path fill="none" stroke="#63b8ff" d="M456.82,-388.9C468.85,-339.56 491.56,-246.36 501.78,-204.42"/>
<polygon fill="#63b8ff" stroke="#63b8ff" points="453.47,-387.86 454.51,-398.41 460.27,-389.52 453.47,-387.86"/>
</a>
</g>
</g>
<!-- Node12 -->
<g id="Node000012" class="node">
<title>Node12</title>
<g id="a_Node000012"><a xlink:href="_vector_8cpp.html" target="_top" xlink:title=" ">
<polygon fill="white" stroke="#666666" points="796.38,-364 665.62,-364 665.62,-320 796.38,-320 796.38,-364"/>
<text text-anchor="start" x="673.62" y="-350.5" font-family="Helvetica,sans-Serif" font-size="10.00">C:/Users/krisz/Documents</text>
<text text-anchor="start" x="673.62" y="-338.5" font-family="Helvetica,sans-Serif" font-size="10.00">/GitHub/STL_Slicer/STL</text>
<text text-anchor="middle" x="731" y="-326.5" font-family="Helvetica,sans-Serif" font-size="10.00">_SLICER/src/Vector.cpp</text>
</a>
</g>
</g>
<!-- Node1&#45;&gt;Node12 -->
<g id="edge27_Node000001_Node000012" class="edge">
<title>Node1&#45;&gt;Node12</title>
<g id="a_edge27_Node000001_Node000012"><a xlink:title=" ">
<path fill="none" stroke="#63b8ff" d="M525.62,-399.81C569.27,-387.73 623.4,-372.76 665.14,-361.22"/>
<polygon fill="#63b8ff" stroke="#63b8ff" points="524.92,-396.37 516.22,-402.41 526.79,-403.11 524.92,-396.37"/>
</a>
</g>
</g>
<!-- Node2&#45;&gt;Node3 -->
<g id="edge2_Node000002_Node000003" class="edge">
<title>Node2&#45;&gt;Node3</title>
<g id="a_edge2_Node000002_Node000003"><a xlink:title=" ">
<path fill="none" stroke="#63b8ff" d="M358.27,-158.38C396.57,-147.02 442.51,-133.4 479.24,-122.5"/>
<polygon fill="#63b8ff" stroke="#63b8ff" points="357.73,-154.89 349.14,-161.09 359.72,-161.6 357.73,-154.89"/>
</a>
</g>
</g>
<!-- Node2&#45;&gt;Node5 -->
<g id="edge10_Node000002_Node000005" class="edge">
<title>Node2&#45;&gt;Node5</title>
<g id="a_edge10_Node000002_Node000005"><a xlink:title=" ">
<path fill="none" stroke="#63b8ff" d="M274.39,-148.66C268.32,-127.64 258.28,-100.46 243,-80 232.62,-66.1 217.99,-53.86 204.47,-44.32"/>
<polygon fill="#63b8ff" stroke="#63b8ff" points="270.97,-149.42 276.96,-158.15 277.72,-147.59 270.97,-149.42"/>
</a>
</g>
</g>
<!-- Node6 -->
<g id="Node000006" class="node">
<title>Node6</title>
<g id="a_Node000006"><a xlink:href="_s_t_l_file_8h.html" target="_top" xlink:title=" ">
<polygon fill="white" stroke="#666666" points="423.88,-124 290.12,-124 290.12,-80 423.88,-80 423.88,-124"/>
<text text-anchor="start" x="298.12" y="-110.5" font-family="Helvetica,sans-Serif" font-size="10.00">C:/Users/krisz/Documents</text>
<text text-anchor="start" x="298.12" y="-98.5" font-family="Helvetica,sans-Serif" font-size="10.00">/GitHub/STL_Slicer/STL</text>
<text text-anchor="middle" x="357" y="-86.5" font-family="Helvetica,sans-Serif" font-size="10.00">_SLICER/include/STLFile.h</text>
</a>
</g>
</g>
<!-- Node2&#45;&gt;Node6 -->
<g id="edge5_Node000002_Node000006" class="edge">
<title>Node2&#45;&gt;Node6</title>
<g id="a_edge5_Node000002_Node000006"><a xlink:title=" ">
<path fill="none" stroke="#63b8ff" d="M310.25,-151.62C318.99,-142.53 328.43,-132.71 336.53,-124.29"/>
<polygon fill="#63b8ff" stroke="#63b8ff" points="307.95,-148.96 303.54,-158.6 313,-153.81 307.95,-148.96"/>
</a>
</g>
</g>
<!-- Node2&#45;&gt;Node7 -->
<g id="edge9_Node000002_Node000007" class="edge">
<title>Node2&#45;&gt;Node7</title>
<g id="a_edge9_Node000002_Node000007"><a xlink:title=" ">
<path fill="none" stroke="#63b8ff" d="M358.43,-159.77C390.38,-149.4 422.52,-136.49 433,-124 451.69,-101.72 454.28,-66.86 453.7,-44.48"/>
<polygon fill="#63b8ff" stroke="#63b8ff" points="357.55,-156.38 349.08,-162.73 359.67,-163.05 357.55,-156.38"/>
</a>
</g>
</g>
<!-- Node2&#45;&gt;Node8 -->
<g id="edge8_Node000002_Node000008" class="edge">
<title>Node2&#45;&gt;Node8</title>
<g id="a_edge8_Node000002_Node000008"><a xlink:title=" ">
<path fill="none" stroke="#63b8ff" d="M241.83,-153.28C228.03,-143.74 212.79,-133.23 199.84,-124.29"/>
<polygon fill="#63b8ff" stroke="#63b8ff" points="239.66,-156.03 249.88,-158.83 243.64,-150.27 239.66,-156.03"/>
</a>
</g>
</g>
<!-- Node4 -->
<g id="Node000004" class="node">
<title>Node4</title>
<g id="a_Node000004"><a xlink:href="_gcode_8cpp.html" target="_top" xlink:title=" ">
<polygon fill="white" stroke="#666666" points="703.38,-44 572.62,-44 572.62,0 703.38,0 703.38,-44"/>
<text text-anchor="start" x="580.62" y="-30.5" font-family="Helvetica,sans-Serif" font-size="10.00">C:/Users/krisz/Documents</text>
<text text-anchor="start" x="580.62" y="-18.5" font-family="Helvetica,sans-Serif" font-size="10.00">/GitHub/STL_Slicer/STL</text>
<text text-anchor="middle" x="638" y="-6.5" font-family="Helvetica,sans-Serif" font-size="10.00">_SLICER/src/Gcode.cpp</text>
</a>
</g>
</g>
<!-- Node3&#45;&gt;Node4 -->
<g id="edge3_Node000003_Node000004" class="edge">
<title>Node3&#45;&gt;Node4</title>
<g id="a_edge3_Node000003_Node000004"><a xlink:title=" ">
<path fill="none" stroke="#63b8ff" d="M579.04,-72.45C590.14,-63.14 602.27,-52.97 612.62,-44.29"/>
<polygon fill="#63b8ff" stroke="#63b8ff" points="576.99,-69.61 571.57,-78.71 581.48,-74.97 576.99,-69.61"/>
</a>
</g>
</g>
<!-- Node3&#45;&gt;Node5 -->
<g id="edge4_Node000003_Node000005" class="edge">
<title>Node3&#45;&gt;Node5</title>
<g id="a_edge4_Node000003_Node000005"><a xlink:title=" ">
<path fill="none" stroke="#63b8ff" d="M468.33,-85.09C399.59,-70.84 299.83,-50.14 234.69,-36.63"/>
<polygon fill="#63b8ff" stroke="#63b8ff" points="467.52,-88.5 478.02,-87.11 468.94,-81.65 467.52,-88.5"/>
</a>
</g>
</g>
<!-- Node6&#45;&gt;Node5 -->
<g id="edge7_Node000006_Node000005" class="edge">
<title>Node6&#45;&gt;Node5</title>
<g id="a_edge7_Node000006_Node000005"><a xlink:title=" ">
<path fill="none" stroke="#63b8ff" d="M295.15,-75.34C271.02,-65.33 243.68,-53.99 220.64,-44.42"/>
<polygon fill="#63b8ff" stroke="#63b8ff" points="293.65,-78.51 304.23,-79.11 296.33,-72.04 293.65,-78.51"/>
</a>
</g>
</g>
<!-- Node6&#45;&gt;Node7 -->
<g id="edge6_Node000006_Node000007" class="edge">
<title>Node6&#45;&gt;Node7</title>
<g id="a_edge6_Node000006_Node000007"><a xlink:title=" ">
<path fill="none" stroke="#63b8ff" d="M391.77,-72.45C403.11,-63.14 415.5,-52.97 426.07,-44.29"/>
<polygon fill="#63b8ff" stroke="#63b8ff" points="389.64,-69.67 384.13,-78.73 394.08,-75.09 389.64,-69.67"/>
</a>
</g>
</g>
<!-- Node9&#45;&gt;Node2 -->
<g id="edge13_Node000009_Node000002" class="edge">
<title>Node9&#45;&gt;Node2</title>
<g id="a_edge13_Node000009_Node000002"><a xlink:title=" ">
<path fill="none" stroke="#63b8ff" d="M320.93,-311.96C312.93,-303.71 305.25,-294.17 300,-284 286.93,-258.68 283.17,-225.55 282.18,-204.27"/>
<polygon fill="#63b8ff" stroke="#63b8ff" points="318.27,-314.25 327.88,-318.7 323.14,-309.23 318.27,-314.25"/>
</a>
</g>
</g>
<!-- Node9&#45;&gt;Node5 -->
<g id="edge22_Node000009_Node000005" class="edge">
<title>Node9&#45;&gt;Node5</title>
<g id="a_edge22_Node000009_Node000005"><a xlink:title=" ">
<path fill="none" stroke="#63b8ff" d="M284.17,-315.3C231.29,-293.11 161.05,-256.32 116,-204 78.93,-160.95 58.4,-130.19 85,-80 92.92,-65.05 106.72,-53.3 120.86,-44.45"/>
<polygon fill="#63b8ff" stroke="#63b8ff" points="282.52,-318.4 293.1,-318.96 285.18,-311.93 282.52,-318.4"/>
</a>
</g>
</g>
<!-- Node9&#45;&gt;Node10 -->
<g id="edge14_Node000009_Node000010" class="edge">
<title>Node9&#45;&gt;Node10</title>
<g id="a_edge14_Node000009_Node000010"><a xlink:title=" ">
<path fill="none" stroke="#63b8ff" d="M364.25,-308.82C366.37,-300.54 368.6,-291.85 370.54,-284.29"/>
<polygon fill="#63b8ff" stroke="#63b8ff" points="360.93,-307.66 361.84,-318.22 367.72,-309.4 360.93,-307.66"/>
</a>
</g>
</g>
<!-- Node9&#45;&gt;Node11 -->
<g id="edge21_Node000009_Node000011" class="edge">
<title>Node9&#45;&gt;Node11</title>
<g id="a_edge21_Node000009_Node000011"><a xlink:title=" ">
<path fill="none" stroke="#63b8ff" d="M412.63,-314.17C426.59,-305.82 440.74,-295.68 452,-284 474.44,-260.71 490.51,-226.45 499.28,-204.43"/>
<polygon fill="#63b8ff" stroke="#63b8ff" points="411.29,-310.9 404.35,-318.91 414.77,-316.98 411.29,-310.9"/>
</a>
</g>
</g>
<!-- Node10&#45;&gt;Node2 -->
<g id="edge15_Node000010_Node000002" class="edge">
<title>Node10&#45;&gt;Node2</title>
<g id="a_edge15_Node000010_Node000002"><a xlink:title=" ">
<path fill="none" stroke="#63b8ff" d="M341.59,-232.45C330.37,-223.14 318.12,-212.97 307.65,-204.29"/>
<polygon fill="#63b8ff" stroke="#63b8ff" points="339.22,-235.03 349.15,-238.72 343.69,-229.64 339.22,-235.03"/>
</a>
</g>
</g>
<!-- Node10&#45;&gt;Node3 -->
<g id="edge16_Node000010_Node000003" class="edge">
<title>Node10&#45;&gt;Node3</title>
<g id="a_edge16_Node000010_Node000003"><a xlink:title=" ">
<path fill="none" stroke="#63b8ff" d="M376.19,-228.56C377.97,-206.82 383.65,-178.84 400,-160 411.17,-147.13 446.47,-133.12 479.44,-122.21"/>
<polygon fill="#63b8ff" stroke="#63b8ff" points="372.71,-228.2 375.65,-238.38 379.69,-228.59 372.71,-228.2"/>
</a>
</g>
</g>
<!-- Node10&#45;&gt;Node4 -->
<g id="edge18_Node000010_Node000004" class="edge">
<title>Node10&#45;&gt;Node4</title>
<g id="a_edge18_Node000010_Node000004"><a xlink:title=" ">
<path fill="none" stroke="#63b8ff" d="M390.2,-229.44C402.6,-203.29 420.51,-169 433,-160 501.33,-110.8 559.62,-183.69 619,-124 639.76,-103.13 641.65,-67.2 640.37,-44.3"/>
<polygon fill="#63b8ff" stroke="#63b8ff" points="387.11,-227.79 386.06,-238.33 393.46,-230.74 387.11,-227.79"/>
</a>
</g>
</g>
<!-- Node10&#45;&gt;Node5 -->
<g id="edge20_Node000010_Node000005" class="edge">
<title>Node10&#45;&gt;Node5</title>
<g id="a_edge20_Node000010_Node000005"><a xlink:title=" ">
<path fill="none" stroke="#63b8ff" d="M297.62,-250.55C226.77,-236.14 128.59,-202.37 95,-124 87.3,-106.03 86.37,-97.55 95,-80 102.16,-65.45 115.02,-53.57 128.03,-44.49"/>
<polygon fill="#63b8ff" stroke="#63b8ff" points="296.77,-253.95 307.26,-252.41 298.1,-247.07 296.77,-253.95"/>
</a>
</g>
</g>
<!-- Node10&#45;&gt;Node8 -->
<g id="edge17_Node000010_Node000008" class="edge">
<title>Node10&#45;&gt;Node8</title>
<g id="a_edge17_Node000010_Node000008"><a xlink:title=" ">
<path fill="none" stroke="#63b8ff" d="M297.89,-249.32C266.64,-241.17 232.35,-227.37 208,-204 185.76,-182.66 176.01,-147.21 171.87,-124.49"/>
<polygon fill="#63b8ff" stroke="#63b8ff" points="296.79,-252.65 307.33,-251.62 298.44,-245.85 296.79,-252.65"/>
</a>
</g>
</g>
<!-- Node10&#45;&gt;Node11 -->
<g id="edge19_Node000010_Node000011" class="edge">
<title>Node10&#45;&gt;Node11</title>
<g id="a_edge19_Node000010_Node000011"><a xlink:title=" ">
<path fill="none" stroke="#63b8ff" d="M421.64,-233.82C437.89,-224.15 455.94,-213.4 471.25,-204.29"/>
<polygon fill="#63b8ff" stroke="#63b8ff" points="419.9,-230.79 413.1,-238.91 423.48,-236.8 419.9,-230.79"/>
</a>
</g>
</g>
</g>
</svg>
