<?xml version="1.0" encoding="UTF-8" standalone="no"?>
<!DOCTYPE svg PUBLIC "-//W3C//DTD SVG 1.1//EN"
 "http://www.w3.org/Graphics/SVG/1.1/DTD/svg11.dtd">
<!-- Generated by graphviz version 9.0.0 (20230911.1827)
 -->
<!-- Title: Vector::read Pages: 1 -->
<svg width="293pt" height="66pt"
 viewBox="0.00 0.00 293.00 66.00" xmlns="http://www.w3.org/2000/svg" xmlns:xlink="http://www.w3.org/1999/xlink">
<g id="graph0" class="graph" transform="scale(1 1) rotate(0) translate(4 62)">
<title>Vector::read</title>
<!-- Node1 -->
<g id="Node000001" class="node">
<title>Node1</title>
<g id="a_Node000001"><a xlink:title="Reads a Vector from input stream.">
<polygon fill="#999999" stroke="#666666" points="285,-39 215.75,-39 215.75,-19 285,-19 285,-39"/>
<text text-anchor="middle" x="250.38" y="-25.5" font-family="Helvetica,sans-Serif" font-size="10.00">Vector::read</text>
</a>
</g>
</g>
<!-- Node2 -->
<g id="Node000002" class="node">
<title>Node2</title>
<g id="a_Node000002"><a xlink:href="_vector_8cpp.html#a753622da3b06ec980be211efe6c5e3f1" target="_top" xlink:title="Reads a Vector from input stream.">
<polygon fill="white" stroke="#666666" points="158,-58 94.75,-58 94.75,-38 158,-38 158,-58"/>
<text text-anchor="middle" x="126.38" y="-44.5" font-family="Helvetica,sans-Serif" font-size="10.00">operator&gt;&gt;</text>
</a>
</g>
</g>
<!-- Node1&#45;&gt;Node2 -->
<g id="edge1_Node000001_Node000002" class="edge">
<title>Node1&#45;&gt;Node2</title>
<g id="a_edge1_Node000001_Node000002"><a xlink:title=" ">
<path fill="none" stroke="#63b8ff" d="M204.07,-36.06C188.81,-38.43 172.14,-41.03 158.26,-43.19"/>
<polygon fill="#63b8ff" stroke="#63b8ff" points="204.55,-39.52 213.9,-34.53 203.48,-32.61 204.55,-39.52"/>
</a>
</g>
</g>
<!-- Node3 -->
<g id="Node000003" class="node">
<title>Node3</title>
<g id="a_Node000003"><a xlink:href="class_s_t_l_file.html#a459673a6261deda3fc8b820d03a7570b" target="_top" xlink:title="Reads the STL file in binary or text format.">
<polygon fill="white" stroke="#666666" points="179.75,-20 73,-20 73,0 179.75,0 179.75,-20"/>
<text text-anchor="middle" x="126.38" y="-6.5" font-family="Helvetica,sans-Serif" font-size="10.00">STLFile::readSTLFile</text>
</a>
</g>
</g>
<!-- Node1&#45;&gt;Node3 -->
<g id="edge2_Node000001_Node000003" class="edge">
<title>Node1&#45;&gt;Node3</title>
<g id="a_edge2_Node000001_Node000003"><a xlink:title=" ">
<path fill="none" stroke="#63b8ff" d="M204.16,-21.96C196.26,-20.73 187.98,-19.44 179.91,-18.18"/>
<polygon fill="#63b8ff" stroke="#63b8ff" points="203.48,-25.39 213.9,-23.47 204.55,-18.48 203.48,-25.39"/>
</a>
</g>
</g>
<!-- Node4 -->
<g id="Node000004" class="node">
<title>Node4</title>
<g id="a_Node000004"><a xlink:href="main_8cpp.html#a0ddf1224851353fc92bfbff6f499fa97" target="_top" xlink:title="The main function of the program.">
<polygon fill="white" stroke="#666666" points="37,-20 0,-20 0,0 37,0 37,-20"/>
<text text-anchor="middle" x="18.5" y="-6.5" font-family="Helvetica,sans-Serif" font-size="10.00">main</text>
</a>
</g>
</g>
<!-- Node3&#45;&gt;Node4 -->
<g id="edge3_Node000003_Node000004" class="edge">
<title>Node3&#45;&gt;Node4</title>
<g id="a_edge3_Node000003_Node000004"><a xlink:title=" ">
<path fill="none" stroke="#63b8ff" d="M61.36,-10C52.49,-10 44.05,-10 37.11,-10"/>
<polygon fill="#63b8ff" stroke="#63b8ff" points="61.23,-13.5 71.23,-10 61.23,-6.5 61.23,-13.5"/>
</a>
</g>
</g>
</g>
</svg>
