<?xml version="1.0" encoding="UTF-8" standalone="no"?>
<!DOCTYPE svg PUBLIC "-//W3C//DTD SVG 1.1//EN"
 "http://www.w3.org/Graphics/SVG/1.1/DTD/svg11.dtd">
<!-- Generated by graphviz version 9.0.0 (20230911.1827)
 -->
<!-- Title: STLFile::isBinarySTL Pages: 1 -->
<svg width="331pt" height="28pt"
 viewBox="0.00 0.00 331.25 28.00" xmlns="http://www.w3.org/2000/svg" xmlns:xlink="http://www.w3.org/1999/xlink">
<g id="graph0" class="graph" transform="scale(1 1) rotate(0) translate(4 24)">
<title>STLFile::isBinarySTL</title>
<!-- Node1 -->
<g id="Node000001" class="node">
<title>Node1</title>
<g id="a_Node000001"><a xlink:title="Checks if the file is in binary STL format.">
<polygon fill="#999999" stroke="#666666" points="323.25,-20 215.75,-20 215.75,0 323.25,0 323.25,-20"/>
<text text-anchor="middle" x="269.5" y="-6.5" font-family="Helvetica,sans-Serif" font-size="10.00">STLFile::isBinarySTL</text>
</a>
</g>
</g>
<!-- Node2 -->
<g id="Node000002" class="node">
<title>Node2</title>
<g id="a_Node000002"><a xlink:href="class_s_t_l_file.html#a459673a6261deda3fc8b820d03a7570b" target="_top" xlink:title="Reads the STL file in binary or text format.">
<polygon fill="white" stroke="#666666" points="179.75,-20 73,-20 73,0 179.75,0 179.75,-20"/>
<text text-anchor="middle" x="126.38" y="-6.5" font-family="Helvetica,sans-Serif" font-size="10.00">STLFile::readSTLFile</text>
</a>
</g>
</g>
<!-- Node1&#45;&gt;Node2 -->
<g id="edge1_Node000001_Node000002" class="edge">
<title>Node1&#45;&gt;Node2</title>
<g id="a_edge1_Node000001_Node000002"><a xlink:title=" ">
<path fill="none" stroke="#63b8ff" d="M204.26,-10C196.2,-10 188.02,-10 180.15,-10"/>
<polygon fill="#63b8ff" stroke="#63b8ff" points="204.04,-13.5 214.04,-10 204.04,-6.5 204.04,-13.5"/>
</a>
</g>
</g>
<!-- Node3 -->
<g id="Node000003" class="node">
<title>Node3</title>
<g id="a_Node000003"><a xlink:href="main_8cpp.html#a0ddf1224851353fc92bfbff6f499fa97" target="_top" xlink:title="The main function of the program.">
<polygon fill="white" stroke="#666666" points="37,-20 0,-20 0,0 37,0 37,-20"/>
<text text-anchor="middle" x="18.5" y="-6.5" font-family="Helvetica,sans-Serif" font-size="10.00">main</text>
</a>
</g>
</g>
<!-- Node2&#45;&gt;Node3 -->
<g id="edge2_Node000002_Node000003" class="edge">
<title>Node2&#45;&gt;Node3</title>
<g id="a_edge2_Node000002_Node000003"><a xlink:title=" ">
<path fill="none" stroke="#63b8ff" d="M61.36,-10C52.49,-10 44.05,-10 37.11,-10"/>
<polygon fill="#63b8ff" stroke="#63b8ff" points="61.23,-13.5 71.23,-10 61.23,-6.5 61.23,-13.5"/>
</a>
</g>
</g>
</g>
</svg>
