<?xml version="1.0" encoding="UTF-8" standalone="no"?>
<!DOCTYPE svg PUBLIC "-//W3C//DTD SVG 1.1//EN"
 "http://www.w3.org/Graphics/SVG/1.1/DTD/svg11.dtd">
<!-- Generated by graphviz version 9.0.0 (20230911.1827)
 -->
<!-- Title: Facet::PlaneIntersection Pages: 1 -->
<svg width="424pt" height="104pt"
 viewBox="0.00 0.00 424.25 104.00" xmlns="http://www.w3.org/2000/svg" xmlns:xlink="http://www.w3.org/1999/xlink">

<svg id="main" version="1.1" xmlns="http://www.w3.org/2000/svg" xmlns:xlink="http://www.w3.org/1999/xlink" xml:space="preserve" onload="init(evt)">
<style type="text/css"><![CDATA[
.node, .edge {opacity: 0.7;}
.node.selected, .edge.selected {opacity: 1;}
.edge:hover path { stroke: red; }
.edge:hover polygon { stroke: red; fill: red; }
]]></style>
<script type="application/ecmascript" xlink:href="svg.min.js"/>
<svg id="graph" class="graph">
<g id="graph0" class="graph" transform="scale(1 1) rotate(0) translate(4 100)">
<title>Facet::PlaneIntersection</title>
<!-- Node1 -->
<g id="Node000001" class="node">
<title>Node1</title>
<g id="a_Node000001"><a xlink:title="Calculates the intersection of the facet and a plane.">
<polygon fill="#999999" stroke="#666666" points="121.75,-58 0,-58 0,-38 121.75,-38 121.75,-58"/>
<text text-anchor="middle" x="60.88" y="-44.5" font-family="Helvetica,sans-Serif" font-size="10.00">Facet::PlaneIntersection</text>
</a>
</g>
</g>
<!-- Node2 -->
<g id="Node000002" class="node">
<title>Node2</title>
<g id="a_Node000002"><a xlink:href="class_section.html#a835a554a53f6b51ef859a2b82c81aa87" target="_top" xlink:title="Calculates the intersection point between the section and a plane.">
<polygon fill="white" stroke="#666666" points="289.25,-58 157.75,-58 157.75,-38 289.25,-38 289.25,-58"/>
<text text-anchor="middle" x="223.5" y="-44.5" font-family="Helvetica,sans-Serif" font-size="10.00">Section::PlaneInterSection</text>
</a>
</g>
</g>
<!-- Node1&#45;&gt;Node2 -->
<g id="edge1_Node000001_Node000002" class="edge">
<title>Node1&#45;&gt;Node2</title>
<g id="a_edge1_Node000001_Node000002"><a xlink:title=" ">
<path fill="none" stroke="#63b8ff" d="M122.14,-48C129.95,-48 138.02,-48 146.05,-48"/>
<polygon fill="#63b8ff" stroke="#63b8ff" points="145.81,-51.5 155.81,-48 145.81,-44.5 145.81,-51.5"/>
</a>
</g>
</g>
<!-- Node3 -->
<g id="Node000003" class="node">
<title>Node3</title>
<g id="a_Node000003"><a xlink:href="class_vector.html#adde9f0c3b971af3446d7414a0463a01f" target="_top" xlink:title="Calculates the dot product of two Vectors.">
<polygon fill="white" stroke="#666666" points="402.75,-96 338.75,-96 338.75,-76 402.75,-76 402.75,-96"/>
<text text-anchor="middle" x="370.75" y="-82.5" font-family="Helvetica,sans-Serif" font-size="10.00">Vector::dot</text>
</a>
</g>
</g>
<!-- Node2&#45;&gt;Node3 -->
<g id="edge2_Node000002_Node000003" class="edge">
<title>Node2&#45;&gt;Node3</title>
<g id="a_edge2_Node000002_Node000003"><a xlink:title=" ">
<path fill="none" stroke="#63b8ff" d="M264.57,-58.48C284.18,-63.61 307.78,-69.79 327.65,-74.98"/>
<polygon fill="#63b8ff" stroke="#63b8ff" points="326.53,-78.31 337.09,-77.46 328.3,-71.54 326.53,-78.31"/>
</a>
</g>
</g>
<!-- Node4 -->
<g id="Node000004" class="node">
<title>Node4</title>
<g id="a_Node000004"><a xlink:href="class_plane.html#afc07a77fb09621deceedc9f855787bf1" target="_top" xlink:title="Gets the normal vector of the plane.">
<polygon fill="white" stroke="#666666" points="416.25,-58 325.25,-58 325.25,-38 416.25,-38 416.25,-58"/>
<text text-anchor="middle" x="370.75" y="-44.5" font-family="Helvetica,sans-Serif" font-size="10.00">Plane::getNormal</text>
</a>
</g>
</g>
<!-- Node2&#45;&gt;Node4 -->
<g id="edge3_Node000002_Node000004" class="edge">
<title>Node2&#45;&gt;Node4</title>
<g id="a_edge3_Node000002_Node000004"><a xlink:title=" ">
<path fill="none" stroke="#63b8ff" d="M289.48,-48C297.5,-48 305.64,-48 313.51,-48"/>
<polygon fill="#63b8ff" stroke="#63b8ff" points="313.29,-51.5 323.29,-48 313.29,-44.5 313.29,-51.5"/>
</a>
</g>
</g>
<!-- Node5 -->
<g id="Node000005" class="node">
<title>Node5</title>
<g id="a_Node000005"><a xlink:href="class_plane.html#aa6f76844fc03732fb917012dc3de43dc" target="_top" xlink:title="Gets the reference point of the plane.">
<polygon fill="white" stroke="#666666" points="408,-20 333.5,-20 333.5,0 408,0 408,-20"/>
<text text-anchor="middle" x="370.75" y="-6.5" font-family="Helvetica,sans-Serif" font-size="10.00">Plane::getRef</text>
</a>
</g>
</g>
<!-- Node2&#45;&gt;Node5 -->
<g id="edge4_Node000002_Node000005" class="edge">
<title>Node2&#45;&gt;Node5</title>
<g id="a_edge4_Node000002_Node000005"><a xlink:title=" ">
<path fill="none" stroke="#63b8ff" d="M264.57,-37.52C282.46,-32.84 303.67,-27.29 322.34,-22.4"/>
<polygon fill="#63b8ff" stroke="#63b8ff" points="323.03,-25.84 331.82,-19.92 321.26,-19.07 323.03,-25.84"/>
</a>
</g>
</g>
</g>
</svg>
</svg>

<style type='text/css'>
<![CDATA[
[data-mouse-over-selected='false'] { opacity: 0.7; }
[data-mouse-over-selected='true']  { opacity: 1.0; }
]]>
</style>
<script type="application/ecmascript"><![CDATA[
document.addEventListener('DOMContentLoaded', (event) => {
  highlightEdges();
  highlightAdjacentNodes();
});
]]></script>
</svg>
