<?xml version="1.0" encoding="UTF-8" standalone="no"?>
<!DOCTYPE svg PUBLIC "-//W3C//DTD SVG 1.1//EN"
 "http://www.w3.org/Graphics/SVG/1.1/DTD/svg11.dtd">
<!-- Generated by graphviz version 9.0.0 (20230911.1827)
 -->
<!-- Title: STLFile::readSTLFile Pages: 1 -->
<svg width="258pt" height="104pt"
 viewBox="0.00 0.00 258.25 104.00" xmlns="http://www.w3.org/2000/svg" xmlns:xlink="http://www.w3.org/1999/xlink">
<g id="graph0" class="graph" transform="scale(1 1) rotate(0) translate(4 100)">
<title>STLFile::readSTLFile</title>
<!-- Node1 -->
<g id="Node000001" class="node">
<title>Node1</title>
<g id="a_Node000001"><a xlink:title="Reads the STL file in binary or text format.">
<polygon fill="#999999" stroke="#666666" points="106.75,-58 0,-58 0,-38 106.75,-38 106.75,-58"/>
<text text-anchor="middle" x="53.38" y="-44.5" font-family="Helvetica,sans-Serif" font-size="10.00">STLFile::readSTLFile</text>
</a>
</g>
</g>
<!-- Node2 -->
<g id="Node000002" class="node">
<title>Node2</title>
<g id="a_Node000002"><a xlink:href="class_vector.html#ad90e14b6e298f246cb7a46e8a3aef6e2" target="_top" xlink:title="Converts the coordinates from float array to double.">
<polygon fill="white" stroke="#666666" points="237.12,-96 155.88,-96 155.88,-76 237.12,-76 237.12,-96"/>
<text text-anchor="middle" x="196.5" y="-82.5" font-family="Helvetica,sans-Serif" font-size="10.00">Vector::convert</text>
</a>
</g>
</g>
<!-- Node1&#45;&gt;Node2 -->
<g id="edge1_Node000001_Node000002" class="edge">
<title>Node1&#45;&gt;Node2</title>
<g id="a_edge1_Node000001_Node000002"><a xlink:title=" ">
<path fill="none" stroke="#63b8ff" d="M93.31,-58.48C109.51,-62.85 128.51,-67.96 145.7,-72.59"/>
<polygon fill="#63b8ff" stroke="#63b8ff" points="144.66,-75.94 155.23,-75.16 146.48,-69.18 144.66,-75.94"/>
</a>
</g>
</g>
<!-- Node3 -->
<g id="Node000003" class="node">
<title>Node3</title>
<g id="a_Node000003"><a xlink:href="class_s_t_l_file.html#a70051ce594359a89af68af24680dbd26" target="_top" xlink:title="Checks if the file is in binary STL format.">
<polygon fill="white" stroke="#666666" points="250.25,-58 142.75,-58 142.75,-38 250.25,-38 250.25,-58"/>
<text text-anchor="middle" x="196.5" y="-44.5" font-family="Helvetica,sans-Serif" font-size="10.00">STLFile::isBinarySTL</text>
</a>
</g>
</g>
<!-- Node1&#45;&gt;Node3 -->
<g id="edge2_Node000001_Node000003" class="edge">
<title>Node1&#45;&gt;Node3</title>
<g id="a_edge2_Node000001_Node000003"><a xlink:title=" ">
<path fill="none" stroke="#63b8ff" d="M106.92,-48C114.81,-48 123.01,-48 131.11,-48"/>
<polygon fill="#63b8ff" stroke="#63b8ff" points="130.92,-51.5 140.92,-48 130.92,-44.5 130.92,-51.5"/>
</a>
</g>
</g>
<!-- Node4 -->
<g id="Node000004" class="node">
<title>Node4</title>
<g id="a_Node000004"><a xlink:href="class_vector.html#a61fa9ad2db52723de0ee34ecbbe83724" target="_top" xlink:title="Reads a Vector from input stream.">
<polygon fill="white" stroke="#666666" points="231.12,-20 161.88,-20 161.88,0 231.12,0 231.12,-20"/>
<text text-anchor="middle" x="196.5" y="-6.5" font-family="Helvetica,sans-Serif" font-size="10.00">Vector::read</text>
</a>
</g>
</g>
<!-- Node1&#45;&gt;Node4 -->
<g id="edge3_Node000001_Node000004" class="edge">
<title>Node1&#45;&gt;Node4</title>
<g id="a_edge3_Node000001_Node000004"><a xlink:title=" ">
<path fill="none" stroke="#63b8ff" d="M93.31,-37.52C111.01,-32.75 132.06,-27.08 150.44,-22.13"/>
<polygon fill="#63b8ff" stroke="#63b8ff" points="151.28,-25.53 160.03,-19.55 149.46,-18.77 151.28,-25.53"/>
</a>
</g>
</g>
</g>
</svg>
