<?xml version="1.0" encoding="UTF-8" standalone="no"?>
<!DOCTYPE svg PUBLIC "-//W3C//DTD SVG 1.1//EN"
 "http://www.w3.org/Graphics/SVG/1.1/DTD/svg11.dtd">
<!-- Generated by graphviz version 9.0.0 (20230911.1827)
 -->
<!-- Title: Vector::dot Pages: 1 -->
<svg width="397pt" height="66pt"
 viewBox="0.00 0.00 397.25 66.00" xmlns="http://www.w3.org/2000/svg" xmlns:xlink="http://www.w3.org/1999/xlink">
<g id="graph0" class="graph" transform="scale(1 1) rotate(0) translate(4 62)">
<title>Vector::dot</title>
<!-- Node1 -->
<g id="Node000001" class="node">
<title>Node1</title>
<g id="a_Node000001"><a xlink:title="Calculates the dot product of two Vectors.">
<polygon fill="#999999" stroke="#666666" points="389.25,-39 325.25,-39 325.25,-19 389.25,-19 389.25,-39"/>
<text text-anchor="middle" x="357.25" y="-25.5" font-family="Helvetica,sans-Serif" font-size="10.00">Vector::dot</text>
</a>
</g>
</g>
<!-- Node2 -->
<g id="Node000002" class="node">
<title>Node2</title>
<g id="a_Node000002"><a xlink:href="main_8cpp.html#a0ddf1224851353fc92bfbff6f499fa97" target="_top" xlink:title="The main function of the program.">
<polygon fill="white" stroke="#666666" points="79.38,-58 42.38,-58 42.38,-38 79.38,-38 79.38,-58"/>
<text text-anchor="middle" x="60.88" y="-44.5" font-family="Helvetica,sans-Serif" font-size="10.00">main</text>
</a>
</g>
</g>
<!-- Node1&#45;&gt;Node2 -->
<g id="edge1_Node000001_Node000002" class="edge">
<title>Node1&#45;&gt;Node2</title>
<g id="a_edge1_Node000001_Node000002"><a xlink:title=" ">
<path fill="none" stroke="#63b8ff" d="M313.89,-31.73C248.43,-35.96 125.47,-43.9 79.67,-46.85"/>
<polygon fill="#63b8ff" stroke="#63b8ff" points="313.76,-35.25 323.52,-31.11 313.31,-28.26 313.76,-35.25"/>
</a>
</g>
</g>
<!-- Node3 -->
<g id="Node000003" class="node">
<title>Node3</title>
<g id="a_Node000003"><a xlink:href="class_section.html#a835a554a53f6b51ef859a2b82c81aa87" target="_top" xlink:title="Calculates the intersection point between the section and a plane.">
<polygon fill="white" stroke="#666666" points="289.25,-20 157.75,-20 157.75,0 289.25,0 289.25,-20"/>
<text text-anchor="middle" x="223.5" y="-6.5" font-family="Helvetica,sans-Serif" font-size="10.00">Section::PlaneInterSection</text>
</a>
</g>
</g>
<!-- Node1&#45;&gt;Node3 -->
<g id="edge2_Node000001_Node000003" class="edge">
<title>Node1&#45;&gt;Node3</title>
<g id="a_edge2_Node000001_Node000003"><a xlink:title=" ">
<path fill="none" stroke="#63b8ff" d="M313.78,-22.88C306.08,-21.77 297.89,-20.58 289.72,-19.41"/>
<polygon fill="#63b8ff" stroke="#63b8ff" points="313.13,-26.32 323.53,-24.28 314.13,-19.39 313.13,-26.32"/>
</a>
</g>
</g>
<!-- Node3&#45;&gt;Node2 -->
<g id="edge3_Node000003_Node000002" class="edge">
<title>Node3&#45;&gt;Node2</title>
<g id="a_edge3_Node000003_Node000002"><a xlink:title=" ">
<path fill="none" stroke="#63b8ff" d="M167.2,-23.08C136.63,-30.32 100.69,-38.82 79.68,-43.79"/>
<polygon fill="#63b8ff" stroke="#63b8ff" points="167.78,-26.54 176.71,-20.83 166.17,-19.73 167.78,-26.54"/>
</a>
</g>
</g>
<!-- Node4 -->
<g id="Node000004" class="node">
<title>Node4</title>
<g id="a_Node000004"><a xlink:href="class_facet.html#a06878114e2ec85eaeeeb0e0589f6e203" target="_top" xlink:title="Calculates the intersection of the facet and a plane.">
<polygon fill="white" stroke="#666666" points="121.75,-20 0,-20 0,0 121.75,0 121.75,-20"/>
<text text-anchor="middle" x="60.88" y="-6.5" font-family="Helvetica,sans-Serif" font-size="10.00">Facet::PlaneIntersection</text>
</a>
</g>
</g>
<!-- Node3&#45;&gt;Node4 -->
<g id="edge4_Node000003_Node000004" class="edge">
<title>Node3&#45;&gt;Node4</title>
<g id="a_edge4_Node000003_Node000004"><a xlink:title=" ">
<path fill="none" stroke="#63b8ff" d="M146.23,-10C138.11,-10 129.94,-10 122.05,-10"/>
<polygon fill="#63b8ff" stroke="#63b8ff" points="146.12,-13.5 156.12,-10 146.12,-6.5 146.12,-13.5"/>
</a>
</g>
</g>
</g>
</svg>
