<?xml version="1.0" encoding="UTF-8" standalone="no"?>
<!DOCTYPE svg PUBLIC "-//W3C//DTD SVG 1.1//EN"
 "http://www.w3.org/Graphics/SVG/1.1/DTD/svg11.dtd">
<!-- Generated by graphviz version 10.0.1 (20240210.2158)
 -->
<!-- Title: Gcode Pages: 1 -->
<svg width="88pt" height="102pt"
 viewBox="0.00 0.00 88.00 102.00" xmlns="http://www.w3.org/2000/svg" xmlns:xlink="http://www.w3.org/1999/xlink">
<g id="graph0" class="graph" transform="scale(1 1) rotate(0) translate(4 98)">
<title>Gcode</title>
<!-- Node1 -->
<g id="Node000001" class="node">
<title>Node1</title>
<g id="a_Node000001"><a xlink:title="The Gcode class provides functions for generating G&#45;code instructions.">
<polygon fill="#999999" stroke="none" points="80,-94 0,-94 0,0 80,0 80,-94"/>
<text text-anchor="start" x="25.75" y="-80.5" font-family="Helvetica,sans-Serif" font-size="10.00">Gcode</text>
<text text-anchor="start" x="38.5" y="-65.5" font-family="Helvetica,sans-Serif" font-size="10.00"> </text>
<text text-anchor="start" x="4" y="-50.5" font-family="Helvetica,sans-Serif" font-size="10.00">+</text>
<text text-anchor="start" x="14" y="-50.5" font-family="Helvetica,sans-Serif" font-size="10.00">StartGcode()</text>
<text text-anchor="start" x="4" y="-35.5" font-family="Helvetica,sans-Serif" font-size="10.00">+</text>
<text text-anchor="start" x="14" y="-35.5" font-family="Helvetica,sans-Serif" font-size="10.00">WriteGcode()</text>
<text text-anchor="start" x="4" y="-20.5" font-family="Helvetica,sans-Serif" font-size="10.00">+</text>
<text text-anchor="start" x="14" y="-20.5" font-family="Helvetica,sans-Serif" font-size="10.00">CloseGcode()</text>
<text text-anchor="start" x="4" y="-5.5" font-family="Helvetica,sans-Serif" font-size="10.00">+</text>
<text text-anchor="start" x="14" y="-5.5" font-family="Helvetica,sans-Serif" font-size="10.00">SortSections()</text>
<polygon fill="#666666" stroke="#666666" points="0,-77 0,-77 80,-77 80,-77 0,-77"/>
<polygon fill="#666666" stroke="#666666" points="0,-62 0,-62 80,-62 80,-62 0,-62"/>
<polygon fill="none" stroke="#666666" points="0,0 0,-94 80,-94 80,0 0,0"/>
</a>
</g>
</g>
</g>
</svg>
