<?xml version="1.0" encoding="UTF-8" standalone="no"?>
<!DOCTYPE svg PUBLIC "-//W3C//DTD SVG 1.1//EN"
 "http://www.w3.org/Graphics/SVG/1.1/DTD/svg11.dtd">
<!-- Generated by graphviz version 9.0.0 (20230911.1827)
 -->
<!-- Title: main Pages: 1 -->
<svg width="356pt" height="256pt"
 viewBox="0.00 0.00 356.00 256.00" xmlns="http://www.w3.org/2000/svg" xmlns:xlink="http://www.w3.org/1999/xlink">

<svg id="main" version="1.1" xmlns="http://www.w3.org/2000/svg" xmlns:xlink="http://www.w3.org/1999/xlink" xml:space="preserve" onload="init(evt)">
<style type="text/css"><![CDATA[
.node, .edge {opacity: 0.7;}
.node.selected, .edge.selected {opacity: 1;}
.edge:hover path { stroke: red; }
.edge:hover polygon { stroke: red; fill: red; }
]]></style>
<script type="application/ecmascript" xlink:href="svg.min.js"/>
<svg id="graph" class="graph">
<g id="graph0" class="graph" transform="scale(1 1) rotate(0) translate(4 252)">
<title>main</title>
<!-- Node1 -->
<g id="Node000001" class="node">
<title>Node1</title>
<g id="a_Node000001"><a xlink:title="The main function of the program.">
<polygon fill="#999999" stroke="#666666" points="37,-134 0,-134 0,-114 37,-114 37,-134"/>
<text text-anchor="middle" x="18.5" y="-120.5" font-family="Helvetica,sans-Serif" font-size="10.00">main</text>
</a>
</g>
</g>
<!-- Node2 -->
<g id="Node000002" class="node">
<title>Node2</title>
<g id="a_Node000002"><a xlink:href="class_vector.html#a23b5e0009c60a2b15a6b5dedf06aadcf" target="_top" xlink:title="Calculates the cross product of two Vectors.">
<polygon fill="white" stroke="#666666" points="176,-248 101.5,-248 101.5,-228 176,-228 176,-248"/>
<text text-anchor="middle" x="138.75" y="-234.5" font-family="Helvetica,sans-Serif" font-size="10.00">Vector::cross</text>
</a>
</g>
</g>
<!-- Node1&#45;&gt;Node2 -->
<g id="edge1_Node000001_Node000002" class="edge">
<title>Node1&#45;&gt;Node2</title>
<g id="a_edge1_Node000001_Node000002"><a xlink:title=" ">
<path fill="none" stroke="#63b8ff" d="M23.04,-134.45C29.85,-153.02 46.47,-191.89 73,-214 78.32,-218.43 84.53,-222.09 90.97,-225.09"/>
<polygon fill="#63b8ff" stroke="#63b8ff" points="89.19,-228.14 99.77,-228.71 91.85,-221.67 89.19,-228.14"/>
</a>
</g>
</g>
<!-- Node3 -->
<g id="Node000003" class="node">
<title>Node3</title>
<g id="a_Node000003"><a xlink:href="class_vector.html#adde9f0c3b971af3446d7414a0463a01f" target="_top" xlink:title="Calculates the dot product of two Vectors.">
<polygon fill="white" stroke="#666666" points="326.25,-210 262.25,-210 262.25,-190 326.25,-190 326.25,-210"/>
<text text-anchor="middle" x="294.25" y="-196.5" font-family="Helvetica,sans-Serif" font-size="10.00">Vector::dot</text>
</a>
</g>
</g>
<!-- Node1&#45;&gt;Node3 -->
<g id="edge2_Node000001_Node000003" class="edge">
<title>Node1&#45;&gt;Node3</title>
<g id="a_edge2_Node000001_Node000003"><a xlink:title=" ">
<path fill="none" stroke="#63b8ff" d="M25.61,-134.17C34.28,-147.54 51.51,-170.58 73,-181 129.71,-208.5 204.28,-208.54 250.48,-205.03"/>
<polygon fill="#63b8ff" stroke="#63b8ff" points="250.69,-208.53 260.36,-204.18 250.09,-201.55 250.69,-208.53"/>
</a>
</g>
</g>
<!-- Node4 -->
<g id="Node000004" class="node">
<title>Node4</title>
<g id="a_Node000004"><a xlink:href="class_vector.html#a60195b4feaa74f1578c0f4f984dce081" target="_top" xlink:title="Returns the length of the Vector.">
<polygon fill="white" stroke="#666666" points="185.38,-172 92.12,-172 92.12,-152 185.38,-152 185.38,-172"/>
<text text-anchor="middle" x="138.75" y="-158.5" font-family="Helvetica,sans-Serif" font-size="10.00">Vector::getLength</text>
</a>
</g>
</g>
<!-- Node1&#45;&gt;Node4 -->
<g id="edge3_Node000001_Node000004" class="edge">
<title>Node1&#45;&gt;Node4</title>
<g id="a_edge3_Node000001_Node000004"><a xlink:title=" ">
<path fill="none" stroke="#63b8ff" d="M37.25,-130.58C47.62,-134.36 61,-139.11 73,-143 78.43,-144.76 84.15,-146.54 89.83,-148.27"/>
<polygon fill="#63b8ff" stroke="#63b8ff" points="88.63,-151.56 99.21,-151.07 90.63,-144.85 88.63,-151.56"/>
</a>
</g>
</g>
<!-- Node5 -->
<g id="Node000005" class="node">
<title>Node5</title>
<g id="a_Node000005"><a xlink:href="class_section.html#a835a554a53f6b51ef859a2b82c81aa87" target="_top" xlink:title="Calculates the intersection point between the section and a plane.">
<polygon fill="white" stroke="#666666" points="204.5,-134 73,-134 73,-114 204.5,-114 204.5,-134"/>
<text text-anchor="middle" x="138.75" y="-120.5" font-family="Helvetica,sans-Serif" font-size="10.00">Section::PlaneInterSection</text>
</a>
</g>
</g>
<!-- Node1&#45;&gt;Node5 -->
<g id="edge4_Node000001_Node000005" class="edge">
<title>Node1&#45;&gt;Node5</title>
<g id="a_edge4_Node000001_Node000005"><a xlink:title=" ">
<path fill="none" stroke="#63b8ff" d="M37.46,-124C44.23,-124 52.43,-124 61.19,-124"/>
<polygon fill="#63b8ff" stroke="#63b8ff" points="61,-127.5 71,-124 61,-120.5 61,-127.5"/>
</a>
</g>
</g>
<!-- Node8 -->
<g id="Node000008" class="node">
<title>Node8</title>
<g id="a_Node000008"><a xlink:href="class_s_t_l_file.html#a459673a6261deda3fc8b820d03a7570b" target="_top" xlink:title="Reads the STL file in binary or text format.">
<polygon fill="white" stroke="#666666" points="192.12,-96 85.38,-96 85.38,-76 192.12,-76 192.12,-96"/>
<text text-anchor="middle" x="138.75" y="-82.5" font-family="Helvetica,sans-Serif" font-size="10.00">STLFile::readSTLFile</text>
</a>
</g>
</g>
<!-- Node1&#45;&gt;Node8 -->
<g id="edge8_Node000001_Node000008" class="edge">
<title>Node1&#45;&gt;Node8</title>
<g id="a_edge8_Node000001_Node000008"><a xlink:title=" ">
<path fill="none" stroke="#63b8ff" d="M37.25,-117.42C47.62,-113.64 61,-108.89 73,-105 78.43,-103.24 84.15,-101.46 89.83,-99.73"/>
<polygon fill="#63b8ff" stroke="#63b8ff" points="90.63,-103.15 99.21,-96.93 88.63,-96.44 90.63,-103.15"/>
</a>
</g>
</g>
<!-- Node12 -->
<g id="Node000012" class="node">
<title>Node12</title>
<g id="a_Node000012"><a xlink:href="class_gcode.html#a3f051399be4a1bb32bbc03740d2a0ebb" target="_top" xlink:title="Sorts the sections in order to create a continuous path for the printer.">
<polygon fill="white" stroke="#666666" points="192.12,-58 85.38,-58 85.38,-38 192.12,-38 192.12,-58"/>
<text text-anchor="middle" x="138.75" y="-44.5" font-family="Helvetica,sans-Serif" font-size="10.00">Gcode::SortSections</text>
</a>
</g>
</g>
<!-- Node1&#45;&gt;Node12 -->
<g id="edge12_Node000001_Node000012" class="edge">
<title>Node1&#45;&gt;Node12</title>
<g id="a_edge12_Node000001_Node000012"><a xlink:title=" ">
<path fill="none" stroke="#63b8ff" d="M26.58,-113.57C35.8,-100.75 53.11,-79.23 73,-67 75.45,-65.5 78.02,-64.11 80.66,-62.82"/>
<polygon fill="#63b8ff" stroke="#63b8ff" points="81.93,-66.09 89.78,-58.97 79.21,-59.64 81.93,-66.09"/>
</a>
</g>
</g>
<!-- Node13 -->
<g id="Node000013" class="node">
<title>Node13</title>
<g id="a_Node000013"><a xlink:href="class_gcode.html#aa7d93cf741b2417001a4bec84ae69a0a" target="_top" xlink:title="Writes one layer of the sliced 3D model into gcode.">
<polygon fill="white" stroke="#666666" points="189.88,-20 87.62,-20 87.62,0 189.88,0 189.88,-20"/>
<text text-anchor="middle" x="138.75" y="-6.5" font-family="Helvetica,sans-Serif" font-size="10.00">Gcode::WriteGcode</text>
</a>
</g>
</g>
<!-- Node1&#45;&gt;Node13 -->
<g id="edge13_Node000001_Node000013" class="edge">
<title>Node1&#45;&gt;Node13</title>
<g id="a_edge13_Node000001_Node000013"><a xlink:title=" ">
<path fill="none" stroke="#63b8ff" d="M22.43,-113.7C28.52,-94.18 44.4,-51.73 73,-29 74.48,-27.82 76.03,-26.72 77.64,-25.68"/>
<polygon fill="#63b8ff" stroke="#63b8ff" points="78.88,-28.99 86.03,-21.18 75.56,-22.82 78.88,-28.99"/>
</a>
</g>
</g>
<!-- Node5&#45;&gt;Node3 -->
<g id="edge5_Node000005_Node000003" class="edge">
<title>Node5&#45;&gt;Node3</title>
<g id="a_edge5_Node000005_Node000003"><a xlink:title=" ">
<path fill="none" stroke="#63b8ff" d="M186.31,-134.4C192.66,-136.74 198.9,-139.58 204.5,-143 224.35,-155.14 221.03,-168.27 240.5,-181 243.96,-183.26 247.73,-185.3 251.6,-187.12"/>
<polygon fill="#63b8ff" stroke="#63b8ff" points="250,-190.25 260.58,-190.87 252.7,-183.79 250,-190.25"/>
</a>
</g>
</g>
<!-- Node6 -->
<g id="Node000006" class="node">
<title>Node6</title>
<g id="a_Node000006"><a xlink:href="class_plane.html#afc07a77fb09621deceedc9f855787bf1" target="_top" xlink:title="Gets the normal vector of the plane.">
<polygon fill="white" stroke="#666666" points="339.75,-172 248.75,-172 248.75,-152 339.75,-152 339.75,-172"/>
<text text-anchor="middle" x="294.25" y="-158.5" font-family="Helvetica,sans-Serif" font-size="10.00">Plane::getNormal</text>
</a>
</g>
</g>
<!-- Node5&#45;&gt;Node6 -->
<g id="edge6_Node000005_Node000006" class="edge">
<title>Node5&#45;&gt;Node6</title>
<g id="a_edge6_Node000005_Node000006"><a xlink:title=" ">
<path fill="none" stroke="#63b8ff" d="M182.1,-134.48C199.97,-138.91 220.97,-144.11 239.88,-148.79"/>
<polygon fill="#63b8ff" stroke="#63b8ff" points="239.02,-152.18 249.57,-151.19 240.7,-145.39 239.02,-152.18"/>
</a>
</g>
</g>
<!-- Node7 -->
<g id="Node000007" class="node">
<title>Node7</title>
<g id="a_Node000007"><a xlink:href="class_plane.html#aa6f76844fc03732fb917012dc3de43dc" target="_top" xlink:title="Gets the reference point of the plane.">
<polygon fill="white" stroke="#666666" points="331.5,-134 257,-134 257,-114 331.5,-114 331.5,-134"/>
<text text-anchor="middle" x="294.25" y="-120.5" font-family="Helvetica,sans-Serif" font-size="10.00">Plane::getRef</text>
</a>
</g>
</g>
<!-- Node5&#45;&gt;Node7 -->
<g id="edge7_Node000005_Node000007" class="edge">
<title>Node5&#45;&gt;Node7</title>
<g id="a_edge7_Node000005_Node000007"><a xlink:title=" ">
<path fill="none" stroke="#63b8ff" d="M204.85,-124C218.49,-124 232.63,-124 245.49,-124"/>
<polygon fill="#63b8ff" stroke="#63b8ff" points="245.39,-127.5 255.39,-124 245.39,-120.5 245.39,-127.5"/>
</a>
</g>
</g>
<!-- Node9 -->
<g id="Node000009" class="node">
<title>Node9</title>
<g id="a_Node000009"><a xlink:href="class_vector.html#ad90e14b6e298f246cb7a46e8a3aef6e2" target="_top" xlink:title="Converts the coordinates from float array to double.">
<polygon fill="white" stroke="#666666" points="334.88,-96 253.62,-96 253.62,-76 334.88,-76 334.88,-96"/>
<text text-anchor="middle" x="294.25" y="-82.5" font-family="Helvetica,sans-Serif" font-size="10.00">Vector::convert</text>
</a>
</g>
</g>
<!-- Node8&#45;&gt;Node9 -->
<g id="edge9_Node000008_Node000009" class="edge">
<title>Node8&#45;&gt;Node9</title>
<g id="a_edge9_Node000008_Node000009"><a xlink:title=" ">
<path fill="none" stroke="#63b8ff" d="M192.58,-86C208.63,-86 226.23,-86 242.16,-86"/>
<polygon fill="#63b8ff" stroke="#63b8ff" points="241.91,-89.5 251.91,-86 241.91,-82.5 241.91,-89.5"/>
</a>
</g>
</g>
<!-- Node10 -->
<g id="Node000010" class="node">
<title>Node10</title>
<g id="a_Node000010"><a xlink:href="class_s_t_l_file.html#a70051ce594359a89af68af24680dbd26" target="_top" xlink:title="Checks if the file is in binary STL format.">
<polygon fill="white" stroke="#666666" points="348,-58 240.5,-58 240.5,-38 348,-38 348,-58"/>
<text text-anchor="middle" x="294.25" y="-44.5" font-family="Helvetica,sans-Serif" font-size="10.00">STLFile::isBinarySTL</text>
</a>
</g>
</g>
<!-- Node8&#45;&gt;Node10 -->
<g id="edge10_Node000008_Node000010" class="edge">
<title>Node8&#45;&gt;Node10</title>
<g id="a_edge10_Node000008_Node000010"><a xlink:title=" ">
<path fill="none" stroke="#63b8ff" d="M182.1,-75.52C199.97,-71.09 220.97,-65.89 239.88,-61.21"/>
<polygon fill="#63b8ff" stroke="#63b8ff" points="240.7,-64.61 249.57,-58.81 239.02,-57.82 240.7,-64.61"/>
</a>
</g>
</g>
<!-- Node11 -->
<g id="Node000011" class="node">
<title>Node11</title>
<g id="a_Node000011"><a xlink:href="class_vector.html#a61fa9ad2db52723de0ee34ecbbe83724" target="_top" xlink:title="Reads a Vector from input stream.">
<polygon fill="white" stroke="#666666" points="328.88,-20 259.62,-20 259.62,0 328.88,0 328.88,-20"/>
<text text-anchor="middle" x="294.25" y="-6.5" font-family="Helvetica,sans-Serif" font-size="10.00">Vector::read</text>
</a>
</g>
</g>
<!-- Node8&#45;&gt;Node11 -->
<g id="edge11_Node000008_Node000011" class="edge">
<title>Node8&#45;&gt;Node11</title>
<g id="a_edge11_Node000008_Node000011"><a xlink:title=" ">
<path fill="none" stroke="#63b8ff" d="M186.31,-75.6C192.66,-73.26 198.9,-70.42 204.5,-67 224.35,-54.86 221.03,-41.73 240.5,-29 243.17,-27.25 246.03,-25.64 248.97,-24.16"/>
<polygon fill="#63b8ff" stroke="#63b8ff" points="250.11,-27.48 257.82,-20.22 247.26,-21.09 250.11,-27.48"/>
</a>
</g>
</g>
</g>
</svg>
</svg>

<style type='text/css'>
<![CDATA[
[data-mouse-over-selected='false'] { opacity: 0.7; }
[data-mouse-over-selected='true']  { opacity: 1.0; }
]]>
</style>
<script type="application/ecmascript"><![CDATA[
document.addEventListener('DOMContentLoaded', (event) => {
  highlightEdges();
  highlightAdjacentNodes();
});
]]></script>
</svg>
