<?xml version="1.0" encoding="UTF-8" standalone="no"?>
<!DOCTYPE svg PUBLIC "-//W3C//DTD SVG 1.1//EN"
 "http://www.w3.org/Graphics/SVG/1.1/DTD/svg11.dtd">
<!-- Generated by graphviz version 10.0.1 (20240210.2158)
 -->
<!-- Title: STL_SLICER/src/main.cpp Pages: 1 -->
<svg width="541pt" height="359pt"
 viewBox="0.00 0.00 540.50 358.75" xmlns="http://www.w3.org/2000/svg" xmlns:xlink="http://www.w3.org/1999/xlink">
<g id="graph0" class="graph" transform="scale(1 1) rotate(0) translate(4 354.75)">
<title>STL_SLICER/src/main.cpp</title>
<!-- Node1 -->
<g id="Node000001" class="node">
<title>Node1</title>
<g id="a_Node000001"><a xlink:title=" ">
<polygon fill="#999999" stroke="#666666" points="264.62,-350.75 129.38,-350.75 129.38,-331.5 264.62,-331.5 264.62,-350.75"/>
<text text-anchor="middle" x="197" y="-337.25" font-family="Helvetica,sans-Serif" font-size="10.00">STL_SLICER/src/main.cpp</text>
</a>
</g>
</g>
<!-- Node2 -->
<g id="Node000002" class="node">
<title>Node2</title>
<g id="a_Node000002"><a xlink:href="_vector_8h.html" target="_top" xlink:title=" ">
<polygon fill="white" stroke="#666666" points="162,-74.5 110,-74.5 110,-55.25 162,-55.25 162,-74.5"/>
<text text-anchor="middle" x="136" y="-61" font-family="Helvetica,sans-Serif" font-size="10.00">Vector.h</text>
</a>
</g>
</g>
<!-- Node1&#45;&gt;Node2 -->
<g id="edge1_Node000001_Node000002" class="edge">
<title>Node1&#45;&gt;Node2</title>
<g id="a_edge1_Node000001_Node000002"><a xlink:title=" ">
<path fill="none" stroke="#63b8ff" d="M156.05,-331.08C108.94,-317.98 38,-288.77 38,-231.62 38,-231.62 38,-231.62 38,-174.38 38,-143.55 45.03,-133.98 65,-110.5 75.82,-97.77 91.21,-87.49 104.89,-80.02"/>
<polygon fill="#63b8ff" stroke="#63b8ff" points="106.29,-83.24 113.58,-75.55 103.08,-77.01 106.29,-83.24"/>
</a>
</g>
</g>
<!-- Node3 -->
<g id="Node000003" class="node">
<title>Node3</title>
<g id="a_Node000003"><a xlink:title=" ">
<polygon fill="#e0e0e0" stroke="#999999" points="216.75,-19.25 163.25,-19.25 163.25,0 216.75,0 216.75,-19.25"/>
<text text-anchor="middle" x="190" y="-5.75" font-family="Helvetica,sans-Serif" font-size="10.00">iostream</text>
</a>
</g>
</g>
<!-- Node1&#45;&gt;Node3 -->
<g id="edge18_Node000001_Node000003" class="edge">
<title>Node1&#45;&gt;Node3</title>
<g id="a_edge18_Node000001_Node000003"><a xlink:title=" ">
<path fill="none" stroke="#63b8ff" d="M129.2,-331.05C72.22,-319.15 0,-292.15 0,-231.62 0,-231.62 0,-231.62 0,-119.12 0,-49.97 96.09,-24.3 151.6,-15.24"/>
<polygon fill="#63b8ff" stroke="#63b8ff" points="151.92,-18.74 161.28,-13.78 150.87,-11.81 151.92,-18.74"/>
</a>
</g>
</g>
<!-- Node4 -->
<g id="Node000004" class="node">
<title>Node4</title>
<g id="a_Node000004"><a xlink:href="_plane_8h.html" target="_top" xlink:title=" ">
<polygon fill="white" stroke="#666666" points="123.5,-129.75 74.5,-129.75 74.5,-110.5 123.5,-110.5 123.5,-129.75"/>
<text text-anchor="middle" x="99" y="-116.25" font-family="Helvetica,sans-Serif" font-size="10.00">Plane.h</text>
</a>
</g>
</g>
<!-- Node1&#45;&gt;Node4 -->
<g id="edge3_Node000001_Node000004" class="edge">
<title>Node1&#45;&gt;Node4</title>
<g id="a_edge3_Node000001_Node000004"><a xlink:title=" ">
<path fill="none" stroke="#63b8ff" d="M184.01,-331.29C172.98,-323.17 157.49,-310.19 148,-295.5 116.08,-246.08 104.64,-175.76 100.8,-141.48"/>
<polygon fill="#63b8ff" stroke="#63b8ff" points="104.3,-141.34 99.82,-131.73 97.34,-142.03 104.3,-141.34"/>
</a>
</g>
</g>
<!-- Node5 -->
<g id="Node000005" class="node">
<title>Node5</title>
<g id="a_Node000005"><a xlink:href="_section_8h.html" target="_top" xlink:title=" ">
<polygon fill="white" stroke="#666666" points="199.62,-185 142.38,-185 142.38,-165.75 199.62,-165.75 199.62,-185"/>
<text text-anchor="middle" x="171" y="-171.5" font-family="Helvetica,sans-Serif" font-size="10.00">Section.h</text>
</a>
</g>
</g>
<!-- Node1&#45;&gt;Node5 -->
<g id="edge5_Node000001_Node000005" class="edge">
<title>Node1&#45;&gt;Node5</title>
<g id="a_edge5_Node000001_Node000005"><a xlink:title=" ">
<path fill="none" stroke="#63b8ff" d="M189.01,-331.04C174.99,-314.43 146.45,-277.41 136,-240.25 133.68,-232.01 133.21,-229.09 136,-221 139.47,-210.94 146.25,-201.43 152.92,-193.78"/>
<polygon fill="#63b8ff" stroke="#63b8ff" points="155.41,-196.25 159.74,-186.58 150.33,-191.44 155.41,-196.25"/>
</a>
</g>
</g>
<!-- Node6 -->
<g id="Node000006" class="node">
<title>Node6</title>
<g id="a_Node000006"><a xlink:href="_s_t_l_file_8h.html" target="_top" xlink:title=" ">
<polygon fill="white" stroke="#666666" points="255,-295.5 197,-295.5 197,-276.25 255,-276.25 255,-295.5"/>
<text text-anchor="middle" x="226" y="-282" font-family="Helvetica,sans-Serif" font-size="10.00">STLFile.h</text>
</a>
</g>
</g>
<!-- Node1&#45;&gt;Node6 -->
<g id="edge9_Node000001_Node000006" class="edge">
<title>Node1&#45;&gt;Node6</title>
<g id="a_edge9_Node000001_Node000006"><a xlink:title=" ">
<path fill="none" stroke="#63b8ff" d="M201.79,-331.33C205.54,-324.44 210.91,-314.59 215.63,-305.91"/>
<polygon fill="#63b8ff" stroke="#63b8ff" points="218.67,-307.64 220.38,-297.19 212.53,-304.3 218.67,-307.64"/>
</a>
</g>
</g>
<!-- Node8 -->
<g id="Node000008" class="node">
<title>Node8</title>
<g id="a_Node000008"><a xlink:title=" ">
<polygon fill="#e0e0e0" stroke="#999999" points="465.5,-240.25 422.5,-240.25 422.5,-221 465.5,-221 465.5,-240.25"/>
<text text-anchor="middle" x="444" y="-226.75" font-family="Helvetica,sans-Serif" font-size="10.00">vector</text>
</a>
</g>
</g>
<!-- Node1&#45;&gt;Node8 -->
<g id="edge19_Node000001_Node000008" class="edge">
<title>Node1&#45;&gt;Node8</title>
<g id="a_edge19_Node000001_Node000008"><a xlink:title=" ">
<path fill="none" stroke="#63b8ff" d="M243.86,-331.02C275.63,-323.82 318.04,-312.18 353,-295.5 379.9,-282.66 407.45,-262.07 425.09,-247.75"/>
<polygon fill="#63b8ff" stroke="#63b8ff" points="427.17,-250.58 432.63,-241.5 422.7,-245.19 427.17,-250.58"/>
</a>
</g>
</g>
<!-- Node9 -->
<g id="Node000009" class="node">
<title>Node9</title>
<g id="a_Node000009"><a xlink:href="_facet_8h.html" target="_top" xlink:title=" ">
<polygon fill="white" stroke="#666666" points="193.5,-240.25 144.5,-240.25 144.5,-221 193.5,-221 193.5,-240.25"/>
<text text-anchor="middle" x="169" y="-226.75" font-family="Helvetica,sans-Serif" font-size="10.00">Facet.h</text>
</a>
</g>
</g>
<!-- Node1&#45;&gt;Node9 -->
<g id="edge17_Node000001_Node000009" class="edge">
<title>Node1&#45;&gt;Node9</title>
<g id="a_edge17_Node000001_Node000009"><a xlink:title=" ">
<path fill="none" stroke="#63b8ff" d="M194.71,-331.25C190.24,-313.92 180.25,-275.23 174.13,-251.49"/>
<polygon fill="#63b8ff" stroke="#63b8ff" points="177.59,-250.9 171.7,-242.09 170.81,-252.65 177.59,-250.9"/>
</a>
</g>
</g>
<!-- Node10 -->
<g id="Node000010" class="node">
<title>Node10</title>
<g id="a_Node000010"><a xlink:href="_gcode_8h.html" target="_top" xlink:title=" ">
<polygon fill="white" stroke="#666666" points="344.38,-295.5 291.62,-295.5 291.62,-276.25 344.38,-276.25 344.38,-295.5"/>
<text text-anchor="middle" x="318" y="-282" font-family="Helvetica,sans-Serif" font-size="10.00">Gcode.h</text>
</a>
</g>
</g>
<!-- Node1&#45;&gt;Node10 -->
<g id="edge20_Node000001_Node000010" class="edge">
<title>Node1&#45;&gt;Node10</title>
<g id="a_edge20_Node000001_Node000010"><a xlink:title=" ">
<path fill="none" stroke="#63b8ff" d="M217.53,-331.09C236.56,-322.72 265.15,-310.13 286.97,-300.53"/>
<polygon fill="#63b8ff" stroke="#63b8ff" points="288.24,-303.79 295.99,-296.56 285.43,-297.39 288.24,-303.79"/>
</a>
</g>
</g>
<!-- Node11 -->
<g id="Node000011" class="node">
<title>Node11</title>
<g id="a_Node000011"><a xlink:title=" ">
<polygon fill="#e0e0e0" stroke="#999999" points="532.5,-240.25 483.5,-240.25 483.5,-221 532.5,-221 532.5,-240.25"/>
<text text-anchor="middle" x="508" y="-226.75" font-family="Helvetica,sans-Serif" font-size="10.00">fstream</text>
</a>
</g>
</g>
<!-- Node1&#45;&gt;Node11 -->
<g id="edge28_Node000001_Node000011" class="edge">
<title>Node1&#45;&gt;Node11</title>
<g id="a_edge28_Node000001_Node000011"><a xlink:title=" ">
<path fill="none" stroke="#63b8ff" d="M248.59,-331.03C286.24,-323.59 338.13,-311.66 382,-295.5 418.65,-282 458.46,-260.58 483.32,-246.31"/>
<polygon fill="#63b8ff" stroke="#63b8ff" points="484.81,-249.5 491.69,-241.44 481.29,-243.44 484.81,-249.5"/>
</a>
</g>
</g>
<!-- Node12 -->
<g id="Node000012" class="node">
<title>Node12</title>
<g id="a_Node000012"><a xlink:title=" ">
<polygon fill="#e0e0e0" stroke="#999999" points="481.5,-295.5 438.5,-295.5 438.5,-276.25 481.5,-276.25 481.5,-295.5"/>
<text text-anchor="middle" x="460" y="-282" font-family="Helvetica,sans-Serif" font-size="10.00">cmath</text>
</a>
</g>
</g>
<!-- Node1&#45;&gt;Node12 -->
<g id="edge29_Node000001_Node000012" class="edge">
<title>Node1&#45;&gt;Node12</title>
<g id="a_edge29_Node000001_Node000012"><a xlink:title=" ">
<path fill="none" stroke="#63b8ff" d="M246.27,-331.04C292.33,-322.41 362.98,-308.8 424,-295.5 425.16,-295.25 426.34,-294.99 427.54,-294.72"/>
<polygon fill="#63b8ff" stroke="#63b8ff" points="427.9,-298.23 436.86,-292.56 426.32,-291.41 427.9,-298.23"/>
</a>
</g>
</g>
<!-- Node2&#45;&gt;Node3 -->
<g id="edge2_Node000002_Node000003" class="edge">
<title>Node2&#45;&gt;Node3</title>
<g id="a_edge2_Node000002_Node000003"><a xlink:title=" ">
<path fill="none" stroke="#63b8ff" d="M144.92,-55.08C152.45,-47.65 163.47,-36.79 172.73,-27.66"/>
<polygon fill="#63b8ff" stroke="#63b8ff" points="175.15,-30.19 179.81,-20.67 170.23,-25.2 175.15,-30.19"/>
</a>
</g>
</g>
<!-- Node4&#45;&gt;Node2 -->
<g id="edge4_Node000004_Node000002" class="edge">
<title>Node4&#45;&gt;Node2</title>
<g id="a_edge4_Node000004_Node000002"><a xlink:title=" ">
<path fill="none" stroke="#63b8ff" d="M105.11,-110.33C110.06,-103.21 117.2,-92.93 123.37,-84.05"/>
<polygon fill="#63b8ff" stroke="#63b8ff" points="126.06,-86.31 128.89,-76.1 120.31,-82.32 126.06,-86.31"/>
</a>
</g>
</g>
<!-- Node5&#45;&gt;Node2 -->
<g id="edge6_Node000005_Node000002" class="edge">
<title>Node5&#45;&gt;Node2</title>
<g id="a_edge6_Node000005_Node000002"><a xlink:title=" ">
<path fill="none" stroke="#63b8ff" d="M168.14,-165.5C162.55,-148.17 150.07,-109.48 142.41,-85.74"/>
<polygon fill="#63b8ff" stroke="#63b8ff" points="145.77,-84.76 139.37,-76.32 139.11,-86.91 145.77,-84.76"/>
</a>
</g>
</g>
<!-- Node5&#45;&gt;Node3 -->
<g id="edge8_Node000005_Node000003" class="edge">
<title>Node5&#45;&gt;Node3</title>
<g id="a_edge8_Node000005_Node000003"><a xlink:title=" ">
<path fill="none" stroke="#63b8ff" d="M172.02,-165.57C174.96,-140.25 183.49,-66.75 187.65,-30.84"/>
<polygon fill="#63b8ff" stroke="#63b8ff" points="191.12,-31.31 188.8,-20.98 184.17,-30.51 191.12,-31.31"/>
</a>
</g>
</g>
<!-- Node5&#45;&gt;Node4 -->
<g id="edge7_Node000005_Node000004" class="edge">
<title>Node5&#45;&gt;Node4</title>
<g id="a_edge7_Node000005_Node000004"><a xlink:title=" ">
<path fill="none" stroke="#63b8ff" d="M158.79,-165.34C148.17,-157.49 132.56,-145.95 119.96,-136.62"/>
<polygon fill="#63b8ff" stroke="#63b8ff" points="122.37,-134.06 112.25,-130.92 118.21,-139.69 122.37,-134.06"/>
</a>
</g>
</g>
<!-- Node6&#45;&gt;Node3 -->
<g id="edge11_Node000006_Node000003" class="edge">
<title>Node6&#45;&gt;Node3</title>
<g id="a_edge11_Node000006_Node000003"><a xlink:title=" ">
<path fill="none" stroke="#63b8ff" d="M226.46,-275.87C227.34,-255.94 228.78,-206.63 224,-165.75 218.23,-116.39 203.73,-59.63 195.65,-30.37"/>
<polygon fill="#63b8ff" stroke="#63b8ff" points="199.12,-29.75 193.04,-21.07 192.38,-31.64 199.12,-29.75"/>
</a>
</g>
</g>
<!-- Node7 -->
<g id="Node000007" class="node">
<title>Node7</title>
<g id="a_Node000007"><a xlink:title=" ">
<polygon fill="#e0e0e0" stroke="#999999" points="290,-240.25 250,-240.25 250,-221 290,-221 290,-240.25"/>
<text text-anchor="middle" x="270" y="-226.75" font-family="Helvetica,sans-Serif" font-size="10.00">string</text>
</a>
</g>
</g>
<!-- Node6&#45;&gt;Node7 -->
<g id="edge10_Node000006_Node000007" class="edge">
<title>Node6&#45;&gt;Node7</title>
<g id="a_edge10_Node000006_Node000007"><a xlink:title=" ">
<path fill="none" stroke="#63b8ff" d="M233.27,-276.08C239.28,-268.8 248.01,-258.23 255.46,-249.23"/>
<polygon fill="#63b8ff" stroke="#63b8ff" points="257.94,-251.71 261.61,-241.78 252.54,-247.26 257.94,-251.71"/>
</a>
</g>
</g>
<!-- Node6&#45;&gt;Node8 -->
<g id="edge12_Node000006_Node000008" class="edge">
<title>Node6&#45;&gt;Node8</title>
<g id="a_edge12_Node000006_Node000008"><a xlink:title=" ">
<path fill="none" stroke="#63b8ff" d="M255.4,-277.69C295.98,-267.78 368.93,-249.96 411.22,-239.63"/>
<polygon fill="#63b8ff" stroke="#63b8ff" points="411.93,-243.06 420.81,-237.29 410.27,-236.26 411.93,-243.06"/>
</a>
</g>
</g>
<!-- Node6&#45;&gt;Node9 -->
<g id="edge13_Node000006_Node000009" class="edge">
<title>Node6&#45;&gt;Node9</title>
<g id="a_edge13_Node000006_Node000009"><a xlink:title=" ">
<path fill="none" stroke="#63b8ff" d="M216.33,-275.84C208.26,-268.3 196.53,-257.35 186.78,-248.23"/>
<polygon fill="#63b8ff" stroke="#63b8ff" points="189.33,-245.83 179.63,-241.56 184.55,-250.94 189.33,-245.83"/>
</a>
</g>
</g>
<!-- Node9&#45;&gt;Node2 -->
<g id="edge14_Node000009_Node000002" class="edge">
<title>Node9&#45;&gt;Node2</title>
<g id="a_edge14_Node000009_Node000002"><a xlink:title=" ">
<path fill="none" stroke="#63b8ff" d="M181.03,-220.51C190.65,-212.39 203.42,-199.58 209,-185 212.06,-177.01 211.66,-173.88 209,-165.75 198.17,-132.59 171.7,-101.3 153.79,-82.86"/>
<polygon fill="#63b8ff" stroke="#63b8ff" points="156.42,-80.54 146.87,-75.96 151.48,-85.5 156.42,-80.54"/>
</a>
</g>
</g>
<!-- Node9&#45;&gt;Node4 -->
<g id="edge15_Node000009_Node000004" class="edge">
<title>Node9&#45;&gt;Node4</title>
<g id="a_edge15_Node000009_Node000004"><a xlink:title=" ">
<path fill="none" stroke="#63b8ff" d="M161.02,-220.78C153.35,-212.04 141.67,-198.12 133,-185 123.46,-170.57 114.35,-153.19 107.97,-140.2"/>
<polygon fill="#63b8ff" stroke="#63b8ff" points="111.25,-138.97 103.77,-131.47 104.95,-142 111.25,-138.97"/>
</a>
</g>
</g>
<!-- Node9&#45;&gt;Node5 -->
<g id="edge16_Node000009_Node000005" class="edge">
<title>Node9&#45;&gt;Node5</title>
<g id="a_edge16_Node000009_Node000005"><a xlink:title=" ">
<path fill="none" stroke="#63b8ff" d="M169.33,-220.83C169.58,-214.24 169.93,-204.96 170.24,-196.57"/>
<polygon fill="#63b8ff" stroke="#63b8ff" points="173.73,-197 170.61,-186.87 166.73,-196.73 173.73,-197"/>
</a>
</g>
</g>
<!-- Node10&#45;&gt;Node2 -->
<g id="edge24_Node000010_Node000002" class="edge">
<title>Node10&#45;&gt;Node2</title>
<g id="a_edge24_Node000010_Node000002"><a xlink:title=" ">
<path fill="none" stroke="#63b8ff" d="M320.12,-276.16C322.76,-263.43 326.02,-239.28 318,-221 287.72,-151.95 208.81,-102.8 165.5,-80.07"/>
<polygon fill="#63b8ff" stroke="#63b8ff" points="167.16,-76.98 156.66,-75.55 163.97,-83.22 167.16,-76.98"/>
</a>
</g>
</g>
<!-- Node10&#45;&gt;Node3 -->
<g id="edge21_Node000010_Node000003" class="edge">
<title>Node10&#45;&gt;Node3</title>
<g id="a_edge21_Node000010_Node000003"><a xlink:title=" ">
<path fill="none" stroke="#63b8ff" d="M330.21,-275.94C351.69,-259.08 394,-220.3 394,-176.38 394,-176.38 394,-176.38 394,-119.12 394,-44.85 287.28,-21.26 228.22,-13.89"/>
<polygon fill="#63b8ff" stroke="#63b8ff" points="228.93,-10.45 218.59,-12.79 228.13,-17.4 228.93,-10.45"/>
</a>
</g>
</g>
<!-- Node10&#45;&gt;Node5 -->
<g id="edge23_Node000010_Node000005" class="edge">
<title>Node10&#45;&gt;Node5</title>
<g id="a_edge23_Node000010_Node000005"><a xlink:title=" ">
<path fill="none" stroke="#63b8ff" d="M317.8,-275.77C317.01,-262.09 313.54,-236.23 299,-221 276,-196.91 239.32,-185.82 211.11,-180.72"/>
<polygon fill="#63b8ff" stroke="#63b8ff" points="211.91,-177.3 201.48,-179.17 210.8,-184.21 211.91,-177.3"/>
</a>
</g>
</g>
<!-- Node10&#45;&gt;Node7 -->
<g id="edge27_Node000010_Node000007" class="edge">
<title>Node10&#45;&gt;Node7</title>
<g id="a_edge27_Node000010_Node000007"><a xlink:title=" ">
<path fill="none" stroke="#63b8ff" d="M310.07,-276.08C303.44,-268.73 293.78,-258.01 285.61,-248.94"/>
<polygon fill="#63b8ff" stroke="#63b8ff" points="288.41,-246.82 279.11,-241.73 283.21,-251.5 288.41,-246.82"/>
</a>
</g>
</g>
<!-- Node10&#45;&gt;Node8 -->
<g id="edge22_Node000010_Node000008" class="edge">
<title>Node10&#45;&gt;Node8</title>
<g id="a_edge22_Node000010_Node000008"><a xlink:title=" ">
<path fill="none" stroke="#63b8ff" d="M339.37,-275.84C359.29,-267.43 389.24,-254.77 412,-245.15"/>
<polygon fill="#63b8ff" stroke="#63b8ff" points="413.28,-248.41 421.13,-241.29 410.55,-241.96 413.28,-248.41"/>
</a>
</g>
</g>
<!-- Node10&#45;&gt;Node9 -->
<g id="edge25_Node000010_Node000009" class="edge">
<title>Node10&#45;&gt;Node9</title>
<g id="a_edge25_Node000010_Node000009"><a xlink:title=" ">
<path fill="none" stroke="#63b8ff" d="M292.72,-275.84C268.5,-267.18 231.7,-254.03 204.53,-244.32"/>
<polygon fill="#63b8ff" stroke="#63b8ff" points="205.92,-241.1 195.33,-241.03 203.57,-247.7 205.92,-241.1"/>
</a>
</g>
</g>
<!-- Node10&#45;&gt;Node11 -->
<g id="edge26_Node000010_Node000011" class="edge">
<title>Node10&#45;&gt;Node11</title>
<g id="a_edge26_Node000010_Node000011"><a xlink:title=" ">
<path fill="none" stroke="#63b8ff" d="M344.82,-277.36C378.19,-268.01 435.29,-252 472.33,-241.62"/>
<polygon fill="#63b8ff" stroke="#63b8ff" points="472.99,-245.07 481.67,-239 471.1,-238.33 472.99,-245.07"/>
</a>
</g>
</g>
</g>
</svg>
