<?xml version="1.0" encoding="UTF-8" standalone="no"?>
<!DOCTYPE svg PUBLIC "-//W3C//DTD SVG 1.1//EN"
 "http://www.w3.org/Graphics/SVG/1.1/DTD/svg11.dtd">
<!-- Generated by graphviz version 10.0.1 (20240210.2158)
 -->
<!-- Title: main Pages: 1 -->
<svg width="358pt" height="325pt"
 viewBox="0.00 0.00 358.25 325.25" xmlns="http://www.w3.org/2000/svg" xmlns:xlink="http://www.w3.org/1999/xlink">
<g id="graph0" class="graph" transform="scale(1 1) rotate(0) translate(4 321.25)">
<title>main</title>
<!-- Node1 -->
<g id="Node000001" class="node">
<title>Node1</title>
<g id="a_Node000001"><a xlink:title="The main function of the program.">
<polygon fill="#999999" stroke="#666666" points="37,-167.25 0,-167.25 0,-148 37,-148 37,-167.25"/>
<text text-anchor="middle" x="18.5" y="-153.75" font-family="Helvetica,sans-Serif" font-size="10.00">main</text>
</a>
</g>
</g>
<!-- Node2 -->
<g id="Node000002" class="node">
<title>Node2</title>
<g id="a_Node000002"><a xlink:href="class_gcode.html#acb2a2d7d8b7166081e44d4466cf87e50" target="_top" xlink:title=" ">
<polygon fill="white" stroke="#666666" points="191.38,-317.25 86.88,-317.25 86.88,-298 191.38,-298 191.38,-317.25"/>
<text text-anchor="middle" x="139.12" y="-303.75" font-family="Helvetica,sans-Serif" font-size="10.00">Gcode::CloseGcode</text>
</a>
</g>
</g>
<!-- Node1&#45;&gt;Node2 -->
<g id="edge1_Node000001_Node000002" class="edge">
<title>Node1&#45;&gt;Node2</title>
<g id="a_edge1_Node000001_Node000002"><a xlink:title=" ">
<path fill="none" stroke="#63b8ff" d="M20.56,-167.6C23.72,-192.17 35.33,-256.07 73,-289.62 74.26,-290.75 75.58,-291.8 76.96,-292.79"/>
<polygon fill="#63b8ff" stroke="#63b8ff" points="74.97,-295.68 85.38,-297.65 78.47,-289.62 74.97,-295.68"/>
</a>
</g>
</g>
<!-- Node3 -->
<g id="Node000003" class="node">
<title>Node3</title>
<g id="a_Node000003"><a xlink:href="class_vector.html#a23b5e0009c60a2b15a6b5dedf06aadcf" target="_top" xlink:title="Calculates the cross product of two Vectors.">
<polygon fill="white" stroke="#666666" points="176.38,-280.25 101.88,-280.25 101.88,-261 176.38,-261 176.38,-280.25"/>
<text text-anchor="middle" x="139.12" y="-266.75" font-family="Helvetica,sans-Serif" font-size="10.00">Vector::cross</text>
</a>
</g>
</g>
<!-- Node1&#45;&gt;Node3 -->
<g id="edge2_Node000001_Node000003" class="edge">
<title>Node1&#45;&gt;Node3</title>
<g id="a_edge2_Node000001_Node000003"><a xlink:title=" ">
<path fill="none" stroke="#63b8ff" d="M22.97,-167.68C29.75,-185.93 46.47,-224.67 73,-246.62 78.42,-251.11 84.76,-254.8 91.31,-257.82"/>
<polygon fill="#63b8ff" stroke="#63b8ff" points="89.7,-260.95 100.29,-261.47 92.34,-254.46 89.7,-260.95"/>
</a>
</g>
</g>
<!-- Node5 -->
<g id="Node000005" class="node">
<title>Node5</title>
<g id="a_Node000005"><a xlink:href="class_vector.html#adde9f0c3b971af3446d7414a0463a01f" target="_top" xlink:title="Calculates the dot product of two Vectors.">
<polygon fill="white" stroke="#666666" points="327.75,-242.25 263.75,-242.25 263.75,-223 327.75,-223 327.75,-242.25"/>
<text text-anchor="middle" x="295.75" y="-228.75" font-family="Helvetica,sans-Serif" font-size="10.00">Vector::dot</text>
</a>
</g>
</g>
<!-- Node1&#45;&gt;Node5 -->
<g id="edge4_Node000001_Node000005" class="edge">
<title>Node1&#45;&gt;Node5</title>
<g id="a_edge4_Node000001_Node000005"><a xlink:title=" ">
<path fill="none" stroke="#63b8ff" d="M25.66,-167.62C34.37,-180.76 51.66,-203.4 73,-213.62 130.38,-241.12 205.69,-241.1 252.12,-237.59"/>
<polygon fill="#63b8ff" stroke="#63b8ff" points="252.39,-241.08 262.05,-236.74 251.79,-234.11 252.39,-241.08"/>
</a>
</g>
</g>
<!-- Node6 -->
<g id="Node000006" class="node">
<title>Node6</title>
<g id="a_Node000006"><a xlink:href="class_vector.html#a60195b4feaa74f1578c0f4f984dce081" target="_top" xlink:title="Returns the length of the Vector.">
<polygon fill="white" stroke="#666666" points="185.75,-204.25 92.5,-204.25 92.5,-185 185.75,-185 185.75,-204.25"/>
<text text-anchor="middle" x="139.12" y="-190.75" font-family="Helvetica,sans-Serif" font-size="10.00">Vector::getLength</text>
</a>
</g>
</g>
<!-- Node1&#45;&gt;Node6 -->
<g id="edge5_Node000001_Node000006" class="edge">
<title>Node1&#45;&gt;Node6</title>
<g id="a_edge5_Node000001_Node000006"><a xlink:title=" ">
<path fill="none" stroke="#63b8ff" d="M37.23,-164.28C47.59,-168.08 60.97,-172.83 73,-176.62 78.11,-178.24 83.48,-179.85 88.84,-181.41"/>
<polygon fill="#63b8ff" stroke="#63b8ff" points="87.73,-184.73 98.31,-184.1 89.65,-178 87.73,-184.73"/>
</a>
</g>
</g>
<!-- Node7 -->
<g id="Node000007" class="node">
<title>Node7</title>
<g id="a_Node000007"><a xlink:href="class_section.html#a835a554a53f6b51ef859a2b82c81aa87" target="_top" xlink:title="Calculates the intersection point between the section and a plane.">
<polygon fill="white" stroke="#666666" points="205.25,-167.25 73,-167.25 73,-148 205.25,-148 205.25,-167.25"/>
<text text-anchor="middle" x="139.12" y="-153.75" font-family="Helvetica,sans-Serif" font-size="10.00">Section::PlaneInterSection</text>
</a>
</g>
</g>
<!-- Node1&#45;&gt;Node7 -->
<g id="edge6_Node000001_Node000007" class="edge">
<title>Node1&#45;&gt;Node7</title>
<g id="a_edge6_Node000001_Node000007"><a xlink:title=" ">
<path fill="none" stroke="#63b8ff" d="M37.26,-157.62C44.08,-157.62 52.36,-157.62 61.23,-157.62"/>
<polygon fill="#63b8ff" stroke="#63b8ff" points="61.18,-161.13 71.18,-157.63 61.18,-154.13 61.18,-161.13"/>
</a>
</g>
</g>
<!-- Node10 -->
<g id="Node000010" class="node">
<title>Node10</title>
<g id="a_Node000010"><a xlink:href="class_s_t_l_file.html#a459673a6261deda3fc8b820d03a7570b" target="_top" xlink:title="Reads the STL file in binary or text format.">
<polygon fill="white" stroke="#666666" points="193.25,-130.25 85,-130.25 85,-111 193.25,-111 193.25,-130.25"/>
<text text-anchor="middle" x="139.12" y="-116.75" font-family="Helvetica,sans-Serif" font-size="10.00">STLFile::readSTLFile</text>
</a>
</g>
</g>
<!-- Node1&#45;&gt;Node10 -->
<g id="edge10_Node000001_Node000010" class="edge">
<title>Node1&#45;&gt;Node10</title>
<g id="a_edge10_Node000001_Node000010"><a xlink:title=" ">
<path fill="none" stroke="#63b8ff" d="M37.23,-150.97C47.59,-147.17 60.97,-142.42 73,-138.62 78.11,-137.01 83.48,-135.4 88.84,-133.84"/>
<polygon fill="#63b8ff" stroke="#63b8ff" points="89.65,-137.25 98.31,-131.15 87.73,-130.52 89.65,-137.25"/>
</a>
</g>
</g>
<!-- Node14 -->
<g id="Node000014" class="node">
<title>Node14</title>
<g id="a_Node000014"><a xlink:href="class_gcode.html#a3f051399be4a1bb32bbc03740d2a0ebb" target="_top" xlink:title="Sorts the sections in order to create a continuous path for the printer.">
<polygon fill="white" stroke="#666666" points="192.5,-93.25 85.75,-93.25 85.75,-74 192.5,-74 192.5,-93.25"/>
<text text-anchor="middle" x="139.12" y="-79.75" font-family="Helvetica,sans-Serif" font-size="10.00">Gcode::SortSections</text>
</a>
</g>
</g>
<!-- Node1&#45;&gt;Node14 -->
<g id="edge14_Node000001_Node000014" class="edge">
<title>Node1&#45;&gt;Node14</title>
<g id="a_edge14_Node000001_Node000014"><a xlink:title=" ">
<path fill="none" stroke="#63b8ff" d="M26.27,-147.76C35.42,-135.19 52.92,-113.63 73,-101.62 75.04,-100.4 77.18,-99.26 79.36,-98.19"/>
<polygon fill="#63b8ff" stroke="#63b8ff" points="80.69,-101.43 88.55,-94.32 77.97,-94.98 80.69,-101.43"/>
</a>
</g>
</g>
<!-- Node15 -->
<g id="Node000015" class="node">
<title>Node15</title>
<g id="a_Node000015"><a xlink:href="class_gcode.html#a3d4960312d3f002aca9a4abc432e8112" target="_top" xlink:title="Writes one layer of the sliced 3D model into gcode.">
<polygon fill="white" stroke="#666666" points="189.12,-56.25 89.12,-56.25 89.12,-37 189.12,-37 189.12,-56.25"/>
<text text-anchor="middle" x="139.12" y="-42.75" font-family="Helvetica,sans-Serif" font-size="10.00">Gcode::StartGcode</text>
</a>
</g>
</g>
<!-- Node1&#45;&gt;Node15 -->
<g id="edge15_Node000001_Node000015" class="edge">
<title>Node1&#45;&gt;Node15</title>
<g id="a_edge15_Node000001_Node000015"><a xlink:title=" ">
<path fill="none" stroke="#63b8ff" d="M22.46,-147.5C28.61,-128.32 44.58,-86.64 73,-64.62 74.77,-63.25 76.65,-61.98 78.59,-60.81"/>
<polygon fill="#63b8ff" stroke="#63b8ff" points="80.07,-63.98 87.47,-56.39 76.95,-57.71 80.07,-63.98"/>
</a>
</g>
</g>
<!-- Node16 -->
<g id="Node000016" class="node">
<title>Node16</title>
<g id="a_Node000016"><a xlink:href="class_gcode.html#aa7d93cf741b2417001a4bec84ae69a0a" target="_top" xlink:title=" ">
<polygon fill="white" stroke="#666666" points="189.88,-19.25 88.38,-19.25 88.38,0 189.88,0 189.88,-19.25"/>
<text text-anchor="middle" x="139.12" y="-5.75" font-family="Helvetica,sans-Serif" font-size="10.00">Gcode::WriteGcode</text>
</a>
</g>
</g>
<!-- Node1&#45;&gt;Node16 -->
<g id="edge16_Node000001_Node000016" class="edge">
<title>Node1&#45;&gt;Node16</title>
<g id="a_edge16_Node000001_Node000016"><a xlink:title=" ">
<path fill="none" stroke="#63b8ff" d="M20.61,-147.8C23.89,-123.59 35.73,-60.64 73,-27.62 74.65,-26.17 76.4,-24.82 78.24,-23.59"/>
<polygon fill="#63b8ff" stroke="#63b8ff" points="79.57,-26.85 86.68,-19 76.22,-20.7 79.57,-26.85"/>
</a>
</g>
</g>
<!-- Node4 -->
<g id="Node000004" class="node">
<title>Node4</title>
<g id="a_Node000004"><a xlink:href="class_vector.html#aae7788ced072bf8f5bb4b0fcb6fb6ad2" target="_top" xlink:title="Constructor for the Vector class.">
<polygon fill="white" stroke="#666666" points="335.25,-280.25 256.25,-280.25 256.25,-261 335.25,-261 335.25,-280.25"/>
<text text-anchor="middle" x="295.75" y="-266.75" font-family="Helvetica,sans-Serif" font-size="10.00">Vector::Vector</text>
</a>
</g>
</g>
<!-- Node3&#45;&gt;Node4 -->
<g id="edge3_Node000003_Node000004" class="edge">
<title>Node3&#45;&gt;Node4</title>
<g id="a_edge3_Node000003_Node000004"><a xlink:title=" ">
<path fill="none" stroke="#63b8ff" d="M176.77,-270.62C197.07,-270.62 222.61,-270.62 244.73,-270.62"/>
<polygon fill="#63b8ff" stroke="#63b8ff" points="244.43,-274.13 254.43,-270.63 244.43,-267.13 244.43,-274.13"/>
</a>
</g>
</g>
<!-- Node7&#45;&gt;Node5 -->
<g id="edge7_Node000007_Node000005" class="edge">
<title>Node7&#45;&gt;Node5</title>
<g id="a_edge7_Node000007_Node000005"><a xlink:title=" ">
<path fill="none" stroke="#63b8ff" d="M188.32,-167.71C194.23,-169.88 200.02,-172.48 205.25,-175.62 225.19,-187.61 221.75,-200.94 241.25,-213.62 244.91,-216.01 248.9,-218.13 253.01,-220.02"/>
<polygon fill="#63b8ff" stroke="#63b8ff" points="251.33,-223.11 261.91,-223.66 253.98,-216.63 251.33,-223.11"/>
</a>
</g>
</g>
<!-- Node8 -->
<g id="Node000008" class="node">
<title>Node8</title>
<g id="a_Node000008"><a xlink:href="class_plane.html#afc07a77fb09621deceedc9f855787bf1" target="_top" xlink:title="Gets the normal vector of the plane.">
<polygon fill="white" stroke="#666666" points="341.62,-204.25 249.88,-204.25 249.88,-185 341.62,-185 341.62,-204.25"/>
<text text-anchor="middle" x="295.75" y="-190.75" font-family="Helvetica,sans-Serif" font-size="10.00">Plane::getNormal</text>
</a>
</g>
</g>
<!-- Node7&#45;&gt;Node8 -->
<g id="edge8_Node000007_Node000008" class="edge">
<title>Node7&#45;&gt;Node8</title>
<g id="a_edge8_Node000007_Node000008"><a xlink:title=" ">
<path fill="none" stroke="#63b8ff" d="M182.38,-167.74C200.62,-172.1 222.16,-177.25 241.47,-181.88"/>
<polygon fill="#63b8ff" stroke="#63b8ff" points="240.54,-185.25 251.08,-184.17 242.17,-178.44 240.54,-185.25"/>
</a>
</g>
</g>
<!-- Node9 -->
<g id="Node000009" class="node">
<title>Node9</title>
<g id="a_Node000009"><a xlink:href="class_plane.html#aa6f76844fc03732fb917012dc3de43dc" target="_top" xlink:title="Gets the reference point of the plane.">
<polygon fill="white" stroke="#666666" points="333.75,-167.25 257.75,-167.25 257.75,-148 333.75,-148 333.75,-167.25"/>
<text text-anchor="middle" x="295.75" y="-153.75" font-family="Helvetica,sans-Serif" font-size="10.00">Plane::getRef</text>
</a>
</g>
</g>
<!-- Node7&#45;&gt;Node9 -->
<g id="edge9_Node000007_Node000009" class="edge">
<title>Node7&#45;&gt;Node9</title>
<g id="a_edge9_Node000007_Node000009"><a xlink:title=" ">
<path fill="none" stroke="#63b8ff" d="M205.7,-157.62C219.19,-157.62 233.16,-157.62 245.93,-157.62"/>
<polygon fill="#63b8ff" stroke="#63b8ff" points="245.75,-161.13 255.75,-157.63 245.75,-154.13 245.75,-161.13"/>
</a>
</g>
</g>
<!-- Node11 -->
<g id="Node000011" class="node">
<title>Node11</title>
<g id="a_Node000011"><a xlink:href="class_vector.html#ad90e14b6e298f246cb7a46e8a3aef6e2" target="_top" xlink:title="Converts the coordinates from float array to double.">
<polygon fill="white" stroke="#666666" points="337.12,-130.25 254.38,-130.25 254.38,-111 337.12,-111 337.12,-130.25"/>
<text text-anchor="middle" x="295.75" y="-116.75" font-family="Helvetica,sans-Serif" font-size="10.00">Vector::convert</text>
</a>
</g>
</g>
<!-- Node10&#45;&gt;Node11 -->
<g id="edge11_Node000010_Node000011" class="edge">
<title>Node10&#45;&gt;Node11</title>
<g id="a_edge11_Node000010_Node000011"><a xlink:title=" ">
<path fill="none" stroke="#63b8ff" d="M193.34,-120.62C209.37,-120.62 226.93,-120.62 242.87,-120.62"/>
<polygon fill="#63b8ff" stroke="#63b8ff" points="242.63,-124.13 252.63,-120.63 242.63,-117.13 242.63,-124.13"/>
</a>
</g>
</g>
<!-- Node12 -->
<g id="Node000012" class="node">
<title>Node12</title>
<g id="a_Node000012"><a xlink:href="class_s_t_l_file.html#a70051ce594359a89af68af24680dbd26" target="_top" xlink:title="Checks if the file is in binary STL format.">
<polygon fill="white" stroke="#666666" points="350.25,-93.25 241.25,-93.25 241.25,-74 350.25,-74 350.25,-93.25"/>
<text text-anchor="middle" x="295.75" y="-79.75" font-family="Helvetica,sans-Serif" font-size="10.00">STLFile::isBinarySTL</text>
</a>
</g>
</g>
<!-- Node10&#45;&gt;Node12 -->
<g id="edge12_Node000010_Node000012" class="edge">
<title>Node10&#45;&gt;Node12</title>
<g id="a_edge12_Node000010_Node000012"><a xlink:title=" ">
<path fill="none" stroke="#63b8ff" d="M182.38,-110.51C200.62,-106.15 222.16,-101 241.47,-96.37"/>
<polygon fill="#63b8ff" stroke="#63b8ff" points="242.17,-99.81 251.08,-94.08 240.54,-93 242.17,-99.81"/>
</a>
</g>
</g>
<!-- Node13 -->
<g id="Node000013" class="node">
<title>Node13</title>
<g id="a_Node000013"><a xlink:href="class_vector.html#a61fa9ad2db52723de0ee34ecbbe83724" target="_top" xlink:title="Reads a Vector from input stream.">
<polygon fill="white" stroke="#666666" points="330.38,-56.25 261.12,-56.25 261.12,-37 330.38,-37 330.38,-56.25"/>
<text text-anchor="middle" x="295.75" y="-42.75" font-family="Helvetica,sans-Serif" font-size="10.00">Vector::read</text>
</a>
</g>
</g>
<!-- Node10&#45;&gt;Node13 -->
<g id="edge13_Node000010_Node000013" class="edge">
<title>Node10&#45;&gt;Node13</title>
<g id="a_edge13_Node000010_Node000013"><a xlink:title=" ">
<path fill="none" stroke="#63b8ff" d="M188.32,-110.54C194.23,-108.37 200.02,-105.77 205.25,-102.62 225.19,-90.64 221.64,-77.15 241.25,-64.62 244.13,-62.79 247.22,-61.11 250.4,-59.6"/>
<polygon fill="#63b8ff" stroke="#63b8ff" points="251.5,-62.93 259.38,-55.85 248.81,-56.47 251.5,-62.93"/>
</a>
</g>
</g>
</g>
</svg>
