<?xml version="1.0" encoding="UTF-8" standalone="no"?>
<!DOCTYPE svg PUBLIC "-//W3C//DTD SVG 1.1//EN"
 "http://www.w3.org/Graphics/SVG/1.1/DTD/svg11.dtd">
<!-- Generated by graphviz version 9.0.0 (20230911.1827)
 -->
<!-- Title: C:/Users/krisz/Documents/GitHub/STL_Slicer/STL_SLICER/src/main.cpp Pages: 1 -->
<svg width="606pt" height="388pt"
 viewBox="0.00 0.00 605.50 388.00" xmlns="http://www.w3.org/2000/svg" xmlns:xlink="http://www.w3.org/1999/xlink">
<g id="graph0" class="graph" transform="scale(1 1) rotate(0) translate(4 384)">
<title>C:/Users/krisz/Documents/GitHub/STL_Slicer/STL_SLICER/src/main.cpp</title>
<!-- Node1 -->
<g id="Node000001" class="node">
<title>Node1</title>
<g id="a_Node000001"><a xlink:title=" ">
<polygon fill="#999999" stroke="#666666" points="361.38,-380 230.62,-380 230.62,-336 361.38,-336 361.38,-380"/>
<text text-anchor="start" x="238.62" y="-366.5" font-family="Helvetica,sans-Serif" font-size="10.00">C:/Users/krisz/Documents</text>
<text text-anchor="start" x="238.62" y="-354.5" font-family="Helvetica,sans-Serif" font-size="10.00">/GitHub/STL_Slicer/STL</text>
<text text-anchor="middle" x="296" y="-342.5" font-family="Helvetica,sans-Serif" font-size="10.00">_SLICER/src/main.cpp</text>
</a>
</g>
</g>
<!-- Node2 -->
<g id="Node000002" class="node">
<title>Node2</title>
<g id="a_Node000002"><a xlink:href="_vector_8h.html" target="_top" xlink:title=" ">
<polygon fill="white" stroke="#666666" points="323.38,-76 270.62,-76 270.62,-56 323.38,-56 323.38,-76"/>
<text text-anchor="middle" x="297" y="-62.5" font-family="Helvetica,sans-Serif" font-size="10.00">Vector.h</text>
</a>
</g>
</g>
<!-- Node1&#45;&gt;Node2 -->
<g id="edge1_Node000001_Node000002" class="edge">
<title>Node1&#45;&gt;Node2</title>
<g id="a_edge1_Node000001_Node000002"><a xlink:title=" ">
<path fill="none" stroke="#63b8ff" d="M261.75,-335.62C232.12,-314.18 194,-278.21 194,-235 194,-235 194,-235 194,-177 194,-133.28 237.89,-99.77 268.37,-81.76"/>
<polygon fill="#63b8ff" stroke="#63b8ff" points="269.81,-84.97 276.79,-77.01 266.36,-78.88 269.81,-84.97"/>
</a>
</g>
</g>
<!-- Node3 -->
<g id="Node000003" class="node">
<title>Node3</title>
<g id="a_Node000003"><a xlink:title=" ">
<polygon fill="#e0e0e0" stroke="#999999" points="258.75,-20 205.25,-20 205.25,0 258.75,0 258.75,-20"/>
<text text-anchor="middle" x="232" y="-6.5" font-family="Helvetica,sans-Serif" font-size="10.00">iostream</text>
</a>
</g>
</g>
<!-- Node1&#45;&gt;Node3 -->
<g id="edge18_Node000001_Node000003" class="edge">
<title>Node1&#45;&gt;Node3</title>
<g id="a_edge18_Node000001_Node000003"><a xlink:title=" ">
<path fill="none" stroke="#63b8ff" d="M230.31,-357.48C143.1,-354.27 0,-333.94 0,-235 0,-235 0,-235 0,-121 0,-36.27 127.91,-16.72 193.78,-12.27"/>
<polygon fill="#63b8ff" stroke="#63b8ff" points="193.64,-15.78 203.42,-11.71 193.24,-8.8 193.64,-15.78"/>
</a>
</g>
</g>
<!-- Node4 -->
<g id="Node000004" class="node">
<title>Node4</title>
<g id="a_Node000004"><a xlink:href="_plane_8h.html" target="_top" xlink:title=" ">
<polygon fill="white" stroke="#666666" points="385.5,-132 336.5,-132 336.5,-112 385.5,-112 385.5,-132"/>
<text text-anchor="middle" x="361" y="-118.5" font-family="Helvetica,sans-Serif" font-size="10.00">Plane.h</text>
</a>
</g>
</g>
<!-- Node1&#45;&gt;Node4 -->
<g id="edge3_Node000001_Node000004" class="edge">
<title>Node1&#45;&gt;Node4</title>
<g id="a_edge3_Node000001_Node000004"><a xlink:title=" ">
<path fill="none" stroke="#63b8ff" d="M325.33,-335.63C361.7,-306.95 421.3,-252.12 441,-188 443.61,-179.5 445.49,-175.67 441,-168 431.3,-151.41 412.99,-140.47 396.33,-133.53"/>
<polygon fill="#63b8ff" stroke="#63b8ff" points="397.74,-130.32 387.14,-130.06 395.26,-136.87 397.74,-130.32"/>
</a>
</g>
</g>
<!-- Node5 -->
<g id="Node000005" class="node">
<title>Node5</title>
<g id="a_Node000005"><a xlink:href="_section_8h.html" target="_top" xlink:title=" ">
<polygon fill="white" stroke="#666666" points="431.62,-188 374.38,-188 374.38,-168 431.62,-168 431.62,-188"/>
<text text-anchor="middle" x="403" y="-174.5" font-family="Helvetica,sans-Serif" font-size="10.00">Section.h</text>
</a>
</g>
</g>
<!-- Node1&#45;&gt;Node5 -->
<g id="edge5_Node000001_Node000005" class="edge">
<title>Node1&#45;&gt;Node5</title>
<g id="a_edge5_Node000001_Node000005"><a xlink:title=" ">
<path fill="none" stroke="#63b8ff" d="M314.82,-335.81C333.39,-314.03 361.6,-278.52 380,-244 387.67,-229.6 393.69,-212.11 397.65,-198.91"/>
<polygon fill="#63b8ff" stroke="#63b8ff" points="400.91,-200.22 400.27,-189.64 394.18,-198.31 400.91,-200.22"/>
</a>
</g>
</g>
<!-- Node6 -->
<g id="Node000006" class="node">
<title>Node6</title>
<g id="a_Node000006"><a xlink:href="_s_t_l_file_8h.html" target="_top" xlink:title=" ">
<polygon fill="white" stroke="#666666" points="127.62,-300 70.38,-300 70.38,-280 127.62,-280 127.62,-300"/>
<text text-anchor="middle" x="99" y="-286.5" font-family="Helvetica,sans-Serif" font-size="10.00">STLFile.h</text>
</a>
</g>
</g>
<!-- Node1&#45;&gt;Node6 -->
<g id="edge9_Node000001_Node000006" class="edge">
<title>Node1&#45;&gt;Node6</title>
<g id="a_edge9_Node000001_Node000006"><a xlink:title=" ">
<path fill="none" stroke="#63b8ff" d="M232.04,-335.57C201.07,-325.2 164.89,-313.08 138.09,-304.09"/>
<polygon fill="#63b8ff" stroke="#63b8ff" points="139.24,-300.79 128.65,-300.93 137.02,-307.43 139.24,-300.79"/>
</a>
</g>
</g>
<!-- Node8 -->
<g id="Node000008" class="node">
<title>Node8</title>
<g id="a_Node000008"><a xlink:title=" ">
<polygon fill="#e0e0e0" stroke="#999999" points="165.75,-244 124.25,-244 124.25,-224 165.75,-224 165.75,-244"/>
<text text-anchor="middle" x="145" y="-230.5" font-family="Helvetica,sans-Serif" font-size="10.00">vector</text>
</a>
</g>
</g>
<!-- Node1&#45;&gt;Node8 -->
<g id="edge19_Node000001_Node000008" class="edge">
<title>Node1&#45;&gt;Node8</title>
<g id="a_edge19_Node000001_Node000008"><a xlink:title=" ">
<path fill="none" stroke="#63b8ff" d="M234.88,-335.55C215.7,-326.7 195.51,-314.95 180,-300 166.88,-287.36 157.53,-268.71 151.82,-254.62"/>
<polygon fill="#63b8ff" stroke="#63b8ff" points="155.19,-253.65 148.4,-245.51 148.64,-256.11 155.19,-253.65"/>
</a>
</g>
</g>
<!-- Node9 -->
<g id="Node000009" class="node">
<title>Node9</title>
<g id="a_Node000009"><a xlink:href="_facet_8h.html" target="_top" xlink:title=" ">
<polygon fill="white" stroke="#666666" points="347.5,-244 298.5,-244 298.5,-224 347.5,-224 347.5,-244"/>
<text text-anchor="middle" x="323" y="-230.5" font-family="Helvetica,sans-Serif" font-size="10.00">Facet.h</text>
</a>
</g>
</g>
<!-- Node1&#45;&gt;Node9 -->
<g id="edge17_Node000001_Node000009" class="edge">
<title>Node1&#45;&gt;Node9</title>
<g id="a_edge17_Node000001_Node000009"><a xlink:title=" ">
<path fill="none" stroke="#63b8ff" d="M300.7,-335.75C305.7,-313.16 313.55,-277.69 318.48,-255.42"/>
<polygon fill="#63b8ff" stroke="#63b8ff" points="321.87,-256.3 320.61,-245.78 315.04,-254.79 321.87,-256.3"/>
</a>
</g>
</g>
<!-- Node10 -->
<g id="Node000010" class="node">
<title>Node10</title>
<g id="a_Node000010"><a xlink:href="_gcode_8h.html" target="_top" xlink:title=" ">
<polygon fill="white" stroke="#666666" points="295.38,-300 242.62,-300 242.62,-280 295.38,-280 295.38,-300"/>
<text text-anchor="middle" x="269" y="-286.5" font-family="Helvetica,sans-Serif" font-size="10.00">Gcode.h</text>
</a>
</g>
</g>
<!-- Node1&#45;&gt;Node10 -->
<g id="edge20_Node000001_Node000010" class="edge">
<title>Node1&#45;&gt;Node10</title>
<g id="a_edge20_Node000001_Node000010"><a xlink:title=" ">
<path fill="none" stroke="#63b8ff" d="M287.31,-335.75C284.04,-327.75 280.33,-318.69 277.11,-310.83"/>
<polygon fill="#63b8ff" stroke="#63b8ff" points="280.45,-309.75 273.43,-301.82 273.97,-312.4 280.45,-309.75"/>
</a>
</g>
</g>
<!-- Node11 -->
<g id="Node000011" class="node">
<title>Node11</title>
<g id="a_Node000011"><a xlink:title=" ">
<polygon fill="#e0e0e0" stroke="#999999" points="536.12,-300 487.88,-300 487.88,-280 536.12,-280 536.12,-300"/>
<text text-anchor="middle" x="512" y="-286.5" font-family="Helvetica,sans-Serif" font-size="10.00">fstream</text>
</a>
</g>
</g>
<!-- Node1&#45;&gt;Node11 -->
<g id="edge26_Node000001_Node000011" class="edge">
<title>Node1&#45;&gt;Node11</title>
<g id="a_edge26_Node000001_Node000011"><a xlink:title=" ">
<path fill="none" stroke="#63b8ff" d="M361.69,-336.93C399.6,-325.34 445.78,-311.23 476.87,-301.73"/>
<polygon fill="#63b8ff" stroke="#63b8ff" points="477.61,-305.17 486.15,-298.9 475.56,-298.47 477.61,-305.17"/>
</a>
</g>
</g>
<!-- Node12 -->
<g id="Node000012" class="node">
<title>Node12</title>
<g id="a_Node000012"><a xlink:title=" ">
<polygon fill="#e0e0e0" stroke="#999999" points="597.5,-300 554.5,-300 554.5,-280 597.5,-280 597.5,-300"/>
<text text-anchor="middle" x="576" y="-286.5" font-family="Helvetica,sans-Serif" font-size="10.00">cmath</text>
</a>
</g>
</g>
<!-- Node1&#45;&gt;Node12 -->
<g id="edge27_Node000001_Node000012" class="edge">
<title>Node1&#45;&gt;Node12</title>
<g id="a_edge27_Node000001_Node000012"><a xlink:title=" ">
<path fill="none" stroke="#63b8ff" d="M361.78,-343.02C409.57,-332.62 476.02,-317.65 543.24,-300.35"/>
<polygon fill="#63b8ff" stroke="#63b8ff" points="543.76,-303.83 552.56,-297.93 542,-297.05 543.76,-303.83"/>
</a>
</g>
</g>
<!-- Node2&#45;&gt;Node3 -->
<g id="edge2_Node000002_Node000003" class="edge">
<title>Node2&#45;&gt;Node3</title>
<g id="a_edge2_Node000002_Node000003"><a xlink:title=" ">
<path fill="none" stroke="#63b8ff" d="M285.68,-55.59C276.36,-47.85 262.92,-36.69 251.82,-27.47"/>
<polygon fill="#63b8ff" stroke="#63b8ff" points="254.29,-24.96 244.36,-21.27 249.81,-30.35 254.29,-24.96"/>
</a>
</g>
</g>
<!-- Node4&#45;&gt;Node2 -->
<g id="edge4_Node000004_Node000002" class="edge">
<title>Node4&#45;&gt;Node2</title>
<g id="a_edge4_Node000004_Node000002"><a xlink:title=" ">
<path fill="none" stroke="#63b8ff" d="M349.85,-111.59C340.67,-103.85 327.45,-92.69 316.52,-83.47"/>
<polygon fill="#63b8ff" stroke="#63b8ff" points="319.08,-81.05 309.18,-77.27 314.56,-86.4 319.08,-81.05"/>
</a>
</g>
</g>
<!-- Node5&#45;&gt;Node2 -->
<g id="edge6_Node000005_Node000002" class="edge">
<title>Node5&#45;&gt;Node2</title>
<g id="a_edge6_Node000005_Node000002"><a xlink:title=" ">
<path fill="none" stroke="#63b8ff" d="M404.32,-167.57C405.69,-153.92 406.2,-128.48 394,-112 379.84,-92.86 355.52,-81.6 334.78,-75.14"/>
<polygon fill="#63b8ff" stroke="#63b8ff" points="335.74,-71.77 325.17,-72.43 333.84,-78.51 335.74,-71.77"/>
</a>
</g>
</g>
<!-- Node5&#45;&gt;Node3 -->
<g id="edge8_Node000005_Node000003" class="edge">
<title>Node5&#45;&gt;Node3</title>
<g id="a_edge8_Node000005_Node000003"><a xlink:title=" ">
<path fill="none" stroke="#63b8ff" d="M407.85,-167.59C413.92,-154.39 422.44,-130 413,-112 384.56,-57.76 313.94,-31 269.79,-19.16"/>
<polygon fill="#63b8ff" stroke="#63b8ff" points="270.93,-15.83 260.38,-16.76 269.21,-22.62 270.93,-15.83"/>
</a>
</g>
</g>
<!-- Node5&#45;&gt;Node4 -->
<g id="edge7_Node000005_Node000004" class="edge">
<title>Node5&#45;&gt;Node4</title>
<g id="a_edge7_Node000005_Node000004"><a xlink:title=" ">
<path fill="none" stroke="#63b8ff" d="M395.68,-167.59C390.02,-160.32 382.01,-150.02 375.11,-141.15"/>
<polygon fill="#63b8ff" stroke="#63b8ff" points="378.06,-139.24 369.16,-133.49 372.54,-143.54 378.06,-139.24"/>
</a>
</g>
</g>
<!-- Node6&#45;&gt;Node3 -->
<g id="edge11_Node000006_Node000003" class="edge">
<title>Node6&#45;&gt;Node3</title>
<g id="a_edge11_Node000006_Node000003"><a xlink:title=" ">
<path fill="none" stroke="#63b8ff" d="M87.82,-279.74C78.34,-271.33 65.04,-258.12 57,-244 42.11,-217.85 38,-209.1 38,-179 38,-179 38,-179 38,-121 38,-50.15 137.12,-24.39 193.66,-15.45"/>
<polygon fill="#63b8ff" stroke="#63b8ff" points="194.14,-18.92 203.53,-14.01 193.13,-11.99 194.14,-18.92"/>
</a>
</g>
</g>
<!-- Node7 -->
<g id="Node000007" class="node">
<title>Node7</title>
<g id="a_Node000007"><a xlink:title=" ">
<polygon fill="#e0e0e0" stroke="#999999" points="106,-244 66,-244 66,-224 106,-224 106,-244"/>
<text text-anchor="middle" x="86" y="-230.5" font-family="Helvetica,sans-Serif" font-size="10.00">string</text>
</a>
</g>
</g>
<!-- Node6&#45;&gt;Node7 -->
<g id="edge10_Node000006_Node000007" class="edge">
<title>Node6&#45;&gt;Node7</title>
<g id="a_edge10_Node000006_Node000007"><a xlink:title=" ">
<path fill="none" stroke="#63b8ff" d="M96.74,-279.59C95.13,-272.93 92.92,-263.75 90.92,-255.44"/>
<polygon fill="#63b8ff" stroke="#63b8ff" points="94.34,-254.67 88.59,-245.77 87.53,-256.31 94.34,-254.67"/>
</a>
</g>
</g>
<!-- Node6&#45;&gt;Node8 -->
<g id="edge12_Node000006_Node000008" class="edge">
<title>Node6&#45;&gt;Node8</title>
<g id="a_edge12_Node000006_Node000008"><a xlink:title=" ">
<path fill="none" stroke="#63b8ff" d="M107.01,-279.59C113.28,-272.24 122.17,-261.8 129.78,-252.87"/>
<polygon fill="#63b8ff" stroke="#63b8ff" points="132.28,-255.33 136.1,-245.45 126.95,-250.79 132.28,-255.33"/>
</a>
</g>
</g>
<!-- Node6&#45;&gt;Node9 -->
<g id="edge13_Node000006_Node000009" class="edge">
<title>Node6&#45;&gt;Node9</title>
<g id="a_edge13_Node000006_Node000009"><a xlink:title=" ">
<path fill="none" stroke="#63b8ff" d="M127.83,-282.05C168.5,-272.25 242.71,-254.36 286.97,-243.69"/>
<polygon fill="#63b8ff" stroke="#63b8ff" points="287.7,-247.11 296.6,-241.36 286.06,-240.3 287.7,-247.11"/>
</a>
</g>
</g>
<!-- Node9&#45;&gt;Node2 -->
<g id="edge14_Node000009_Node000002" class="edge">
<title>Node9&#45;&gt;Node2</title>
<g id="a_edge14_Node000009_Node000002"><a xlink:title=" ">
<path fill="none" stroke="#63b8ff" d="M321.53,-223.6C317.43,-197.46 305.85,-123.48 300.19,-87.36"/>
<polygon fill="#63b8ff" stroke="#63b8ff" points="303.7,-87.13 298.69,-77.79 296.78,-88.21 303.7,-87.13"/>
</a>
</g>
</g>
<!-- Node9&#45;&gt;Node4 -->
<g id="edge15_Node000009_Node000004" class="edge">
<title>Node9&#45;&gt;Node4</title>
<g id="a_edge15_Node000009_Node000004"><a xlink:title=" ">
<path fill="none" stroke="#63b8ff" d="M326.24,-223.62C332.38,-205.84 345.84,-166.88 354.09,-143"/>
<polygon fill="#63b8ff" stroke="#63b8ff" points="357.32,-144.38 357.27,-133.79 350.7,-142.09 357.32,-144.38"/>
</a>
</g>
</g>
<!-- Node9&#45;&gt;Node5 -->
<g id="edge16_Node000009_Node000005" class="edge">
<title>Node9&#45;&gt;Node5</title>
<g id="a_edge16_Node000009_Node000005"><a xlink:title=" ">
<path fill="none" stroke="#63b8ff" d="M336.93,-223.59C348.68,-215.67 365.73,-204.16 379.57,-194.82"/>
<polygon fill="#63b8ff" stroke="#63b8ff" points="381.37,-197.82 387.7,-189.33 377.46,-192.02 381.37,-197.82"/>
</a>
</g>
</g>
<!-- Node10&#45;&gt;Node2 -->
<g id="edge24_Node000010_Node000002" class="edge">
<title>Node10&#45;&gt;Node2</title>
<g id="a_edge24_Node000010_Node000002"><a xlink:title=" ">
<path fill="none" stroke="#63b8ff" d="M270.17,-279.74C274.33,-246.74 288.51,-134.31 294.4,-87.61"/>
<polygon fill="#63b8ff" stroke="#63b8ff" points="297.86,-88.16 295.64,-77.8 290.91,-87.28 297.86,-88.16"/>
</a>
</g>
</g>
<!-- Node10&#45;&gt;Node3 -->
<g id="edge21_Node000010_Node000003" class="edge">
<title>Node10&#45;&gt;Node3</title>
<g id="a_edge21_Node000010_Node000003"><a xlink:title=" ">
<path fill="none" stroke="#63b8ff" d="M263.54,-279.65C253.25,-261.1 232,-218.09 232,-179 232,-179 232,-179 232,-121 232,-89.87 232,-53.78 232,-31.68"/>
<polygon fill="#63b8ff" stroke="#63b8ff" points="235.5,-31.93 232,-21.93 228.5,-31.93 235.5,-31.93"/>
</a>
</g>
</g>
<!-- Node10&#45;&gt;Node5 -->
<g id="edge23_Node000010_Node000005" class="edge">
<title>Node10&#45;&gt;Node5</title>
<g id="a_edge23_Node000010_Node000005"><a xlink:title=" ">
<path fill="none" stroke="#63b8ff" d="M294.51,-279.55C312.94,-271.88 337.7,-259.76 356,-244 371.13,-230.96 384.06,-212.13 392.51,-198.09"/>
<polygon fill="#63b8ff" stroke="#63b8ff" points="395.34,-200.18 397.3,-189.77 389.27,-196.69 395.34,-200.18"/>
</a>
</g>
</g>
<!-- Node10&#45;&gt;Node8 -->
<g id="edge22_Node000010_Node000008" class="edge">
<title>Node10&#45;&gt;Node8</title>
<g id="a_edge22_Node000010_Node000008"><a xlink:title=" ">
<path fill="none" stroke="#63b8ff" d="M247.4,-279.59C227.72,-271.02 198.43,-258.27 176.21,-248.59"/>
<polygon fill="#63b8ff" stroke="#63b8ff" points="177.89,-245.51 167.33,-244.72 175.1,-251.92 177.89,-245.51"/>
</a>
</g>
</g>
<!-- Node10&#45;&gt;Node9 -->
<g id="edge25_Node000010_Node000009" class="edge">
<title>Node10&#45;&gt;Node9</title>
<g id="a_edge25_Node000010_Node000009"><a xlink:title=" ">
<path fill="none" stroke="#63b8ff" d="M278.41,-279.59C285.92,-272.08 296.65,-261.35 305.7,-252.3"/>
<polygon fill="#63b8ff" stroke="#63b8ff" points="308.04,-254.91 312.63,-245.37 303.09,-249.96 308.04,-254.91"/>
</a>
</g>
</g>
</g>
</svg>
